<svg width="27" height="23" viewBox="0 0 27 23" fill="none" xmlns="http://www.w3.org/2000/svg">
<path d="M23.1679 1.92123H20.3045V4.77527C20.3045 5.28826 19.8848 5.70796 19.3718 5.70796C18.8495 5.70796 18.4392 5.28826 18.4392 4.77527V1.92123H7.67606V4.77527C7.67606 5.28826 7.26567 5.70796 6.74337 5.70796C6.23037 5.70796 5.81068 5.28826 5.81068 4.77527V1.92123H2.9473C1.32442 1.92123 0 3.24565 0 4.86854V20.0527C0 21.6756 1.32442 23 2.9473 23H23.168C24.7909 23 26.1153 21.6756 26.1153 20.0527V4.86854C26.1153 3.24565 24.7908 1.92123 23.1679 1.92123Z" fill="white"/>
<path d="M7.67593 0.93269C7.67593 0.419696 7.26554 0 6.74324 0C6.23024 0 5.81055 0.419696 5.81055 0.93269V1.92134H7.67593V0.93269Z" fill="white"/>
<path d="M20.3048 0.93269C20.3048 0.419696 19.8851 0 19.3721 0C18.8498 0 18.4395 0.419696 18.4395 0.93269V1.92134H20.3048V0.93269Z" fill="white"/>
</svg>
