<svg width="36" height="36" viewBox="0 0 36 36" fill="none" xmlns="http://www.w3.org/2000/svg">
<path fill-rule="evenodd" clip-rule="evenodd" d="M35.25 18C35.25 27.5269 27.5269 35.25 18 35.25C8.47309 35.25 0.75 27.5269 0.75 18C0.75 8.47309 8.47309 0.75 18 0.75C27.5269 0.75 35.25 8.47309 35.25 18ZM18 28.5833C17.4477 28.5833 17 28.1356 17 27.5833V19H8.41667C7.86438 19 7.41667 18.5523 7.41667 18C7.41667 17.4477 7.86438 17 8.41667 17H17V8.41667C17 7.86438 17.4477 7.41667 18 7.41667C18.5523 7.41667 19 7.86438 19 8.41667V17H27.5833C28.1356 17 28.5833 17.4477 28.5833 18C28.5833 18.5523 28.1356 19 27.5833 19H19V27.5833C19 28.1356 18.5523 28.5833 18 28.5833Z" fill="white"/>
</svg>
