<svg width="20" height="19" viewBox="0 0 20 19" fill="none" xmlns="http://www.w3.org/2000/svg">
<path d="M4.74365 17.4622C3.91523 17.4622 3.24365 16.7906 3.24365 15.9622L3.24365 4.96216C3.24365 4.13373 3.91523 3.46216 4.74365 3.46216L17.7437 3.46216C18.5721 3.46216 19.2437 4.13373 19.2437 4.96216V15.9622C19.2437 16.7906 18.5721 17.4622 17.7437 17.4622H4.74365Z" stroke="#828282" stroke-width="1.5" stroke-linecap="round"/>
<path d="M0.743652 15L0.743652 4.5C0.743652 2.567 2.31066 1 4.24365 1L16.7437 1" stroke="#828282" stroke-width="1.5" stroke-linecap="round"/>
<path d="M3.24414 13.4621L8.56364 9.02914C8.95207 8.70545 9.521 8.72263 9.88919 9.06917L17.7441 16.4621" stroke="#828282" stroke-width="1.5" stroke-linecap="round"/>
<path d="M14.2441 12.9621L16.5426 11.0467C16.9399 10.7156 17.5242 10.7421 17.8899 11.1078L19.2441 12.4621" stroke="#828282" stroke-width="1.5" stroke-linecap="round"/>
<path d="M16.2441 7.49707C16.2441 8.3255 15.5726 8.99707 14.7441 8.99707C13.9157 8.99707 13.2441 8.3255 13.2441 7.49707C13.2441 6.66864 13.9157 5.99707 14.7441 5.99707C15.5726 5.99707 16.2441 6.66864 16.2441 7.49707Z" stroke="#828282" stroke-width="1.5" stroke-linecap="round"/>
</svg>
