<svg width="85" height="85" viewBox="0 0 85 85" fill="none" xmlns="http://www.w3.org/2000/svg">
<path d="M48.1857 5.60228C44.5452 4.09433 40.4548 4.09433 36.8143 5.60227L20.4298 12.389C16.7893 13.8969 13.8969 16.7893 12.389 20.4298L5.60227 36.8143C4.09433 40.4548 4.09433 44.5452 5.60227 48.1857L12.389 64.5702C13.8969 68.2107 16.7893 71.1031 20.4298 72.611L36.8143 79.3977C40.4548 80.9057 44.5452 80.9057 48.1857 79.3977L64.5702 72.611C68.2107 71.1031 71.1031 68.2107 72.611 64.5702L79.3977 48.1857C80.9057 44.5452 80.9057 40.4548 79.3977 36.8143L72.611 20.4298C71.1031 16.7893 68.2107 13.8969 64.5702 12.389L48.1857 5.60228Z" fill="white" stroke="#24262B" stroke-width="6"/>
<path d="M63.6561 26.6366V26.6342C63.1078 23.4149 60.5766 20.8836 57.36 20.3376C46.9072 18.5554 36.0997 18.5529 25.6401 20.3376C22.4211 20.886 19.8899 23.4173 19.3414 26.6367C18.4504 31.8658 18 37.2024 18 42.4981C18 47.7938 18.4504 53.1327 19.3414 58.3595C19.8898 61.5762 22.4209 64.1076 25.6401 64.656C30.8688 65.5496 36.205 66 41.5003 66C46.7957 66 52.1342 65.5495 57.3625 64.656C60.5791 64.1076 63.1078 61.5788 63.6561 58.3595C64.5496 53.1328 65 47.7938 65 42.4981C65 37.2024 64.5496 31.8659 63.6561 26.6366ZM44.1117 55.5536C44.1117 56.9956 42.9416 58.1658 41.4997 58.1658C40.0579 58.1658 38.8878 56.9956 38.8878 55.5536V52.9415C38.8878 51.4996 40.0554 50.3294 41.4997 50.3294C42.9416 50.3294 44.1117 51.4971 44.1117 52.9415V55.5536ZM44.1117 42.498C44.1117 43.9399 42.9416 45.1101 41.4997 45.1101C40.0579 45.1101 38.8878 43.9399 38.8878 42.498V29.4424C38.8878 28.0004 40.0579 26.8303 41.4997 26.8303C42.9416 26.8303 44.1117 28.0004 44.1117 29.4424V42.498Z" fill="#E62720"/>
</svg>
