<svg width="17" height="22" viewBox="0 0 17 22" fill="none" xmlns="http://www.w3.org/2000/svg">
    <path
        d="M12.1617 0.921143C12.2087 0.921143 12.2556 0.921143 12.3051 0.921143C12.4202 2.34269 11.8776 3.40487 11.2182 4.17406C10.5711 4.93795 9.6851 5.67882 8.25204 5.5664C8.15644 4.16521 8.69993 3.18181 9.35848 2.41439C9.96923 1.69919 11.0889 1.06277 12.1617 0.921143Z"
        fill="#ffffff" />
    <path
        d="M16.4999 15.7175C16.4999 15.7316 16.4999 15.744 16.4999 15.7573C16.0972 16.977 15.5227 18.0224 14.8217 18.9925C14.1817 19.8732 13.3975 21.0584 11.9972 21.0584C10.7872 21.0584 9.98346 20.2804 8.74337 20.2592C7.43158 20.2379 6.71018 20.9097 5.5108 21.0788C5.37361 21.0788 5.23641 21.0788 5.10187 21.0788C4.22114 20.9513 3.51037 20.2538 2.99256 19.6254C1.46567 17.7683 0.285771 15.3696 0.0662537 12.2999C0.0662537 11.9989 0.0662537 11.6989 0.0662537 11.3979C0.159194 9.20099 1.22668 7.41476 2.64558 6.54909C3.39441 6.08881 4.42384 5.69669 5.57011 5.87195C6.06137 5.94807 6.56325 6.11625 7.00316 6.28266C7.42007 6.44287 7.94142 6.727 8.43534 6.71196C8.76992 6.70222 9.10274 6.52784 9.43998 6.40481C10.4278 6.04809 11.3962 5.63915 12.6725 5.83123C14.2065 6.06314 15.2952 6.74471 15.968 7.79626C14.6703 8.62211 13.6444 9.86663 13.8197 11.9919C13.9755 13.9224 15.0978 15.0518 16.4999 15.7175Z"
        fill="#ffffff" />
</svg>