<svg width="8" height="12" viewBox="0 0 8 12" fill="none" xmlns="http://www.w3.org/2000/svg">
<path d="M7.2 1.14435V10.8557C7.19997 11.0849 7.12779 11.3088 6.9928 11.4984C6.85781 11.688 6.66623 11.8346 6.44287 11.9192C6.21952 12.0038 5.97467 12.0225 5.74005 11.9728C5.50544 11.9232 5.29185 11.8075 5.12697 11.6408L0.326884 6.78511C0.116935 6.57273 0 6.29188 0 6C0 5.70812 0.116935 5.42727 0.326884 5.21489L5.12697 0.359241C5.29185 0.192499 5.50544 0.0768145 5.74005 0.0271699C5.97467 -0.0224747 6.21952 -0.00379205 6.44287 0.0807984C6.66623 0.165389 6.85781 0.31199 6.9928 0.501614C7.12779 0.691239 7.19997 0.91515 7.2 1.14435Z" fill="#111116"/>
</svg>
