<svg width="22" height="22" viewBox="0 0 22 22" fill="none" xmlns="http://www.w3.org/2000/svg">
<path d="M2.15184 19.8285C3.6481 20.7366 5.57501 20.7958 6.94609 19.9775C7.15425 19.8534 7.3691 19.9469 7.51136 20.01L7.5591 20.03C7.90763 20.1742 8.2552 20.326 8.60275 20.4769C9.63972 20.9285 10.712 21.3964 11.8167 21.6609C15.0536 22.4362 17.6708 21.7974 20.6051 20.6001C20.84 20.5046 21.0472 20.3451 21.2048 20.1389C21.3967 19.8887 21.5036 19.5803 21.5055 19.2709C21.5218 17.0681 21.3862 15.4114 21.0663 13.9008C20.3377 10.4585 18.4957 7.30082 16.8717 4.51467C16.8268 4.43732 16.7714 4.36953 16.7036 4.31128C15.0928 2.89811 13.1937 1.48504 11.0585 0.109808C10.9869 0.0630196 10.8875 0 10.8178 0C10.7472 0.000954792 10.6584 0.0620664 10.5658 0.130816C10.0845 0.486968 9.6071 0.858423 9.13923 1.23843C8.80599 1.50866 8.72483 1.97081 8.90339 2.36135C8.98359 2.53609 9.04088 2.72039 9.08099 2.90849C9.12014 3.09373 9.14305 3.28375 9.14401 3.47376C9.14401 3.56065 9.13828 3.64659 9.12586 3.73253C9.12014 3.77549 9.1125 3.81942 9.10295 3.86143C9.09626 3.89485 9.07621 3.93782 9.0829 3.97219C9.08672 3.98938 9.09817 4.00466 9.11154 4.01516C9.14592 4.04285 9.1908 4.05335 9.23186 4.06577C9.36744 4.10683 9.50876 4.13165 9.64816 4.15361C9.79808 4.17749 9.9499 4.19754 10.1008 4.21377C10.1972 4.22427 10.2956 4.23573 10.393 4.23764C10.5123 4.24051 10.689 4.24146 10.7291 4.09728C10.7501 4.02089 10.71 3.94354 10.6412 3.90822C10.6135 3.89389 10.3662 3.76212 10.3223 3.71629C10.2306 3.61985 10.2344 3.46708 10.3309 3.37541C10.4264 3.28375 10.5791 3.28757 10.6718 3.38401C11.8357 4.60813 11.8663 5.03876 13.2814 4.91559C13.2948 4.91463 13.3072 4.91845 13.3206 4.9194C13.3368 4.92036 13.354 4.91941 13.3693 4.92418C13.3912 4.93086 13.4094 4.94232 13.4285 4.95473C13.4361 4.95951 13.4447 4.96046 13.4514 4.96619C15.3449 6.48535 14.2124 8.66436 14.2067 10.6351C14.2029 11.9021 14.9343 13.8558 15.6265 14.8747C15.701 14.9845 15.6733 15.1344 15.5626 15.2098C15.5215 15.2385 15.4738 15.2518 15.427 15.2518C15.3506 15.2518 15.2742 15.2155 15.2274 15.1468C14.3002 13.7871 12.9071 12.8886 11.5006 12.7425C9.93372 12.5783 8.37911 13.4147 7.81298 14.7276C7.76047 14.8498 7.61724 14.9062 7.49597 14.8537C7.37374 14.8011 7.31741 14.6589 7.36993 14.5366C7.70508 13.7594 8.34102 13.1321 9.1192 12.7301C9.09533 12.7196 9.07241 12.7081 9.05236 12.689C8.19777 11.9013 7.04143 11.4276 5.88024 11.3904C3.31164 11.3035 0.197929 12.3414 0.0106869 15.5374C-0.13636 18.0485 1.2902 19.3023 2.15337 19.8256L2.15184 19.8285Z" fill="white"/>
</svg>
