<svg width="126" height="126" viewBox="0 0 126 126" fill="none" xmlns="http://www.w3.org/2000/svg">
<path d="M48 117.34C57.282 122.699 68.718 122.699 78 117.34L102.56 103.16C111.842 97.8013 117.56 87.8975 117.56 77.1795V48.8205C117.56 38.1025 111.842 28.1987 102.56 22.8397L78 8.66026C68.718 3.30127 57.282 3.30127 48 8.66026L23.4404 22.8397C14.1584 28.1987 8.4404 38.1025 8.4404 48.8205V77.1795C8.4404 87.8975 14.1584 97.8013 23.4404 103.16L48 117.34Z" fill="#FF3826"/>
<path d="M47.573 77.2823C47.573 81.2637 50.8102 84.5007 54.7914 84.5007H70.0887C74.0701 84.5007 77.307 81.2635 77.307 77.2823V56.4181H81.0905V52.0129H44V56.4181H47.5727L47.573 77.2823ZM64.6429 61.9244H67.9467V74.8926H64.6429V61.9244ZM56.9339 61.9244H60.2377V74.8926H56.9339V61.9244Z" fill="white"/>
<path d="M62.7156 41C58.0029 41 54.1807 44.8222 54.1807 49.5349H71.2505C71.2505 44.8222 67.4304 41 62.7156 41Z" fill="white"/>
</svg>
