<svg width="45" height="45" viewBox="0 0 45 45" fill="none" xmlns="http://www.w3.org/2000/svg">
<circle cx="22.5" cy="22.5" r="22" stroke="#C7EDBA"/>
<path d="M22.9911 13C17.4832 13 13 17.4863 13 22.9974C13 28.5115 17.4832 32.9947 22.9911 32.9947C28.5022 32.9947 32.9854 28.5115 32.9854 22.9974C32.9854 17.4863 28.5022 13 22.9911 13ZM24.6188 20.9823C23.7216 21.8795 22.2669 21.8795 21.3697 20.9823L17.7964 17.4089C17.701 17.3136 17.7035 17.1553 17.8049 17.0665C18.0343 16.8654 18.2756 16.6778 18.5271 16.5039L18.9863 17.2994C19.051 17.4116 19.1946 17.4497 19.3063 17.3851C19.4183 17.3204 19.4567 17.177 19.392 17.0651L18.921 16.249C19.4252 15.9428 19.9659 15.6918 20.5355 15.504L20.7979 16.4829C20.8309 16.606 20.9572 16.682 21.085 16.6486C21.2101 16.615 21.2842 16.4866 21.2507 16.3615L20.985 15.3706C21.5541 15.2203 22.1479 15.1326 22.7591 15.1145V16.163C22.7591 16.2924 22.864 16.3974 22.9934 16.3974C23.1227 16.3974 23.2277 16.2924 23.2277 16.163V15.1145C23.8385 15.1324 24.4325 15.2201 25.0018 15.3705L24.7364 16.3618C24.7028 16.4867 24.7773 16.6152 24.902 16.6488C25.0298 16.6821 25.1561 16.6062 25.1891 16.4829L25.4513 15.5039C26.0208 15.6916 26.5618 15.9424 27.0662 16.2486L26.5947 17.0654C26.53 17.1773 26.5685 17.3207 26.6804 17.3854C26.7921 17.45 26.9357 17.4119 27.0005 17.2997L27.4602 16.5033C27.7121 16.6774 27.9539 16.8652 28.1837 17.0665C28.285 17.1553 28.2875 17.3136 28.1921 17.409L24.6188 20.9823Z" fill="#C7EDBA"/>
<path d="M24.7128 17.627L23.66 19.3234C23.8162 19.4859 23.9099 19.7077 23.9099 19.9483C23.9099 20.4544 23.4975 20.8637 22.9945 20.8637C22.4884 20.8637 22.0791 20.4544 22.0791 19.9483C22.0791 19.4453 22.4884 19.0329 22.9945 19.0329C23.0851 19.0329 23.1757 19.0454 23.26 19.0735L24.3129 17.3771C24.3816 17.2677 24.5253 17.2334 24.6378 17.3021C24.7472 17.3708 24.7815 17.5145 24.7128 17.627Z" fill="#C7EDBA"/>
</svg>
