<svg width="45" height="45" viewBox="0 0 45 45" fill="none" xmlns="http://www.w3.org/2000/svg">
<circle cx="22.5" cy="22.5" r="22" stroke="#D6BCF6"/>
<path d="M28.3138 13H15.5367C15.507 12.9997 15.4776 13.0061 15.4507 13.0187C15.4238 13.0314 15.4002 13.0501 15.3815 13.0732C15.3621 13.0948 15.3478 13.1205 15.3397 13.1484C15.3316 13.1763 15.3299 13.2056 15.3347 13.2342C15.5714 14.6942 16.043 16.1061 16.7313 17.4152C20.2064 16.8281 23.7554 16.8281 27.2305 17.4152C27.8776 16.0186 28.5363 14.4434 28.5188 13.1962C28.5165 13.1434 28.4939 13.0935 28.4557 13.0569C28.4175 13.0203 28.3667 13 28.3138 13Z" fill="#D6BCF6"/>
<path d="M22.0015 30.2743C24.1828 28.9773 26.5163 27.8003 28.8732 27.8471C28.7317 26.8938 28.4731 25.9615 28.1031 25.0715C26.0629 25.4436 23.9935 25.6327 21.9195 25.6366C19.891 25.6374 17.8668 25.4482 15.8735 25.0715C15.5207 25.9296 15.2682 26.8257 15.1211 27.7417C17.5739 28.0655 19.9241 28.9305 22.0015 30.2743Z" fill="#D6BCF6"/>
<path d="M15.2847 31.7381H21.8606V30.5319C19.8194 29.2058 17.5076 28.3525 15.0944 28.0344C14.9218 29.2699 14.9864 30.5269 15.2847 31.7381Z" fill="#D6BCF6"/>
<path d="M28.7175 31.7383C29.0062 30.5626 29.0757 29.3438 28.9225 28.1429C26.6271 28.0815 24.317 29.2497 22.1592 30.535V31.7383H28.7175Z" fill="#D6BCF6"/>
<path d="M28.0032 24.7876C27.078 22.3692 26.2845 19.6668 27.116 17.6847C23.7235 17.1214 20.2612 17.1214 16.8686 17.6847C17.5654 19.5731 17.2931 21.8393 16.0107 24.7788C19.9741 25.5149 24.0388 25.5178 28.0032 24.7876ZM22.0011 22.5595C22.1124 22.5595 22.2192 22.6036 22.2982 22.682C22.3772 22.7604 22.4219 22.8669 22.4227 22.9782C22.4227 23.09 22.3783 23.1973 22.2992 23.2763C22.2202 23.3554 22.1129 23.3998 22.0011 23.3998C21.8893 23.3998 21.7821 23.3554 21.703 23.2763C21.6239 23.1973 21.5795 23.09 21.5795 22.9782C21.5803 22.8669 21.625 22.7604 21.704 22.682C21.783 22.6036 21.8898 22.5595 22.0011 22.5595Z" fill="#D6BCF6"/>
</svg>
