<svg width="13" height="12" viewBox="0 0 13 12" fill="none" xmlns="http://www.w3.org/2000/svg">
<path d="M0.863539 12V0.354H7.57754C9.13754 0.354 10.3195 0.618 11.1235 1.146C11.9395 1.662 12.3475 2.436 12.3475 3.468C12.3475 4.128 12.1855 4.65 11.8615 5.034C11.5375 5.406 11.0755 5.682 10.4755 5.862C9.88754 6.042 9.19154 6.156 8.38754 6.204L8.45954 6.078C9.04754 6.09 9.59954 6.132 10.1155 6.204C10.6435 6.276 11.1055 6.408 11.5015 6.6C11.8975 6.792 12.2095 7.062 12.4375 7.41C12.6655 7.746 12.7795 8.19 12.7795 8.742C12.7795 9.462 12.5875 10.062 12.2035 10.542C11.8195 11.01 11.2855 11.364 10.6015 11.604C9.91754 11.844 9.12554 11.976 8.22554 12H0.863539ZM3.25754 10.02H7.97354C8.72954 10.02 9.31154 9.9 9.71954 9.66C10.1275 9.408 10.3315 9.012 10.3315 8.472C10.3315 8.076 10.2115 7.788 9.97154 7.608C9.73154 7.428 9.41354 7.32 9.01754 7.284C8.62154 7.236 8.19554 7.212 7.73954 7.212H3.25754V10.02ZM3.25754 5.286H7.48754C8.24354 5.286 8.82554 5.178 9.23354 4.962C9.64154 4.734 9.84554 4.35 9.84554 3.81C9.84554 3.27 9.64154 2.892 9.23354 2.676C8.82554 2.448 8.28554 2.334 7.61354 2.334H3.25754V5.286Z" fill="#333333"/>
</svg>
