<svg width="45" height="45" viewBox="0 0 45 45" fill="none" xmlns="http://www.w3.org/2000/svg">
<circle cx="22.5" cy="22.5" r="22" stroke="#F6BCDD"/>
<path d="M30.1958 18.7532L28.0677 15.0847C27.7028 14.4538 27.1739 13.9279 26.5367 13.5599C25.9056 13.1949 25.1819 13 24.4488 13C22.9641 13 21.5784 13.798 20.8299 15.0847L18.7018 18.7532C18.6771 18.7996 18.6616 18.8552 18.6616 18.9078V24.992C18.6616 27.0458 19.7658 28.9233 21.4732 29.9533C21.7702 29.9131 22.0486 29.7832 22.2713 29.5729C22.5589 29.3038 22.7259 28.9202 22.7259 28.5274V26.3777C22.5311 26.2076 22.4104 25.9601 22.4104 25.6817V24.8497C22.0578 24.7198 21.8042 24.3795 21.8042 23.9805V19.7986C21.8042 19.2852 22.2218 18.8707 22.7321 18.8707H26.1655C26.6789 18.8707 27.0934 19.2852 27.0934 19.7986V23.9805C27.0934 24.3795 26.8429 24.7198 26.4903 24.8466V25.6817C26.4903 25.9601 26.3665 26.2076 26.1747 26.3777V28.5274C26.1747 29.2636 26.0077 29.9904 25.6922 30.6462C28.3028 30.077 30.236 27.751 30.236 24.992V18.9078C30.236 18.8552 30.2236 18.7996 30.1958 18.7532ZM26.8902 16.7621C26.7431 16.8485 26.5534 16.7974 26.4676 16.6494C26.264 16.2984 25.9689 16.0045 25.6134 15.8003C25.2606 15.5958 24.8586 15.488 24.4496 15.488C23.6216 15.488 22.848 15.9332 22.4309 16.65C22.3735 16.7488 22.2699 16.8038 22.1633 16.8038C22.1104 16.8038 22.0569 16.7902 22.008 16.7618C21.8603 16.676 21.8105 16.4866 21.8962 16.3389C22.4236 15.4324 23.402 14.8694 24.4496 14.8694C24.9673 14.8694 25.4766 15.0059 25.9227 15.2645C26.3713 15.5224 26.7452 15.8943 27.0029 16.3395C27.0887 16.4872 27.0382 16.6766 26.8902 16.7621Z" fill="#F6BCDD"/>
<path d="M18.0429 19.6595V24.0301H17.0561C16.886 24.0301 16.7468 23.894 16.7468 23.7207V19.9688C16.7468 19.7987 16.886 19.6595 17.0561 19.6595H18.0429Z" fill="#F6BCDD"/>
<path d="M32.15 19.9689V23.7208C32.15 23.894 32.0108 24.0301 31.8407 24.0301H30.854V19.6596H31.8407C32.0108 19.6596 32.15 19.7988 32.15 19.9689Z" fill="#F6BCDD"/>
<path d="M25.8719 24.9084V25.6817C25.8719 25.8549 25.7327 25.991 25.5626 25.991H23.3386C23.1685 25.991 23.0293 25.8549 23.0293 25.6817V24.9084H25.8719Z" fill="#F6BCDD"/>
<path d="M25.5568 26.6096V28.5274C25.5568 29.2604 25.3681 29.9811 25.0093 30.6152C24.2546 31.9607 22.8287 32.7958 21.2852 32.7958H14.9567C14.3443 32.7958 13.8494 32.3009 13.8494 31.6916C13.8494 31.0823 14.3443 30.5843 14.9567 30.5843H21.2852C21.811 30.5843 22.3121 30.3863 22.6956 30.0244C23.107 29.6378 23.3452 29.0903 23.3452 28.5274V26.6096H25.5568Z" fill="#F6BCDD"/>
<path d="M26.1663 19.4893H22.7329C22.5628 19.4893 22.4236 19.6254 22.4236 19.7986V23.9805C22.4236 24.1537 22.5628 24.2898 22.7329 24.2898H26.1663C26.3395 24.2898 26.4756 24.1537 26.4756 23.9805V19.7986C26.4756 19.6254 26.3395 19.4893 26.1663 19.4893ZM24.4496 22.4525C24.1403 22.4525 23.8866 22.1988 23.8866 21.8895C23.8866 21.5802 24.1403 21.3266 24.4496 21.3266C24.762 21.3266 25.0125 21.5802 25.0125 21.8895C25.0125 22.1988 24.762 22.4525 24.4496 22.4525Z" fill="#F6BCDD"/>
</svg>
