<svg width="16" height="13" viewBox="0 0 16 13" fill="none" xmlns="http://www.w3.org/2000/svg">
<path d="M2 2.27441C2.27614 2.27441 2.5 2.05056 2.5 1.77441C2.5 1.49827 2.27614 1.27441 2 1.27441C1.72386 1.27441 1.5 1.49827 1.5 1.77441C1.5 2.05056 1.72386 2.27441 2 2.27441Z" stroke="#333333" stroke-width="1.5" stroke-linecap="round" stroke-linejoin="round"/>
<path d="M5.5 1.77441H14.5" stroke="#333333" stroke-width="1.5" stroke-linecap="round" stroke-linejoin="round"/>
<path d="M2 6.77441C2.27614 6.77441 2.5 6.55056 2.5 6.27441C2.5 5.99827 2.27614 5.77441 2 5.77441C1.72386 5.77441 1.5 5.99827 1.5 6.27441C1.5 6.55056 1.72386 6.77441 2 6.77441Z" stroke="#333333" stroke-width="1.5" stroke-linecap="round" stroke-linejoin="round"/>
<path d="M5.5 6.27441H14.5" stroke="#333333" stroke-width="1.5" stroke-linecap="round" stroke-linejoin="round"/>
<path d="M2 11.2744C2.27614 11.2744 2.5 11.0506 2.5 10.7744C2.5 10.4983 2.27614 10.2744 2 10.2744C1.72386 10.2744 1.5 10.4983 1.5 10.7744C1.5 11.0506 1.72386 11.2744 2 11.2744Z" stroke="#333333" stroke-width="1.5" stroke-linecap="round" stroke-linejoin="round"/>
<path d="M5.5 10.7744H14.5" stroke="#333333" stroke-width="1.5" stroke-linecap="round" stroke-linejoin="round"/>
</svg>
