<svg width="49" height="46" viewBox="0 0 49 46" fill="none" xmlns="http://www.w3.org/2000/svg">
<path opacity="0.5" d="M49 8.75V12.25H0V8.75C0 5.85155 2.35155 3.5 5.25 3.5H7V1.75C7 0.783104 7.7831 0 8.75 0C9.7169 0 10.5 0.783104 10.5 1.75V3.5H38.5V1.75C38.5 0.783104 39.2831 0 40.25 0C41.2169 0 42 0.783104 42 1.75V3.5H43.75C46.6484 3.5 49 5.85155 49 8.75ZM0 15.75H49V43.75C49 46.6484 46.6484 49 43.75 49H5.25C2.35155 49 0 46.6484 0 43.75V15.75ZM33.25 24.5C33.25 24.9637 33.4338 25.41 33.7619 25.7381C34.09 26.0662 34.5362 26.25 35 26.25H38.5C39.4669 26.25 40.25 25.4669 40.25 24.5C40.25 23.5331 39.4669 22.75 38.5 22.75H35C34.0331 22.75 33.25 23.5331 33.25 24.5ZM33.25 31.5C33.25 31.9637 33.4338 32.41 33.7619 32.7381C34.09 33.0662 34.5362 33.25 35 33.25H38.5C39.4669 33.25 40.25 32.4669 40.25 31.5C40.25 30.5331 39.4669 29.75 38.5 29.75H35C34.0331 29.75 33.25 30.5331 33.25 31.5ZM33.25 38.5C33.25 38.9637 33.4338 39.41 33.7619 39.7381C34.09 40.0662 34.5362 40.25 35 40.25H38.5C39.4669 40.25 40.25 39.4669 40.25 38.5C40.25 37.5331 39.4669 36.75 38.5 36.75H35C34.0331 36.75 33.25 37.5331 33.25 38.5ZM21 24.5C21 24.9637 21.1837 25.41 21.5119 25.7381C21.84 26.0662 22.2862 26.25 22.75 26.25H26.25C27.2169 26.25 28 25.4669 28 24.5C28 23.5331 27.2169 22.75 26.25 22.75H22.75C21.7831 22.75 21 23.5331 21 24.5ZM21 31.5C21 31.9637 21.1837 32.41 21.5119 32.7381C21.84 33.0662 22.2862 33.25 22.75 33.25H26.25C27.2169 33.25 28 32.4669 28 31.5C28 30.5331 27.2169 29.75 26.25 29.75H22.75C21.7831 29.75 21 30.5331 21 31.5ZM21 38.5C21 38.9637 21.1837 39.41 21.5119 39.7381C21.84 40.0662 22.2862 40.25 22.75 40.25H26.25C27.2169 40.25 28 39.4669 28 38.5C28 37.5331 27.2169 36.75 26.25 36.75H22.75C21.7831 36.75 21 37.5331 21 38.5ZM8.75 24.5C8.75 24.9637 8.93375 25.41 9.26187 25.7381C9.59 26.0662 10.0362 26.25 10.5 26.25H14C14.9669 26.25 15.75 25.4669 15.75 24.5C15.75 23.5331 14.9669 22.75 14 22.75H10.5C9.53308 22.75 8.75 23.5331 8.75 24.5ZM8.75 31.5C8.75 31.9637 8.93375 32.41 9.26187 32.7381C9.59 33.0662 10.0362 33.25 10.5 33.25H14C14.9669 33.25 15.75 32.4669 15.75 31.5C15.75 30.5331 14.9669 29.75 14 29.75H10.5C9.53308 29.75 8.75 30.5331 8.75 31.5ZM8.75 38.5C8.75 38.9637 8.93375 39.41 9.26187 39.7381C9.59 40.0662 10.0362 40.25 10.5 40.25H14C14.9669 40.25 15.75 39.4669 15.75 38.5C15.75 37.5331 14.9669 36.75 14 36.75H10.5C9.53308 36.75 8.75 37.5331 8.75 38.5Z" fill="#FE8D4A"/>
</svg>
