<svg width="20" height="20" viewBox="0 0 20 20" fill="none" xmlns="http://www.w3.org/2000/svg">
<path d="M19.2132 15.1684L16.6909 13.3286C15.9217 12.7683 14.8771 12.8519 14.2072 13.5224L12.8578 14.8717C12.6375 15.094 12.3163 15.1721 12.0418 15.0784C8.48584 13.8384 6.15177 11.5118 4.90613 7.96252C4.80884 7.68604 4.88961 7.36456 5.11082 7.14228L6.45738 5.79571C7.12929 5.12243 7.21005 4.07807 6.65106 3.31026L4.81252 0.787191C4.48209 0.333438 3.97173 0.0487046 3.41273 0.0055325C2.85923 -0.0367201 2.30576 0.164437 1.90923 0.561243C0.243253 2.22835 -0.394698 4.6212 0.243253 6.80544C2.18552 13.4545 6.54006 17.8122 13.1856 19.7566C13.7446 19.9201 14.3164 20 14.8874 20C16.546 20 18.19 19.3258 19.4382 18.0766C19.8348 17.6807 20.0367 17.1324 19.9945 16.573C19.9504 16.0127 19.6659 15.502 19.2134 15.1713L19.2132 15.1684ZM18.6468 17.3076C17.2663 18.69 15.2965 19.2209 13.4937 18.6964C7.23355 16.8649 3.13054 12.7591 1.30121 6.49375C0.776166 4.69529 1.30763 2.72043 2.68906 1.33803C2.84234 1.18464 3.0498 1.09922 3.26457 1.09922C3.28477 1.09922 3.3068 1.09922 3.32883 1.10105C3.56564 1.11942 3.78227 1.24067 3.92361 1.43357L5.76216 3.95664C5.99897 4.28271 5.96501 4.72727 5.67955 5.01295L4.33298 6.35951C3.81346 6.87938 3.63079 7.65004 3.86669 8.32332C5.21233 12.1564 7.84117 14.7768 11.6789 16.1152C12.3499 16.3467 13.1191 16.1657 13.6377 15.6468L14.9861 14.2975C15.2706 14.0118 15.7158 13.976 16.0416 14.2157L18.5639 16.0555C18.7567 16.196 18.8779 16.4137 18.8962 16.6516C18.9146 16.8895 18.8283 17.1228 18.6475 17.3038L18.6468 17.3076Z" fill="url(#paint0_linear_98_1671)"/>
<defs>
<linearGradient id="paint0_linear_98_1671" x1="2.8274" y1="0.834714" x2="9.79928" y2="18.3904" gradientUnits="userSpaceOnUse">
<stop stop-color="#0000"/>
<stop offset="1" stop-color="#000"/>
</linearGradient>
</defs>
</svg>
