<svg width="45" height="45" viewBox="0 0 45 45" fill="none" xmlns="http://www.w3.org/2000/svg">
<circle cx="22.5" cy="22.5" r="22" stroke="#BACBED"/>
<path d="M16.5801 25.1089C16.5801 28.55 19.3657 31.3123 22.7834 31.3123C22.7834 31.3123 22.8068 31.3123 22.877 31.3123C23.2984 31.3123 25.1009 31.242 26.6693 30.0482C28.4717 28.6905 29.6188 26.5369 29.5954 24.1258C29.5486 19.3972 27.114 19.2333 26.7629 19.2333C26.7395 19.2333 26.7161 19.2333 26.7161 19.2333C27.1843 19.5142 27.4886 20.1931 27.4886 20.9656C27.4886 21.9956 26.9268 22.8383 26.2245 22.8383C25.5222 22.8383 24.9604 21.9956 24.9604 20.9656C24.9604 20.4272 25.1009 19.959 25.335 19.6079C25.335 19.6079 25.3584 19.561 25.4052 19.4908C25.9904 18.6949 26.365 17.7352 26.365 16.6818C26.365 14.2004 24.422 12.1639 21.9641 12C22.2918 12.6789 22.5493 13.4513 22.5727 14.2707C22.5961 15.6518 22.3152 16.6583 21.613 17.6181C20.583 19.046 18.7571 20.3335 18.7571 20.3335C17.4462 21.4806 16.5801 23.1894 16.5801 25.1089ZM20.3723 23.9151C20.7468 23.3299 21.1214 22.9319 21.3555 22.6744C21.8002 22.2062 21.5662 21.5508 21.5193 21.3869L21.4959 21.3401C22.0343 21.5742 22.3386 22.1126 22.3386 22.6978C22.3386 23.049 22.1514 23.4001 21.9407 23.6342C21.5193 24.1023 21.215 24.7812 21.2384 25.4132C21.2618 26.49 22.128 27.3562 23.2048 27.3562C24.0241 27.3562 24.7263 26.8646 25.0307 26.1623C25.2413 26.4666 25.3584 26.8178 25.3584 27.2157C25.3584 28.2223 24.5391 29.065 23.5325 29.065H23.3218C21.9173 29.065 20.7 28.1989 20.2084 26.9582C20.2084 26.9582 20.2084 26.9348 20.185 26.9348C20.1382 26.7944 20.0914 26.6305 20.0446 26.49C20.0446 26.49 20.0446 26.49 20.0446 26.4666C19.9978 26.2325 19.9509 25.9751 19.9509 25.7176C19.9275 25.0621 20.068 24.4067 20.3723 23.9151Z" fill="#BACBED"/>
<path d="M26.4589 13.7557C26.7866 14.2941 27.0441 14.8793 27.1611 15.5114C30.0404 16.9861 32.0068 19.9825 32.0068 23.4235C32.0068 28.3394 28.0039 32.3423 23.088 32.3423C18.1722 32.3423 14.1693 28.3394 14.1693 23.4235C14.1693 18.9759 17.4465 15.3007 21.7069 14.6218C21.7069 14.5048 21.7069 14.3877 21.7069 14.2707C21.7069 13.9664 21.6367 13.6153 21.543 13.2875C16.6272 14.0366 12.835 18.297 12.835 23.4235C12.835 29.0885 17.4231 33.7 23.088 33.7C28.7529 33.7 33.3411 29.0885 33.3411 23.447C33.3411 18.9759 30.4618 15.1602 26.4589 13.7557Z" fill="#BACBED"/>
</svg>
