<svg width="44" height="34" viewBox="0 0 44 34" fill="none" xmlns="http://www.w3.org/2000/svg">
<path fill-rule="evenodd" clip-rule="evenodd" d="M5.69476 2.23883H2.75762C1.2451 2.23883 0 3.46447 0 4.95324V31.2856C0 32.7763 1.24324 34 2.75762 34H41.2424C42.7549 34 44 32.7762 44 31.2856V4.95324C44 3.46442 42.7549 2.23883 41.2424 2.23883H39.6134C39.4683 1.59028 38.882 1.10717 38.1811 1.10717H34.6577C33.9568 1.10717 33.3706 1.59215 33.2254 2.23883H21.0223C20.4131 2.23883 19.844 1.86287 19.6358 1.26323L18.7402 0.06767C18.6791 0.0244345 18.5931 0 18.4938 0L8.22133 0.00187934C7.93487 0.00187934 7.89285 0.15978 7.83365 0.270689L7.10032 1.21058C6.9189 1.80648 6.35745 2.23883 5.69476 2.23883ZM29.4801 10.7561C33.6108 14.8221 33.6108 21.4163 29.4801 25.4841C22.8322 32.0278 11.4201 27.3677 11.4201 18.1189C11.4201 8.87011 22.8327 4.21283 29.4801 10.7561ZM21.9997 4.81773C34.0004 4.81773 40.0465 19.166 31.554 27.524C23.0635 35.8815 8.48631 29.9302 8.48631 18.1194C8.48631 10.7749 14.5363 4.81773 21.9997 4.81773ZM17.7983 15.8918C17.1127 17.6663 14.3741 16.6399 15.0597 14.8654C16.0776 12.2337 19.5437 9.99488 20.4336 12.1867C20.7334 12.9255 20.3705 13.7638 19.62 14.059C18.7836 14.3898 18.121 15.0571 17.7983 15.8918Z" fill="url(#paint0_linear_335_317)"/>
<defs>
<linearGradient id="paint0_linear_335_317" x1="6.22028" y1="1.41901" x2="15.9107" y2="32.9968" gradientUnits="userSpaceOnUse">
<stop stop-color="#E82227"/>
<stop offset="1" stop-color="#F79420"/>
</linearGradient>
</defs>
</svg>
