<svg width="10" height="8" viewBox="0 0 10 8" fill="none" xmlns="http://www.w3.org/2000/svg">
<path d="M3.41463 0L2.80488 1.17647H1.09756C0.489522 1.17647 0 1.64872 0 2.23529V6.94118C0 7.52775 0.489522 8 1.09756 8H8.90244C9.51048 8 10 7.52775 10 6.94118V2.23529C10 1.64872 9.51048 1.17647 8.90244 1.17647H7.19512L6.58537 0H3.41463ZM5 2.35294C6.2768 2.35294 7.31707 3.3565 7.31707 4.58824C7.31707 5.81996 6.2768 6.82353 5 6.82353C3.72322 6.82353 2.68293 5.81996 2.68293 4.58824C2.68293 3.3565 3.72322 2.35294 5 2.35294ZM5 2.82353C3.98685 2.82353 3.17073 3.61083 3.17073 4.58824C3.17073 5.56564 3.98685 6.35294 5 6.35294C6.01317 6.35294 6.82927 5.56564 6.82927 4.58824C6.82927 3.61083 6.01317 2.82353 5 2.82353Z" fill="white"/>
</svg>
