<svg width="51" height="50" viewBox="0 0 51 50" fill="none" xmlns="http://www.w3.org/2000/svg">
    <path opacity="0.4"
        d="M54.9436 24.0914C54.7551 23.0085 54.2007 22.024 53.3736 21.3038L31.1899 1.41612C30.1754 0.504211 28.8616 0 27.5 0C26.1384 0 24.8246 0.504211 23.8102 1.41612L1.6264 21.3038C0.799337 22.024 0.244858 23.0085 0.0564227 24.0914C-0.0469969 24.7456 -0.00791802 25.4144 0.170965 26.052C0.349848 26.6895 0.664282 27.2804 1.09259 27.7842C1.5209 28.2879 2.0529 28.6923 2.65191 28.9697C3.25093 29.247 3.90272 29.3906 4.56235 29.3906H6.21216C6.44719 29.3913 6.67239 29.4854 6.83858 29.6523C7.00477 29.8191 7.09845 30.0453 7.09915 30.2813V52.5469C7.09958 53.7278 7.56697 54.8602 8.39859 55.6952C9.23022 56.5303 10.358 56.9996 11.5341 57H43.4659C44.642 56.9996 45.7698 56.5303 46.6014 55.6952C47.433 54.8602 47.9004 53.7278 47.9008 52.5469V30.2813C47.9016 30.0453 47.9952 29.8191 48.1614 29.6523C48.3276 29.4854 48.5528 29.3913 48.7878 29.3906H50.4376C51.0973 29.3906 51.7491 29.247 52.3481 28.9697C52.9471 28.6923 53.4791 28.2879 53.9074 27.7842C54.3357 27.2804 54.6502 26.6895 54.829 26.052C55.0079 25.4144 55.047 24.7456 54.9436 24.0914ZM39.98 43.3289L43.2087 46.5708C43.3315 46.6962 43.4147 46.8552 43.4478 47.0279C43.481 47.2006 43.4626 47.3793 43.3949 47.5416C43.3297 47.7051 43.217 47.8452 43.0715 47.9437C42.926 48.0421 42.7543 48.0944 42.5789 48.0938H27.5C23.8817 48.0926 20.3711 46.8571 17.5439 44.5898C14.7167 42.3224 12.7407 39.1578 11.9398 35.6147C11.1389 32.0717 11.5607 28.3606 13.136 25.0899C14.7114 21.8192 17.3468 19.183 20.6101 17.6136C23.8734 16.0441 27.5709 15.6346 31.0964 16.4521C34.6219 17.2697 37.7662 19.2657 40.0136 22.1131C42.2611 24.9604 43.4783 28.49 43.4657 32.1231C43.4532 35.7562 42.2116 39.2772 39.9445 42.1088C39.7992 42.2806 39.7224 42.5003 39.7289 42.7257C39.7355 42.951 39.8249 43.1659 39.98 43.3289Z"
        fill="#FF7E7E" />
    <path opacity="0.4"
        d="M18.0759 35.3257C20.0821 35.3257 21.7085 33.6993 21.7085 31.6931C21.7085 29.6869 20.0821 28.0605 18.0759 28.0605C16.0697 28.0605 14.4434 29.6869 14.4434 31.6931C14.4434 33.6993 16.0697 35.3257 18.0759 35.3257Z"
        fill="#FF7E7E" />
    <path opacity="0.4"
        d="M27.155 35.3257C29.1612 35.3257 30.7876 33.6993 30.7876 31.6931C30.7876 29.6869 29.1612 28.0605 27.155 28.0605C25.1488 28.0605 23.5225 29.6869 23.5225 31.6931C23.5225 33.6993 25.1488 35.3257 27.155 35.3257Z"
        fill="#FF7E7E" />
    <path opacity="0.4"
        d="M36.238 35.3257C38.2442 35.3257 39.8706 33.6993 39.8706 31.6931C39.8706 29.6869 38.2442 28.0605 36.238 28.0605C34.2318 28.0605 32.6055 29.6869 32.6055 31.6931C32.6055 33.6993 34.2318 35.3257 36.238 35.3257Z"
        fill="#FF7E7E" />
</svg>