<svg width="62" height="62" viewBox="0 0 62 62" fill="none" xmlns="http://www.w3.org/2000/svg">
<g filter="url(#filter0_d_488_716)">
<rect x="10" y="6" width="42" height="42" rx="10" fill="white"/>
</g>
<path d="M42.2288 25.1438C42.1492 24.6878 41.9148 24.2733 41.5651 23.97L32.1863 15.5963C31.7575 15.2123 31.202 15 30.6264 15C30.0507 15 29.4953 15.2123 29.0664 15.5963L19.6876 23.97C19.3379 24.2733 19.1035 24.6878 19.0239 25.1438C18.9801 25.4192 18.9967 25.7008 19.0723 25.9692C19.1479 26.2377 19.2808 26.4865 19.4619 26.6986C19.643 26.9107 19.8679 27.081 20.1212 27.1978C20.3744 27.3145 20.65 27.375 20.9289 27.375H21.6264C21.7257 27.3753 21.8209 27.4149 21.8912 27.4852C21.9615 27.5554 22.0011 27.6506 22.0014 27.75V37.125C22.0015 37.6222 22.1991 38.099 22.5507 38.4506C22.9023 38.8022 23.3791 38.9998 23.8764 39H37.3763C37.8736 38.9998 38.3504 38.8022 38.702 38.4506C39.0536 38.099 39.2512 37.6222 39.2513 37.125V27.75C39.2516 27.6506 39.2912 27.5554 39.3615 27.4852C39.4318 27.4149 39.527 27.3753 39.6263 27.375H40.3238C40.6027 27.375 40.8783 27.3145 41.1315 27.1978C41.3848 27.081 41.6097 26.9107 41.7908 26.6986C41.9719 26.4865 42.1048 26.2377 42.1804 25.9692C42.256 25.7008 42.2726 25.4192 42.2288 25.1438ZM35.9026 33.2438L37.2676 34.6088C37.3195 34.6615 37.3547 34.7285 37.3687 34.8012C37.3827 34.874 37.3749 34.9492 37.3463 35.0175C37.3188 35.0864 37.2711 35.1453 37.2096 35.1868C37.1481 35.2283 37.0755 35.2503 37.0013 35.25H30.6263C29.0966 35.2495 27.6124 34.7293 26.4171 33.7746C25.2219 32.82 24.3864 31.4875 24.0479 29.9957C23.7093 28.5039 23.8876 26.9413 24.5536 25.5642C25.2196 24.187 26.3338 23.077 27.7134 22.4162C29.0931 21.7554 30.6563 21.583 32.1468 21.9272C33.6373 22.2714 34.9667 23.1119 35.9168 24.3108C36.867 25.5096 37.3816 26.9958 37.3763 28.5255C37.371 30.0552 36.8461 31.5378 35.8876 32.73C35.8262 32.8023 35.7937 32.8949 35.7965 32.9898C35.7992 33.0846 35.837 33.1751 35.9026 33.2438Z" fill="#FB4949"/>
<path d="M26.877 30C27.7054 30 28.377 29.3284 28.377 28.5C28.377 27.6716 27.7054 27 26.877 27C26.0485 27 25.377 27.6716 25.377 28.5C25.377 29.3284 26.0485 30 26.877 30Z" fill="#FB4949"/>
<path d="M30.626 30C31.4544 30 32.126 29.3284 32.126 28.5C32.126 27.6716 31.4544 27 30.626 27C29.7975 27 29.126 27.6716 29.126 28.5C29.126 29.3284 29.7975 30 30.626 30Z" fill="#FB4949"/>
<path d="M34.377 30C35.2054 30 35.877 29.3284 35.877 28.5C35.877 27.6716 35.2054 27 34.377 27C33.5485 27 32.877 27.6716 32.877 28.5C32.877 29.3284 33.5485 30 34.377 30Z" fill="#FB4949"/>
<defs>
<filter id="filter0_d_488_716" x="0" y="0" width="62" height="62" filterUnits="userSpaceOnUse" color-interpolation-filters="sRGB">
<feFlood flood-opacity="0" result="BackgroundImageFix"/>
<feColorMatrix in="SourceAlpha" type="matrix" values="0 0 0 0 0 0 0 0 0 0 0 0 0 0 0 0 0 0 127 0" result="hardAlpha"/>
<feOffset dy="4"/>
<feGaussianBlur stdDeviation="5"/>
<feComposite in2="hardAlpha" operator="out"/>
<feColorMatrix type="matrix" values="0 0 0 0 0 0 0 0 0 0 0 0 0 0 0 0 0 0 0.1 0"/>
<feBlend mode="normal" in2="BackgroundImageFix" result="effect1_dropShadow_488_716"/>
<feBlend mode="normal" in="SourceGraphic" in2="effect1_dropShadow_488_716" result="shape"/>
</filter>
</defs>
</svg>
