<svg width="126" height="126" viewBox="0 0 126 126" fill="none" xmlns="http://www.w3.org/2000/svg">
<path d="M48 117.34C57.282 122.699 68.718 122.699 78 117.34L102.56 103.16C111.842 97.8013 117.56 87.8975 117.56 77.1795V48.8205C117.56 38.1025 111.842 28.1987 102.56 22.8397L78 8.66026C68.718 3.30127 57.282 3.30127 48 8.66026L23.4404 22.8397C14.1584 28.1987 8.4404 38.1025 8.4404 48.8205V77.1795C8.4404 87.8975 14.1584 97.8013 23.4404 103.16L48 117.34Z" fill="#50535B"/>
<path d="M63 38C56.3693 38 50.0113 40.6336 45.3213 45.3213C40.6336 50.0111 38 56.3693 38 63C38 69.6307 40.6336 75.9887 45.3213 80.6787C50.0111 85.3664 56.3693 88 63 88C69.6307 88 75.9887 85.3664 80.6787 80.6787C85.3664 75.9889 88 69.6307 88 63C88 56.3693 85.3664 50.0113 80.6787 45.3213C75.9889 40.6336 69.6307 38 63 38ZM61.9538 79.1596C60.5837 79.1361 59.4778 78.0303 59.4544 76.6602C59.4544 75.2795 60.5731 74.1587 61.9538 74.1587C62.6186 74.1524 63.2599 74.4144 63.7287 74.8853C64.1996 75.3541 64.4617 75.9954 64.4553 76.6602C64.4553 77.3229 64.191 77.9578 63.7223 78.4266C63.2535 78.8954 62.6186 79.1596 61.9538 79.1596ZM72.0919 60.8416C71.1714 63.0724 69.4434 64.8751 67.2509 65.8872C65.9106 66.503 64.9305 67.7026 64.5917 69.1365H59.4544C59.8891 65.7551 62.0241 62.8298 65.1137 61.387C66.7693 60.6434 67.8922 59.0603 68.0456 57.2513C68.2011 55.4444 67.3638 53.693 65.8595 52.6787C64.3552 51.6645 62.4183 51.5452 60.8011 52.3676C59.1817 53.188 58.1377 54.8222 58.0674 56.6355H53.0452C53.0751 54.7775 53.6248 52.9621 54.6348 51.4002C55.6426 49.8384 57.0681 48.5898 58.7493 47.795C61.157 46.6806 63.9078 46.5571 66.4049 47.4562C68.9022 48.3532 70.9434 50.1985 72.092 52.5913C73.2895 55.21 73.2894 58.2206 72.0919 60.8416Z" fill="white"/>
</svg>
