<svg width="75" height="75" viewBox="0 0 75 75" fill="none" xmlns="http://www.w3.org/2000/svg">
<path d="M43.1857 5.60228C39.5452 4.09433 35.4548 4.09433 31.8143 5.60227L18.9653 10.9245C15.3248 12.4324 12.4324 15.3248 10.9245 18.9653L5.60227 31.8143C4.09433 35.4548 4.09433 39.5452 5.60227 43.1857L10.9245 56.0347C12.4324 59.6752 15.3248 62.5676 18.9653 64.0755L31.8143 69.3977C35.4548 70.9057 39.5452 70.9057 43.1857 69.3977L56.0347 64.0755C59.6752 62.5676 62.5676 59.6752 64.0755 56.0347L69.3977 43.1857C70.9057 39.5452 70.9057 35.4548 69.3977 31.8143L64.0755 18.9653C62.5676 15.3248 59.6752 12.4324 56.0347 10.9245L43.1857 5.60228Z" fill="white" stroke="#BFBFBF" stroke-width="6"/>
<path d="M37.0584 12.3525C23.4312 12.3525 12.3525 23.4312 12.3525 37.0584C12.3525 50.6857 23.4312 61.7643 37.0584 61.7643C50.6857 61.7643 61.7643 50.6857 61.7643 37.0584C61.7643 23.4312 50.6857 12.3525 37.0584 12.3525ZM46.8888 32.8974L35.7061 44.0801C35.342 44.4442 34.8219 44.6522 34.3018 44.6522C33.7816 44.6522 33.2615 44.4442 32.8974 44.0801L27.2281 38.4628C26.4479 37.6826 26.4479 36.3823 27.2281 35.6021C28.0083 34.8219 29.3086 34.8219 30.0888 35.6021L34.3018 39.8151L44.0801 30.0367C44.8603 29.2566 46.1606 29.2566 46.9408 30.0367C47.6689 30.8169 47.6689 32.1172 46.8888 32.8974Z" fill="#04C100"/>
</svg>
