<svg width="85" height="85" viewBox="0 0 85 85" fill="none" xmlns="http://www.w3.org/2000/svg">
<path d="M48.1857 5.60228C44.5452 4.09433 40.4548 4.09433 36.8143 5.60227L20.4298 12.389C16.7893 13.8969 13.8969 16.7893 12.389 20.4298L5.60227 36.8143C4.09433 40.4548 4.09433 44.5452 5.60227 48.1857L12.389 64.5702C13.8969 68.2107 16.7893 71.1031 20.4298 72.611L36.8143 79.3977C40.4548 80.9057 44.5452 80.9057 48.1857 79.3977L64.5702 72.611C68.2107 71.1031 71.1031 68.2107 72.611 64.5702L79.3977 48.1857C80.9057 44.5452 80.9057 40.4548 79.3977 36.8143L72.611 20.4298C71.1031 16.7893 68.2107 13.8969 64.5702 12.389L48.1857 5.60228Z" fill="white" stroke="#24262B" stroke-width="6"/>
<path d="M42 14C26.5558 14 14 26.5558 14 42C14 57.4442 26.5558 70 42 70C57.4442 70 70 57.4442 70 42C70 26.5558 57.4442 14 42 14ZM53.1411 37.2842L40.4674 49.9579C40.0547 50.3705 39.4653 50.6063 38.8758 50.6063C38.2863 50.6063 37.6968 50.3705 37.2842 49.9579L30.8589 43.5916C29.9747 42.7074 29.9747 41.2337 30.8589 40.3495C31.7432 39.4653 33.2168 39.4653 34.1011 40.3495L38.8758 45.1242L49.9579 34.0421C50.8421 33.1579 52.3158 33.1579 53.2 34.0421C54.0253 34.9263 54.0253 36.4 53.1411 37.2842Z" fill="#04C100"/>
</svg>
