<svg width="46" height="46" viewBox="0 0 46 46" fill="none" xmlns="http://www.w3.org/2000/svg">
<g filter="url(#filter0_d_98_396)">
<rect x="4" width="38" height="38" rx="19" fill="white"/>
<rect x="4.5" y="0.5" width="37" height="37" rx="18.5" stroke="#C9C9C9"/>
</g>
<path fill-rule="evenodd" clip-rule="evenodd" d="M17.5296 24.4843C17.1904 24.1451 17.1904 23.5952 17.5296 23.2561L27.2561 13.5296C27.5952 13.1904 28.1451 13.1904 28.4843 13.5296C28.8235 13.8687 28.8235 14.4186 28.4843 14.7577L18.7577 24.4843C18.4186 24.8235 17.8687 24.8235 17.5296 24.4843Z" fill="#8B8B8B"/>
<path fill-rule="evenodd" clip-rule="evenodd" d="M17.5296 13.5296C17.8687 13.1904 18.4186 13.1904 18.7577 13.5296L28.4843 23.2561C28.8235 23.5952 28.8235 24.1451 28.4843 24.4843C28.1451 24.8235 27.5952 24.8235 27.2561 24.4843L17.5296 14.7577C17.1904 14.4186 17.1904 13.8687 17.5296 13.5296Z" fill="#8B8B8B"/>
<path d="M25.5242 14.5053L23.1939 16.8618C23.094 16.9628 22.9601 16.9635 22.8591 16.8637L20.5027 14.5334C19.9472 13.9841 19.0433 13.9892 18.4941 14.5446C17.9448 15.1001 17.9499 16.004 18.5053 16.5532L20.8618 18.8835C20.9628 18.9834 20.9635 19.1173 20.8636 19.2183L18.5334 21.5747C17.9841 22.1302 17.9892 23.034 18.5446 23.5833C19.1001 24.1326 20.0039 24.1275 20.5532 23.5721L22.8835 21.2156C22.9833 21.1146 23.1172 21.1139 23.2182 21.2137L25.5747 23.544C26.1301 24.0933 27.034 24.0882 27.5833 23.5328C28.1326 22.9773 28.1275 22.0735 27.5721 21.5242L25.2156 19.1939C25.1146 19.0941 25.1139 18.9601 25.2137 18.8592L27.544 16.5027C28.0933 15.9472 28.0882 15.0434 27.5328 14.4941C26.9773 13.9448 26.0734 13.9499 25.5242 14.5053Z" fill="#8B8B8B"/>
<defs>
<filter id="filter0_d_98_396" x="0" y="0" width="46" height="46" filterUnits="userSpaceOnUse" color-interpolation-filters="sRGB">
<feFlood flood-opacity="0" result="BackgroundImageFix"/>
<feColorMatrix in="SourceAlpha" type="matrix" values="0 0 0 0 0 0 0 0 0 0 0 0 0 0 0 0 0 0 127 0" result="hardAlpha"/>
<feOffset dy="4"/>
<feGaussianBlur stdDeviation="2"/>
<feComposite in2="hardAlpha" operator="out"/>
<feColorMatrix type="matrix" values="0 0 0 0 0 0 0 0 0 0 0 0 0 0 0 0 0 0 0.1 0"/>
<feBlend mode="normal" in2="BackgroundImageFix" result="effect1_dropShadow_98_396"/>
<feBlend mode="normal" in="SourceGraphic" in2="effect1_dropShadow_98_396" result="shape"/>
</filter>
</defs>
</svg>
