<svg width="121" height="138" viewBox="0 0 121 138" fill="none" xmlns="http://www.w3.org/2000/svg">
<path d="M97.7188 34.4397L109.438 46.4479L120.144 69.0174L108.57 57.0092L97.7188 34.4397Z" fill="#FFAF0F"/>
<path d="M41.2954 125.586L52.8696 137.595L32.3255 124.863L20.6067 112.71L41.2954 125.586Z" fill="#E36D00"/>
<path d="M108.57 57.0098L120.144 69.0179L117.25 95.2044L105.676 83.1962L108.57 57.0098Z" fill="#FFE70F"/>
<path d="M67.482 120.956L79.2008 132.964L52.8697 137.594L41.2956 125.586L67.482 120.956Z" fill="#FF930F"/>
<path d="M91.4987 107.067L103.217 119.22L79.2012 132.964L67.4824 120.956L91.4987 107.067Z" fill="#FFAF0F"/>
<path d="M105.676 83.196L117.25 95.2042L103.217 119.22L91.498 107.068L105.676 83.196Z" fill="#FDC816"/>
<path d="M75.2943 26.1926L98.7318 35.3072L109.438 57.8768L106.544 84.0632L92.5108 107.935L68.4944 121.824L42.1633 126.453L21.6193 113.722L7.44098 93.9012L12.0706 67.4254L24.6575 42.5411L49.1078 28.2181L75.2943 26.1926Z" fill="#FFE70F"/>
<path d="M74.4261 25.1802L97.719 34.4395L108.57 57.009L105.676 83.1955L91.4979 107.067L67.4816 120.956L41.2952 125.586L20.6064 112.709L6.42812 92.8888L11.2024 66.5577L23.6446 41.6733L48.2396 27.3503L74.4261 25.1802Z" fill="#FDC816"/>
<path d="M79.49 27.2056L74.4263 25.1802L48.2398 27.3503L45.2016 29.0864L87.5919 109.237L91.4981 107.067L105.676 83.1955L106.255 77.8424L79.49 27.2056Z" fill="#FDD616"/>
<path d="M19.3047 50.2092L11.2028 66.5577L10.1901 72.4894L36.6659 122.692L41.2955 125.586L57.644 122.692L19.3047 50.2092Z" fill="#FDD616"/>
<path d="M68.7847 39.5042L41.7301 45.7252L23.2115 68.2948L24.5136 95.0599L45.347 110.251L72.8356 103.017L91.7882 80.3029L90.1968 53.1037L68.7847 39.5042Z" fill="#FFE70F"/>
<path d="M69.651 39.9373L42.7412 46.303L24.2226 68.7279L25.38 95.7824L46.2134 110.829L73.702 103.45L92.6546 80.736L91.2078 53.5369L69.651 39.9373Z" fill="#FF930F"/>
<path d="M75.5834 63.3748L74.426 60.7707L70.6644 62.5068L72.2559 59.1792V57.7324L70.2304 53.8262L64.2987 55.5623L62.9966 56.4304L62.7072 57.4431L60.9711 60.0473L54.1713 61.6387L50.265 67.2811L48.963 72.4895L46.5035 74.6596L48.529 78.4212L53.1586 81.3147L59.8137 83.7742L60.2478 84.787L60.6818 85.9444L59.9584 87.1018L58.801 86.9571L46.0694 84.4976L44.3333 84.9316L43.1759 86.2337L39.559 89.706L41.7291 93.6122L42.7419 94.4803L49.2523 95.3483L47.2269 97.0845L49.397 100.846L56.4862 101.135L57.6436 100.557L58.0776 99.6886L59.5244 96.7951L66.6135 95.7824L70.6644 89.8506L72.9793 84.9316L72.5453 78.2765L67.6262 74.9489L61.1158 72.4895L60.9711 70.6087L62.1285 69.1619L72.5453 72.9235L74.2814 71.9107L75.4388 70.6087L76.5962 64.5322L75.5834 63.3748Z" fill="#E36D00"/>
<path d="M69.0733 52.958L62.1289 51.8005L60.8268 52.5239L60.5374 53.6813L58.946 56.2855L52.1462 57.877L48.0952 63.3747L46.9378 68.7277L46.5038 74.6594L50.9888 77.553L57.7886 80.0125L58.0779 81.0252L58.6566 82.1826L57.7886 83.34L56.6312 83.0507L43.8996 80.7358L42.3082 81.0252L41.0061 82.472L39.1253 88.259L39.5593 89.7058L40.7168 90.5739L47.2272 91.5866L45.6357 94.0461L47.2272 97.0843L54.461 97.3736L55.6184 96.7949L56.0524 95.7822L57.4992 93.0333L64.4437 91.8759L68.6393 86.0889L70.8095 81.0252L70.3754 74.3701L65.6011 71.1872L58.946 68.583L58.8013 66.8469L59.9587 65.4001L70.3754 69.017L72.2562 68.149L73.4136 66.7022L74.4264 60.7705L73.5583 59.6131L68.4946 58.745L70.0861 55.4175L70.2308 53.826L69.0733 52.958Z" fill="#FDC816"/>
<path d="M65.4552 67.2814L70.3742 69.0175L72.255 68.1495L73.4124 66.7027L74.4252 60.771L73.5571 59.6136L68.4934 58.7455L70.0849 55.4179L70.2296 53.8265L69.0721 52.9584L62.1277 51.801L60.8256 52.5244L60.5362 53.6818L59.2341 55.7073L65.4552 67.2814Z" fill="#FDD616"/>
<path d="M45.4896 49.7755L74.2803 42.831L69.6506 39.9375L42.7408 46.3033L45.4896 49.7755Z" fill="#DE5100"/>
<path d="M25.38 95.7825L29.2863 98.5314V70.7535L24.2226 68.728L25.38 95.7825Z" fill="#FFAF0F"/>
<path d="M42.7412 46.304L24.2226 68.7288L29.2863 70.7543L45.4901 49.7762L42.7412 46.304Z" fill="#E36D00"/>
<path d="M42.5701 4.85742L48.0347 10.4569L53.027 20.9813L47.6299 15.3818L42.5701 4.85742Z" fill="#FFAF0F"/>
<path d="M16.2585 47.3598L21.6556 52.9592L12.0758 47.0224L6.61121 41.3555L16.2585 47.3598Z" fill="#E36D00"/>
<path d="M47.6292 15.3818L53.0263 20.9813L51.6771 33.1923L46.28 27.5928L47.6292 15.3818Z" fill="#FFE70F"/>
<path d="M28.47 45.2004L33.9345 50.7999L21.6561 52.9588L16.259 47.3593L28.47 45.2004Z" fill="#FF930F"/>
<path d="M39.6691 38.7239L45.1337 44.3908L33.9347 50.7999L28.4702 45.2004L39.6691 38.7239Z" fill="#FFAF0F"/>
<path d="M46.2799 27.5928L51.677 33.1923L45.133 44.3913L39.6684 38.7243L46.2799 27.5928Z" fill="#FDC816"/>
<path d="M32.1123 1.01172L43.0414 5.26193L48.0337 15.7863L46.6844 27.9972L40.1405 39.1288L28.9415 45.6053L16.6631 47.7641L7.0832 41.8273L0.471756 32.5848L2.63058 20.2389L8.49994 8.63512L19.9013 1.95621L32.1123 1.01172Z" fill="#FFE70F"/>
<path d="M31.708 0.539551L42.5697 4.85723L47.6294 15.3816L46.2802 27.5925L39.6687 38.7241L28.4697 45.2006L16.2588 47.3594L6.61144 41.3551L0 32.1126L2.2263 19.8342L8.02819 8.23042L19.497 1.55151L31.708 0.539551Z" fill="#FDC816"/>
<path d="M34.0694 1.48404L31.7081 0.539551L19.4972 1.55151L18.0805 2.36108L37.8474 39.736L39.6689 38.7241L46.2803 27.5925L46.5502 25.0964L34.0694 1.48404Z" fill="#FDD616"/>
<path d="M6.00445 12.2107L2.22648 19.8341L1.75424 22.6001L14.1001 46.0101L16.259 47.3593L23.8824 46.0101L6.00445 12.2107Z" fill="#FDD616"/>
<path d="M29.0775 7.21875L16.4618 10.1197L7.82645 20.644L8.43362 33.1248L18.1484 40.2085L30.9665 36.8354L39.8043 26.2435L39.0622 13.5603L29.0775 7.21875Z" fill="#FFE70F"/>
<path d="M29.4813 7.4209L16.933 10.3893L8.29764 20.8462L8.83736 33.4619L18.5521 40.4781L31.3703 37.0375L40.208 26.4457L39.5334 13.7625L29.4813 7.4209Z" fill="#FF930F"/>
<path d="M32.2475 18.3501L31.7078 17.1357L29.9537 17.9453L30.6958 16.3936V15.719L29.7514 13.8975L26.9853 14.707L26.3782 15.1118L26.2432 15.5841L25.4337 16.7984L22.2629 17.5405L20.4413 20.1716L19.8342 22.6003L18.6873 23.6122L19.6318 25.3663L21.7906 26.7156L24.894 27.8625L25.0964 28.3347L25.2987 28.8744L24.9614 29.4141L24.4217 29.3467L18.4849 28.1998L17.6753 28.4022L17.1356 29.0094L15.449 30.6285L16.461 32.45L16.9332 32.8548L19.9691 33.2596L19.0246 34.0691L20.0366 35.8232L23.3423 35.9581L23.882 35.6883L24.0844 35.2835L24.759 33.9342L28.0648 33.462L29.9537 30.6959L31.0332 28.4022L30.8308 25.2988L28.537 23.7472L25.5011 22.6003L25.4337 21.7233L25.9734 21.0486L30.8308 22.8027L31.6403 22.3304L32.1801 21.7233L32.7198 18.8898L32.2475 18.3501Z" fill="#E36D00"/>
<path d="M29.2116 13.4926L25.9734 12.9529L25.3662 13.2902L25.2313 13.8299L24.4892 15.0443L21.3184 15.7864L19.4294 18.35L18.8897 20.8461L18.6873 23.6122L20.7786 24.9614L23.9495 26.1083L24.0844 26.5806L24.3542 27.1203L23.9495 27.66L23.4098 27.5251L17.4729 26.4456L16.7308 26.5806L16.1236 27.2552L15.2466 29.9538L15.449 30.6284L15.9887 31.0332L19.0246 31.5054L18.2825 32.6523L19.0246 34.069L22.3978 34.204L22.9375 33.9341L23.1399 33.4619L23.8145 32.1801L27.0528 31.6404L29.0092 28.9418L30.0212 26.5806L29.8188 23.4772L27.5925 21.993L24.4892 20.7787L24.4217 19.9691L24.9614 19.2945L29.8188 20.9811L30.6958 20.5763L31.2355 19.9017L31.7078 17.1356L31.303 16.5959L28.9418 16.1911L29.6839 14.6395L29.7513 13.8974L29.2116 13.4926Z" fill="#FDC816"/>
<path d="M27.5243 20.1718L29.8181 20.9813L30.6951 20.5765L31.2348 19.9019L31.7071 17.1359L31.3023 16.5962L28.9411 16.1914L29.6832 14.6397L29.7506 13.8976L29.2109 13.4928L25.9727 12.9531L25.3655 13.2904L25.2306 13.8302L24.6234 14.7747L27.5243 20.1718Z" fill="#FDD616"/>
<path d="M18.2142 12.0084L31.6395 8.77017L29.4807 7.4209L16.9324 10.3893L18.2142 12.0084Z" fill="#DE5100"/>
<path d="M8.83715 33.4619L10.6587 34.7437V21.7907L8.29742 20.8462L8.83715 33.4619Z" fill="#FFAF0F"/>
<path d="M16.9328 10.3896L8.29742 20.8465L10.6587 21.791L18.2146 12.0088L16.9328 10.3896Z" fill="#E36D00"/>
</svg>
