<svg width="62" height="62" viewBox="0 0 62 62" fill="none" xmlns="http://www.w3.org/2000/svg">
<g filter="url(#filter0_d_488_679)">
<rect x="10" y="6" width="42" height="42" rx="10" fill="white"/>
</g>
<path d="M43 19.1071V20.75H20V19.1071C20 17.7466 21.1038 16.6429 22.4643 16.6429H23.2857V15.8214C23.2857 15.3676 23.6533 15 24.1071 15C24.561 15 24.9286 15.3676 24.9286 15.8214V16.6429H38.0714V15.8214C38.0714 15.3676 38.439 15 38.8929 15C39.3467 15 39.7143 15.3676 39.7143 15.8214V16.6429H40.5357C41.8962 16.6429 43 17.7466 43 19.1071ZM20 22.3929H43V35.5357C43 36.8962 41.8962 38 40.5357 38H22.4643C21.1038 38 20 36.8962 20 35.5357V22.3929ZM35.6071 26.5C35.6071 26.7177 35.6934 26.9271 35.8474 27.0812C36.0014 27.2352 36.2109 27.3214 36.4286 27.3214H38.0714C38.5253 27.3214 38.8928 26.9538 38.8928 26.5C38.8928 26.0461 38.5253 25.6786 38.0714 25.6786H36.4286C35.9747 25.6786 35.6071 26.0462 35.6071 26.5ZM35.6071 29.7857C35.6071 30.0034 35.6934 30.2129 35.8474 30.3669C36.0014 30.5209 36.2109 30.6071 36.4286 30.6071H38.0714C38.5253 30.6071 38.8928 30.2396 38.8928 29.7857C38.8928 29.3319 38.5253 28.9643 38.0714 28.9643H36.4286C35.9747 28.9643 35.6071 29.3319 35.6071 29.7857ZM35.6071 33.0714C35.6071 33.2891 35.6934 33.4986 35.8474 33.6526C36.0014 33.8066 36.2109 33.8928 36.4286 33.8928H38.0714C38.5253 33.8928 38.8928 33.5253 38.8928 33.0714C38.8928 32.6176 38.5253 32.25 38.0714 32.25H36.4286C35.9747 32.25 35.6071 32.6176 35.6071 33.0714ZM29.8571 26.5C29.8571 26.7177 29.9434 26.9271 30.0974 27.0812C30.2514 27.2352 30.4609 27.3214 30.6786 27.3214H32.3214C32.7753 27.3214 33.1428 26.9538 33.1428 26.5C33.1428 26.0461 32.7753 25.6786 32.3214 25.6786H30.6786C30.2247 25.6786 29.8571 26.0462 29.8571 26.5ZM29.8571 29.7857C29.8571 30.0034 29.9434 30.2129 30.0974 30.3669C30.2514 30.5209 30.4609 30.6071 30.6786 30.6071H32.3214C32.7753 30.6071 33.1428 30.2396 33.1428 29.7857C33.1428 29.3319 32.7753 28.9643 32.3214 28.9643H30.6786C30.2247 28.9643 29.8571 29.3319 29.8571 29.7857ZM29.8571 33.0714C29.8571 33.2891 29.9434 33.4986 30.0974 33.6526C30.2514 33.8066 30.4609 33.8928 30.6786 33.8928H32.3214C32.7753 33.8928 33.1428 33.5253 33.1428 33.0714C33.1428 32.6176 32.7753 32.25 32.3214 32.25H30.6786C30.2247 32.25 29.8571 32.6176 29.8571 33.0714ZM24.1071 26.5C24.1071 26.7177 24.1934 26.9271 24.3474 27.0812C24.5014 27.2352 24.7109 27.3214 24.9286 27.3214H26.5714C27.0253 27.3214 27.3928 26.9538 27.3928 26.5C27.3928 26.0461 27.0253 25.6786 26.5714 25.6786H24.9286C24.4747 25.6786 24.1071 26.0462 24.1071 26.5ZM24.1071 29.7857C24.1071 30.0034 24.1934 30.2129 24.3474 30.3669C24.5014 30.5209 24.7109 30.6071 24.9286 30.6071H26.5714C27.0253 30.6071 27.3928 30.2396 27.3928 29.7857C27.3928 29.3319 27.0253 28.9643 26.5714 28.9643H24.9286C24.4747 28.9643 24.1071 29.3319 24.1071 29.7857ZM24.1071 33.0714C24.1071 33.2891 24.1934 33.4986 24.3474 33.6526C24.5014 33.8066 24.7109 33.8928 24.9286 33.8928H26.5714C27.0253 33.8928 27.3928 33.5253 27.3928 33.0714C27.3928 32.6176 27.0253 32.25 26.5714 32.25H24.9286C24.4747 32.25 24.1071 32.6176 24.1071 33.0714Z" fill="#FA6A2D"/>
<defs>
<filter id="filter0_d_488_679" x="0" y="0" width="62" height="62" filterUnits="userSpaceOnUse" color-interpolation-filters="sRGB">
<feFlood flood-opacity="0" result="BackgroundImageFix"/>
<feColorMatrix in="SourceAlpha" type="matrix" values="0 0 0 0 0 0 0 0 0 0 0 0 0 0 0 0 0 0 127 0" result="hardAlpha"/>
<feOffset dy="4"/>
<feGaussianBlur stdDeviation="5"/>
<feComposite in2="hardAlpha" operator="out"/>
<feColorMatrix type="matrix" values="0 0 0 0 0 0 0 0 0 0 0 0 0 0 0 0 0 0 0.1 0"/>
<feBlend mode="normal" in2="BackgroundImageFix" result="effect1_dropShadow_488_679"/>
<feBlend mode="normal" in="SourceGraphic" in2="effect1_dropShadow_488_679" result="shape"/>
</filter>
</defs>
</svg>
