<svg width="14" height="14" viewBox="0 0 14 14" fill="none" xmlns="http://www.w3.org/2000/svg">
<path d="M1.00049 2.69744C1.00049 2.13009 1.46041 1.67017 2.02776 1.67017H11.9727C12.54 1.67017 12.9999 2.13009 12.9999 2.69744V12.3076C12.9999 12.8749 12.54 13.3349 11.9727 13.3349H2.02776C1.46041 13.3349 1.00049 12.8749 1.00049 12.3076V2.69744Z" stroke="white" stroke-width="0.75" stroke-linejoin="round"/>
<path d="M3.57471 2.34505V0.665161" stroke="white" stroke-width="0.75" stroke-linecap="round" stroke-linejoin="round"/>
<path d="M10.4258 2.34505V0.665161" stroke="white" stroke-width="0.75" stroke-linecap="round" stroke-linejoin="round"/>
<path d="M13.0003 4.09265H1.02002" stroke="white" stroke-width="0.75"/>
<path d="M3.40283 6.3158H4.43011M6.486 6.3158H7.51327M9.56916 6.3158H10.5964M6.486 8.71381H7.51327M3.40283 8.71381H4.43011M9.56916 8.71381H10.5964M6.486 11.1118H7.51327M3.40283 11.1118H4.43011M9.56916 11.1118H10.5964" stroke="white" stroke-width="0.75" stroke-linecap="round" stroke-linejoin="round"/>
</svg>
