<svg width="18" height="18" viewBox="0 0 24 24" fill="none" xmlns="http://www.w3.org/2000/svg">
  <!-- Trash Can Base -->
  <path fill-rule="evenodd" clip-rule="evenodd" 
        d="M7 4V3C7 2.44772 7.44772 2 8 2H16C16.5523 2 17 2.44772 17 3V4H20C20.5523 4 21 4.44772 21 5C21 5.55228 20.5523 6 20 6H19.3333L18.2037 20.0296C18.1409 20.8029 17.4926 21.4 16.7175 21.4H7.28252C6.50737 21.4 5.85907 20.8029 5.7963 20.0296L4.66667 6H4C3.44772 6 3 5.55228 3 5C3 4.44772 3.44772 4 4 4H7ZM9 4H15V3H9V4ZM7.06282 6L8.14569 19.4H15.8543L16.9372 6H7.06282Z" 
        fill="white"/>
</svg>
