<svg width="45" height="45" viewBox="0 0 45 45" fill="none" xmlns="http://www.w3.org/2000/svg">
<circle cx="22.5" cy="22.5" r="22" stroke="#BAD8ED"/>
<path d="M15.4999 26.6428V19.8571H26.9285V20.6142C23.9141 20.9678 21.5712 23.5392 21.5712 26.6427L15.4999 26.6428ZM21.6142 27.3571H15.1429C14.9464 27.3571 14.7857 27.1964 14.7857 26.9999V19.5001C14.7857 19.3037 14.9464 19.143 15.1429 19.143H27.2857C27.4821 19.143 27.6429 19.3037 27.6429 19.5001V20.5716C28.0571 20.5716 28.4679 20.6108 28.8571 20.693C29.0464 20.7323 29.2357 20.7787 29.4286 20.8394V17.7144H13V27.3573C13 28.343 13.8 29.143 14.7857 29.143H22.1107C22.0357 28.9823 21.9715 28.8251 21.9179 28.6644C21.7679 28.2466 21.6643 27.8073 21.6143 27.3573L21.6142 27.3571ZM30.8571 26.6428C30.8571 28.4142 29.4143 29.8569 27.643 29.8569C26.7858 29.8569 25.9787 29.5212 25.3715 28.9141C24.7644 28.307 24.4287 27.4998 24.4287 26.6427C24.4287 24.8713 25.8715 23.4286 27.6429 23.4286C28.5179 23.4286 29.325 23.7678 29.9214 24.4C30.525 24.9821 30.8571 25.7785 30.8571 26.6428ZM28 24.8571C28 24.6607 27.8393 24.5 27.6429 24.5C27.4464 24.5 27.2857 24.6607 27.2857 24.8571V26.2857H26.5714C26.375 26.2857 26.2143 26.4464 26.2143 26.6428C26.2143 26.8392 26.375 26.9999 26.5714 26.9999H27.6429C27.8393 26.9999 28 26.8392 28 26.6428V24.8571ZM33 26.6428C33 29.5964 30.5963 32 27.6427 32C25.5927 32 23.8071 30.8429 22.907 29.1429C22.7855 28.9143 22.6784 28.675 22.5927 28.4286C22.3927 27.8715 22.2855 27.2715 22.2855 26.6429C22.2855 23.6894 24.6892 21.2857 27.6428 21.2857C28.0107 21.2857 28.3678 21.3214 28.7142 21.3929C28.9606 21.4429 29.1964 21.5107 29.4285 21.5929C31.5071 22.3286 33 24.3141 33 26.6428ZM31.5714 26.6428C31.5714 25.5821 31.1607 24.6035 30.4286 23.8963C29.7179 23.1463 28.7 22.7142 27.6427 22.7142C25.4749 22.7142 23.7141 24.4749 23.7141 26.6428C23.7141 27.6928 24.1212 28.6785 24.864 29.4213C25.6069 30.1641 26.5926 30.5713 27.6426 30.5713C29.8104 30.5713 31.5712 28.8106 31.5712 26.6426L31.5714 26.6428ZM29.4286 16.9999H13V15.2142C13 14.2277 13.7991 13.4286 14.7857 13.4286H16.25C16.4143 12.6143 17.1357 12 18 12C18.8643 12 19.5857 12.6143 19.75 13.4286C19.775 13.5428 19.7857 13.6643 19.7857 13.7857C19.7857 14.6678 19.1455 15.4009 18.3044 15.5455C18.1303 15.575 18 15.7205 18 15.8973C18 16.1142 18.1919 16.2883 18.4062 16.2526C19.5919 16.058 20.5 15.0259 20.5 13.7857C20.5 13.6643 20.4928 13.5464 20.4714 13.4286H22.6785C22.8428 12.6143 23.5642 12 24.4285 12C25.2928 12 26.0142 12.6143 26.1785 13.4286C26.2035 13.5428 26.2142 13.6643 26.2142 13.7857C26.2142 14.6678 25.574 15.4009 24.733 15.5455C24.5589 15.575 24.4285 15.7205 24.4285 15.8973C24.4285 16.1142 24.6205 16.2883 24.8347 16.2526C26.0205 16.058 26.9285 15.0259 26.9285 13.7857C26.9285 13.6643 26.9214 13.5464 26.8999 13.4286H27.6428C28.6294 13.4286 29.4285 14.2277 29.4285 15.2142L29.4286 16.9999ZM16.9929 13.4286H19.0072C18.8608 13.0143 18.4643 12.7143 18.0001 12.7143C17.5358 12.7143 17.1393 13.0143 16.9929 13.4286ZM23.4215 13.4286H25.4358C25.2893 13.0143 24.8929 12.7143 24.4286 12.7143C23.9644 12.7143 23.5679 13.0143 23.4215 13.4286Z" fill="#BAD8ED"/>
</svg>
