<svg width="19" height="19" viewBox="0 0 19 19" fill="none" xmlns="http://www.w3.org/2000/svg">
<path fill-rule="evenodd" clip-rule="evenodd" d="M9.57778 12.8623C8.94263 13.4983 8.25905 13.9108 7.39664 14.1601L4.9421 14.871C4.4515 15.0163 3.99995 14.5632 4.14057 14.0764L4.85383 11.6046C5.1007 10.7483 5.51005 10.0553 6.13739 9.42867L12.4848 3.08702C12.5426 3.02921 12.6372 3.02921 12.6942 3.08702L15.9159 6.30435C15.9737 6.36216 15.9737 6.45669 15.9159 6.51451L9.57628 12.8624L9.57778 12.8623ZM13.3121 12.2662V16.4618C13.3121 16.9516 12.9113 17.354 12.4223 17.354L2.53433 17.3548C2.04528 17.3548 1.64451 16.9532 1.64451 16.4626V6.55598C1.64451 6.06612 2.04528 5.66376 2.53433 5.66376H6.73261C7.1865 5.66376 7.55447 5.29499 7.55447 4.84029C7.55447 4.38559 7.18652 4.01682 6.73261 4.01682H2.53433C1.13749 4.01682 0 5.15592 0 6.55512V16.4617C0 17.861 1.13747 19 2.53433 19H12.4223C13.8191 19 14.9566 17.8609 14.9566 16.4617V12.2661C14.9566 11.8114 14.5886 11.4427 14.1347 11.4427C13.6808 11.4427 13.3129 11.8114 13.3129 12.2661L13.3121 12.2662ZM14.8324 0.746169L13.5371 2.03998C13.4785 2.09858 13.4785 2.19155 13.5371 2.25015L16.7566 5.46427C16.8144 5.52209 16.9089 5.52209 16.9667 5.46427L18.2589 4.17046C19.2268 3.19932 19.2526 1.63436 18.3011 0.687526C17.3456 -0.263291 15.7909 -0.213289 14.8332 0.746905L14.8324 0.746169Z" fill="#41586C"/>
</svg>
