<svg width="29" height="25" viewBox="0 0 29 25" fill="none" xmlns="http://www.w3.org/2000/svg">
<path fill-rule="evenodd" clip-rule="evenodd" d="M10.9851 8.49644C11.9458 7.54021 12.5361 6.23774 12.5361 4.80148C12.5361 2.70776 11.2751 0.895322 9.44839 0.0351799C9.64388 0.0126802 9.84326 0.000179134 10.0439 0.000179134C12.7886 0.000179134 15.018 2.1514 15.018 4.80136C15.018 5.80134 14.7022 6.7313 14.1584 7.5013C14.0742 7.61755 13.9888 7.7313 13.893 7.8413C13.6923 8.08129 13.4644 8.30253 13.2172 8.49879C12.3549 9.18876 11.2493 9.60375 10.044 9.60375C9.84331 9.60375 9.64394 9.59125 9.44843 9.56875C10.0207 9.29876 10.5385 8.93501 10.9787 8.49876L10.9851 8.49644ZM23.4797 7.50146H26.4108C26.6413 7.50146 26.8433 7.64395 26.9067 7.85771C26.9727 8.06895 26.886 8.2977 26.6957 8.41769C26.429 8.58769 26.2244 8.75269 26.0859 8.92143C26.0004 9.02767 25.9448 9.13142 25.9422 9.23767C25.9396 9.34017 25.9914 9.43766 26.0742 9.53891C26.2076 9.70766 26.4147 9.87017 26.6879 10.0377C26.8485 10.1352 26.9352 10.3052 26.9287 10.4801V10.5001V12.9988H21.2321C20.41 12.9988 19.619 13.3163 19.0351 13.8788C18.4538 14.4413 18.1249 15.2038 18.1249 16V17.0013C18.1249 17.795 18.4538 18.5575 19.0351 19.1225C19.619 19.6837 20.41 19.9999 21.2321 19.9999H26.9287V23.5C26.9287 23.8975 26.7656 24.28 26.4743 24.56C26.1843 24.8425 25.7868 25 25.3751 25H1.55358C1.14317 25 0.745718 24.8425 0.454424 24.56C0.164423 24.28 0 23.8975 0 23.5L0.00388395 9.30769C-8.27232e-08 9.28144 0 9.25644 0 9.23019V9.22894C0 9.20394 -8.27232e-08 9.17644 0.00388395 9.15269V9.12894C0.00388395 9.05519 0.0207144 8.98519 0.0491972 8.92395C0.124286 8.69145 0.288709 8.4677 0.543758 8.2727C1.02148 7.90646 1.89924 7.61645 2.9518 7.52772C2.39639 6.75398 2.07145 5.814 2.07145 4.80154C2.07145 2.15161 4.30215 0.000357048 7.04689 0.000357048C9.79163 0.000357048 12.0183 2.15158 12.0183 4.80154C12.0183 5.80152 11.7012 6.73148 11.16 7.50148C11.0655 7.63523 10.9619 7.76523 10.8558 7.88896C10.6603 8.11145 10.4466 8.31519 10.2162 8.49893C9.35654 9.1889 8.24833 9.6039 7.0469 9.6039C5.84029 9.6039 4.73593 9.1889 3.87242 8.49893H3.62255C2.69945 8.49893 1.87608 8.66643 1.36985 8.93892C1.26628 8.99642 1.17954 9.05517 1.11092 9.12017C1.08244 9.15017 1.04749 9.17642 1.03972 9.20892V9.25142C1.04749 9.28391 1.08244 9.31016 1.11092 9.34016C1.17954 9.40516 1.26628 9.46391 1.36985 9.51891C1.87605 9.7939 2.69945 9.9589 3.62255 9.9589H25.1254C24.9727 9.7089 24.904 9.46016 24.9066 9.22266C24.9092 8.98766 24.9843 8.74392 25.1397 8.49893H22.5387C21.6765 9.1889 20.5708 9.6039 19.3655 9.6039C19.1351 9.6039 18.9085 9.5889 18.6832 9.56015C20.5022 8.69393 21.7503 6.88769 21.7503 4.80153C21.7503 2.71783 20.5022 0.910409 18.6832 0.0441867C18.9085 0.0154372 19.1351 0.000437003 19.3655 0.000437003C22.1102 0.000437003 24.3396 2.15166 24.3396 4.80162C24.3396 5.8016 24.0235 6.73146 23.4797 7.50146ZM5.35976 21.4436C5.37142 21.4561 5.38307 21.4673 5.39213 21.4786C5.57856 21.6648 5.88152 21.6848 6.08866 21.5236C6.1029 21.5148 6.11456 21.5036 6.12492 21.4936L7.81445 19.9286C7.9957 19.7599 8.02418 19.4911 7.88307 19.2886C7.64226 18.9411 7.50116 18.5211 7.50116 18.0699C7.50116 17.1174 8.13035 16.3074 9.01072 16.0049C9.21787 15.9349 9.35641 15.7462 9.35641 15.5337V13.2225C9.35641 13.1912 9.35382 13.16 9.34734 13.13C9.30203 12.895 9.08841 12.7225 8.83853 12.7225C8.80746 12.7225 8.77509 12.7237 8.74402 12.73C6.12884 13.1962 4.14277 15.4112 4.14277 18.07C4.14277 19.3438 4.59721 20.5161 5.35976 21.4436ZM8.32063 13.8648V15.2023C7.22147 15.7198 6.46538 16.811 6.46538 18.0697C6.46538 18.576 6.58578 19.0522 6.80457 19.4785L5.84395 20.3672C5.4232 19.6959 5.1785 18.9109 5.1785 18.0697C5.1785 16.1135 6.49647 14.4501 8.32063 13.8648ZM9.48064 15.3898C9.48064 15.651 9.68778 15.8673 9.95707 15.8885C10.8607 15.961 11.6142 16.5448 11.9055 17.341C11.9767 17.5398 12.1735 17.6748 12.3949 17.6748H16.034C16.0651 17.6748 16.0936 17.671 16.1259 17.666C16.3706 17.6235 16.5519 17.416 16.5519 17.1748C16.5519 17.1435 16.5493 17.1135 16.5428 17.0835C15.968 14.0136 13.2829 11.6635 10.0242 11.5198H9.99836C9.7213 11.5198 9.49475 11.731 9.48308 11.9973C9.48049 12.0035 9.48049 12.0123 9.48049 12.0198L9.48064 15.3898ZM10.5164 12.5686C12.8377 12.8799 14.7305 14.5173 15.3804 16.6735H12.7367C12.3056 15.8222 11.4939 15.1848 10.5164 14.9648L10.5164 12.5686ZM7.09202 22.8458C7.88951 23.2633 8.79836 23.4996 9.76805 23.4996C12.6992 23.4996 15.1071 21.3284 15.3662 18.5634C15.3688 18.5484 15.3688 18.5334 15.3688 18.5184C15.3688 18.2596 15.1656 18.0434 14.8976 18.0196C14.8833 18.0184 14.8691 18.0184 14.851 18.0184H12.5128C12.2617 18.0184 12.0442 18.1946 12.0027 18.4346C11.8215 19.4696 10.8893 20.2583 9.76815 20.2583C9.42505 20.2583 9.10271 20.1858 8.8127 20.0558C8.57967 19.9496 8.29743 20.0296 8.16018 20.2408L6.90177 22.1371C6.8966 22.147 6.88753 22.157 6.88236 22.167C6.75289 22.397 6.83057 22.687 7.05713 22.827C7.06878 22.8345 7.08037 22.8396 7.09202 22.8458ZM8.80356 21.1209C9.1091 21.2109 9.43145 21.2584 9.76809 21.2584C11.2466 21.2584 12.5037 20.3159 12.9206 19.0184H14.2502C13.7983 21.0071 11.9625 22.4984 9.76822 22.4984C9.17526 22.4984 8.6108 22.3921 8.09294 22.1959L8.80356 21.1209ZM7.04671 5.38105C7.42862 5.38105 7.77947 5.5798 7.77947 5.88603C7.77947 6.19478 7.42862 6.39351 7.04671 6.39351C6.66351 6.39351 6.31266 6.19477 6.31266 5.88603C6.31266 5.61104 6.07962 5.38604 5.7948 5.38604C5.50997 5.38604 5.27694 5.61104 5.27694 5.88603C5.27694 6.54602 5.79221 7.13474 6.52885 7.3285V7.69848C6.52885 7.97347 6.75801 8.19971 7.04671 8.19971C7.33154 8.19971 7.56457 7.97347 7.56457 7.69848V7.3285C8.29733 7.13475 8.81519 6.54602 8.81519 5.88603C8.81519 5.08231 8.04488 4.38107 7.04671 4.38107C6.66351 4.38107 6.31266 4.18233 6.31266 3.8736C6.31266 3.5661 6.66351 3.36737 7.04671 3.36737C7.42862 3.36737 7.77947 3.56611 7.77947 3.8736C7.77947 4.14984 8.00992 4.37359 8.29733 4.37359C8.58216 4.37359 8.81519 4.14984 8.81519 3.8736C8.81519 3.21486 8.29733 2.62489 7.56457 2.43238V2.0624C7.56457 1.78616 7.33154 1.56241 7.04671 1.56241C6.75801 1.56241 6.52885 1.78616 6.52885 2.0624V2.43238C5.79218 2.62487 5.27694 3.21486 5.27694 3.8736C5.27694 4.67857 6.04466 5.38105 7.04671 5.38105ZM19.4313 8.49849C18.569 9.18846 17.4634 9.60346 16.2581 9.60346C16.0276 9.60346 15.8011 9.58846 15.5758 9.55971C17.3948 8.69349 18.6428 6.88725 18.6428 4.80109C18.6428 2.71739 17.3948 0.909971 15.5758 0.0437494C15.8011 0.0149999 16.0276 0 16.2581 0C19.0027 0 21.2322 2.15122 21.2322 4.80118C21.2322 5.80116 20.9163 6.73112 20.3725 7.50112C20.1071 7.87488 19.7912 8.21226 19.4313 8.49849ZM16.3241 8.49849C15.4619 9.18846 14.3562 9.60346 13.1509 9.60346C12.9205 9.60346 12.6939 9.58846 12.4686 9.55971C14.2876 8.69349 15.5357 6.88725 15.5357 4.80109C15.5357 2.71739 14.2876 0.909971 12.4686 0.0437494C12.6939 0.0149999 12.9205 0 13.1509 0C15.8956 0 18.125 2.15122 18.125 4.80118C18.125 5.80116 17.8091 6.73112 17.2654 7.50112C17.1812 7.61737 17.0958 7.73112 17 7.84112C16.7993 8.08111 16.5714 8.30224 16.3241 8.49849ZM29 13.9995V18.9994C29 19.2756 28.767 19.4994 28.4821 19.4994H21.2321C20.5446 19.4994 19.8857 19.2369 19.4028 18.7669C18.916 18.2982 18.6428 17.6619 18.6428 17.0007V15.9995C18.6428 15.337 18.916 14.6995 19.4028 14.232C19.8857 13.7633 20.5446 13.4983 21.2321 13.4983H28.4821C28.767 13.4983 29 13.7245 29 13.9995ZM22.268 15.4995C21.6957 15.4995 21.2323 15.9482 21.2323 16.4994C21.2323 17.0519 21.6957 17.4982 22.268 17.4982C22.8415 17.4982 23.3037 17.0519 23.3037 16.4994C23.3037 15.9482 22.8415 15.4995 22.268 15.4995Z" fill="white"/>
</svg>
