<svg width="18" height="12" viewBox="0 0 18 12" fill="none" xmlns="http://www.w3.org/2000/svg">
    <!-- Eye Path -->
    <path fill-rule="evenodd" clip-rule="evenodd"
        d="M17.0186 6C17.0186 5.63766 16.8232 5.40344 16.4325 4.935C15.0985 3.33593 12.2716 0.5 8.99979 0.5C5.72801 0.5 2.90107 3.33593 1.56712 4.935C1.17634 5.40344 0.980957 5.63766 0.980957 6C0.980957 6.36234 1.17634 6.59656 1.56712 7.065C2.90107 8.66407 5.72801 11.5 8.99979 11.5C12.2716 11.5 15.0985 8.66407 16.4325 7.065C16.8232 6.59656 17.0186 6.36234 17.0186 6ZM8.99979 8.75C10.5186 8.75 11.7498 7.51878 11.7498 6C11.7498 4.48122 10.5186 3.25 8.99979 3.25C7.48101 3.25 6.24979 4.48122 6.24979 6C6.24979 7.51878 7.48101 8.75 8.99979 8.75Z"
        fill="white" />

    <!-- Slash Line -->
    <line x1="1" y1="11" x2="17" y2="1" stroke="white" stroke-width="2" stroke-linecap="round" />
</svg>
  