<svg width="15" height="16" viewBox="0 0 15 16" fill="none" xmlns="http://www.w3.org/2000/svg">
<path d="M0 1.84305V0.491424C0 0.220311 0.214247 0 0.476925 0H14.5314C14.7903 0 15 0.216411 15 0.483624V1.84229H0.000174473L0 1.84305ZM0.232407 2.81028L4.87918 9.2988H6.35691C6.61581 9.2988 6.82552 9.51521 6.82552 9.78243C6.82552 10.0496 6.61583 10.2661 6.35691 10.2661H5.34021V13.5522C5.34021 13.8546 5.49162 14.1249 5.74522 14.2749L8.44933 15.8859C8.57651 15.9625 8.7158 16 8.85433 16C8.99287 16 9.13141 15.9625 9.25707 15.8867C9.51068 15.7367 9.66208 15.4664 9.66208 15.164V9.94116L14.7691 2.8096L0.232407 2.81028Z" fill="white"/>
</svg>
