<svg width="34" height="34" viewBox="0 0 34 34" fill="none" xmlns="http://www.w3.org/2000/svg">
<path fill-rule="evenodd" clip-rule="evenodd" d="M34 20.7556L26.282 13.4123L14.3937 24.6543C13.9554 25.0676 13.2663 25.0646 12.831 24.6411L9.86926 21.7531L0.374567 30.3329C1.20685 32.4992 3.30529 34 5.69141 34H28.3063C31.4363 34 33.9994 31.4367 33.9994 28.3068L34 20.7556ZM0 27.6309V5.69164C0 2.56317 2.5633 0 5.6916 0H28.3065C31.4365 0 33.9996 2.56332 33.9996 5.69164V17.6344L27.0712 11.0425C26.6403 10.6234 25.9511 10.6146 25.5084 11.0307L13.6307 22.2636L10.6882 19.3934L10.6867 19.3949C10.2632 18.9832 9.58728 18.9654 9.14313 19.3668L0 27.6309ZM9.51396 7.86841C8.43079 6.78524 6.78538 8.43066 7.86855 9.51384C8.95171 10.597 10.5971 8.95158 9.51396 7.86841ZM8.69051 5.26086C6.79573 5.26086 5.26101 6.79706 5.26101 8.69039C5.26101 11.7362 8.96059 13.271 11.1166 11.1165C13.2725 8.96046 11.7363 5.26086 8.69051 5.26086Z" fill="url(#paint0_linear_335_327)"/>
<defs>
<linearGradient id="paint0_linear_335_327" x1="4.80658" y1="1.41901" x2="16.6588" y2="31.2636" gradientUnits="userSpaceOnUse">
<stop stop-color="#E82227"/>
<stop offset="1" stop-color="#F79420"/>
</linearGradient>
</defs>
</svg>
