<svg width="14" height="13" viewBox="0 0 14 13" fill="none" xmlns="http://www.w3.org/2000/svg">
<path d="M3.95238 11.5714L12.0476 11.5714C12.5736 11.5714 13 11.145 13 10.619V4.42855C13 3.90257 12.5736 3.47617 12.0476 3.47617L3.95238 3.47617C3.4264 3.47617 3 3.90257 3 4.42855V10.619C3 11.145 3.4264 11.5714 3.95238 11.5714Z" stroke="white" stroke-linecap="round" stroke-linejoin="round"/>
<path d="M1 9V1.94118C1 1.69156 1.10536 1.45217 1.29289 1.27566C1.48043 1.09916 1.73478 1 2 1H11" stroke="white" stroke-linecap="round" stroke-linejoin="round"/>
<path d="M4 11L7.36257 7.29213C7.4421 7.20087 7.53887 7.1278 7.64678 7.07752C7.75469 7.02725 7.87141 7.00086 7.98957 7.00002C8.10773 6.99918 8.22478 7.02391 8.33334 7.07265C8.4419 7.12138 8.53961 7.19307 8.62032 7.2832L12 10.9821" stroke="white" stroke-linecap="round" stroke-linejoin="round"/>
</svg>
