<svg width="24" height="25" viewBox="0 0 24 25" fill="none" xmlns="http://www.w3.org/2000/svg">
    <path
        d="M11.9994 0C11.535 0 11.0692 0.145408 10.6782 0.437489L1.20994 7.46807C0.449289 8.03313 0 8.92982 0 9.88261V23.1862C0 24.1811 0.812523 25 1.79971 25H22.2003C23.1875 25 24 24.1811 24 23.1862L23.9987 9.88261C23.9987 8.93106 23.5494 8.0331 22.7888 7.46807L13.3219 0.437489C12.9308 0.146672 12.4639 0 11.9994 0ZM7.19909 15.9286C7.35855 15.9286 7.51169 15.9924 7.62433 16.1059C7.73697 16.2194 7.79899 16.3737 7.79899 16.5345V20.7667C7.79899 20.9274 7.73697 21.0804 7.62433 21.194C7.5117 21.3075 7.35855 21.3713 7.19909 21.3713C7.04088 21.3713 6.88774 21.3075 6.7751 21.194C6.66246 21.0804 6.59918 20.9274 6.59918 20.7667V16.5345C6.59918 16.2003 6.86875 15.9286 7.19909 15.9286ZM11.9994 15.9286C12.331 15.9286 12.5994 16.2003 12.5994 16.5345V20.7667C12.5994 20.9274 12.5361 21.0804 12.4234 21.194C12.3108 21.3075 12.1589 21.3713 11.9995 21.3713C11.84 21.3713 11.6881 21.3075 11.5755 21.194C11.4628 21.0804 11.3996 20.9274 11.3996 20.7667V16.5345C11.3996 16.2003 11.6678 15.9286 11.9994 15.9286ZM16.7998 15.9286C17.1301 15.9286 17.3997 16.2003 17.3997 16.5345V20.7667C17.3997 20.9274 17.3364 21.0804 17.2238 21.194C17.1112 21.3075 16.958 21.3713 16.7998 21.3713C16.6404 21.3713 16.4872 21.3075 16.3746 21.194C16.2619 21.0804 16.1999 20.9274 16.1999 20.7667V16.5345C16.1999 16.2003 16.4682 15.9286 16.7998 15.9286Z"
        fill="white" />
</svg>