<svg width="24" height="23" viewBox="0 0 24 23" fill="none" xmlns="http://www.w3.org/2000/svg">
    <path fill-rule="evenodd" clip-rule="evenodd"
        d="M14.2564 0.779332L22.6289 7.40736C23.4553 8.06116 23.9382 9.03927 23.9436 10.0747L23.9999 19.5121C24.0107 21.428 22.421 22.9897 20.4489 23H3.57236C1.59898 23 0 21.4475 0 19.5331V19.5123L0.0563434 10.0749C0.0617095 9.03944 0.544667 8.06132 1.37103 7.40752L9.74352 0.779499C11.0569 -0.259833 12.9429 -0.26 14.2564 0.779332ZM12 11.6898C11.4312 11.6898 10.9697 12.1378 10.9697 12.69V18.6656C10.9697 19.2178 11.4312 19.6658 12 19.6658C12.5688 19.6658 13.0303 19.2178 13.0303 18.6656V12.69C13.0303 12.1378 12.5688 11.6898 12 11.6898Z"
        fill="white" />
</svg>