<svg width="8" height="12" viewBox="0 0 8 12" fill="none" xmlns="http://www.w3.org/2000/svg">
<path d="M1.01172 12C0.958984 11.9355 0.932617 11.8652 0.932617 11.7891C0.932617 11.7129 0.953125 11.6338 0.994141 11.5518C1.0293 11.4639 1.07324 11.3906 1.12598 11.332C1.62988 11.332 2.01074 11.2441 2.26855 11.0684C2.52637 10.8926 2.71094 10.5674 2.82227 10.0928C2.85156 9.95215 2.99805 9.375 3.26172 8.36133C3.64258 6.88477 3.93555 5.66895 4.14062 4.71387C4.35156 3.75293 4.45703 2.9502 4.45703 2.30566C4.45703 1.99512 4.33984 1.79297 4.10547 1.69922C3.87109 1.60547 3.56348 1.55273 3.18262 1.54102C3.17676 1.50586 3.16797 1.46484 3.15625 1.41797C3.15039 1.36523 3.14746 1.32129 3.14746 1.28613C3.14746 1.11035 3.19141 0.978516 3.2793 0.890625H7.63867C7.64453 0.902344 7.65625 0.928711 7.67383 0.969727C7.69141 1.00488 7.7002 1.03711 7.7002 1.06641C7.7002 1.21875 7.63867 1.37695 7.51562 1.54102C7.17578 1.54102 6.89453 1.5791 6.67188 1.65527C6.45508 1.72559 6.27637 1.85156 6.13574 2.0332C6.00098 2.21484 5.89551 2.46973 5.81934 2.79785C5.72559 3.20215 5.57617 3.79687 5.37109 4.58203C5.00195 5.99414 4.71191 7.18652 4.50098 8.15918C4.2959 9.12598 4.19336 9.92871 4.19336 10.5674C4.19336 10.8838 4.31055 11.0918 4.54492 11.1914C4.7793 11.2852 5.08691 11.3379 5.46777 11.3496C5.47363 11.3789 5.47949 11.4199 5.48535 11.4727C5.49707 11.5254 5.50293 11.5693 5.50293 11.6045C5.50293 11.7803 5.45898 11.9121 5.37109 12H1.01172Z" fill="#333333"/>
</svg>
