<svg width="105" height="106" viewBox="0 0 105 106" fill="none" xmlns="http://www.w3.org/2000/svg">
    <path
        d="M12.1488 105.111L104.841 93.2786L93.0084 0.58645L0.316292 12.4193L12.1488 105.111ZM17.4839 76.7335C17.76 78.3389 16.6821 79.8644 15.0767 80.1405C13.4713 80.4166 11.9457 79.3388 11.6696 77.7334C11.3935 76.1276 12.4714 74.6024 14.0768 74.3263C15.6825 74.0502 17.2078 75.1281 17.4839 76.7335ZM12.5428 38.0261C12.8189 39.6318 11.741 41.1571 10.1356 41.4331C8.5302 41.7092 7.00467 40.6314 6.72859 39.026C6.45251 37.4205 7.53034 35.895 9.13576 35.6189C10.7412 35.3429 12.2667 36.4207 12.5428 38.0261Z"
        fill="#B29EC3" />
</svg>