<svg width="115" height="115" viewBox="0 0 115 115" fill="none" xmlns="http://www.w3.org/2000/svg">
<path d="M7.75928 17.4315L18.0455 108.814L109.428 98.5278L99.1419 7.14522L7.75928 17.4315ZM16.4616 23.2557C16.5216 23.7892 16.1377 24.2703 15.6042 24.3306L12.4712 24.6834C11.9376 24.7434 11.4566 24.3595 11.3962 23.826L11.0435 20.693C10.9834 20.1594 11.3673 19.6781 11.9009 19.618L15.0339 19.2652C15.5675 19.2052 16.0488 19.5891 16.1088 20.1227L16.4616 23.2557ZM25.412 22.248C25.4721 22.7816 25.0882 23.2626 24.5546 23.3229L21.4216 23.6757C20.8881 23.7357 20.407 23.3518 20.3467 22.8183L19.9939 19.6853C19.9339 19.1517 20.3178 18.6707 20.8513 18.6103L23.9843 18.2575C24.5179 18.1975 24.9992 18.5814 25.0593 19.115L25.412 22.248ZM34.3629 21.2405C34.4229 21.7741 34.039 22.2551 33.5055 22.3155L30.3724 22.6682C29.8389 22.7283 29.3578 22.3443 29.2975 21.8108L28.9448 18.6778C28.8847 18.1443 29.2686 17.6632 29.8022 17.6029L32.9351 17.2501C33.4687 17.1901 33.9498 17.574 34.0101 18.1075L34.3629 21.2405ZM43.3134 20.2331C43.3734 20.7667 42.9895 21.2477 42.4559 21.3081L39.323 21.6609C38.7894 21.7209 38.3084 21.337 38.248 20.8034L37.8952 17.6704C37.8352 17.1369 38.2191 16.6555 38.7526 16.5955L41.8857 16.2427C42.4192 16.1827 42.9003 16.5666 42.9606 17.1001L43.3134 20.2331ZM52.2641 19.2254C52.3242 19.759 51.9402 20.24 51.4067 20.3004L48.2737 20.6531C47.7401 20.7132 47.2588 20.3293 47.1988 19.7957L46.846 16.6627C46.786 16.1291 47.1699 15.6481 47.7034 15.5877L50.8364 15.235C51.37 15.1749 51.851 15.5589 51.9114 16.0924L52.2641 19.2254ZM61.2146 18.218C61.2747 18.7516 60.8908 19.2329 60.3572 19.293L57.2242 19.6457C56.6907 19.7058 56.2093 19.3219 56.1493 18.7883L55.7965 15.6553C55.7365 15.1217 56.1204 14.6407 56.6539 14.5803L59.7869 14.2276C60.3205 14.1675 60.8015 14.5515 60.8619 15.085L61.2146 18.218ZM70.1655 17.2106C70.2255 17.7441 69.8416 18.2252 69.3081 18.2855L66.1751 18.6383C65.6415 18.6983 65.1605 18.3144 65.1001 17.7809L64.7473 14.6479C64.6873 14.1143 65.0712 13.6333 65.6048 13.5729L68.7377 13.2202C69.2713 13.1601 69.7524 13.5441 69.8127 14.0776L70.1655 17.2106ZM79.116 16.2032C79.176 16.7368 78.7921 17.2178 78.2586 17.2782L75.1256 17.6309C74.592 17.691 74.1109 17.307 74.0506 16.7735L73.6979 13.6405C73.6378 13.1069 74.0218 12.6259 74.5553 12.5655L77.6883 12.2128C78.2218 12.1527 78.7029 12.5367 78.7632 13.0702L79.116 16.2032ZM88.0668 15.1954C88.1268 15.729 87.7429 16.21 87.2093 16.2704L84.0763 16.6232C83.5427 16.6832 83.0614 16.2993 83.0014 15.7657L82.6486 12.6327C82.5886 12.0992 82.9725 11.6181 83.506 11.5578L86.639 11.205C87.1726 11.145 87.6536 11.5289 87.714 12.0624L88.0668 15.1954ZM97.0172 14.1881C97.0773 14.7216 96.6933 15.2027 96.1598 15.2627L93.0268 15.6155C92.4932 15.6755 92.0119 15.2916 91.9518 14.758L91.5991 11.625C91.539 11.0915 91.9229 10.6104 92.4565 10.5501L95.5895 10.1973C96.1231 10.1373 96.6041 10.5212 96.6645 11.0547L97.0172 14.1881Z" fill="#CFD0D2"/>
<path d="M5.94189 16.1562L16.2281 107.539L107.611 97.2526L97.3245 5.86998L5.94189 16.1562ZM14.6442 21.9804C14.7043 22.514 14.3203 22.995 13.7868 23.0554L10.6538 23.4081C10.1202 23.4682 9.63918 23.0842 9.57882 22.5507L9.22608 19.4177C9.16603 18.8841 9.54991 18.4028 10.0835 18.3428L13.2165 17.99C13.7501 17.93 14.2314 18.3138 14.2915 18.8474L14.6442 21.9804ZM23.5947 20.9727C23.6547 21.5063 23.2708 21.9873 22.7373 22.0477L19.6043 22.4004C19.0707 22.4605 18.5896 22.0765 18.5293 21.543L18.1765 18.41C18.1165 17.8764 18.5004 17.3954 19.0339 17.3351L22.1669 16.9823C22.7005 16.9223 23.1819 17.3061 23.2419 17.8397L23.5947 20.9727ZM32.5455 19.9653C32.6055 20.4989 32.2216 20.9799 31.6881 21.0403L28.5551 21.393C28.0215 21.453 27.5404 21.0691 27.4801 20.5356L27.1274 17.4026C27.0673 16.869 27.4513 16.388 27.9848 16.3276L31.1178 15.9749C31.6513 15.9148 32.1324 16.2988 32.1927 16.8323L32.5455 19.9653ZM41.496 18.9579C41.556 19.4915 41.1721 19.9725 40.6386 20.0329L37.5056 20.3856C36.972 20.4457 36.491 20.0617 36.4306 19.5282L36.0778 16.3952C36.0178 15.8616 36.4017 15.3803 36.9353 15.3202L40.0683 14.9675C40.6019 14.9074 41.0829 15.2914 41.1433 15.8249L41.496 18.9579ZM50.4467 17.9502C50.5068 18.4837 50.1229 18.9648 49.5893 19.0251L46.4563 19.3779C45.9228 19.4379 45.4414 19.054 45.3814 18.5204L45.0286 15.3875C44.9686 14.8539 45.3525 14.3729 45.886 14.3125L49.0191 13.9597C49.5526 13.8997 50.0337 14.2836 50.094 14.8171L50.4467 17.9502ZM59.3973 16.9428C59.4573 17.4763 59.0734 17.9577 58.5398 18.0177L55.4069 18.3705C54.8733 18.4305 54.3919 18.0467 54.3319 17.5131L53.9791 14.3801C53.9191 13.8465 54.303 13.3655 54.8366 13.3051L57.9695 12.9523C58.5031 12.8923 58.9841 13.2762 59.0445 13.8098L59.3973 16.9428ZM68.3481 15.9353C68.4081 16.4689 68.0242 16.9499 67.4907 17.0103L64.3577 17.363C63.8241 17.4231 63.3431 17.0392 63.2827 16.5056L62.93 13.3726C62.8699 12.8391 63.2538 12.358 63.7874 12.2977L66.9204 11.9449C67.4539 11.8849 67.935 12.2688 67.9953 12.8023L68.3481 15.9353ZM77.2986 14.928C77.3587 15.4615 76.9747 15.9426 76.4412 16.0029L73.3082 16.3557C72.7746 16.4157 72.2936 16.0318 72.2332 15.4982L71.8805 12.3652C71.8204 11.8317 72.2044 11.3506 72.7379 11.2903L75.8709 10.9375C76.4045 10.8775 76.8855 11.2614 76.9458 11.7949L77.2986 14.928ZM86.2494 13.9202C86.3094 14.4538 85.9255 14.9348 85.392 14.9952L82.2589 15.3479C81.7254 15.408 81.244 15.0241 81.184 14.4905L80.8312 11.3575C80.7712 10.8239 81.1551 10.3429 81.6886 10.2825L84.8216 9.92979C85.3552 9.86974 85.8363 10.2537 85.8966 10.7872L86.2494 13.9202ZM95.1999 12.9128C95.2599 13.4464 94.876 13.9274 94.3424 13.9875L91.2094 14.3402C90.6758 14.4003 90.1945 14.0164 90.1344 13.4828L89.7817 10.3498C89.7216 9.81623 90.1056 9.3352 90.6391 9.27484L93.7721 8.9221C94.3057 8.86205 94.7867 9.24597 94.8471 9.77949L95.1999 12.9128Z" fill="#B8565A"/>
<path d="M13.6632 37.4637L14.49 37.3707L15.1571 37.2956L15.9838 37.2023L16.9706 37.0912L17.7974 36.9983L18.4645 36.9231L19.2913 36.8302L20.1181 36.7372L21.1049 36.6261L21.7716 36.551L22.6562 36.4514L23.4255 36.3647L24.412 36.2537L25.2388 36.1607L25.9058 36.0856L26.7329 35.9926L27.7194 35.8815L28.3862 35.8064L29.2133 35.7134L30.0401 35.6204L31.0265 35.5091L31.6936 35.4342L32.6801 35.3232L33.3475 35.2479L34.334 35.1369L35.001 35.0617L35.8278 34.9688L36.6546 34.8758L37.6414 34.7647L38.3082 34.6896L39.1353 34.5966L40.1218 34.4855L40.7885 34.4105L41.6156 34.3171L42.4424 34.2242L43.4289 34.1131L44.0959 34.038L44.9231 33.945L45.7499 33.852L45.852 33.8405L45.9096 33.8339L46.7363 33.741L47.4034 33.6658L48.3899 33.5547L49.0572 33.4795L50.0438 33.3685L50.7105 33.2934L51.6971 33.1826L52.3644 33.1074L53.3509 32.9964L54.0179 32.9212L54.8447 32.8282L55.6719 32.7352L56.6583 32.6239L57.3254 32.549L58.1522 32.4558L58.9789 32.3628L59.9654 32.2518L60.6325 32.1766L61.4593 32.0836L62.2864 31.9907L63.2729 31.8796L64.0994 31.7864L64.7667 31.7115L65.7532 31.6004L66.4203 31.5253L67.4068 31.4142L68.0742 31.339L69.0607 31.2279L69.7274 31.1528L70.5545 31.0598L71.541 30.9488L72.3678 30.8558L73.0349 30.7807L73.8617 30.6877L74.6887 30.5944L75.6752 30.4833L76.3423 30.4085L77.169 30.3152L77.9958 30.2223L78.9827 30.1112L79.8092 30.0183L79.8091 30.018L80.4765 29.9431L81.3033 29.8501L82.2898 29.739L83.1166 29.6458L83.7836 29.5706L84.6107 29.4776L85.5972 29.3666L86.2643 29.2914L87.0911 29.1985L87.9179 29.1055L88.9047 28.9944L89.5714 28.9193L90.3982 28.8263L91.385 28.7152L92.0518 28.6401L92.8788 28.5468L93.7056 28.4539L94.6921 28.3428L95.5189 28.2498L95.4962 28.0473L94.5094 28.1584L93.6829 28.2513L93.0155 28.3265L92.1887 28.4195L91.2022 28.5305L90.5352 28.6057L89.7084 28.6986L88.7216 28.8097L88.0548 28.8848L87.228 28.9778L86.2412 29.0889L85.4144 29.1819L84.7474 29.257L83.9206 29.3503L83.0935 29.4433L82.107 29.5543L81.4403 29.6294L80.6132 29.7224L79.7864 29.8154L78.7999 29.9265L77.9731 30.0197L77.306 30.0946L76.479 30.1879L75.4924 30.2989L74.8257 30.3737L74.7235 30.3856L74.666 30.3918L73.9986 30.467L73.1718 30.56L72.1853 30.6711L71.5183 30.7462L70.6911 30.8392L69.8644 30.9325L68.8779 31.0435L68.2108 31.1184L67.3841 31.2116L66.5573 31.3046L65.5705 31.4157L64.9037 31.4908L64.0766 31.5838L63.0901 31.6949L62.2636 31.7878L62.2637 31.7881L61.5963 31.863L60.6098 31.974L59.7829 32.067L58.9562 32.1603L58.2888 32.2355L57.462 32.3284L56.4755 32.4395L55.8085 32.5146L54.9817 32.6076L54.1549 32.7005L53.1681 32.8116L52.5013 32.8867L51.5148 32.9978L50.8475 33.073L49.861 33.1841L49.1939 33.2589L49.0917 33.2704L49.0342 33.277L48.3672 33.3522L47.54 33.4452L46.5535 33.5562L45.8865 33.6314L45.0597 33.7244L44.2329 33.8176L43.2461 33.9284L42.5794 34.0035L41.7526 34.0968L40.9255 34.1898L40.099 34.2827L39.2719 34.376L38.4451 34.4689L37.4586 34.58L36.7916 34.6552L35.9648 34.7481L35.1377 34.8414L34.1512 34.9522L33.4841 35.0273L32.6574 35.1206L31.8306 35.2136L30.8438 35.3247L30.177 35.3998L29.3502 35.4927L28.5231 35.5857L27.5366 35.6968L26.8696 35.7719L25.8831 35.883L25.216 35.9581L24.3892 36.0511L23.4027 36.1622L22.7354 36.2374L21.9086 36.3303L21.0821 36.4235L20.255 36.5165L19.4282 36.6095L18.6012 36.7028L17.7747 36.7957L16.9476 36.8887L16.1208 36.982L15.294 37.0749L14.4672 37.1679L13.6405 37.2611L12.654 37.3722L12.6767 37.5748L13.6632 37.4637Z" fill="#FF886B"/>
<path d="M14.2765 44.3455L15.103 44.2526L15.93 44.1593L16.9165 44.0482L17.5839 43.9733L18.4104 43.8801L19.3969 43.769L20.0643 43.6941L20.891 43.6009L21.8775 43.4898L22.5446 43.4147L23.3717 43.3217L24.1985 43.2287L25.185 43.1177L25.852 43.0425L26.6788 42.9496L27.5059 42.8562L28.4924 42.7452L29.1592 42.6704L29.9862 42.5771L30.8705 42.4775L31.7996 42.373L32.4666 42.2979L33.2934 42.2049L34.1205 42.1119L35.107 42.0009L35.7741 41.9257L36.6009 41.8328L37.5874 41.7217L37.5873 41.7214L38.4141 41.6284L39.0811 41.5533L39.9079 41.4603L40.8947 41.3492L41.5615 41.2741L42.5483 41.163L43.2154 41.0882L44.2019 40.9771L45.0287 40.8838L45.6957 40.809L46.5228 40.7157L47.5093 40.6046L48.1764 40.5295L49.0032 40.4365L49.83 40.3436L50.8168 40.2325L51.4835 40.1574L52.3103 40.0644L53.1374 39.9711L54.1239 39.8603L54.791 39.7852L55.6177 39.6919L56.6042 39.5809L57.4313 39.4878L58.098 39.4128L58.9252 39.3197L59.752 39.2268L60.7385 39.1157L61.4055 39.0406L62.2323 38.9473L63.0594 38.8543L64.0459 38.7433L64.7126 38.6682L65.5972 38.5686L66.5262 38.4641L67.1933 38.3889L68.1798 38.2779L68.8472 38.203L69.8337 38.0919L70.5004 38.0168L71.3275 37.9238L72.314 37.8128L73.1408 37.7195L73.8078 37.6443L74.6346 37.5514L75.6211 37.4403L76.4483 37.3473L77.115 37.2722L77.9421 37.1792L78.7688 37.0859L79.7554 36.9752L80.4224 36.9L81.2495 36.8067L82.0763 36.7138L83.0628 36.6027L83.7298 36.5276L84.5566 36.4346L85.3834 36.3417L86.3702 36.2305L87.037 36.1554L88.0235 36.0444L88.6909 35.9692L88.793 35.9576L88.8506 35.9514L89.6773 35.8581L90.3444 35.783L91.3309 35.6722L91.3309 35.6719L92.1577 35.5789L92.8247 35.5038L93.6519 35.4108L94.4787 35.3178L95.4652 35.2068L96.2916 35.1136L96.2688 34.911L95.4424 35.0042L94.4559 35.1153L93.7885 35.1902L92.9618 35.2834L92.135 35.3764L91.3082 35.4693L90.4814 35.5626L89.4946 35.6737L88.8278 35.7485L88.0007 35.8418L87.1739 35.9348L86.1874 36.0458L85.5204 36.121L84.6936 36.2139L83.8665 36.3069L82.88 36.418L82.2129 36.4932L81.3862 36.5864L80.3996 36.6972L79.7326 36.7723L78.9058 36.8656L78.079 36.9585L77.2519 37.0515L76.4255 37.1448L75.5984 37.2378L74.7716 37.3307L73.9448 37.424L73.118 37.5169L72.2913 37.6102L71.4642 37.7032L70.6374 37.7962L69.8106 37.8894L69.8109 37.889L68.8241 38.0005L68.157 38.0753L67.33 38.1686L66.5035 38.2615L65.6767 38.3545L64.8496 38.4478L64.0231 38.5407L63.196 38.6337L62.3693 38.727L61.5425 38.8199L60.7157 38.9129L59.8889 39.0061L59.0618 39.0991L58.2351 39.1924L57.4086 39.2853L56.5815 39.3783L55.7547 39.4716L54.9276 39.5646L54.1011 39.6575L53.2744 39.7507L52.4473 39.8437L51.6205 39.9367L50.7937 40.0299L49.9669 40.1229L49.1401 40.2159L48.3131 40.3092L47.4866 40.4021L46.6595 40.4951L45.6729 40.6061L45.0056 40.6813L44.1791 40.7745L44.1791 40.7742L43.1926 40.8856L42.5253 40.9605L41.6985 41.0538L40.872 41.1467L40.0449 41.2397L39.2181 41.3329L38.3913 41.4259L37.5645 41.5188L36.7375 41.6122L35.9107 41.7051L35.0842 41.798L34.2571 41.8913L33.4303 41.9843L32.6033 42.0776L31.7768 42.1705L30.95 42.2634L30.1229 42.3564L29.2961 42.4497L28.4693 42.5426L28.4696 42.5426L27.6426 42.6359L26.8158 42.7289L25.9887 42.8219L25.1622 42.9151L24.3351 43.0081L23.5083 43.1011L22.5218 43.2121L21.8548 43.2873L21.028 43.3802L20.0415 43.4913L19.3741 43.5665L18.5476 43.6594L17.7206 43.7527L16.8938 43.8456L16.0667 43.939L15.2402 44.0319L14.4134 44.1248L13.4266 44.2359L13.4497 44.4384L14.2765 44.3455Z" fill="#FF886B"/>
<path d="M15.0492 51.2095L15.8757 51.1163L16.7028 51.0233L17.5295 50.93L18.3563 50.837L19.1832 50.7441L20.0099 50.6508L20.837 50.5578L21.6638 50.4649L22.4906 50.3716L23.3174 50.2787L24.1441 50.1857L25.1307 50.0746L25.7977 49.9995L26.6248 49.9065L27.4515 49.8132L28.2784 49.7203L29.1051 49.627L29.9319 49.5341L30.7587 49.4411L31.5858 49.3481L32.4122 49.2549L33.2394 49.1619L34.0661 49.0686L34.8929 48.9757L35.7197 48.8827L36.7062 48.7717L37.3736 48.6965L38.2004 48.6035L39.0268 48.5103L39.8539 48.4173L40.6807 48.3243L41.5075 48.2311L42.3343 48.1381L43.1613 48.0448L43.9881 47.9519L44.8146 47.859L45.6417 47.766L46.4685 47.6727L47.2953 47.5797L48.122 47.4865L48.9488 47.3935L49.7759 47.3005L50.7624 47.1894L51.4292 47.1144L52.2563 47.0213L53.083 46.9281L53.9101 46.8351L54.7366 46.7422L55.5637 46.6489L56.3905 46.5559L57.2173 46.463L58.044 46.3697L58.8708 46.2768L59.8573 46.1657L60.5247 46.0905L61.5112 45.9794L62.338 45.8865L63.005 45.8113L63.8322 45.7183L64.8186 45.6072L65.4854 45.5322L66.3125 45.4391L67.1389 45.3459L67.9661 45.2529L68.7928 45.1597L69.6196 45.0667L70.4464 44.9738L71.2732 44.8808L72.1002 44.7875L72.927 44.6946L73.7535 44.6013L74.5806 44.5083L75.4074 44.4154L76.2341 44.3221L77.0609 44.2292L77.8877 44.1362L78.7148 44.0429L79.5416 43.9499L80.5281 43.8389L81.1952 43.7637L82.0219 43.6708L82.849 43.5775L83.8356 43.4667L84.5026 43.3916L85.4891 43.2805L86.1562 43.2053L87.143 43.0942L87.9695 43.0013L88.6365 42.9262L89.4636 42.8332L90.4501 42.7221L91.1172 42.647L91.944 42.554L92.7707 42.4607L93.5975 42.3678L94.4243 42.2749L95.2513 42.1815L96.2379 42.0705L97.0644 41.9776L97.0416 41.775L96.2151 41.8679L95.388 41.9609L94.5613 42.0542L93.7344 42.1471L92.9077 42.2404L92.0809 42.3333L91.2538 42.4263L90.4274 42.5196L89.6006 42.6125L88.6137 42.7236L87.9467 42.7988L87.1199 42.8917L86.1334 43.0028L85.4664 43.0779L84.6393 43.1709L83.8128 43.2642L83.8128 43.2638L82.9857 43.3571L82.1589 43.4501L81.3321 43.5431L80.5053 43.6363L79.6786 43.7293L78.8515 43.8226L78.0247 43.9155L77.1979 44.0085L76.3711 44.1018L75.5443 44.1947L74.7172 44.2877L73.8908 44.3809L73.064 44.4739L72.2369 44.5669L71.4101 44.6601L70.5833 44.7531L69.7565 44.8461L68.9295 44.9394L68.1027 45.0323L67.2763 45.1255L66.4492 45.2185L65.4626 45.3296L64.7956 45.4047L63.9688 45.4977L62.9823 45.6088L62.3149 45.684L61.4885 45.7768L60.6617 45.8698L59.8346 45.9631L59.0078 46.0561L58.181 46.149L57.3542 46.2423L56.5271 46.3353L55.7003 46.4283L54.8739 46.5215L54.0468 46.6145L53.22 46.7077L52.3929 46.8007L51.5664 46.8936L50.7397 46.9869L49.9126 47.0799L49.0858 47.1728L48.0992 47.2839L47.4322 47.3591L46.6054 47.452L45.7784 47.5453L44.7919 47.6564L44.1248 47.7312L43.298 47.8245L42.4137 47.924L41.4847 48.0285L40.8177 48.1037L39.8312 48.2147L39.1641 48.2899L39.1641 48.2896L38.3373 48.3828L37.5102 48.4758L36.6835 48.5691L35.8567 48.662L35.0299 48.755L34.2031 48.8483L33.376 48.9413L32.5495 49.0342L31.7228 49.1274L30.8957 49.2204L30.0689 49.3134L29.0823 49.4244L28.2556 49.5177L27.5886 49.5929L26.7615 49.6859L25.7749 49.7969L25.1079 49.8718L24.2811 49.965L23.454 50.058L22.4675 50.1691L21.8008 50.2442L20.9737 50.3372L20.1469 50.4305L19.1603 50.5412L18.4933 50.6164L17.6666 50.7096L16.7819 50.8092L15.8529 50.9137L15.1859 50.9889L14.1994 51.0999L14.2221 51.3025L15.0492 51.2095Z" fill="#FF886B"/>
<path d="M15.8217 58.0732L16.8082 57.9621L17.4749 57.887L18.3021 57.794L19.2886 57.683L20.1154 57.59L20.7824 57.5149L21.7689 57.4038L22.4363 57.3286L23.4228 57.2175L24.0898 57.1424L24.9166 57.0494L25.7437 56.9564L26.7302 56.8454L27.397 56.7702L28.2241 56.6773L29.0508 56.584L29.8773 56.4911L30.7044 56.3981L31.5312 56.3048L32.3583 56.2118L33.1848 56.1189L34.0118 56.0256L34.8386 55.9326L35.6654 55.8397L36.4922 55.7464L37.3189 55.6535L38.1457 55.5602L38.9728 55.4672L39.7993 55.3743L40.6264 55.281L41.4532 55.188L42.4397 55.077L43.1067 55.0018L43.9335 54.9089L44.92 54.7978L45.5871 54.7227L46.4139 54.6297L47.241 54.5367L48.0677 54.4434L48.8945 54.3505L49.7213 54.2576L50.5481 54.1643L51.3752 54.0713L52.2016 53.9781L52.2017 53.9784L53.0287 53.8851L53.8555 53.7921L54.6823 53.6988L55.5091 53.6059L56.4956 53.4948L57.1629 53.4196L57.9897 53.3267L58.8162 53.2338L59.6433 53.1405L60.4701 53.0475L61.2972 52.9545L62.1236 52.8613L62.9504 52.7683L63.7775 52.6753L64.6043 52.5821L65.4311 52.4891L66.2579 52.3962L67.085 52.3029L67.9114 52.21L68.7382 52.1167L69.5653 52.0237L70.3921 51.9307L71.2188 51.8375L72.0456 51.7445L72.8725 51.6516L73.6995 51.5583L74.526 51.4654L75.3528 51.3724L76.1798 51.2791L77.0066 51.1861L77.8334 51.0932L78.6602 50.9999L79.6467 50.8889L80.3141 50.8136L81.1405 50.7208L82.1273 50.6096L82.7944 50.5345L83.6215 50.4415L84.448 50.3486L85.2748 50.2553L86.1019 50.1623L86.9287 50.0694L87.7554 49.9761L88.5822 49.8832L89.409 49.7902L90.2361 49.6969L91.0626 49.604L91.8897 49.511L92.7164 49.4177L93.5429 49.3248L94.3699 49.2315L95.1968 49.1386L96.0239 49.0455L96.8503 48.9523L97.8368 48.8413L97.814 48.6387L96.8276 48.7498L96.1605 48.8249L95.3337 48.9179L94.4491 49.0175L93.5202 49.1223L92.853 49.1971L92.0263 49.2904L91.1998 49.3832L90.3728 49.4766L89.546 49.5695L88.7192 49.6625L87.7323 49.7736L87.0656 49.8487L86.2385 49.9417L85.3542 50.0412L84.4253 50.146L83.7582 50.2209L82.7717 50.3319L82.1043 50.4071L81.1178 50.5182L80.4507 50.5934L79.6239 50.6863L78.7972 50.7792L77.8107 50.8903L77.1436 50.9655L76.3165 51.0585L75.4897 51.1517L74.5032 51.2628L73.8362 51.3379L73.0094 51.4309L72.0229 51.542L71.1958 51.635L70.529 51.7101L69.7019 51.8031L68.7154 51.9141L67.8887 52.0074L67.2216 52.0822L66.3949 52.1755L65.4083 52.2865L64.7412 52.3614L63.9145 52.4547L63.0874 52.5477L62.1009 52.6587L61.4338 52.7339L60.6071 52.8268L59.7224 52.9264L58.7934 53.0309L58.1267 53.106L57.1402 53.2171L56.4728 53.2923L55.4863 53.4033L54.8193 53.4785L53.9925 53.5714L53.006 53.6825L52.1789 53.7755L51.5121 53.8506L50.685 53.9436L49.8583 54.0369L48.8715 54.148L48.045 54.2409L47.3779 54.316L46.5508 54.409L45.5643 54.5201L44.8973 54.5953L44.0705 54.6882L43.2434 54.7815L42.2568 54.8923L41.5901 54.9674L40.7631 55.0607L39.7766 55.1717L39.1095 55.2466L38.2827 55.3398L37.2962 55.4509L36.4691 55.5439L35.8024 55.619L34.9756 55.712L33.9888 55.8231L33.1619 55.916L32.4949 55.9912L31.6682 56.0845L30.8411 56.1775L29.8545 56.2885L29.1878 56.3636L28.3607 56.4566L27.5339 56.5496L26.5474 56.6606L25.8804 56.7358L25.0536 56.8288L24.2265 56.9221L23.24 57.0331L22.5154 57.1145L21.5864 57.219L20.9194 57.2942L19.9329 57.4052L19.2658 57.4804L18.2793 57.5915L17.612 57.6667L16.6254 57.7774L15.9583 57.8526L14.9718 57.9636L14.9946 58.1662L15.8217 58.0732Z" fill="#FF886B"/>
<path d="M16.5938 64.9372L17.5807 64.8261L18.2474 64.751L19.0745 64.6579L19.9012 64.5647L20.8878 64.4536L21.5548 64.3785L22.3816 64.2855L23.2087 64.1925L24.1952 64.0815L24.8623 64.0063L25.689 63.9134L26.5158 63.8201L27.5024 63.7093L28.1694 63.6342L28.9961 63.5409L29.8233 63.4479L30.8098 63.3369L31.6363 63.244L32.3036 63.1688L33.1304 63.0758L34.1172 62.9647L34.784 62.8896L35.611 62.7963L36.4378 62.7033L37.4243 62.5923L38.0914 62.5171L39.0779 62.406L39.7453 62.3312L40.7318 62.2201L41.3985 62.145L41.5007 62.1335L41.5582 62.1269L42.2256 62.052L43.2121 61.9409L43.8792 61.8658L44.706 61.7728L45.5327 61.6796L46.5195 61.5684L47.346 61.4755L48.0134 61.4003L48.8402 61.3074L49.8267 61.1963L50.6535 61.1034L51.3205 61.0282L52.1476 60.9349L53.1341 60.8241L53.8012 60.749L54.6279 60.6557L55.4547 60.5628L56.4412 60.4517L57.1083 60.3766L57.9351 60.2836L58.7622 60.1906L59.7487 60.0796L60.4157 60.0044L61.2425 59.9111L62.229 59.8004L63.0561 59.7071L63.7229 59.6323L64.7093 59.5209L65.3767 59.446L66.3632 59.3349L67.0303 59.2598L67.8571 59.1668L68.8436 59.0558L69.5106 58.9806L70.3374 58.8877L71.1645 58.7944L72.151 58.6833L72.8181 58.6085L73.6449 58.5152L74.4716 58.4223L75.4584 58.3111L76.1252 58.236L76.2274 58.2245L76.2849 58.2182L76.9523 58.143L77.779 58.0498L78.7656 57.9387L79.4327 57.8639L80.2594 57.7706L81.0865 57.6776L82.073 57.5665L82.7397 57.4914L83.5669 57.3984L84.3937 57.3055L85.2204 57.2122L86.0472 57.1193L86.874 57.0263L87.8608 56.9152L88.5276 56.8401L89.3547 56.7471L90.1814 56.6538L91.0085 56.5608L91.835 56.4676L92.6617 56.3747L93.4888 56.2816L94.4754 56.1706L95.1421 56.0955L95.9692 56.0025L96.796 55.9092L97.7828 55.7981L98.6093 55.7052L98.5865 55.5026L97.6 55.6137L96.9329 55.6886L95.9464 55.7996L95.9465 55.7999L95.2791 55.8748L94.2926 55.9859L93.6255 56.061L92.639 56.1721L91.8122 56.265L90.9854 56.3583L90.3184 56.4331L89.4913 56.5265L88.5048 56.6375L87.8377 56.7124L87.0109 56.8056L86.1841 56.8986L85.1973 57.0097L84.5306 57.0848L83.7038 57.1778L82.8767 57.2708L81.8902 57.3818L81.2231 57.457L80.3964 57.5502L79.5693 57.6433L79.4674 57.6547L79.4099 57.6613L78.5828 57.7543L77.9161 57.8294L76.9296 57.9405L76.2622 58.0154L75.2756 58.1264L74.6086 58.2016L73.7818 58.2945L72.9547 58.3878L71.9682 58.4989L71.3015 58.5737L70.4744 58.667L69.6476 58.76L68.6611 58.871L67.9365 58.9527L67.1669 59.0392L66.1804 59.1502L65.354 59.2434L64.6866 59.3183L63.8598 59.4116L62.8733 59.5227L62.2062 59.5975L61.2197 59.7086L60.5524 59.7838L59.5659 59.8949L58.8991 59.9699L57.9123 60.0811L57.2452 60.1559L56.2587 60.267L55.5917 60.3421L54.7649 60.4354L53.7781 60.5462L52.9513 60.6394L52.2843 60.7146L51.4575 60.8075L50.6307 60.9005L49.6439 61.0116L48.9771 61.0867L48.15 61.1797L47.3233 61.273L46.3368 61.384L45.51 61.477L44.8429 61.5522L44.0158 61.6452L43.0293 61.7562L42.2028 61.8491L41.5355 61.9243L40.5489 62.0354L39.8244 62.1171L39.0551 62.2035L38.2284 62.2967L37.2415 62.4076L36.5748 62.4827L35.7477 62.576L34.9209 62.6689L33.9344 62.78L33.2674 62.8551L32.4406 62.9481L31.6135 63.0411L30.627 63.1522L29.9602 63.2272L29.1332 63.3206L28.3064 63.4135L27.3195 63.5246L26.4931 63.6175L25.826 63.6927L24.9989 63.7857L24.0124 63.8968L23.3454 63.9719L22.5186 64.0649L21.6915 64.1582L20.705 64.2692L20.0382 64.344L19.0517 64.4551L18.3843 64.5303L17.3978 64.6413L16.7308 64.7165L16.6286 64.728L16.571 64.7343L15.7443 64.8276L15.7671 65.0301L16.5938 64.9372Z" fill="#FF886B"/>
<path d="M17.3668 71.8009L18.3533 71.6898L19.0204 71.6147L19.8472 71.5217L20.834 71.4106L21.6608 71.3176L22.3278 71.2425L23.1546 71.1495L24.1411 71.0385L24.9682 70.9452L25.635 70.8704L26.462 70.7771L27.2888 70.6841L28.2753 70.573L28.9424 70.4979L29.7692 70.4049L30.5962 70.3116L31.5828 70.2009L32.2495 70.1258L33.1341 70.0262L33.9034 69.9395L34.8899 69.8284L35.6145 69.747L36.5434 69.6422L37.2108 69.5673L38.1973 69.4563L38.8644 69.3811L39.8509 69.27L40.5179 69.1949L41.5047 69.0838L42.1715 69.009L42.9986 68.9157L43.9851 68.8046L44.6521 68.7295L45.4789 68.6365L46.3057 68.5436L47.2926 68.4324L47.9593 68.3574L48.7864 68.2643L49.6131 68.1711L50.5996 68.06L51.2667 67.9852L52.0935 67.8919L52.9206 67.7989L53.9071 67.6878L54.5738 67.6127L55.5603 67.5017L56.2277 67.4265L57.2142 67.3157L57.8813 67.2406L58.7081 67.1476L58.8103 67.1358L58.8678 67.1295L59.5352 67.0543L60.5217 66.9432L61.2463 66.8618L62.0155 66.7752L62.8423 66.6822L63.8288 66.5711L64.4959 66.496L65.323 66.403L66.1497 66.3097L67.1362 66.1986L67.8033 66.1238L68.63 66.0305L69.6166 65.9195L70.3411 65.8381L71.2702 65.7336L71.9375 65.6584L72.924 65.5473L73.5907 65.4722L74.5775 65.3611L75.2446 65.2859L76.2311 65.1749L76.8982 65.1L77.7253 65.0067L78.5521 64.9138L79.5386 64.8027L80.2056 64.7275L81.0324 64.6346L82.0189 64.5235L82.846 64.4305L83.5128 64.3554L84.3399 64.2624L84.4418 64.251L84.4993 64.2444L85.1666 64.1692L86.1531 64.0581L86.9799 63.9651L87.647 63.89L88.4741 63.797L89.4606 63.6859L90.287 63.5927L90.9544 63.5178L91.7812 63.4246L92.7677 63.3135L93.4348 63.2387L94.2615 63.1454L95.2483 63.0343L95.9726 62.9529L96.7422 62.8662L97.569 62.7732L98.5555 62.6622L99.3822 62.5689L99.3595 62.3663L98.3727 62.4775L97.7059 62.5526L96.7194 62.6636L96.0521 62.7388L95.0656 62.8499L94.3985 62.9247L93.5717 63.018L92.5852 63.1291L91.9182 63.2042L91.0911 63.2972L90.2642 63.3902L89.2777 63.5012L88.6107 63.5764L87.7839 63.6693L86.9572 63.7626L85.9704 63.8737L85.1439 63.9666L84.4765 64.0418L83.6497 64.1348L82.6632 64.2458L81.8364 64.3388L81.1694 64.4139L80.3423 64.5069L79.3557 64.618L78.689 64.6931L77.8619 64.7861L77.0352 64.8794L76.0487 64.9904L75.3816 65.0656L74.5548 65.1585L73.568 65.2696L72.7412 65.3626L72.0741 65.4377L71.2474 65.5307L70.4206 65.624L69.4338 65.7351L68.767 65.8099L67.9399 65.9032L66.9534 66.0142L66.1269 66.1071L65.4596 66.1824L64.6328 66.2753L63.6463 66.3864L62.9793 66.4615L61.9927 66.5726L61.3254 66.6478L60.3389 66.7588L59.6718 66.8337L59.5699 66.8452L59.5121 66.8518L58.8451 66.9269L58.0183 67.0199L57.0314 67.131L56.3647 67.2061L55.5376 67.2991L54.7108 67.3921L53.7243 67.5031L53.0572 67.5783L52.2305 67.6712L51.4034 67.7646L50.4169 67.8756L49.7498 67.9508L48.923 68.0437L48.0962 68.1367L47.2695 68.2299L46.4427 68.3229L45.6159 68.4158L44.7888 68.5091L43.9623 68.6021L43.1352 68.6951L42.3085 68.7883L41.322 68.8994L40.6549 68.9742L39.8281 69.0675L38.8416 69.1785L38.0145 69.2715L37.3475 69.3467L36.361 69.4578L35.6939 69.5329L34.7071 69.644L34.0403 69.7188L33.2133 69.8121L32.3865 69.9051L31.4 70.0162L30.7329 70.0913L29.9061 70.1843L29.0793 70.2772L28.2526 70.3705L27.4258 70.4634L26.5987 70.5564L25.7719 70.6497L24.9451 70.7426L24.1184 70.8359L23.2916 70.9289L22.4645 71.0219L21.638 71.1151L20.8109 71.2081L19.9841 71.301L19.1574 71.3943L18.3306 71.4873L17.5038 71.5802L16.5173 71.6913L16.54 71.8938L17.3668 71.8009Z" fill="#FF886B"/>
<path d="M18.299 78.6468L18.966 78.5716L19.7928 78.4787L20.6196 78.3857L21.4467 78.2924L22.2732 78.1995L23.0999 78.1062L23.927 78.0133L24.7538 77.9203L25.5806 77.827L26.4074 77.7341L27.2345 77.6411L28.0612 77.5478L29.0478 77.4371L29.8745 77.3438L30.5416 77.2686L31.3684 77.1757L32.3552 77.0646L33.0219 76.9895L33.849 76.8965L34.6758 76.8035L35.6623 76.6925L36.3294 76.6173L37.1561 76.524L37.9832 76.431L38.9697 76.32L39.6368 76.2448L40.4636 76.1519L41.3479 76.0524L42.2769 75.9479L42.9439 75.8727L43.7707 75.7797L44.7575 75.6686L45.4243 75.5936L46.2514 75.5005L47.0782 75.4073L48.0647 75.2962L48.7317 75.2214L49.5585 75.1281L50.3856 75.0351L51.3721 74.924L52.0391 74.8489L53.0257 74.7378L53.6927 74.663L54.6792 74.5519L55.506 74.4586L56.173 74.3835L57.0002 74.2905L57.9867 74.1794L58.6537 74.1043L59.4805 74.0113L60.467 73.9003L61.2941 73.8073L61.9608 73.7322L62.7879 73.6388L63.7745 73.5281L64.6012 73.4348L65.2683 73.3597L66.095 73.2667L66.9222 73.1737L67.0241 73.1622L67.0819 73.1556L67.9087 73.0627L68.5757 72.9875L69.4025 72.8946L70.389 72.7835L71.0561 72.7084L71.8829 72.6154L72.7099 72.5221L73.6964 72.411L74.3632 72.3362L75.1903 72.2429L76.0745 72.1434L77.0036 72.0389L77.6706 71.9637L78.5549 71.8642L79.4842 71.7597L80.311 71.6667L80.9781 71.5916L81.8048 71.4983L82.6316 71.4054L83.6184 71.2942L84.2852 71.2191L85.1123 71.1261L85.9391 71.0332L86.9256 70.9221L87.5926 70.847L88.4194 70.754L89.2465 70.6607L90.233 70.5496L90.8997 70.4745L91.7268 70.3815L92.5536 70.2886L93.5401 70.1775L94.2072 70.1024L95.1937 69.9913L96.0208 69.8983L96.6875 69.8232L97.5143 69.7303L98.5012 69.6191L99.3279 69.5259L100.154 69.433L100.132 69.2304L99.3051 69.3233L98.4784 69.4166L97.6513 69.5096L96.8245 69.6025L95.9977 69.6958L95.1709 69.7888L94.3441 69.8817L93.3573 69.9928L92.6906 70.0679L91.8635 70.1609L91.0367 70.2542L90.0502 70.3652L89.3831 70.4401L88.5564 70.5333L87.7293 70.6264L86.9028 70.7196L86.9028 70.7192L86.076 70.8125L85.2489 70.9055L84.4222 70.9988L83.5954 71.0918L82.7686 71.1847L81.7821 71.2957L81.1147 71.371L80.2882 71.4639L79.3014 71.575L78.6344 71.6501L77.8072 71.7431L76.9808 71.8363L76.154 71.9293L75.3269 72.0223L74.5002 72.1155L73.6734 72.2085L72.8466 72.3018L72.0198 72.3947L71.1927 72.4877L70.3663 72.5809L69.5395 72.6739L68.7124 72.7669L67.8859 72.8601L67.0588 72.9531L66.232 73.0461L65.4049 73.1394L64.5785 73.2323L63.7517 73.3252L62.9246 73.4185L62.0978 73.5115L61.271 73.6044L60.4442 73.6977L59.6174 73.7907L58.6306 73.9018L57.9639 73.9769L57.1368 74.0699L56.1503 74.1809L55.4832 74.2561L54.6564 74.3491L53.8297 74.4423L53.0026 74.5353L52.1758 74.6283L51.3494 74.7215L50.5222 74.8145L49.6954 74.9074L48.8684 75.0007L48.0419 75.0937L47.2151 75.1869L46.388 75.2799L45.5613 75.3729L44.7348 75.4661L43.9077 75.5591L43.0809 75.652L42.2541 75.7453L41.4273 75.8382L40.6002 75.9313L39.7735 76.0245L38.947 76.1174L38.1199 76.2104L37.2931 76.3037L36.4663 76.3966L35.6395 76.4896L34.8128 76.5828L33.9857 76.6759L32.9992 76.7869L32.3324 76.862L31.5053 76.955L30.5188 77.0661L29.8515 77.1413L29.025 77.2342L28.1982 77.3274L27.3711 77.4204L26.5443 77.5134L25.7176 77.6067L24.8908 77.6996L24.0637 77.7926L23.2369 77.8859L22.4104 77.9788L21.4239 78.0898L20.7566 78.165L19.9295 78.2581L19.103 78.3513L18.2762 78.4442L17.2897 78.5553L17.3125 78.7579L18.299 78.6468Z" fill="#FF886B"/>
<path d="M18.912 85.5286L19.7385 85.4357L20.5656 85.3423L21.3924 85.2494L22.2192 85.1565L23.0459 85.0632L24.0324 84.9521L24.6998 84.8772L25.5266 84.784L26.3531 84.6911L27.1802 84.5981L28.0069 84.5048L28.8341 84.4118L29.6605 84.3189L30.4873 84.2256L31.3144 84.1326L32.1412 84.0397L32.9679 83.9464L33.7947 83.8535L34.6218 83.7601L35.6084 83.6494L36.2751 83.5743L37.1021 83.481L38.0887 83.3699L38.7561 83.295L39.5825 83.2018L40.4093 83.1089L41.2364 83.0159L42.0631 82.9226L42.8897 82.8297L43.7168 82.7367L44.5435 82.6434L45.3703 82.5505L46.1971 82.4575L47.0238 82.3643L47.8509 82.2713L48.6774 82.178L49.664 82.0673L50.3313 81.9921L51.1581 81.8991L51.9849 81.8059L52.8116 81.7129L53.6387 81.6196L54.4655 81.5267L55.292 81.4338L56.1191 81.3404L56.9459 81.2475L57.773 81.1545L58.5994 81.0613L59.4262 80.9683L60.2533 80.875L61.2398 80.7643L61.9069 80.6891L62.7336 80.5958L63.5604 80.5029L64.3875 80.4099L65.2139 80.3167L66.0411 80.2237L66.8679 80.1307L67.6946 80.0374L68.6814 79.9264L69.3482 79.8516L70.1753 79.7582L71.0018 79.6653L71.8286 79.5724L72.8154 79.4613L73.4824 79.3861L74.3092 79.2929L75.2957 79.1821L75.9631 79.1069L76.7898 79.0136L77.6163 78.9207L78.4434 78.8278L79.2702 78.7345L80.097 78.6415L80.9238 78.5486L81.7505 78.4553L82.5776 78.3623L83.4045 78.2694L84.391 78.1583L85.058 78.0831L85.8848 77.9902L86.7118 77.8969L87.6983 77.7858L88.3654 77.7106L89.1922 77.6177L90.019 77.5248L91.0058 77.4136L91.6725 77.3385L92.4996 77.2455L93.3264 77.1523L94.3129 77.0412L94.98 76.9664L95.9665 76.8553L96.6335 76.7801L97.4603 76.6872L98.4468 76.5761L99.1142 76.5009L99.9406 76.4077L100.927 76.297L100.904 76.0941L100.078 76.1873L99.0915 76.2984L98.424 76.3732L97.597 76.4666L96.7705 76.5595L95.9437 76.6524L95.1166 76.7458L94.2902 76.8386L93.4634 76.9319L92.6363 77.0249L91.8095 77.1179L90.9827 77.2111L90.1559 77.3041L89.3292 77.397L88.5021 77.4904L87.6756 77.5833L86.8485 77.6762L86.0217 77.7695L85.1949 77.8625L84.3682 77.9557L83.5414 78.0487L82.7143 78.1417L81.8876 78.2349L81.0607 78.3279L80.2339 78.4208L79.4072 78.5141L78.5801 78.6071L77.7536 78.7L76.9265 78.7933L75.94 78.9044L75.2729 78.9792L74.4462 79.0725L73.4597 79.1836L72.7923 79.2584L71.9655 79.3517L71.139 79.4446L70.312 79.5379L69.4852 79.6309L68.6584 79.7238L68.6587 79.7238L67.8316 79.8168L67.0048 79.9101L66.1777 80.0031L65.3513 80.0962L64.3647 80.207L63.6974 80.2822L62.8706 80.3755L62.0438 80.4684L61.217 80.5614L60.39 80.6547L59.5632 80.7477L58.7367 80.8405L57.9096 80.9339L57.0828 81.0268L56.256 81.1198L55.4293 81.213L54.6025 81.306L53.7754 81.3993L52.8911 81.4988L51.9621 81.6033L51.2951 81.6785L50.3086 81.7895L49.6412 81.8644L48.6547 81.9755L47.9876 82.0507L47.1608 82.1436L46.334 82.2369L45.3475 82.3479L44.6805 82.4231L43.8537 82.516L43.0269 82.609L42.2002 82.7022L41.3731 82.7953L40.5462 82.8882L39.7195 82.9814L39.7194 82.9811L38.7329 83.0922L38.0659 83.1674L37.2388 83.2607L36.2523 83.3714L35.5852 83.4466L34.7585 83.5398L33.9317 83.6328L32.9452 83.7438L32.2781 83.819L31.451 83.912L30.6243 84.0053L29.6377 84.116L28.9707 84.1912L28.1439 84.2841L27.2593 84.384L26.3303 84.4885L25.6636 84.5636L24.8365 84.6566L24.0097 84.7496L23.0232 84.8606L22.3561 84.9358L21.5293 85.0287L20.5428 85.1398L19.7158 85.2331L19.0487 85.308L18.0622 85.419L18.085 85.6219L18.912 85.5286Z" fill="#FF886B"/>
<path d="M19.6845 92.3925L20.671 92.2815L21.338 92.2063L22.1648 92.1134L22.9916 92.0201L23.9781 91.909L24.6452 91.8342L25.4719 91.741L26.299 91.6479L27.2855 91.5369L27.9526 91.4617L28.7794 91.3688L29.6062 91.2758L30.593 91.1647L31.2597 91.0896L32.2462 90.9786L32.9136 90.9033L33.7404 90.8104L34.5672 90.7171L35.3939 90.6242L36.2211 90.5312L37.0475 90.438L37.8746 90.3449L38.7013 90.2517L39.5282 90.1587L40.3549 90.0658L41.1817 89.9728L42.0085 89.8796L42.8356 89.7865L43.6621 89.6934L43.6621 89.6937L44.4892 89.6003L45.316 89.5074L46.3025 89.3963L46.9695 89.3212L47.7963 89.2282L48.6234 89.1349L49.4499 89.042L50.277 88.949L51.1037 88.8558L51.9305 88.7628L52.7573 88.6698L53.584 88.5766L54.4109 88.4836L55.3977 88.3725L56.0644 88.2974L56.8915 88.2044L57.878 88.0934L58.5454 88.0181L59.3719 87.9252L60.1986 87.832L61.0257 87.739L61.8525 87.646L62.6793 87.5528L63.5061 87.4598L64.3329 87.3668L65.1599 87.2736L65.9864 87.1806L66.9729 87.0696L67.6403 86.9944L68.4671 86.9014L69.2938 86.8082L69.2939 86.8085L70.1206 86.7152L70.9477 86.6222L71.7742 86.529L72.601 86.4361L73.4281 86.343L74.2548 86.2498L75.0816 86.1568L75.9084 86.0639L76.7352 85.9706L77.5623 85.8776L78.3887 85.7844L78.3888 85.7847L79.2155 85.6914L80.0426 85.5984L81.0291 85.4874L81.6962 85.4122L82.523 85.3192L83.3498 85.2263L84.1768 85.133L85.0033 85.0401L85.8304 84.9468L86.6572 84.8539L87.4843 84.7608L88.3107 84.6676L89.1375 84.5747L89.9647 84.4817L90.7914 84.3884L91.6182 84.2955L91.6179 84.2955L92.6047 84.1844L93.2717 84.1092L94.0989 84.0162L94.9253 83.923L95.7524 83.83L96.5792 83.7371L97.4056 83.6438L98.2327 83.5509L99.0595 83.4579L99.8866 83.3646L100.713 83.2717L101.7 83.1606L101.677 82.9581L100.69 83.0691L100.023 83.1443L99.1965 83.2372L98.3694 83.3302L97.3829 83.4413L96.7158 83.5165L95.7293 83.6275L95.0626 83.7026L94.2355 83.7956L93.249 83.9067L92.582 83.9818L91.5951 84.093L90.9283 84.1677L90.1013 84.261L89.2745 84.354L88.288 84.4651L87.621 84.5402L86.7942 84.6332L85.9671 84.7265L84.9806 84.8375L84.1541 84.9304L83.4867 85.0056L82.6599 85.0986L81.6734 85.2097L81.0064 85.2848L80.1796 85.3778L79.3525 85.4708L78.366 85.5818L77.6989 85.657L76.8722 85.7502L75.8856 85.861L75.0586 85.9543L74.3918 86.0294L73.5647 86.1224L72.5782 86.2335L71.7514 86.3264L71.0844 86.4016L70.2001 86.5011L69.2711 86.6056L68.604 86.6807L67.7772 86.7737L66.9502 86.867L65.9637 86.9781L65.2966 87.0529L64.4698 87.1462L63.6427 87.2392L62.6562 87.3502L61.9895 87.4253L61.1624 87.5184L60.1759 87.6294L59.3491 87.7224L58.5223 87.8156L57.8553 87.8908L56.8687 88.0018L56.0416 88.0949L55.3749 88.17L54.5478 88.2629L53.721 88.3559L52.7345 88.467L52.0675 88.5421L51.2406 88.6351L50.4136 88.7284L49.4271 88.8395L48.7601 88.9146L47.9333 89.0075L47.1065 89.1005L47.0042 89.112L46.9468 89.1186L46.1196 89.2116L45.4529 89.2867L44.4664 89.3978L43.6393 89.4908L42.9726 89.5659L42.1455 89.6592L41.1589 89.7699L40.3322 89.8632L39.6651 89.9381L38.8384 90.0313L38.0113 90.1243L37.0247 90.2354L36.3577 90.3105L35.4734 90.4101L34.7038 90.4968L33.7173 90.6075L32.8909 90.7008L32.2235 90.776L31.3967 90.8689L30.4102 90.98L29.7432 91.0551L28.9163 91.1481L28.0892 91.2411L27.1027 91.3522L26.4357 91.4273L25.4492 91.5384L24.7821 91.6135L23.7953 91.7247L23.1286 91.7998L22.3015 91.8927L21.4747 91.9857L20.4882 92.0968L19.8211 92.1719L18.8346 92.283L18.8574 92.4855L19.6845 92.3925Z" fill="#FF886B"/>
<path d="M101.646 90.1176L102.473 90.0246L102.45 89.8218L101.463 89.9328L100.796 90.008L99.8097 90.1191L99.1424 90.1942L98.1559 90.3053L97.4889 90.3805L96.5023 90.4912L96.5024 90.4915L95.6755 90.5845L95.0085 90.6596L94.1817 90.7526L93.3546 90.8456L92.3681 90.9566L91.7014 91.0317L90.8743 91.1247L90.0475 91.218L89.9453 91.2295L89.8877 91.2358L89.061 91.3291L88.3939 91.4039L87.5672 91.4972L86.7401 91.5902L85.7536 91.7013L85.0865 91.7764L84.1 91.8874L83.4329 91.9626L82.4461 92.0737L81.7793 92.1485L80.7929 92.2596L80.1255 92.3348L79.139 92.4458L78.4144 92.5272L77.6451 92.6139L76.818 92.707L75.8315 92.818L75.1648 92.8931L74.3377 92.9861L73.5109 93.0794L72.5244 93.1904L71.8574 93.2656L71.0306 93.3586L70.0438 93.4697L69.3771 93.5447L68.3906 93.6558L67.7231 93.7307L66.7366 93.8418L66.0696 93.9169L65.0831 94.028L64.4157 94.1032L63.4292 94.2143L62.7625 94.289L61.9354 94.3824L61.1086 94.4753L60.1221 94.5864L59.455 94.6615L58.6279 94.7545L57.8012 94.8478L56.8146 94.9586L56.1476 95.0337L55.3208 95.127L55.2186 95.1382L55.1611 95.1448L54.494 95.2199L53.5072 95.331L52.7829 95.4124L52.0134 95.4991L51.1866 95.5921L50.2001 95.7032L49.3733 95.7964L48.7062 95.8712L47.8792 95.9646L46.8927 96.0756L46.2256 96.1508L45.3988 96.2438L44.4123 96.3548L43.7453 96.4299L42.9185 96.5229L42.0917 96.6159L41.1049 96.727L40.4381 96.8021L39.611 96.8951L38.7843 96.9883L37.7978 97.0994L37.1307 97.1742L36.3039 97.2675L35.4768 97.3605L34.4903 97.4716L33.6638 97.5645L32.9964 97.6397L32.01 97.7507L31.1832 97.8437L30.3564 97.9369L29.6894 98.0121L29.5871 98.0236L29.5296 98.0299L28.8623 98.1051L27.8758 98.2162L27.2087 98.2913L26.3819 98.3843L25.5551 98.4772L24.5683 98.5884L23.9016 98.6635L23.0744 98.7564L22.2477 98.8497L21.2612 98.9608L20.5941 99.0359L19.6076 99.1467L19.6304 99.3496L20.4571 99.2563L21.444 99.1452L22.1107 99.0704L23.0973 98.9593L23.7646 98.8841L24.7511 98.773L25.4181 98.6979L26.245 98.605L26.3472 98.5934L26.4047 98.5869L27.0721 98.5119L28.0586 98.4009L28.7831 98.3192L29.5524 98.2325L30.3792 98.1395L31.3657 98.0284L32.0327 97.9533L32.8595 97.8604L33.6866 97.7673L34.6731 97.6563L35.4996 97.5631L36.1669 97.4879L36.994 97.3949L37.9805 97.2838L38.807 97.1909L39.4744 97.1157L40.4609 97.0046L41.2877 96.9117L41.9547 96.8365L42.7815 96.7436L43.6086 96.6502L44.5951 96.5392L45.2618 96.4644L46.0889 96.3711L47.0754 96.26L47.7425 96.1852L48.5693 96.0919L49.5558 95.9809L50.3829 95.8878L51.2094 95.795L51.8767 95.7198L51.9786 95.7083L52.0364 95.7017L52.7035 95.6265L53.69 95.5154L54.5168 95.4225L55.1838 95.3473L56.0109 95.2543L56.9974 95.1433L57.6645 95.0681L58.4913 94.9752L59.3181 94.8822L60.3046 94.7711L60.9716 94.696L61.7987 94.603L62.6255 94.5097L63.612 94.3987L64.279 94.3235L65.1058 94.2305L65.9326 94.1376L66.9194 94.0265L67.5862 93.9514L68.4133 93.8584L69.24 93.7651L70.2266 93.6544L70.8936 93.5792L71.7204 93.486L72.7069 93.3749L73.374 93.3001L74.201 93.2067L75.1876 93.0957L76.0144 93.0027L76.6814 92.9276L77.6679 92.8165L78.3349 92.7414L79.3217 92.6302L79.9885 92.5555L80.8157 92.4625L81.6424 92.3692L82.6289 92.2581L83.2959 92.183L84.1227 92.09L84.9498 91.997L85.9364 91.8859L86.6034 91.8108L86.7053 91.7993L86.7628 91.7927L87.4302 91.7179L88.257 91.6246L89.2435 91.5135L89.9105 91.4384L90.7373 91.3454L91.5644 91.2524L92.3908 91.1592L93.218 91.0662L94.0448 90.9732L94.8718 90.8799L95.6983 90.787L96.5251 90.6941L97.3521 90.6008L98.3387 90.4897L99.0058 90.4149L99.8325 90.3216L100.819 90.2105L101.646 90.1176Z" fill="#FF886B"/>
</svg>
