<svg width="100" height="100" viewBox="0 0 100 100" fill="none" xmlns="http://www.w3.org/2000/svg">
    <path
        d="M90.1451 2.10156L2.41113 11.9568L12.2664 99.6905L100 89.8353L90.1451 2.10156ZM7.13226 17.6434C7.00205 16.4847 7.83579 15.44 8.99445 15.3098C10.1531 15.1796 11.1978 16.0133 11.328 17.172C11.4583 18.3306 10.6245 19.3753 9.46586 19.5056C8.3072 19.6358 7.26248 18.802 7.13226 17.6434ZM8.20473 27.1906C8.07452 26.0319 8.90824 24.9872 10.0669 24.857C11.2256 24.7268 12.2703 25.5605 12.4005 26.7191C12.5307 27.8778 11.697 28.9225 10.5383 29.0527C9.37967 29.1829 8.33494 28.3492 8.20473 27.1906ZM9.27718 36.7377C9.14696 35.5791 9.98069 34.5344 11.1393 34.4041C12.298 34.2739 13.3427 35.1077 13.4729 36.2663C13.6032 37.425 12.7694 38.4697 11.6108 38.5999C10.4521 38.7301 9.40739 37.8964 9.27718 36.7377ZM10.3496 46.2849C10.2194 45.1263 11.0531 44.0815 12.2118 43.9513C13.3705 43.8211 14.4152 44.6548 14.5454 45.8135C14.6756 46.9722 13.8419 48.0169 12.6832 48.1471C11.5246 48.2773 10.4798 47.4436 10.3496 46.2849ZM11.4221 55.8321C11.2919 54.6734 12.1256 53.6287 13.2843 53.4985C14.4429 53.3683 15.4876 54.202 15.6179 55.3607C15.7481 56.5193 14.9143 57.5641 13.7557 57.6943C12.597 57.8245 11.5523 56.9908 11.4221 55.8321ZM12.4945 65.3793C12.3643 64.2206 13.198 63.1759 14.3567 63.0457C15.5154 62.9155 16.5601 63.7492 16.6903 64.9078C16.8205 66.0665 15.9868 67.1112 14.8281 67.2414C13.6695 67.3717 12.6248 66.5379 12.4945 65.3793ZM13.567 74.9264C13.4368 73.7678 14.2705 72.7231 15.4292 72.5928C16.5878 72.4626 17.6325 73.2964 17.7627 74.455C17.893 75.6137 17.0592 76.6584 15.9006 76.7886C14.7419 76.9188 13.6972 76.0851 13.567 74.9264ZM14.6394 84.4736C14.5092 83.315 15.343 82.2702 16.5016 82.14C17.6603 82.0098 18.705 82.8436 18.8352 84.0022C18.9654 85.1609 18.1317 86.2056 16.973 86.3358C15.8144 86.466 14.7696 85.6323 14.6394 84.4736ZM18.0455 95.883C16.8868 96.0132 15.8421 95.1795 15.7119 94.0208C15.5817 92.8621 16.4154 91.8174 17.5741 91.6872C18.7327 91.557 19.7774 92.3907 19.9077 93.5494C20.0379 94.708 19.2038 95.7528 18.0455 95.883Z"
        fill="#CFD0D2" />
    <path
        d="M88.4945 0.752441L0.760742 10.608L10.616 98.3417L98.3497 88.4865L88.4945 0.752441ZM5.48189 16.2946C5.35168 15.1359 6.1854 14.0912 7.34406 13.961C8.50272 13.8308 9.54744 14.6645 9.67765 15.8231C9.80787 16.9818 8.97415 18.0265 7.81549 18.1567C6.65653 18.2869 5.6118 17.4532 5.48189 16.2946ZM6.55434 25.8417C6.42413 24.6831 7.25787 23.6384 8.41652 23.5082C9.57518 23.3779 10.6199 24.2117 10.7501 25.3703C10.8803 26.529 10.0466 27.5737 8.88794 27.7039C7.72928 27.8341 6.68425 27.0004 6.55434 25.8417ZM7.62679 35.3889C7.49657 34.2303 8.33031 33.1855 9.48897 33.0553C10.6476 32.9251 11.6924 33.7588 11.8226 34.9175C11.9528 36.0762 11.119 37.1209 9.96038 37.2511C8.80142 37.3813 7.7567 36.5476 7.62679 35.3889ZM8.69925 44.9361C8.56904 43.7774 9.40276 42.7327 10.5614 42.6025C11.7201 42.4723 12.7648 43.306 12.895 44.4647C13.0252 45.6233 12.1915 46.6681 11.0328 46.7983C9.87389 46.9285 8.82917 46.0948 8.69925 44.9361ZM9.7717 54.4833C9.64149 53.3246 10.4752 52.2799 11.6339 52.1497C12.7925 52.0195 13.8372 52.8532 13.9675 54.0119C14.0977 55.1705 13.264 56.2152 12.1053 56.3455C10.9466 56.4757 9.90161 55.6419 9.7717 54.4833ZM10.8441 64.0305C10.7139 62.8718 11.5477 61.8271 12.7063 61.6969C13.865 61.5667 14.9097 62.4004 15.0399 63.559C15.1701 64.7177 14.3364 65.7624 13.1777 65.8926C12.0191 66.0228 10.9741 65.1891 10.8441 64.0305ZM11.9166 73.5776C11.7864 72.419 12.6201 71.3742 13.7788 71.244C14.9374 71.1138 15.9822 71.9475 16.1124 73.1062C16.2426 74.2649 15.4089 75.3096 14.2502 75.4398C13.0912 75.5697 12.0465 74.736 11.9166 73.5776ZM12.9891 83.1248C12.8588 81.9662 13.6926 80.9214 14.8512 80.7912C16.0099 80.661 17.0546 81.4947 17.1848 82.6534C17.315 83.812 16.4813 84.8568 15.3227 84.987C14.1637 85.1169 13.119 84.2835 12.9891 83.1248ZM16.3948 94.5342C15.2362 94.6644 14.1914 93.8307 14.0612 92.672C13.931 91.5133 14.7647 90.4686 15.9234 90.3384C17.082 90.2082 18.1268 91.0419 18.257 92.2006C18.3872 93.3592 17.5535 94.4039 16.3948 94.5342Z"
        fill="#FFC2C7" />
</svg>