<svg width="24" height="19" viewBox="0 0 24 19" fill="none" xmlns="http://www.w3.org/2000/svg">
<path d="M6.45557 7.15359L8.36795 5.24121C8.22153 4.62232 7.40502 1.32397 6.44389 0.449918C6.02799 0.0717604 5.33544 -0.0773641 4.54319 0.0403258C3.62786 0.17686 2.79608 0.628683 2.36133 1.21256C4.1803 2.29046 5.58957 4.33575 6.45557 7.15359Z" fill="white"/>
<path d="M4.57385 3.91956C3.89116 2.88119 3.08274 2.07725 2.16647 1.53564C1.57991 2.74559 1.29426 5.69641 1.19727 7.81979H3.82655C3.92984 6.39786 4.18042 5.09094 4.57385 3.91956Z" fill="white"/>
<path d="M4.57311 14.8139C4.04044 13.2294 3.77007 11.398 3.77007 9.36678C3.77007 8.96885 3.78084 8.57901 3.8015 8.19727H1.1805C1.16344 8.64549 1.15625 9.04522 1.15625 9.36678C1.15625 11.2244 1.41315 15.6456 2.16678 17.1978C3.0821 16.6562 3.8904 15.8522 4.57311 14.8139Z" fill="white"/>
<path d="M0.809024 6.51597C0.548533 6.56538 0.355396 6.78366 0.338333 7.04864L0.228747 8.79934C0.21168 9.06341 0.376959 9.30505 0.628474 9.3859L0.779381 9.43441V9.36704C0.779381 8.65202 0.814411 7.61185 0.896153 6.49976L0.809024 6.51597Z" fill="white"/>
<path d="M21.0896 1.21247C20.6549 0.627698 19.8231 0.175887 18.9078 0.0393412C18.1164 -0.0783302 17.4239 0.0707804 17.0071 0.448933C16.0459 1.32294 15.2294 4.62143 15.083 5.24023L16.9954 7.15261C17.8613 4.33569 19.2706 2.29026 21.0896 1.21247Z" fill="white"/>
<path d="M6.49805 8.00408C6.59776 8.10379 6.75944 8.10379 6.85825 8.00408L9.06796 5.79437C9.16766 5.69467 9.16766 5.53299 9.06796 5.43418C9.01855 5.38477 8.95298 5.35962 8.88741 5.35962C8.82183 5.35962 8.75716 5.38477 8.70686 5.43418L6.49715 7.64388C6.39924 7.74269 6.39924 7.90437 6.49805 8.00408Z" fill="white"/>
<path d="M16.5921 8.00406C16.6918 8.10377 16.8535 8.10287 16.9523 8.00406C17.052 7.90435 17.052 7.74267 16.9523 7.64386L14.7426 5.43415C14.6429 5.33445 14.4812 5.33445 14.3824 5.43415C14.2827 5.53386 14.2827 5.69554 14.3824 5.79435L16.5921 8.00406Z" fill="white"/>
<path d="M18.8779 3.91956C19.2714 5.0909 19.522 6.39777 19.6253 7.81979H22.2546C22.1575 5.69632 21.8719 2.74474 21.2844 1.53564C20.3691 2.0773 19.5606 2.88124 18.8779 3.91956Z" fill="white"/>
<path d="M19.6495 8.19727C19.6702 8.57903 19.681 8.96887 19.681 9.36678C19.681 11.3977 19.4106 13.2293 18.8779 14.8139C19.5606 15.8523 20.369 16.6562 21.2844 17.1978C22.038 15.6456 22.2949 11.2243 22.2949 9.36678C22.2949 9.04432 22.2868 8.64549 22.2707 8.19727H19.6495Z" fill="white"/>
<path d="M16.9954 11.5801L15.083 13.4925C15.2294 14.1114 16.0459 17.4097 17.0071 18.2838C17.423 18.6619 18.1155 18.811 18.9078 18.6933C19.8222 18.5568 20.654 18.105 21.0896 17.5202C19.2707 16.4432 17.8614 14.3979 16.9954 11.5801Z" fill="white"/>
<path d="M23.2221 8.79807L23.1125 7.04737C23.0954 6.78329 22.9023 6.5641 22.6418 6.5147L22.5547 6.49854C22.6373 7.61056 22.6715 8.65075 22.6715 9.36582V9.43319L22.8224 9.38468C23.0739 9.30384 23.2383 9.06306 23.2221 8.79807Z" fill="white"/>
<path d="M2.3614 17.5212C2.79615 18.106 3.62793 18.5578 4.54326 18.6943C5.33462 18.812 6.02717 18.6629 6.44395 18.2847C7.40509 17.4107 8.2216 14.1122 8.36802 13.4934L6.45564 11.5811C5.58973 14.398 4.18044 16.4434 2.3614 17.5212Z" fill="white"/>
<path d="M16.9533 10.7296C16.8536 10.6299 16.6919 10.6299 16.5931 10.7296L14.3834 12.9393C14.2837 13.039 14.2837 13.2007 14.3834 13.2995C14.4831 13.3983 14.6448 13.3992 14.7436 13.2995L16.9533 11.0898C17.0521 10.991 17.0521 10.8293 16.9533 10.7296Z" fill="white"/>
<path d="M6.85873 10.7296C6.80933 10.6802 6.74375 10.655 6.67818 10.655C6.61261 10.655 6.54793 10.6802 6.49763 10.7296C6.39793 10.8293 6.39793 10.991 6.49763 11.0898L8.70734 13.2995C8.80704 13.3992 8.96873 13.3983 9.06754 13.2995C9.16724 13.1998 9.16724 13.0381 9.06754 12.9393L6.85873 10.7296Z" fill="white"/>
<path d="M10.2012 9.36686L11.7255 7.84253L13.2498 9.36686L11.7255 10.8912L10.2012 9.36686Z" fill="white"/>
<path d="M16.2709 8.21518L14.1717 6.11597H9.27988L7.18066 8.21518V10.5184L9.27988 12.6176H14.1717L16.2709 10.5184V8.21518ZM13.6499 9.49968L11.8588 11.2908C11.8237 11.3258 11.7752 11.3456 11.7258 11.3456C11.6755 11.3456 11.6279 11.3258 11.5929 11.2908L9.80175 9.49968C9.72809 9.42602 9.72809 9.30655 9.80175 9.23289L11.5929 7.44176C11.6279 7.40673 11.6764 7.38697 11.7258 7.38697C11.7761 7.38697 11.8237 7.40673 11.8588 7.44176L13.6499 9.23289C13.7235 9.30744 13.7235 9.42601 13.6499 9.49968Z" fill="white"/>
</svg>
