<svg width="22" height="22" viewBox="0 0 22 22" fill="none" xmlns="http://www.w3.org/2000/svg">
    <path d="M8 21H14C19 21 21 19 21 14V8C21 3 19 1 14 1H8C3 1 1 3 1 8V14C1 19 3 21 8 21Z"
        stroke="url(#paint0_linear_25_1053)" stroke-width="1.5" stroke-linecap="round"
        stroke-linejoin="round" />
    <path
        d="M15.28 12.61C14.15 13.74 12.53 14.09 11.1 13.64L8.51 16.22C8.33 16.41 7.96 16.53 7.69 16.49L6.49 16.33C6.09 16.28 5.73 15.9 5.67 15.51L5.51 14.31C5.47 14.05 5.6 13.68 5.78 13.49L8.36 10.91C7.92 9.48001 8.26 7.86001 9.39 6.73001C11.01 5.11001 13.65 5.11001 15.28 6.73001C16.9 8.34001 16.9 10.98 15.28 12.61Z"
        stroke="url(#paint1_linear_25_1053)" stroke-width="1.5" stroke-miterlimit="10"
        stroke-linecap="round" stroke-linejoin="round" />
    <path d="M12.3945 9.69995H12.4035" stroke="url(#paint2_linear_25_1053)" stroke-width="2"
        stroke-linecap="round" stroke-linejoin="round" />
    <defs>
        <linearGradient id="paint0_linear_25_1053" x1="3.8274" y1="1.83471" x2="10.7993"
            y2="19.3904" gradientUnits="userSpaceOnUse">
            <stop stop-color="#098B8E" />
            <stop offset="1" stop-color="#098B8E" />
        </linearGradient>
        <linearGradient id="paint1_linear_25_1053" x1="7.05671" y1="5.97338" x2="10.8828"
            y2="15.6161" gradientUnits="userSpaceOnUse">
            <stop stop-color="#098B8E" />
            <stop offset="1" stop-color="#098B8E" />
        </linearGradient>
        <linearGradient id="paint2_linear_25_1053" x1="12.0411" y1="9.24169" x2="12.3902"
            y2="10.119" gradientUnits="userSpaceOnUse">
            <stop stop-color="#098B8E" />
            <stop offset="1" stop-color="#098B8E" />
        </linearGradient>
    </defs>
</svg>