<svg width="15" height="13" viewBox="0 0 15 13" fill="none" xmlns="http://www.w3.org/2000/svg">
<path d="M5.29356 0.20954C5.25474 0.209536 5.2163 0.217171 5.18043 0.232037C5.14456 0.246903 5.11197 0.268663 5.08452 0.296134C5.05708 0.323606 5.03531 0.356234 5.02047 0.392124C5.00563 0.428015 4.99801 0.466499 4.99803 0.505339V2.51173V3.73684H4.57147V2.43208C4.57153 2.35368 4.54046 2.27846 4.48509 2.22298C4.42972 2.1675 4.35459 2.13629 4.27623 2.13623H0.29579C0.256965 2.13622 0.218518 2.14391 0.182649 2.15878C0.146781 2.17364 0.114191 2.1954 0.0867458 2.22287C0.0593002 2.25035 0.0375347 2.28297 0.0226948 2.31886C0.00785491 2.35476 0.000232216 2.39324 0.00025965 2.43208V3.83638V10.9881V12.3815C-0.00014801 12.3912 -7.51739e-05 12.4009 0.00047487 12.4106C0.000870565 12.4164 0.00143977 12.4223 0.00218359 12.4281C0.00288153 12.4339 0.00375249 12.4397 0.00479233 12.4455C0.00555386 12.45 0.00641816 12.4546 0.00739454 12.4591C0.00800306 12.4616 0.00864481 12.4641 0.00931849 12.4666C0.009927 12.4691 0.0105688 12.4716 0.0112424 12.4741C0.0117867 12.4763 0.0123557 12.4785 0.0129512 12.4807C0.014636 12.4859 0.0164731 12.4911 0.0184491 12.4963C0.0204962 12.5018 0.0227002 12.5072 0.0250687 12.5126C0.0274124 12.5179 0.0299129 12.5232 0.0325688 12.5284C0.035209 12.5335 0.0380005 12.5384 0.0409299 12.5433H0.041569C0.0424238 12.5449 0.0432944 12.5465 0.0441777 12.5481C0.0462283 12.5514 0.0483431 12.5547 0.0505235 12.5579C0.0538454 12.5627 0.0573121 12.5674 0.0609128 12.572C0.0640714 12.5762 0.067342 12.5804 0.0707216 12.5844C0.071486 12.5853 0.0722495 12.5861 0.0730238 12.587C0.0752887 12.5895 0.0775992 12.592 0.07995 12.5944C0.0818421 12.5966 0.0837674 12.5987 0.0857219 12.6008C0.0878095 12.6028 0.0899241 12.6047 0.0920676 12.6066C0.0945286 12.609 0.0970284 12.6112 0.0995677 12.6135C0.10147 12.6151 0.103395 12.6168 0.10534 12.6184C0.107144 12.62 0.108969 12.6215 0.110811 12.6231C0.115051 12.6265 0.119382 12.6298 0.123803 12.6329C0.128612 12.6364 0.133524 12.6396 0.138529 12.6428C0.14344 12.6459 0.148441 12.6489 0.153529 12.6517C0.156954 12.6537 0.16042 12.6555 0.163919 12.6573C0.166874 12.6587 0.169847 12.66 0.172847 12.6613C0.174379 12.6621 0.175919 12.663 0.177465 12.6637C0.180042 12.6648 0.182637 12.6659 0.185245 12.6669C0.187069 12.6677 0.188899 12.6684 0.190737 12.6691C0.195877 12.6711 0.201073 12.6729 0.206317 12.6746C0.207087 12.6746 0.207857 12.6746 0.208626 12.6746C0.213208 12.6761 0.217823 12.6774 0.222472 12.6787C0.225536 12.6795 0.228617 12.6803 0.231707 12.681C0.233339 12.6817 0.234973 12.6825 0.236618 12.6832C0.242078 12.6842 0.247564 12.685 0.253072 12.6857C0.25882 12.6866 0.264598 12.6873 0.270388 12.6879C0.276256 12.688 0.282128 12.688 0.287997 12.6879C0.28992 12.6879 0.291845 12.6879 0.293769 12.6879C0.294338 12.6879 0.294907 12.6879 0.295477 12.6879H1.69348H9.02924H10.4272C10.4916 12.6879 10.5542 12.667 10.6055 12.6282C10.6569 12.5895 10.6942 12.5351 10.7118 12.4732L11.7831 8.70456H14.4579C14.4967 8.70457 14.5352 8.69694 14.571 8.68207C14.6069 8.6672 14.6395 8.64539 14.6669 8.61792C14.6944 8.59044 14.7162 8.55782 14.731 8.52193C14.7458 8.48604 14.7535 8.44756 14.7534 8.40871V7.29374V1.61891V0.504295C14.7535 0.465455 14.7458 0.426971 14.731 0.39108C14.7161 0.35519 14.6944 0.322614 14.6669 0.295143C14.6395 0.267671 14.6069 0.245859 14.571 0.230993C14.5352 0.216127 14.4967 0.208492 14.4579 0.208496H13.3465H7.29386H6.40467L5.29356 0.20954ZM5.58881 0.800877H6.40498H7.29418H13.3468H14.1627V1.6199V7.29478V8.11411H11.9517L12.1704 7.34442H13.3185C13.3573 7.34443 13.3958 7.33674 13.4317 7.32187C13.4675 7.30701 13.5001 7.28525 13.5275 7.25777C13.555 7.2303 13.5768 7.19767 13.5916 7.16178C13.6064 7.12589 13.6141 7.08741 13.614 7.04857V4.96628C13.6141 4.92257 13.6044 4.87944 13.5857 4.83992C13.5671 4.80039 13.5399 4.76546 13.5061 4.73771L11.7009 3.25287C11.6499 3.21094 11.5864 3.18724 11.5205 3.18559C11.4482 3.18377 11.3778 3.20853 11.3225 3.25517L9.42667 4.85949L8.4079 4.11229C8.35497 4.07351 8.29066 4.05347 8.22508 4.05529C8.1595 4.05711 8.09639 4.08071 8.0457 4.12237L6.24567 5.60235C6.1904 5.64762 6.15339 5.71139 6.14149 5.78186H5.58881V5.27445V4.03259V2.51163V0.800877ZM9.1981 1.52673C8.56612 1.52673 8.0483 2.04648 8.0483 2.67913C8.0483 3.31178 8.56612 3.83179 9.1981 3.83179C9.83008 3.83179 10.3482 3.31178 10.3482 2.67913C10.3482 2.04648 9.83008 1.52673 9.1981 1.52673ZM9.1981 2.11775C9.50984 2.11775 9.75713 2.3651 9.75713 2.67913C9.75713 2.99313 9.50984 3.24045 9.1981 3.24045C8.88635 3.24045 8.63936 2.99313 8.63936 2.67913C8.63936 2.3651 8.88635 2.11775 9.1981 2.11775ZM0.591321 2.72756H3.9807V4.03269C3.98073 4.11109 4.01187 4.18621 4.06729 4.24164C4.12271 4.29706 4.19787 4.32824 4.27623 4.32823H4.99803V5.27456V5.78191H2.09149C2.02721 5.7819 1.96468 5.80282 1.91338 5.84157C1.86208 5.88032 1.82481 5.93474 1.80721 5.9966L0.591321 10.2694V3.83638V2.72756ZM11.5159 3.86582L13.023 5.1057V6.75334H12.3384L12.3765 6.61883L12.5075 6.15882C12.5201 6.11485 12.5222 6.06858 12.5138 6.02363C12.5055 5.97869 12.4868 5.93627 12.4593 5.89977C12.4317 5.86327 12.3961 5.83369 12.3552 5.81328C12.3143 5.79288 12.2692 5.78226 12.2235 5.78222H6.95795L8.2434 4.72529L9.26534 5.47426C9.3188 5.51341 9.38386 5.53344 9.45007 5.53116C9.51628 5.52887 9.5798 5.50437 9.63043 5.46163L11.5159 3.86582ZM2.31429 6.37325H5.28635H11.8319L11.8082 6.45666L11.6628 6.96782C11.6625 6.96889 11.6622 6.96993 11.6619 6.97101L11.2761 8.32864C11.276 8.32936 11.2759 8.33007 11.2759 8.33078L10.2048 12.0979H9.03685C9.03445 12.0979 9.03205 12.0979 9.02965 12.0979H1.69389H0.686944L0.968916 11.1031L2.31429 6.37325Z" fill="white"/>
</svg>
