<svg width="30" height="30" viewBox="0 0 30 30" fill="none" xmlns="http://www.w3.org/2000/svg">
<path d="M15 0C6.7158 0 0 6.7158 0 15C0 23.2842 6.7158 30 15 30C23.2842 30 30 23.2842 30 15C30 6.7158 23.2842 0 15 0ZM22.5922 19.4214C23.4679 20.2971 23.4679 21.7168 22.5922 22.5922C21.7165 23.4679 20.2967 23.4679 19.4214 22.5922L15 18.1708L10.5786 22.5922C9.70291 23.4679 8.28316 23.4679 7.40782 22.5922C6.53213 21.7165 6.53213 20.2967 7.40782 19.4214L11.8292 15L7.40782 10.5786C6.53213 9.70291 6.53213 8.28316 7.40782 7.40782C8.28351 6.53213 9.70325 6.53213 10.5786 7.40782L15 11.8292L19.4214 7.40782C20.2971 6.53213 21.7168 6.53213 22.5922 7.40782C23.4679 8.28351 23.4679 9.70325 22.5922 10.5786L18.1708 15L22.5922 19.4214Z" fill="white"/>
<path d="M15 2.5C8.0965 2.5 2.5 8.0965 2.5 15C2.5 21.9035 8.0965 27.5 15 27.5C21.9035 27.5 27.5 21.9035 27.5 15C27.5 8.0965 21.9035 2.5 15 2.5ZM21.3268 18.6845C22.0566 19.4142 22.0566 20.5974 21.3268 21.3268C20.5971 22.0566 19.414 22.0566 18.6845 21.3268L15 17.6423L11.3155 21.3268C10.5858 22.0566 9.40264 22.0566 8.67318 21.3268C7.94345 20.5971 7.94345 19.414 8.67318 18.6845L12.3577 15L8.67318 11.3155C7.94345 10.5858 7.94345 9.40264 8.67318 8.67318C9.40292 7.94345 10.586 7.94345 11.3155 8.67318L15 12.3577L18.6845 8.67318C19.4142 7.94345 20.5974 7.94345 21.3268 8.67318C22.0566 9.40292 22.0566 10.586 21.3268 11.3155L17.6423 15L21.3268 18.6845Z" fill="#000101"/>
</svg>
