<svg width="126" height="126" viewBox="0 0 126 126" fill="none" xmlns="http://www.w3.org/2000/svg">
<path d="M48 117.34C57.282 122.699 68.718 122.699 78 117.34L102.56 103.16C111.842 97.8013 117.56 87.8975 117.56 77.1795V48.8205C117.56 38.1025 111.842 28.1987 102.56 22.8397L78 8.66026C68.718 3.30127 57.282 3.30127 48 8.66026L23.4404 22.8397C14.1584 28.1987 8.4404 38.1025 8.4404 48.8205V77.1795C8.4404 87.8975 14.1584 97.8013 23.4404 103.16L48 117.34Z" fill="#16E473"/>
<path d="M63 38C49.2143 38 38 49.2143 38 63C38 76.7857 49.2143 88 63 88C76.7857 88 88 76.7857 88 63C88 49.2143 76.7857 38 63 38ZM73.1966 58.9109L62.4823 69.6251C62.1251 69.9644 61.6787 70.143 61.2144 70.143C60.7501 70.143 60.3037 69.9644 59.9465 69.6251L54.5894 64.268C53.8929 63.5715 53.8929 62.4287 54.5894 61.7323C55.2858 61.0359 56.4287 61.0358 57.1251 61.7323L61.2143 65.8394L70.6606 56.3754C71.3571 55.679 72.4999 55.679 73.1963 56.3754C73.8927 57.0719 73.893 58.2145 73.1966 58.9109Z" fill="white"/>
</svg>
