<svg width="54" height="54" viewBox="0 0 54 54" fill="none" xmlns="http://www.w3.org/2000/svg">
<circle cx="27" cy="27" r="26" stroke="#33363F" stroke-width="2" stroke-linecap="round"/>
<path d="M16.4222 36.3497C17.5695 37.3432 19.1602 38.1223 20.9936 38.6515C22.8348 39.1831 24.905 39.4583 27.0001 39.4583C29.0951 39.4583 31.1653 39.1831 33.0066 38.6515C34.84 38.1223 36.4307 37.3432 37.5779 36.3497" stroke="#33363F" stroke-width="2" stroke-linecap="round"/>
<path d="M18.6667 24.125C20.4861 24.125 22.0417 22.8879 22.0417 21.2709C22.0417 19.6538 20.4861 18.4167 18.6667 18.4167C16.8474 18.4167 15.2917 19.6538 15.2917 21.2709C15.2917 22.8879 16.8474 24.125 18.6667 24.125Z" fill="#33363F" stroke="#33363F" stroke-width="0.5" stroke-linecap="round"/>
<path d="M35.3333 24.125C37.1526 24.125 38.7083 22.8879 38.7083 21.2709C38.7083 19.6538 37.1526 18.4167 35.3333 18.4167C33.5139 18.4167 31.9583 19.6538 31.9583 21.2709C31.9583 22.8879 33.5139 24.125 35.3333 24.125Z" fill="#33363F" stroke="#33363F" stroke-width="0.5" stroke-linecap="round"/>
</svg>
