<svg width="22" height="22" viewBox="0 0 22 22" fill="none" xmlns="http://www.w3.org/2000/svg">
<path fill-rule="evenodd" clip-rule="evenodd" d="M3.27391 2.91252C4.67372 1.5128 6.40128 0.521118 8.28579 0.0179284C8.66305 -0.0829199 9.00856 0.263499 8.90586 0.642624C8.44641 2.36729 8.44734 4.19005 8.9096 5.9138C9.8453 9.40434 12.5945 12.1541 16.0852 13.0899C17.8109 13.5521 19.6348 13.5531 21.3612 13.0927C21.7376 12.9919 22.0859 13.3374 21.9804 13.7212C21.7319 14.6503 21.3603 15.5542 20.8672 16.4085C18.8371 19.9222 15.1224 22 11.1815 22C5.00614 22 0 16.9942 0 10.8192C0 7.95802 1.09164 5.09618 3.27487 2.91298L3.27391 2.91252ZM20.3265 9.35837H19.1107L20.686 7.78311C21.0063 7.46284 20.7757 6.91657 20.3265 6.91657H17.8845C17.6043 6.91657 17.3774 7.14441 17.3774 7.42454C17.3774 7.70468 17.6043 7.93251 17.8845 7.93251H19.1013L17.5296 9.50404C17.2056 9.82527 17.4335 10.3743 17.8854 10.3743H20.3274C20.6085 10.3743 20.8354 10.1474 20.8354 9.86634C20.8354 9.5862 20.6085 9.3593 20.3274 9.3593L20.3265 9.35837ZM21.4919 3.81922H18.8976L21.8505 0.866538C22.1708 0.546265 21.9401 0 21.4919 0H17.6725C17.3923 0 17.1645 0.227839 17.1645 0.507971C17.1645 0.788102 17.3914 1.01594 17.6725 1.01594H20.2667L17.3177 3.9648C16.9936 4.28603 17.2215 4.83507 17.6735 4.83507H21.4929C21.7731 4.83507 22 4.60816 22 4.32803C22 4.0479 21.7731 3.82006 21.4929 3.82006L21.4919 3.81922ZM15.5611 7.79526H13.713L15.9197 5.58875C16.24 5.26848 16.0093 4.72221 15.5611 4.72221H12.488C12.2078 4.72221 11.98 4.94912 11.98 5.23018C11.98 5.51032 12.2069 5.73815 12.488 5.73815H14.336L12.1322 7.94186C11.8081 8.26309 12.036 8.81213 12.488 8.81213H15.5611C15.8412 8.81213 16.0691 8.58522 16.0691 8.30416C16.0691 8.02402 15.8422 7.79619 15.5611 7.79619V7.79526ZM4.36737 9.59182C4.36737 9.31168 4.14045 9.08385 3.8603 9.08385C3.58015 9.08385 3.35323 9.31076 3.35323 9.59182C3.35323 10.6703 4.22824 11.5462 5.3068 11.5462C6.38536 11.5462 7.2613 10.6713 7.2613 9.59182C7.2613 9.31168 7.03438 9.08385 6.75423 9.08385C6.47408 9.08385 6.24623 9.31076 6.24623 9.59182C6.24623 10.4257 5.23396 10.8449 4.64379 10.2557C4.47384 10.0858 4.36926 9.8514 4.36926 9.59182H4.36737ZM6.44047 16.9685C6.21728 16.8004 5.89885 16.8443 5.73075 17.0675C5.56266 17.2907 5.60655 17.6091 5.82973 17.7772C8.93846 20.1209 13.2705 20.0854 16.3436 17.6857C16.5639 17.5138 16.6032 17.1954 16.4304 16.976C16.2586 16.7556 15.9401 16.7164 15.7207 16.8891C13.0078 19.0079 9.18774 19.0387 6.44047 16.9685Z" fill="white"/>
</svg>
