<svg width="45" height="45" viewBox="0 0 45 45" fill="none" xmlns="http://www.w3.org/2000/svg">
<circle cx="22.5" cy="22.5" r="22" stroke="#D0E396"/>
<path d="M28.7693 22.0414C28.7693 23.9449 25.9141 23.9449 25.9141 22.0414C25.9141 20.1379 28.7693 20.1379 28.7693 22.0414Z" fill="#D0E396"/>
<path d="M25.6983 25.9972L25.9279 26.9156C25.9803 27.1274 26.1706 27.2761 26.3895 27.2761H28.293C28.5119 27.2761 28.7023 27.1274 28.7546 26.9156L28.9842 25.9972C29.3281 25.8568 29.6493 25.6712 29.9443 25.4416L30.8556 25.7022C31.065 25.7593 31.2887 25.6712 31.3981 25.4821L32.3499 23.8355C32.4593 23.6464 32.426 23.4085 32.2702 23.2562L31.5861 22.5911C31.6087 22.4079 31.6242 22.2235 31.6242 22.0415C31.6242 21.8595 31.6087 21.6751 31.5861 21.4918L32.2702 20.8268C32.426 20.6745 32.4593 20.4366 32.3499 20.2474L31.3981 18.6009C31.2887 18.4117 31.065 18.3225 30.8556 18.3808L29.9443 18.6414C29.6528 18.4141 29.3281 18.2428 28.9878 18.1024L28.7534 17.1673C28.7011 16.9556 28.5119 16.8069 28.293 16.8069H26.3895C26.1706 16.8069 25.9802 16.9556 25.9279 17.1673L25.6983 18.0858C25.3545 18.2262 25.0333 18.4129 24.7382 18.6414L23.8269 18.3808C23.6163 18.3225 23.3939 18.4106 23.2844 18.6009L22.3327 20.2474C22.2232 20.4366 22.2565 20.6745 22.4124 20.8268L23.0929 21.4883C23.0703 21.6739 23.0584 21.8583 23.0584 22.0415C23.0584 22.2247 23.0703 22.4091 23.0929 22.5947L22.4124 23.2562C22.2565 23.4085 22.2232 23.6464 22.3327 23.8355L23.2844 25.4821C23.3939 25.6712 23.6176 25.7593 23.8269 25.7022L24.7382 25.4416C25.0333 25.67 25.3545 25.8568 25.6983 25.9972ZM27.3413 19.662C28.6535 19.662 29.7207 20.7292 29.7207 22.0414C29.7207 23.3536 28.6535 24.4208 27.3413 24.4208C26.029 24.4208 24.9619 23.3536 24.9619 22.0414C24.9619 20.7292 26.029 19.662 27.3413 19.662Z" fill="#D0E396"/>
<path d="M26.7039 13.9518H24.8004C24.5375 13.9518 24.3245 14.1648 24.3245 14.4277C24.3245 14.6906 24.5375 14.9036 24.8004 14.9036H26.7039C30.6395 14.9036 33.8422 18.1052 33.8422 22.0419C33.8422 25.9787 30.6395 29.1803 26.7039 29.1803H25.4737L25.6129 29.0411C25.7985 28.8555 25.7985 28.5545 25.6129 28.3677C25.4273 28.1821 25.1263 28.1821 24.9396 28.3677L23.9878 29.3195C23.8022 29.5051 23.8022 29.8061 23.9878 29.9928L24.9396 30.9446C25.1228 31.1278 25.4297 31.1266 25.6129 30.9446C25.7985 30.759 25.7985 30.458 25.6129 30.2712L25.4737 30.132H26.7039C31.1651 30.132 34.7937 26.5035 34.7937 22.0423C34.7937 17.581 31.1651 13.9525 26.7039 13.9525V13.9518Z" fill="#D0E396"/>
<path d="M17.9003 22.0417C17.9003 22.9935 16.4727 22.9935 16.4727 22.0417C16.4727 21.0899 17.9003 21.0899 17.9003 22.0417Z" fill="#D0E396"/>
<path d="M21.2432 20.5699L20.4889 19.2636C20.3795 19.0745 20.1546 18.9852 19.9465 19.0435L19.2719 19.2363C19.0578 19.0756 18.8222 18.9507 18.5771 18.8448L18.4034 18.1513C18.3499 17.9395 18.1607 17.7908 17.9419 17.7908H16.4321C16.2132 17.7908 16.0229 17.9395 15.9705 18.1513L15.8004 18.8306C15.5518 18.9365 15.3186 19.0721 15.1021 19.2351L14.4275 19.0423C14.2181 18.9829 13.9945 19.0733 13.885 19.2624L13.1307 20.5687C13.0213 20.7579 13.0546 20.9958 13.2105 21.1481L13.7149 21.6383C13.6994 21.7739 13.6911 21.9083 13.6911 22.0416C13.6911 22.1748 13.6982 22.3092 13.7137 22.4437L13.2093 22.9338C13.0534 23.0861 13.0201 23.324 13.1296 23.5132L13.8838 24.8195C13.9933 25.0087 14.217 25.0979 14.4263 25.0396L15.1009 24.8469C15.3174 25.0099 15.5518 25.1443 15.7992 25.2514L15.9694 25.9307C16.0229 26.1425 16.212 26.2912 16.4309 26.2912H17.9407C18.1596 26.2912 18.3499 26.1425 18.4023 25.9307L18.5724 25.2514C18.821 25.1455 19.0542 25.0099 19.2707 24.8469L19.9453 25.0396C20.1535 25.0967 20.3783 25.0087 20.4878 24.8195L21.2421 23.5132C21.3515 23.324 21.3182 23.0861 21.1623 22.9338L20.6555 22.4401C20.671 22.3081 20.6817 22.1736 20.6817 22.0416C20.6817 21.9095 20.6722 21.7751 20.6567 21.6418L21.1635 21.1481C21.3194 20.997 21.3527 20.7579 21.2432 20.5699ZM17.1864 23.7072C16.268 23.7072 15.5209 22.9601 15.5209 22.0416C15.5209 21.1232 16.268 20.376 17.1864 20.376C18.1049 20.376 18.852 21.1232 18.852 22.0416C18.852 22.9601 18.1049 23.7072 17.1864 23.7072Z" fill="#D0E396"/>
<path d="M20.8541 13.1392C20.6685 12.9536 20.3675 12.9536 20.1808 13.1392C19.9952 13.3248 19.9952 13.6258 20.1808 13.8126L20.3199 13.9517H19.0898C14.6286 13.9517 11 17.5803 11 22.0415C11 26.5028 14.6286 30.1313 19.0898 30.1313H20.9933C21.2562 30.1313 21.4692 29.9184 21.4692 29.6554C21.4692 29.3925 21.2562 29.1796 20.9933 29.1796H19.0898C15.1542 29.1796 11.9515 25.978 11.9515 22.0412C11.9515 18.1045 15.1542 14.9029 19.0898 14.9029H20.3199L20.1808 15.0421C19.9952 15.2277 19.9952 15.5287 20.1808 15.7154C20.3568 15.8915 20.6673 15.9022 20.8541 15.7154L21.8059 14.7637C21.9915 14.5781 21.9915 14.2771 21.8059 14.0903L20.8541 13.1392Z" fill="#D0E396"/>
</svg>
