<svg width="45" height="45" viewBox="0 0 45 45" fill="none" xmlns="http://www.w3.org/2000/svg">
<circle cx="22.5" cy="22.5" r="22" stroke="#FBB34C"/>
<path d="M30.4273 18.947H21.7619C21.1403 18.947 20.5918 19.4955 20.5553 20.117L20.0068 30.9031C20.0068 31.1956 20.08 31.4516 20.2993 31.6709C20.4822 31.8903 20.7747 32 21.0672 32H31.1586C31.4511 32 31.707 31.8903 31.9264 31.6709C32.1092 31.4516 32.2189 31.1956 32.2189 30.9031L31.6704 20.117C31.5973 19.4589 31.0489 18.947 30.4273 18.947ZM29.4767 22.7861C29.4767 24.6509 27.9776 26.1499 26.1129 26.1499C24.2481 26.1499 22.7491 24.6509 22.7491 22.7861V21.8721C22.7491 21.5064 23.0416 21.2139 23.4072 21.2139C23.7728 21.2139 24.0653 21.5064 24.0653 21.8721V22.7861C24.0653 23.9196 24.9794 24.7971 26.0763 24.7971C27.2097 24.7971 28.0873 23.883 28.0873 22.7861V21.8721C28.0873 21.5064 28.3798 21.2139 28.7454 21.2139C29.111 21.2139 29.4035 21.5064 29.4035 21.8721V22.7861H29.4767Z" fill="#FBB34C"/>
<path d="M25.053 17.5942V16.4607C25.053 15.8392 24.5411 15.3273 23.9195 15.3273H13.1335C12.5119 15.3273 12 15.8392 12 16.4607V30.8665C12 31.4881 12.5119 32 13.1335 32H18.9104C18.7276 31.6344 18.6545 31.2687 18.691 30.83L19.2029 20.0439C19.276 18.6911 20.4095 17.5942 21.7623 17.5942H25.053Z" fill="#FBB34C"/>
<path d="M21.9819 17.4113H15.8027V15.0713C15.8027 13.3894 17.1921 12 18.874 12C20.5559 12 21.9453 13.3894 21.9453 15.0713V17.4113H21.9819ZM16.8996 16.3144H20.8484V15.0713C20.8484 13.9744 19.9709 13.0969 18.874 13.0969C17.7771 13.0969 16.8996 13.9744 16.8996 15.0713V16.3144Z" fill="#FBB34C"/>
</svg>
