<svg width="47" height="48" viewBox="0 0 47 48" fill="none" xmlns="http://www.w3.org/2000/svg">
<path d="M59.9528 48.7677L55.5115 16.4729C55.2984 14.8916 54.4825 13.4868 53.2068 12.5195C51.931 11.5522 50.3524 11.14 48.771 11.3615L47.9131 11.4792V37.3814C47.9131 38.5787 47.4476 39.7058 46.5981 40.5526L36.1312 51.0194C35.2845 51.8662 34.1573 52.3344 32.9601 52.3344H15.4668L15.8089 54.8299C16.2266 57.8216 18.8062 60.0002 21.7502 60.0002C22.0138 60.0002 22.2802 59.9834 22.5465 59.9469L54.8528 55.5028C56.4342 55.2813 57.8361 54.4598 58.7979 53.1896C59.7652 51.9166 60.1746 50.3437 59.9531 48.765L59.9528 48.7677Z" fill="#FFAD41"/>
<path d="M22.4914 11.9612C19.1912 11.9612 16.5107 9.27793 16.5107 5.98062C16.5107 2.68044 19.1941 0 22.4914 0C25.7915 0 28.472 2.68331 28.472 5.98062C28.472 9.28081 25.7887 11.9612 22.4914 11.9612Z" fill="#FFAD41"/>
<path d="M34.4533 41.8704V48.4707L44.0452 38.8789H37.4449C35.7962 38.8789 34.4533 40.2189 34.4533 41.8704Z" fill="#FFAD41"/>
<path d="M38.9391 4.48389H31.327C31.4083 4.97176 31.4615 5.46805 31.4615 5.97832C31.4615 10.9271 27.438 14.9507 22.4892 14.9507C17.5404 14.9507 13.5168 10.9271 13.5168 5.97832C13.5168 5.46802 13.5701 4.97177 13.6514 4.48389H6.03922C2.73904 4.48389 0.0585938 7.1672 0.0585938 10.4645V43.3623C0.0585938 46.6624 2.74191 49.3429 6.03922 49.3429H31.4619V41.8649C31.4619 38.5648 34.1452 35.8843 37.4425 35.8843H44.9205V10.4674C44.9205 7.1672 42.2371 4.48676 38.9398 4.48676L38.9391 4.48389ZM28.4723 37.3845H9.03312C8.20881 37.3845 7.53868 36.7144 7.53868 35.8901C7.53868 35.0657 8.2088 34.3956 9.03312 34.3956H28.4723C29.2966 34.3956 29.9667 35.0657 29.9667 35.8901C29.9667 36.7144 29.2966 37.3845 28.4723 37.3845ZM35.9474 29.9066H9.03025C8.20594 29.9066 7.53581 29.2364 7.53581 28.4121C7.53581 27.5878 8.20593 26.9177 9.03025 26.9177H35.9474C36.7717 26.9177 37.4418 27.5878 37.4418 28.4121C37.4418 29.2364 36.7717 29.9066 35.9474 29.9066ZM35.9474 22.4286H9.03025C8.20594 22.4286 7.53581 21.7585 7.53581 20.9342C7.53581 20.1099 8.20593 19.4398 9.03025 19.4398H35.9474C36.7717 19.4398 37.4418 20.1099 37.4418 20.9342C37.4418 21.7585 36.7717 22.4286 35.9474 22.4286Z" fill="#FFAD41"/>
</svg>
