<svg width="62" height="62" viewBox="0 0 62 62" fill="none" xmlns="http://www.w3.org/2000/svg">
<g filter="url(#filter0_d_488_550)">
<rect x="10" y="6" width="42" height="42" rx="10" fill="white"/>
</g>
<path d="M42.9575 34.5071L41.1809 21.5892C41.0957 20.9567 40.7693 20.3948 40.259 20.0078C39.7487 19.6209 39.1173 19.456 38.4848 19.5446L38.1416 19.5917V29.9526C38.1416 30.4315 37.9554 30.8824 37.6156 31.2211L33.4289 35.4078C33.0901 35.7465 32.6393 35.9338 32.1604 35.9338H25.1631L25.2999 36.932C25.467 38.1287 26.4989 39.0001 27.6765 39.0001C27.7819 39.0001 27.8884 38.9934 27.995 38.9788L40.9175 37.2011C41.55 37.1125 42.1108 36.7839 42.4955 36.2758C42.8824 35.7667 43.0462 35.1375 42.9576 34.506L42.9575 34.5071Z" fill="#FFA228"/>
<path d="M27.9733 19.7845C26.6532 19.7845 25.5811 18.7112 25.5811 17.3922C25.5811 16.0722 26.6544 15 27.9733 15C29.2934 15 30.3655 16.0733 30.3655 17.3922C30.3655 18.7123 29.2922 19.7845 27.9733 19.7845Z" fill="#FFA228"/>
<path d="M32.7579 31.7481V34.3882L36.5946 30.5515H33.9545C33.295 30.5515 32.7579 31.0875 32.7579 31.7481Z" fill="#FFA228"/>
<path d="M34.5522 16.7935H31.5073C31.5398 16.9886 31.5612 17.1871 31.5612 17.3912C31.5612 19.3707 29.9517 20.9802 27.9722 20.9802C25.9927 20.9802 24.3833 19.3707 24.3833 17.3912C24.3833 17.1871 24.4046 16.9886 24.4371 16.7935H21.3922C20.0722 16.7935 19 17.8668 19 19.1857V32.3448C19 33.6648 20.0733 34.737 21.3922 34.737H31.5613V31.7459C31.5613 30.4258 32.6346 29.3536 33.9535 29.3536H36.9447V19.1869C36.9447 17.8668 35.8714 16.7946 34.5525 16.7946L34.5522 16.7935ZM30.3655 29.9537H22.5898C22.2601 29.9537 21.992 29.6856 21.992 29.3559C21.992 29.0262 22.2601 28.7581 22.5898 28.7581H30.3655C30.6952 28.7581 30.9632 29.0262 30.9632 29.3559C30.9632 29.6856 30.6952 29.9537 30.3655 29.9537ZM33.3555 26.9625H22.5887C22.2589 26.9625 21.9909 26.6945 21.9909 26.3647C21.9909 26.035 22.2589 25.767 22.5887 25.767H33.3555C33.6852 25.767 33.9533 26.035 33.9533 26.3647C33.9533 26.6945 33.6852 26.9625 33.3555 26.9625ZM33.3555 23.9713H22.5887C22.2589 23.9713 21.9909 23.7033 21.9909 23.3736C21.9909 23.0438 22.2589 22.7758 22.5887 22.7758H33.3555C33.6852 22.7758 33.9533 23.0438 33.9533 23.3736C33.9533 23.7033 33.6852 23.9713 33.3555 23.9713Z" fill="#FFA228"/>
<defs>
<filter id="filter0_d_488_550" x="0" y="0" width="62" height="62" filterUnits="userSpaceOnUse" color-interpolation-filters="sRGB">
<feFlood flood-opacity="0" result="BackgroundImageFix"/>
<feColorMatrix in="SourceAlpha" type="matrix" values="0 0 0 0 0 0 0 0 0 0 0 0 0 0 0 0 0 0 127 0" result="hardAlpha"/>
<feOffset dy="4"/>
<feGaussianBlur stdDeviation="5"/>
<feComposite in2="hardAlpha" operator="out"/>
<feColorMatrix type="matrix" values="0 0 0 0 0 0 0 0 0 0 0 0 0 0 0 0 0 0 0.1 0"/>
<feBlend mode="normal" in2="BackgroundImageFix" result="effect1_dropShadow_488_550"/>
<feBlend mode="normal" in="SourceGraphic" in2="effect1_dropShadow_488_550" result="shape"/>
</filter>
</defs>
</svg>
