<svg width="24" height="28" viewBox="0 0 24 28" fill="none" xmlns="http://www.w3.org/2000/svg">
<path d="M21.3011 6.57528C20.6801 5.95423 19.6182 6.39409 19.6182 7.27238C19.6182 7.81685 20.0595 8.25823 20.604 8.25823C21.4823 8.25823 21.9222 7.19633 21.3011 6.57528Z" fill="url(#paint0_linear_1693_806)"/>
<path d="M19.104 9.28635C18.9677 9.28635 18.8364 9.23184 18.7398 9.13645C18.6444 9.03982 18.5899 8.9085 18.5899 8.77224V6.16724C18.5899 5.06267 17.6944 4.16724 16.5899 4.16724H5.59407C5.28931 4.16971 5.04277 4.41377 5.03906 4.7173V13.1856C5.03906 13.349 5.1128 13.5038 5.23974 13.6067C5.57378 13.8776 6.07511 13.6703 6.12039 13.2427L6.18996 12.5854C6.25562 11.9487 6.79327 11.4643 7.43378 11.4655H9.46924H9.46801C10.1097 11.4643 10.6487 11.9474 10.7168 12.5854C10.7899 13.2963 11.6247 13.6408 12.1811 13.1925L12.1823 13.1912C12.6779 12.7874 13.4001 12.8245 13.8523 13.2792L15.2968 14.7237L15.2956 14.7225C15.7503 15.1747 15.7874 15.8969 15.3836 16.3937C14.9353 16.9479 15.2756 17.7827 15.9844 17.858C16.6236 17.9212 17.1105 18.4588 17.1105 19.1018V21.1373V21.1361C17.1105 21.7803 16.6249 22.3192 15.9844 22.3848L15.7282 22.4113C15.1303 22.473 14.8386 23.1729 15.2158 23.6409L15.3832 23.8487C15.3834 23.849 15.3836 23.8494 15.3836 23.8498C15.3836 23.8502 15.3837 23.8506 15.384 23.8509C15.437 23.9158 15.4827 23.9852 15.5209 24.0581C15.7314 24.4599 16.0635 24.9245 16.5171 24.9245H23.1536C23.4571 24.9195 23.7012 24.673 23.7037 24.3695V11.2863C23.7037 10.1817 22.8082 9.28623 21.7036 9.28626L19.104 9.28635Z" fill="url(#paint1_linear_1693_806)"/>
<path d="M12.9477 22.4828C12.8288 22.3367 12.7978 22.1385 12.8672 21.9638C12.9366 21.7891 13.0952 21.6652 13.281 21.6404L13.5994 21.6045C13.6 21.6045 13.6004 21.6039 13.6003 21.6033C13.6 21.6005 13.6023 21.5996 13.6056 21.5996L15.8826 21.3629H15.8814C15.9966 21.3493 16.0821 21.2514 16.0821 21.1362V19.102C16.0821 18.988 15.9953 18.8926 15.8814 18.8802L13.281 18.6027C13.0952 18.578 12.9378 18.4541 12.8684 18.2794C12.7991 18.1047 12.8288 17.9065 12.9477 17.7603L13.1534 17.5187L14.5818 15.7459C14.6574 15.658 14.6499 15.5267 14.5657 15.4474L13.1278 14.0033C13.1276 14.0031 13.1274 14.0033 13.1274 14.0035C13.1274 14.0037 13.1271 14.0038 13.1269 14.0037C13.0439 13.9223 12.9141 13.915 12.8238 13.988L10.8094 15.622C10.6657 15.7422 10.4675 15.7744 10.2928 15.7063C10.1194 15.6369 9.9955 15.4796 9.97197 15.2937L9.93108 14.9754L9.69446 12.6934C9.68083 12.5794 9.58297 12.4927 9.46775 12.4927H7.43353C7.31955 12.4927 7.22416 12.5794 7.21177 12.6934L6.93427 15.2888C6.91444 15.4783 6.78932 15.6406 6.61093 15.71C6.32228 15.8426 6.05097 15.6035 5.85028 15.4226L4.07748 13.988C3.98953 13.9161 3.85944 13.9223 3.77892 14.0041L2.3344 15.4486L2.33564 15.4474C2.25511 15.5304 2.24768 15.6605 2.31953 15.7509L3.95358 17.7603C4.07499 17.9053 4.10596 18.1047 4.03658 18.2806C3.96721 18.4566 3.80739 18.5792 3.62033 18.6027L3.30689 18.6387L1.02491 18.8802C0.910937 18.8926 0.825456 18.988 0.824219 19.102V21.1374V21.1362C0.824219 21.2514 0.91094 21.3493 1.02491 21.3629L3.62033 21.6404C3.8074 21.6627 3.96847 21.7866 4.03783 21.9625C4.10719 22.1384 4.07499 22.3379 3.95359 22.4828C3.87306 22.5658 2.44218 24.3411 2.31954 24.4923C2.24769 24.5827 2.25388 24.7128 2.33565 24.7958L3.77971 26.2337C3.77988 26.2338 3.77976 26.2341 3.77953 26.2341C3.7793 26.2341 3.77918 26.2344 3.77934 26.2346C3.85867 26.3184 3.98968 26.3257 4.07749 26.2502L6.09189 24.6211C6.23684 24.5009 6.43505 24.4687 6.60973 24.5369C6.78565 24.605 6.90954 24.7636 6.9343 24.9494L6.97023 25.2678L7.21181 27.5498C7.2242 27.6638 7.31959 27.7505 7.43357 27.7505H9.46903H9.46779C9.583 27.7505 9.68087 27.665 9.6945 27.5498L9.972 24.9494C9.99306 24.7624 10.1157 24.6025 10.2904 24.5332C10.579 24.3944 10.8491 24.6422 11.051 24.8206L12.8238 26.2502C12.913 26.3258 13.0456 26.3184 13.1274 26.2341L14.5657 24.7958C14.6499 24.714 14.6574 24.5815 14.5818 24.4923L12.9477 22.4828ZM8.45056 23.3562C6.66536 23.3525 5.21945 21.9043 5.2185 20.1191C5.36963 15.8391 11.5361 15.8449 11.6889 20.1185C11.689 20.1188 11.6887 20.1191 11.6883 20.1191C11.688 20.1191 11.6877 20.1194 11.6877 20.1197C11.6849 21.9059 10.2368 23.3537 8.45056 23.3562Z" fill="url(#paint2_linear_1693_806)"/>
<path d="M8.45051 17.9138C5.53445 18.0067 5.54042 22.2369 8.44989 22.3279C8.45023 22.3279 8.45051 22.3282 8.45051 22.3285C8.45051 22.3288 8.4508 22.3291 8.45115 22.3291C9.66246 22.3189 10.6396 21.3329 10.6396 20.1215C10.6396 18.9099 9.66212 17.9237 8.45051 17.9138Z" fill="url(#paint3_linear_1693_806)"/>
<path d="M1.61046 14.7226L2.19646 14.1366C3.07141 13.3336 4.01017 11.8393 4.01017 10.6517V4.71762C4.01265 3.84546 4.72128 3.1393 5.59344 3.14053C5.98948 3.13875 10.9344 3.14082 13.7691 3.14119C14.8539 3.14134 15.7273 2.26664 15.7273 1.18189C15.7273 0.529004 15.1983 0 14.5454 0H2.35484C1.70196 0 1.17048 0.527767 1.16801 1.18189V15.2008C1.16678 15.2952 1.27666 15.2829 1.30829 15.1939C1.37119 15.017 1.47404 14.8557 1.61046 14.7226Z" fill="url(#paint4_linear_1693_806)"/>
<defs>
<linearGradient id="paint0_linear_1693_806" x1="22.4817" y1="6.57528" x2="20.4676" y2="6.57528" gradientUnits="userSpaceOnUse">
<stop stop-color="#FA2A0F"/>
<stop offset="0.41" stop-color="#FF0000"/>
<stop offset="1" stop-color="#FF0000"/>
</linearGradient>
<linearGradient id="paint1_linear_1693_806" x1="20.9179" y1="14.5459" x2="9.74944" y2="14.5459" gradientUnits="userSpaceOnUse">
<stop stop-color="#FA2A0F"/>
<stop offset="0.41" stop-color="#FF0000"/>
<stop offset="1" stop-color="#FF0000"/>
</linearGradient>
<linearGradient id="paint2_linear_1693_806" x1="13.8048" y1="20.1216" x2="4.67483" y2="20.1216" gradientUnits="userSpaceOnUse">
<stop stop-color="#FA2A0F"/>
<stop offset="0.41" stop-color="#FF0000"/>
<stop offset="1" stop-color="#FF0000"/>
</linearGradient>
<linearGradient id="paint3_linear_1693_806" x1="9.98674" y1="20.1215" x2="7.36947" y2="20.1215" gradientUnits="userSpaceOnUse">
<stop stop-color="#FA2A0F"/>
<stop offset="0.41" stop-color="#FF0000"/>
<stop offset="1" stop-color="#FF0000"/>
</linearGradient>
<linearGradient id="paint4_linear_1693_806" x1="13.5543" y1="7.7342" x2="4.8423" y2="7.7342" gradientUnits="userSpaceOnUse">
<stop stop-color="#FA2A0F"/>
<stop offset="0.41" stop-color="#FF0000"/>
<stop offset="1" stop-color="#FF0000"/>
</linearGradient>
</defs>
</svg>
