<svg width="45" height="45" viewBox="0 0 45 45" fill="none" xmlns="http://www.w3.org/2000/svg">
<circle opacity="0.2" cx="22.5" cy="22.5" r="22.25" stroke="#333333" stroke-width="0.5"/>
<path d="M28.9992 20.6027V19.9992C28.9992 16.6859 26.3133 14 23 14C19.6867 14 17.0008 16.6859 17.0008 19.9992V20.6027C17.0008 21.3269 16.7864 22.0348 16.3847 22.6374L15.4003 24.114C14.5012 25.4627 15.1876 27.2959 16.7514 27.7224C20.8424 28.8382 25.1576 28.8382 29.2486 27.7224C30.8124 27.2959 31.4988 25.4627 30.5997 24.114L29.6153 22.6374C29.2136 22.0348 28.9992 21.3269 28.9992 20.6027Z" stroke="#333333" stroke-width="1.5"/>
<path d="M19.1426 28.5695C19.704 30.0674 21.2187 31.1406 22.9992 31.1406C24.7797 31.1406 26.2945 30.0674 26.8559 28.5695" stroke="#333333" stroke-width="1.5" stroke-linecap="round"/>
<circle cx="31.5" cy="17.5" r="2.5" fill="#FF0000"/>
</svg>
