<svg width="366" height="263" viewBox="0 0 366 263" fill="none" xmlns="http://www.w3.org/2000/svg">
<g clip-path="url(#clip0_74_189)">
<path d="M96 113.906C125.271 113.906 149 89.7296 149 59.9062C149 30.0829 125.271 5.90625 96 5.90625C66.7289 5.90625 43 30.0829 43 59.9062C43 89.7296 66.7289 113.906 96 113.906Z" fill="#FFE2D9"/>
<path d="M302 73.7313C302 86.6356 298.108 99.3898 290.86 110.072C287.259 115.381 283.646 117.946 283.831 124.729C283.998 130.839 286.551 136.621 286.678 142.744C286.833 150.179 283.157 157.534 277.284 162.099C271.412 166.664 263.515 168.422 256.201 167.063C251.803 166.245 247.642 164.376 243.22 163.699C228.885 161.505 215.679 172.153 207.227 183.933C198.774 195.713 192.691 209.503 181.689 218.949C172.736 226.636 161.225 230.763 149.651 233.072C135.597 235.875 120.34 236.058 107.666 229.371C95.891 223.158 87.593 211.532 83.3319 198.922C79.0707 186.313 78.5059 172.734 79.3107 159.449C80.764 135.45 87.3197 110.41 104.574 93.6603C124.105 74.6998 153.909 69.4979 173.625 50.7308C183.321 41.5022 188.139 28.3793 199.319 21.0788C210.845 13.5529 223.218 8.90625 237.155 8.90625C272.968 8.90688 302 37.9295 302 73.7313Z" fill="#D7F0F4"/>
<path d="M73.3228 189.906L38 218.375L81 233.906L73.3228 189.906Z" fill="#F9D7ED"/>
<path d="M85.2381 102.017C85.2381 102.017 80.7967 102.034 76.3061 102.416C70.5618 102.905 63.4849 105.976 58.8754 112.736C55.373 117.873 51.6349 127.905 48.3447 138.524C54.7765 143.257 61.6683 147.069 69.4427 149.116L85.2381 102.017Z" fill="#13183E"/>
<path d="M69.3524 149.384L85.2375 102.017C85.2375 102.017 79.0901 102.051 75.1137 102.637C69.5982 103.45 63.1677 106.44 58.8748 112.736C55.3306 117.934 51.5451 128.144 48.2266 138.904C52.2566 141.63 60.0387 146.365 69.3524 149.384Z" fill="#6B95C7"/>
<path d="M70.7566 194.222L50.7637 275.708C50.7637 275.708 89.873 276.576 89.5836 275.708C89.2943 274.839 96.8261 237.887 96.8261 237.887L95.9573 275.708H136.805L129.755 191.52L70.7566 194.222Z" fill="#5F5482"/>
<path d="M102.905 109.767C108.76 110.299 115.052 108.577 118.404 103.87C118.386 103.826 118.37 103.781 118.352 103.738L114.401 103.358C107.765 107.464 98.7181 106.577 93.5021 101.084L89.5049 101.488C92.6806 106.148 97.2926 109.206 102.905 109.767Z" fill="#FEE4D5"/>
<path d="M118.405 103.87C115.053 108.577 108.761 110.3 102.906 109.767C97.2935 109.206 92.6816 106.148 89.5064 101.488L77.161 102.245C77.161 102.245 68.8084 121.078 68.9935 132.749C69.1787 144.421 68.4375 167.394 70.105 178.695C71.7725 189.996 67.2034 201.279 66.4629 204.243C66.4629 204.243 99.0432 206.809 131.835 203.289L126.982 140.531L127.252 140.442C125.389 128.121 123.206 115.675 118.405 103.87Z" fill="#6B95C7"/>
<path d="M127.351 80.5047C127.351 80.5047 128.647 67.5363 128.092 65.4985C127.537 63.4607 107.527 49.9363 98.0789 63.6459C88.6306 77.3555 94.3736 80.5053 95.6702 83.8397C96.9668 87.1747 95.4851 100.884 95.4851 100.884L93.5017 101.085C98.7177 106.577 107.764 107.465 114.401 103.359L111.789 103.108V98.106C111.789 98.106 125.869 99.9586 126.61 85.1375C126.61 85.1375 129.204 84.9524 129.389 83.0998C129.574 81.2459 127.351 80.5047 127.351 80.5047Z" fill="#C46E62"/>
<path d="M156.708 107.424L118.353 103.737C123.191 115.582 125.381 128.075 127.252 140.441L157.686 130.443C158.05 122.767 157.953 115.036 156.708 107.424Z" fill="#6B95C7"/>
<path d="M192.75 110.888L156.707 107.424C157.952 115.037 158.049 122.767 157.686 130.443L191.268 119.41L192.75 110.888Z" fill="#C46E62"/>
<path d="M96.7401 241.526L97.1305 231.964L91.0811 228.451" stroke="#473E68" stroke-miterlimit="10"/>
<path d="M96.2761 90.2538C96.2761 90.2538 97.4192 91.0158 97.6732 89.9998C97.9272 88.9837 100.594 82.3807 100.594 82.3807C100.594 82.3807 94.2902 78.4568 99.1966 71.5872C99.8317 70.6981 103.387 69.6827 105.8 74.1267L105.546 79.3332C105.546 79.3332 108.085 79.9683 108.847 77.9362C109.609 75.9047 110.752 71.4602 110.752 71.4602C110.752 71.4602 116.466 69.0477 117.482 64.4762C117.482 64.4762 121.926 61.5557 124.847 62.9521C127.767 64.3492 128.148 67.1426 128.021 69.9361C127.894 72.7296 127.894 72.7296 127.894 72.7296C127.894 72.7296 128.275 71.0785 130.434 68.6661C132.592 66.2536 137.799 65.4916 138.18 62.5711C138.561 59.6506 136.91 57.7455 136.529 57.8725C136.148 57.9995 140.465 57.6185 143.64 54.19C146.814 50.7615 134.116 47.587 134.116 47.587C134.116 47.587 137.164 46.444 137.164 44.9205C137.164 43.3965 118.624 41.873 109.99 45.8096C101.354 49.7461 99.45 54.0636 99.45 54.0636C99.45 54.0636 96.7835 53.9366 95.7675 54.4447C94.7514 54.9527 88.4025 61.5557 88.0214 67.2696C87.6404 72.9836 90.4339 78.4442 92.847 81.6187C95.2607 84.7938 96.2761 90.2538 96.2761 90.2538Z" fill="#010100"/>
<path d="M122.381 80.5166C122.381 82.2883 120.945 83.7246 119.173 83.7246C117.401 83.7246 115.965 82.2883 115.965 80.5166C115.965 78.7448 117.401 77.3086 119.173 77.3086C120.945 77.3086 122.381 78.7448 122.381 80.5166Z" fill="#B25B52"/>
<path d="M123.28 76.6034C123.28 77.1702 122.82 77.6296 122.254 77.6296C121.687 77.6296 121.228 77.1702 121.228 76.6034C121.228 76.0367 121.687 75.5767 122.254 75.5767C122.82 75.5767 123.28 76.036 123.28 76.6034Z" fill="#08101C"/>
<path d="M121.658 72.8228C122.483 72.4121 123.434 72.1385 124.339 71.9742C125.425 71.777 124.965 70.1209 123.882 70.3174C122.712 70.5304 121.771 71.0359 120.867 71.7979C120.272 72.2996 121.03 73.1356 121.658 72.8228Z" fill="#010100"/>
<path d="M119.429 84.6226C119.493 84.8153 120.07 87.3813 123.856 87.4451" stroke="#9E423E" stroke-miterlimit="10"/>
<path d="M127.229 145.274C127.229 144.406 124.332 115.731 124.332 115.731" stroke="#5380AD" stroke-miterlimit="10"/>
<path d="M120.61 204.771L120.777 207.351C120.972 210.388 122.989 213.003 125.876 213.965L131.401 215.807" stroke="#473E68" stroke-miterlimit="10"/>
<path d="M65.9209 216.298L76.0219 212.105C77.8259 211.356 79.1212 209.737 79.4561 207.813L79.8997 205.262" stroke="#473E68" stroke-miterlimit="10"/>
<path d="M196.16 100.235C196.16 100.235 226.404 109.655 243.757 107.425C261.11 105.194 272.017 99.2441 272.017 99.2441C272.017 99.2441 270.777 96.0215 268.794 94.7818C266.811 93.5421 262.597 95.0295 263.093 87.3447C263.589 79.66 258.383 83.6262 255.656 81.6434C252.929 79.66 251.69 77.4289 251.194 75.4461C250.698 73.4626 240.782 66.2739 232.602 67.0176C224.421 67.7613 223.677 70.7361 220.455 75.4461C217.232 80.156 212.77 78.1732 210.043 82.8831C207.316 87.5931 211.034 88.5845 208.555 92.799C206.076 97.0129 197.895 93.7904 196.16 100.235Z" fill="#35120B"/>
<path d="M269.29 118.332C269.29 118.332 274.496 116.845 278.71 126.265C282.925 135.685 297.551 176.092 297.551 176.092L308.21 147.584L305.731 137.916C305.731 137.916 307.962 129.487 308.458 130.479C308.954 131.47 311.929 136.676 311.929 136.676C311.929 136.676 320.109 130.975 320.853 133.205C321.597 135.436 324.076 141.634 323.58 148.079C323.084 154.525 322.093 174.604 320.605 188.486C319.118 202.369 314.408 205.591 306.475 209.31C298.543 213.028 285.663 208.758 278.462 191.957C276.975 188.486 271.273 174.852 271.273 174.852L262.349 157.499L269.29 118.332Z" fill="#B76C6C"/>
<path d="M308.161 115.276H317.406C318.669 115.276 319.62 116.426 319.383 117.667L314.602 142.688C314.421 143.637 313.591 144.323 312.625 144.323H303.381C302.118 144.323 301.167 143.173 301.404 141.932L306.184 116.911C306.366 115.963 307.195 115.276 308.161 115.276Z" fill="#08101C"/>
<path d="M312.645 146.769C312.645 146.769 311.407 129.542 312.13 127.479C312.852 125.416 314.811 122.115 315.946 122.425C317.081 122.734 321.62 134.184 322.548 138.722C323.476 143.261 312.645 146.769 312.645 146.769Z" fill="#B76C6C"/>
<path d="M297.732 275.707C297.732 275.707 281.614 229.197 276.123 214.85C270.632 200.503 270.278 191.293 270.632 181.374C270.987 171.454 274.352 156.753 274.706 151.086C275.06 145.418 272.226 140.635 270.986 137.27C269.746 133.905 272.934 118.672 270.809 118.318C268.684 117.963 247.96 111.942 247.96 111.942L247.252 96.1777C254.514 98.3033 255.222 92.4579 253.628 90.3323C249.736 85.1434 246.543 90.3323 246.543 90.3323C240.167 91.0406 240.521 82.5389 239.635 79.3505C238.75 76.1621 234.499 73.6826 234.499 73.6826C234.499 73.6826 230.957 77.0479 221.215 78.1107C221.215 78.1107 218.912 92.6348 220.506 96.886C222.101 101.137 223.695 105.034 230.602 105.211L229.894 111.942C229.894 111.942 208.014 116.907 205.451 120.266C201.03 126.061 188.082 168.07 193.836 203.749C199.592 239.428 199.016 276.858 199.016 275.707C199.016 274.557 297.732 275.707 297.732 275.707Z" fill="#B76C6C"/>
<path d="M270.675 180.412C271.198 170.527 274.363 156.574 274.706 151.086C275.06 145.418 272.226 140.636 270.986 137.27C269.746 133.905 272.934 118.673 270.809 118.318C269.474 118.096 260.806 115.638 254.541 113.84C251.749 130.08 238.209 130.928 231.278 126.816C225.832 123.585 224.401 116.752 224.025 113.379C217.35 115.103 207.151 118.037 205.451 120.265C201.947 124.859 193.086 152.211 192.429 181.126C224.201 183.039 262.061 180.942 270.675 180.412Z" fill="#FACCA6"/>
<path d="M307.431 275.708C307.431 275.708 284.14 226.507 278.649 212.16C274.657 201.729 270.859 196.707 270.595 189.46C266.472 190.671 258.193 192.383 242.628 193.32C223.106 194.494 201.919 194.779 192.784 194.848C193.02 197.843 193.364 200.818 193.837 203.751C199.2 237.005 188.251 274.618 188.207 275.709C188.208 276.067 307.431 275.708 307.431 275.708Z" fill="#F0A7D4"/>
<path d="M325.553 156.469C326.51 155.799 327.232 154.721 326.931 153.508C326.64 152.329 325.586 151.662 324.413 151.832C323.481 151.967 323.713 153.484 324.633 153.461C324.919 153.454 325.182 153.687 325.224 153.983C325.279 154.374 324.947 154.731 324.656 154.935C323.727 155.586 324.614 157.127 325.553 156.469Z" fill="#D7ADB6"/>
<path d="M304.866 151.519C308.63 153.349 312.465 155.127 316.534 156.171C319.243 156.867 322.917 157.839 325.555 156.469C326.569 155.942 325.67 154.398 324.658 154.934C321.984 156.352 317.51 154.754 314.835 153.922C311.672 152.939 308.658 151.558 305.674 150.138C304.751 149.699 303.937 151.067 304.866 151.519Z" fill="#D7ADB6"/>
<path d="M303.229 154.721C308.975 159.231 317.601 160.418 324.686 160.031C325.672 159.978 325.677 158.434 324.686 158.491C320.892 158.709 317.135 158.444 313.436 157.534C310.023 156.694 306.985 155.102 303.719 153.879C303.262 153.708 302.836 154.413 303.229 154.721Z" fill="#EBC35F"/>
<path d="M303.479 157.175C309.636 160.217 316.727 162.491 323.671 161.828C324.649 161.734 324.659 160.193 323.671 160.287C317.125 160.913 309.977 158.85 303.988 156.304C303.407 156.059 302.887 156.881 303.479 157.175Z" fill="#EBC35F"/>
<path d="M225.258 90.4442C225.258 91.7945 224.163 92.8889 222.813 92.8889C221.463 92.8889 220.368 91.7945 220.368 90.4442C220.368 89.0939 221.463 87.9995 222.813 87.9995C224.163 87.9989 225.258 89.0939 225.258 90.4442Z" fill="#9B5454"/>
<path d="M237.889 90.4442C237.889 91.7945 236.795 92.8889 235.445 92.8889C234.094 92.8889 233 91.7945 233 90.4442C233 89.0939 234.094 87.9995 235.445 87.9995C236.795 87.9989 237.889 89.0939 237.889 90.4442Z" fill="#9B5454"/>
<path d="M224.768 86.6538C224.768 87.2162 224.311 87.6724 223.749 87.6724C223.187 87.6724 222.73 87.2162 222.73 86.6538C222.73 86.0915 223.187 85.6353 223.749 85.6353C224.312 85.6353 224.768 86.0915 224.768 86.6538Z" fill="#08101C"/>
<path d="M234.954 86.6538C234.954 87.2162 234.498 87.6724 233.936 87.6724C233.373 87.6724 232.917 87.2162 232.917 86.6538C232.917 86.0915 233.373 85.6353 233.936 85.6353C234.498 85.6353 234.954 86.0915 234.954 86.6538Z" fill="#08101C"/>
<path d="M226.724 87.021C226.724 87.021 225.095 92.0734 225.502 92.2364C225.909 92.3994 228.599 92.7255 228.599 92.7255" stroke="#7F3B3B" stroke-miterlimit="10"/>
<path d="M222.605 82.6758C223.064 82.5002 223.525 82.3346 223.965 82.1128C224.364 81.9113 224.478 81.3476 224.262 80.978C224.057 80.6273 223.486 80.4081 223.127 80.6804C222.731 80.9818 222.373 81.3135 222.01 81.6535C221.584 82.0534 222.024 82.8982 222.605 82.6758Z" fill="#35120B"/>
<path d="M236.35 81.4149C235.869 81.0515 235.295 80.8051 234.701 80.7034C234.176 80.6136 233.669 80.874 233.592 81.442C233.516 82.005 233.932 82.398 234.465 82.4486C234.787 82.4795 235.182 82.6337 235.513 82.8467C235.889 83.0893 236.428 82.9237 236.648 82.549C236.896 82.1244 236.709 81.6859 236.35 81.4149Z" fill="#35120B"/>
<path d="M226.725 95.3333C226.725 95.3333 230.473 96.1484 231.696 92.7256" stroke="#7F3B3B" stroke-miterlimit="10"/>
<path d="M228.459 104.978C228.459 104.978 231.567 105.632 235.737 104.896" stroke="#7F3B3B" stroke-miterlimit="10"/>
<path d="M292.962 188.28L299.07 172.272" stroke="#7F3B3B" stroke-miterlimit="10"/>
<path d="M264.688 212.974L291.985 275.707" stroke="#D887BD" stroke-miterlimit="10"/>
<path d="M257.478 214.262L270.096 275.708" stroke="#D887BD" stroke-miterlimit="10"/>
<path d="M247.178 214.262L253.358 275.708" stroke="#D887BD" stroke-miterlimit="10"/>
<path d="M206.232 214.52L201.597 275.708" stroke="#D887BD" stroke-miterlimit="10"/>
<path d="M232.243 215.807C231.985 216.58 231.985 275.708 231.985 275.708" stroke="#D887BD" stroke-miterlimit="10"/>
<path d="M218.851 215.035L216.533 275.708" stroke="#D887BD" stroke-miterlimit="10"/>
<path d="M312.378 126.897L315.346 138.471" stroke="#7F3B3B" stroke-miterlimit="10"/>
<path d="M313.563 124.82L317.422 136.543" stroke="#7F3B3B" stroke-miterlimit="10"/>
<path d="M315.195 123.188L319.795 134.465" stroke="#7F3B3B" stroke-miterlimit="10"/>
<path d="M156.949 81.0348C156.936 80.8674 156.931 80.6804 157.041 80.554C157.186 80.3891 157.467 80.4175 157.637 80.5559C157.807 80.6943 157.895 80.9072 157.976 81.1113C158.652 82.8123 159.329 84.5133 160.005 86.2149C160.318 87.0028 160.891 87.9367 161.022 88.7689C161.197 89.893 161.071 89.7483 160.275 89.009C158.281 87.1551 157.105 83.6824 156.949 81.0348Z" stroke="#F877A0" stroke-miterlimit="10"/>
<path d="M161.595 80.9246C161.577 79.786 161.589 78.5747 162.2 77.6143C162.581 77.7349 162.737 78.1791 162.828 78.5677C163.261 80.4166 163.4 82.3185 163.381 84.2135C163.371 85.2162 163.674 88.7225 162.874 89.3992C161.477 90.5802 161.782 87.2338 161.756 86.6038C161.678 84.712 161.624 82.8183 161.595 80.9246Z" stroke="#F877A0" stroke-miterlimit="10"/>
<path d="M197.432 86.5222C197.834 85.6376 198.326 84.7675 199.064 84.1357C199.216 84.0055 199.426 83.881 199.603 83.9733C199.839 84.0959 199.772 84.4459 199.668 84.6905C198.941 86.4129 198.054 89.0883 196.675 90.3273C195.899 89.4187 197.005 87.4631 197.432 86.5222Z" stroke="#F877A0" stroke-miterlimit="10"/>
<path d="M201.578 86.6212C201.882 86.4266 202.298 86.2573 202.582 86.4822C202.786 86.644 202.818 86.9548 202.724 87.1981C202.631 87.4414 202.439 87.6316 202.251 87.8123C200.785 89.2201 199.065 90.868 197.224 91.7412C198.071 89.8128 199.794 87.7605 201.578 86.6212Z" stroke="#F877A0" stroke-miterlimit="10"/>
<path d="M159.053 109.685C164.912 109.685 169.661 104.935 169.661 99.0762C169.661 93.2173 164.912 88.4678 159.053 88.4678C153.194 88.4678 148.444 93.2173 148.444 99.0762C148.444 104.935 153.194 109.685 159.053 109.685Z" fill="#08101C"/>
<path d="M191.904 109.457C197.763 109.457 202.513 104.707 202.513 98.8482C202.513 92.9893 197.763 88.2397 191.904 88.2397C186.045 88.2397 181.296 92.9893 181.296 98.8482C181.296 104.707 186.045 109.457 191.904 109.457Z" fill="#08101C"/>
<path d="M144.451 115.389C148.546 115.389 151.866 112.069 151.866 107.974C151.866 103.88 148.546 100.56 144.451 100.56C140.357 100.56 137.037 103.88 137.037 107.974C137.037 112.069 140.357 115.389 144.451 115.389Z" fill="#08101C"/>
<path d="M206.733 114.02C210.827 114.02 214.147 110.7 214.147 106.605C214.147 102.51 210.827 99.1909 206.733 99.1909C202.638 99.1909 199.318 102.51 199.318 106.605C199.318 110.7 202.638 114.02 206.733 114.02Z" fill="#08101C"/>
<path d="M139.655 113.386C140.251 110.873 138.696 108.352 136.182 107.757C133.668 107.161 131.148 108.716 130.553 111.23C129.957 113.744 131.512 116.264 134.026 116.859C136.539 117.455 139.06 115.9 139.655 113.386Z" fill="#08101C"/>
<path d="M216.314 117.214C218.897 117.214 220.991 115.12 220.991 112.536C220.991 109.953 218.897 107.859 216.314 107.859C213.731 107.859 211.637 109.953 211.637 112.536C211.637 115.12 213.731 117.214 216.314 117.214Z" fill="#08101C"/>
<path d="M201.435 159.082C201.435 159.082 219.318 182.853 221.935 185.253C235.769 197.934 254.866 185.907 259.228 179.146C263.589 172.385 274.494 139.89 275.366 136.401C276.239 132.912 274.058 120.045 274.058 120.045L261.408 118.954L262.935 128.768L246.36 153.848C246.36 153.848 227.823 132.912 221.062 125.497C214.301 118.082 203.615 118.082 203.615 118.082L201.435 159.082Z" fill="#FF969A"/>
<path d="M212.212 141.521C212.212 141.521 206.749 117.847 204.806 117.968C202.864 118.089 187.202 117.604 187.202 117.604V113.719C191.957 114.66 195.917 109.914 196.765 105.778C197.596 101.726 197.295 90.3991 196.765 86.6869C196.235 82.9746 189.977 74.8078 184.356 73.3229C178.735 71.838 166.007 73.7469 162.507 85.5198C159.007 97.2927 170.249 103.975 170.249 103.975L169.266 116.263L157.362 117.483C157.362 117.483 158.277 125.114 157.972 137.018C157.683 148.301 161.775 163.149 157.005 177.923C175.069 175.977 192.923 175.783 210.87 175.517C211.424 161.616 212.282 143.89 212.212 141.521Z" fill="#FF969A"/>
<path d="M218.409 219.126C208.032 205.086 210.168 199.592 210.473 187.077C210.547 184.039 210.694 179.974 210.871 175.518C192.923 175.784 175.069 175.977 157.005 177.923C156.742 178.736 156.459 179.55 156.141 180.362C150.036 195.929 145.458 212.717 144.237 223.706C143.016 234.694 142.807 275.708 142.807 275.708H183.611L186.053 235.609L187.579 233.473L201.022 275.708H254.465C254.465 275.708 228.788 233.167 218.409 219.126Z" fill="#93D4D0"/>
<path d="M221.062 125.497C214.301 118.082 203.615 118.082 203.615 118.082L201.435 159.082C201.435 159.082 205.135 164.001 209.414 169.588C220.13 162.679 230.131 154.751 240.483 147.221C234.455 140.431 225.37 130.222 221.062 125.497Z" fill="#4253AC"/>
<path d="M269.338 124.118H260.393C258.66 124.118 257.365 122.528 257.714 120.831L261.684 101.576C261.947 100.305 263.065 99.3931 264.363 99.3931H273.308C275.04 99.3931 276.336 100.983 275.986 102.68L272.016 121.936C271.754 123.207 270.635 124.118 269.338 124.118Z" fill="#FF4F85"/>
<path d="M265.575 127.304C265.575 127.304 265.32 117.109 265.193 115.58C265.065 114.05 266.085 109.08 266.849 108.697C267.614 108.315 272.329 116.726 272.329 116.726C272.329 116.726 269.01 108.002 270.163 106.658C270.927 105.766 274.369 115.324 274.623 116.854C274.878 118.383 275.261 129.726 275.261 129.726L265.575 127.304Z" fill="#FF969A"/>
<path d="M235.579 169.494C236.202 169.286 247.006 152.874 247.006 152.874" stroke="#D36371" stroke-miterlimit="10"/>
<path d="M148.799 202.188C166.928 204.136 199.216 201.936 210.255 201.08C209.835 196.888 210.338 192.688 210.474 187.076C210.779 174.561 212.305 144.648 212.213 141.52C212.213 141.52 206.749 117.846 204.807 117.967C203.302 118.061 193.569 117.791 189.257 117.664C187.546 119.737 183.622 123.153 176.571 122.693C170.641 122.307 167.836 119.099 166.533 116.542L157.363 117.482C157.363 117.482 158.279 125.113 157.974 137.017C157.668 148.921 162.247 164.793 156.142 180.36C153.3 187.611 150.795 195.118 148.799 202.188Z" fill="#4253AC"/>
<path d="M210.996 172.397C211.544 159.093 212.276 143.715 212.211 141.521C212.211 141.521 211.537 138.6 210.578 134.816" stroke="#2F418C" stroke-miterlimit="10"/>
<path d="M183.089 237.817C187.435 233.679 192.127 229.904 197.101 226.545" stroke="#73BFB8" stroke-miterlimit="10"/>
<path d="M162.815 117.086C162.815 117.086 152.743 115.934 144.973 123.13C137.203 130.324 111.877 162.556 113.604 182.701C115.331 202.846 146.411 194.213 160.801 184.14C175.19 174.067 186.99 160.254 186.99 160.254C186.99 160.254 190.731 162.268 192.746 158.239L190.871 141.861L159.158 156.349L162.815 117.086Z" fill="#FF969A"/>
<path d="M144.972 123.129C140.789 127.002 131.521 138.132 124.122 150.725C133.045 157.557 148.549 160.912 148.549 160.912L159.158 156.35L165.727 116.641C165.727 116.641 152.743 115.934 144.972 123.129Z" fill="#4253AC"/>
<path d="M188.538 143.075C188.538 143.075 190.616 141.59 192.002 141.392C193.388 141.194 216.09 146.541 217.179 146.74C218.267 146.937 215.397 148.818 214.111 149.016C212.824 149.213 205.759 147.924 205.759 147.924C205.759 147.924 207.442 149.21 206.947 150.596C206.452 151.982 199.624 161.185 198.832 161.482C198.04 161.779 194.873 162.472 193.982 161.977C193.091 161.482 195.071 159.503 196.852 159.899L196.457 158.612L191.706 158.415L188.538 143.075Z" fill="#FF969A"/>
<path d="M182.59 144.44C181.385 148.917 181.361 153.707 182.521 158.196C183.04 160.202 183.939 162.32 185.784 163.262C186.03 163.387 186.297 163.49 186.573 163.482C187.506 163.453 187.909 162.305 188.065 161.384" stroke="#EFD248" stroke-width="2" stroke-miterlimit="10" stroke-linecap="round"/>
<path d="M169.07 103.75L170.156 105.13C171.017 105.093 172.22 104.6 172.22 102.115C172.22 102.115 168.974 100.15 170.195 96.7582C171.416 93.3663 175.001 94.5176 175.612 96.4846C175.612 96.4846 184.159 91.7361 186.736 89.4974C189.314 87.2587 190.874 83.8675 190.942 81.5605C190.942 81.5605 193.483 81.8948 195.539 83.5086C193.351 79.5322 188.667 74.4621 184.355 73.3229C178.734 71.838 166.006 73.7469 162.506 85.5198C159.006 97.2927 169.07 103.75 169.07 103.75Z" fill="#08101C"/>
<path d="M187.56 97.5857C187.56 99.1837 186.264 100.479 184.666 100.479C183.068 100.479 181.772 99.1837 181.772 97.5857C181.772 95.9877 183.068 94.6924 184.666 94.6924C186.264 94.6918 187.56 95.9877 187.56 97.5857Z" fill="#EF818A"/>
<path d="M194.999 97.5857C194.999 98.9569 195.956 100.099 197.236 100.398C197.291 98.6112 197.292 96.6575 197.254 94.7676C195.965 95.0595 194.999 96.2076 194.999 97.5857Z" fill="#EF818A"/>
<path d="M187.855 92.4782C187.855 93.0166 187.419 93.4526 186.881 93.4526C186.342 93.4526 185.906 93.0166 185.906 92.4782C185.906 91.9399 186.342 91.5039 186.881 91.5039C187.418 91.5039 187.855 91.9399 187.855 92.4782Z" fill="#08101C"/>
<path d="M196.152 92.4782C196.152 93.0166 195.716 93.4526 195.177 93.4526C194.639 93.4526 194.203 93.0166 194.203 92.4782C194.203 91.9399 194.639 91.5039 195.177 91.5039C195.715 91.5039 196.152 91.9399 196.152 92.4782Z" fill="#08101C"/>
<path d="M191.457 95.9321C191.457 95.9321 192.906 98.2675 192.875 99.2981C192.815 101.247 190.04 101.247 190.04 101.247" stroke="#D36371" stroke-miterlimit="10"/>
<path d="M185.907 99.3579C185.907 99.3579 185.907 103.668 189.746 104.141" stroke="#D36371" stroke-miterlimit="10"/>
<path d="M185.616 88.7344C186.269 88.3856 186.922 88.0375 187.574 87.6887C188.55 87.1674 187.683 85.6838 186.707 86.2051C186.055 86.5538 185.402 86.902 184.749 87.2508C183.774 87.7721 184.64 89.2557 185.616 88.7344Z" fill="#08101C"/>
<path d="M196.496 86.2143C196.126 85.9874 195.718 85.8149 195.298 85.7075C194.748 85.566 194.197 85.9274 194.121 86.4917C194.041 87.0894 194.482 87.5058 195.047 87.5602C195.063 87.5614 195.208 87.5829 195.118 87.5684C195.207 87.5829 195.294 87.6044 195.381 87.6271C195.536 87.6682 195.685 87.7225 195.834 87.7845C196.223 87.9462 196.704 87.641 196.847 87.2872C197.008 86.8885 196.868 86.443 196.496 86.2143Z" fill="#08101C"/>
<path d="M180.968 111.134C180.968 111.134 184.912 114.158 189.513 113.763" stroke="#D36371" stroke-miterlimit="10"/>
<path d="M146.97 275.626C146.97 275.626 144.98 220.797 153.382 202.668" stroke="#73BFB8" stroke-miterlimit="10"/>
<path d="M189.64 232.073L206.442 275.627" stroke="#73BFB8" stroke-miterlimit="10"/>
<path d="M211.541 206.537C210.235 203.228 210.21 201.946 210.11 198.899C189.958 201.264 169.591 202.84 149.202 200.758C148.409 203.496 147.69 206.173 147.057 208.753C168.608 209.98 190.096 209.249 211.541 206.537Z" fill="#FA88AF"/>
<path d="M190.326 200.247C192.911 200.247 195.005 202.342 195.005 204.926C195.005 207.51 192.911 209.605 190.326 209.605" stroke="#F3C8B8" stroke-width="2" stroke-miterlimit="10" stroke-linecap="round"/>
<path d="M186.179 200.247C188.763 200.247 190.858 202.342 190.858 204.926C190.858 207.51 188.763 209.605 186.179 209.605" stroke="#F3C8B8" stroke-width="2" stroke-miterlimit="10" stroke-linecap="round"/>
<path d="M265.507 113.169C266.692 116.37 267.878 119.57 269.063 122.771" stroke="#D36371" stroke-miterlimit="10"/>
<path d="M266.096 110.644C268.23 113.337 269.96 116.349 271.213 119.548" stroke="#D36371" stroke-miterlimit="10"/>
<path d="M206.347 148.449C202.441 147.289 199.843 146.551 195.715 146.334" stroke="#D36371" stroke-miterlimit="10"/>
<path d="M193.194 154.955C196.24 155.307 199.223 156.201 201.96 157.583" stroke="#D36371" stroke-miterlimit="10"/>
<path d="M194.136 151.131C197.808 151.287 201.711 152.325 204.426 154.06" stroke="#D36371" stroke-miterlimit="10"/>
<path d="M129.962 167.204L150.239 160.311" stroke="#D36371" stroke-miterlimit="10"/>
<path d="M154.478 158.118C156.998 153.601 161.137 146.461 163.126 144.587" stroke="#2F418C" stroke-miterlimit="10"/>
<path d="M163.146 116.69C163.146 116.69 165.902 127.365 179.011 127.462C190.284 127.546 193.708 117.943 193.708 117.943" stroke="#2F418C" stroke-miterlimit="10"/>
<path d="M191.949 117.751C191.949 117.751 190.176 122.574 191.164 122.125C192.152 121.676 196.246 118.103 196.246 118.103C196.246 118.103 206.428 125.986 206.698 125.896C206.967 125.806 212.175 124.908 213.073 123.651L207.236 119.072C207.236 119.072 214.509 121.945 214.868 121.496C215.227 121.048 205.71 114.044 204.992 113.595C204.273 113.146 194.834 110.098 194.834 110.098C194.834 110.098 191.58 114.676 187.202 113.718V117.603L191.949 117.751Z" fill="#C46E62"/>
<path d="M107.558 167.283C107.558 167.283 116.017 161.161 117.019 161.161C118.02 161.161 119.69 165.836 119.69 165.836L107.558 167.283Z" fill="#C46E62"/>
<path d="M123.101 171.512H113.423C111.931 171.512 110.943 169.967 111.567 168.613L119.545 151.328C119.879 150.604 120.603 150.141 121.4 150.141H131.078C132.569 150.141 133.558 151.686 132.933 153.04L124.956 170.325C124.622 171.049 123.898 171.512 123.101 171.512Z" fill="#08101C"/>
<path d="M131.301 163.434C131.301 163.434 109.574 166.331 107.256 166.621C104.938 166.91 69.305 160.537 69.305 160.537L68.9846 150.4V148.781C61.2095 146.735 54.7765 143.258 48.3453 138.525C43.4711 154.256 39.5788 171.278 38.8869 175.602C37.7281 182.845 44.1017 190.087 61.7731 189.508C79.4452 188.928 114.789 179.658 121.162 177.05C127.535 174.443 131.301 172.415 132.46 167.78C133.618 163.144 131.301 163.434 131.301 163.434Z" fill="#C46E62"/>
<path d="M68.9365 148.76L69.8818 122.104" stroke="#5380AD" stroke-miterlimit="10"/>
<path d="M59.3672 158.616L70.2227 160.616" stroke="#9E423E" stroke-miterlimit="10"/>
<path d="M119.065 168.479L132.537 164.201" stroke="#9E423E" stroke-miterlimit="10"/>
<path d="M120.705 171.483L132.629 167.113" stroke="#9E423E" stroke-miterlimit="10"/>
<path d="M121.433 174.578L131.719 169.48" stroke="#9E423E" stroke-miterlimit="10"/>
</g>
<defs>
<clipPath id="clip0_74_189">
<rect width="366" height="263" fill="white"/>
</clipPath>
</defs>
</svg>
