<svg width="50" height="50" viewBox="0 0 50 50" fill="none" xmlns="http://www.w3.org/2000/svg">
<rect width="50" height="50" rx="25" fill="#31343A"/>
<path d="M35 14H31C30.4476 14 30 14.4476 30 15C30 15.5524 30.4476 16 31 16H32.586L30 18.586L28.7072 17.2932C28.3164 16.9024 27.6836 16.9024 27.2932 17.2932C26.9028 17.684 26.9024 18.3168 27.2932 18.7072L28.586 20L26.8976 21.6884C25.5428 20.6344 23.8456 20 22 20C17.5888 20 14 23.5888 14 28C14 32.4112 17.5888 36 22 36C26.4112 36 30 32.4112 30 28C30 26.1544 29.3656 24.4572 28.3116 23.1024L30 21.414L31.2928 22.7068C31.4884 22.9024 31.744 23 32 23C32.256 23 32.5116 22.9024 32.7072 22.7072C33.098 22.3164 33.098 21.6836 32.7072 21.2932L31.414 20L34 17.414V19C34 19.5524 34.4476 20 35 20C35.5524 20 36 19.5524 36 19V15C36 14.4476 35.5524 14 35 14ZM22 34C18.6916 34 16 31.3084 16 28C16 24.6916 18.6916 22 22 22C25.3084 22 28 24.6916 28 28C28 31.3084 25.3084 34 22 34Z" fill="white"/>
</svg>
