<svg width="30" height="28" viewBox="0 0 30 28" fill="none" xmlns="http://www.w3.org/2000/svg">
<path fill-rule="evenodd" clip-rule="evenodd" d="M14.8835 19.3112C14.7464 19.3112 14.6343 19.1972 14.6343 19.0577V16.542C14.0873 16.4835 13.5978 16.2329 13.2292 15.8579C12.8061 15.4274 12.5436 14.8318 12.5436 14.1748C12.5436 13.5177 12.8061 12.9222 13.2292 12.4917C13.5978 12.1166 14.0873 11.8661 14.6343 11.8076V9.1629C13.5787 8.17732 12.4581 7.50676 11.3479 7.11524C10.2318 6.72222 9.12452 6.6082 8.10126 6.73871C8.27524 7.21725 8.3637 7.6658 8.45364 8.11731C8.64236 9.0654 8.83256 10.0225 9.92066 11.3126C10.3939 11.8736 10.6402 12.6462 10.6107 13.2447C10.5989 13.4937 10.5399 13.7188 10.4308 13.8988C10.3099 14.0983 10.133 14.2378 9.89558 14.2918C9.58153 14.3623 9.17163 14.2723 8.66004 13.9422C7.58519 13.2477 6.81851 12.2666 6.22581 11.5091C5.80265 10.9675 5.4768 10.5505 5.26154 10.5025C5.0566 10.456 4.85462 10.8985 4.56712 12.2231C4.27076 13.5942 4.85315 15.0044 5.6405 16.9079C6.08725 17.9895 6.59888 19.2256 7.05446 20.7002C7.07215 20.7573 7.08394 20.8203 7.08837 20.8893C8.03346 21.9664 9.16874 23.0749 10.5163 24.206C11.715 25.2126 13.0818 26.2357 14.6343 27.2723V23.3106C14.6343 23.1711 14.7464 23.0571 14.8835 23.0571C15.3922 23.0571 15.8522 22.8471 16.1854 22.5081C16.5186 22.169 16.725 21.701 16.725 21.1834C16.725 20.6659 16.5186 20.1979 16.1854 19.8588C15.8521 19.5198 15.3921 19.3098 14.8835 19.3098L14.8835 19.3112ZM1.66984 0.282025L5.4813 0V0.60005C5.47246 3.25076 5.47098 3.91083 6.3851 4.92809C7.57938 6.25719 7.77252 7.23079 7.96713 8.21487C8.16765 9.22894 8.37112 10.252 9.54328 11.6397C9.93401 12.1032 10.1389 12.7348 10.1139 13.2193C10.105 13.3843 10.0711 13.5268 10.0077 13.6318C9.95611 13.7158 9.88386 13.7758 9.78802 13.7969C9.59783 13.8404 9.31474 13.7638 8.92548 13.5118C7.91992 12.8623 7.18273 11.9187 6.61362 11.1911C6.12705 10.5686 5.75406 10.0915 5.36774 10.0045C4.83546 9.88603 4.44624 10.4201 4.08057 12.1122C3.7503 13.6364 4.35923 15.111 5.18343 17.1031C5.62429 18.1697 6.12852 19.3878 6.57968 20.8489C6.59 20.8834 6.59738 20.9224 6.60033 20.9644C6.59885 20.9854 6.59885 21.0064 6.6018 21.0274C6.5959 21.3109 6.44109 21.701 6.20518 21.974C6.10934 22.085 6.00171 22.172 5.88818 22.2155C5.79087 22.253 5.68619 22.2575 5.57856 22.2155C5.24977 22.085 4.88262 21.5779 4.53764 20.4289C4.42705 20.0628 3.87416 18.8477 3.29176 17.6372C2.67693 16.3591 2.0267 15.0749 1.82473 14.7869C0.900288 13.4608 0.331173 12.5487 0.108517 11.6306C-0.111169 10.723 0.00383521 9.77947 0.443207 8.37683L0.527249 8.10681C1.11995 6.21665 1.40598 5.30307 1.54458 4.35951C1.67433 3.47892 1.67285 2.58336 1.66991 0.85072V0.276169L1.66984 0.282025ZM22.9088 7.02947C22.9088 7.12998 22.9206 7.22449 22.9457 7.30549C23.4012 8.7786 23.9129 10.0162 24.3596 11.0978C25.1469 13.003 25.7293 14.4131 25.433 15.7826C25.1455 17.1087 24.945 17.5498 24.7386 17.5033C24.5233 17.4553 24.1975 17.0382 23.7743 16.4967C23.1831 15.7391 22.4164 14.7581 21.3401 14.0635C20.8284 13.7335 20.4171 13.6419 20.1045 13.714C19.8672 13.768 19.6902 13.9075 19.5693 14.107C19.4602 14.287 19.4012 14.512 19.3894 14.761C19.36 15.3611 19.6062 16.1321 20.0795 16.6932C21.1676 17.9833 21.3578 18.9404 21.5465 19.8884C21.6571 20.442 21.7662 20.9925 22.0316 21.5986C21.1293 22.5542 20.078 23.5322 18.8616 24.5268C17.7573 25.4299 16.5188 26.3465 15.1314 27.2705V23.5487C15.6784 23.4902 16.1679 23.2397 16.5365 22.8647C16.9597 22.4341 17.2221 21.8386 17.2221 21.1815C17.2221 20.5245 16.9597 19.9289 16.5365 19.4984C16.1679 19.1234 15.6784 18.8729 15.1314 18.8144V16.2987C15.1314 16.1591 15.0193 16.0451 14.8822 16.0451C14.3735 16.0451 13.9135 15.8351 13.5803 15.4961C13.2471 15.1571 13.0407 14.689 13.0407 14.1715C13.0407 13.654 13.2471 13.1859 13.5803 12.8469C13.9135 12.5078 14.3736 12.2978 14.8822 12.2978C15.0193 12.2978 15.1314 12.1838 15.1314 12.0443V9.15957C16.3758 7.99849 17.7116 7.27389 19.0165 6.92738C20.3965 6.56135 21.7412 6.61686 22.9076 7.02639L22.9088 7.02947ZM28.3301 27.7238V27.1493C28.3271 25.4166 28.3271 24.5226 28.4554 23.6405C28.594 22.6969 28.88 21.7833 29.4727 19.8932L29.5568 19.6231C29.9962 18.2205 30.1112 17.2769 29.8915 16.3693C29.6688 15.4513 29.0997 14.5392 28.1753 13.2131C27.9747 12.925 27.3231 11.6409 26.7082 10.3628C26.1258 9.15074 25.5729 7.93712 25.4624 7.5711C25.1173 6.422 24.7502 5.91646 24.4214 5.78446C24.3138 5.74096 24.2091 5.74696 24.1118 5.78446C23.9983 5.82797 23.8906 5.91497 23.7948 6.02599C23.5958 6.257 23.4527 6.57204 23.4115 6.83606C23.4129 6.86607 23.41 6.89607 23.4012 6.92607C23.3953 7.01008 23.4012 7.08808 23.4203 7.15109C23.873 8.61222 24.3757 9.83183 24.8166 10.8969C25.6393 12.8891 26.2497 14.3622 25.9194 15.8878C25.5523 17.5799 25.1631 18.114 24.6323 17.9955C24.246 17.9085 23.8715 17.4314 23.3864 16.8089C22.8173 16.0813 22.0816 15.1377 21.0745 14.4882C20.6853 14.2362 20.4022 14.1612 20.212 14.2032C20.1161 14.2257 20.0424 14.2842 19.9923 14.3682C19.9289 14.4717 19.8935 14.6157 19.8861 14.7807C19.8625 15.2667 20.066 15.8968 20.4567 16.3603C21.6274 17.7495 21.8309 18.7725 22.0329 19.7851C22.2275 20.7692 22.4221 21.7428 23.6149 23.0719C24.529 24.089 24.5276 24.7491 24.5187 27.4V28L28.3302 27.718L28.3301 27.7238Z" fill="white"/>
</svg>
