<svg width="16" height="26" viewBox="0 0 16 26" fill="none" xmlns="http://www.w3.org/2000/svg">
<path d="M4.45055 17.0586L6.55745 19.1655L4.73667 24.0816C4.52859 24.6278 4.00837 24.966 3.46213 24.966C3.30607 24.966 3.15 24.9399 2.99393 24.8879C2.29164 24.6278 1.92748 23.8475 2.18759 23.1452L4.45055 17.0586Z" fill="white"/>
<path d="M0.523095 11.6743L1.77162 9.28126C2.10977 8.657 2.60398 8.13678 3.20223 7.77262C6.08946 6.0559 6.45361 6.08191 6.81777 6.10792L8.76859 6.23797C9.36685 6.26398 9.78302 6.42005 11.7859 9.3593C11.8639 9.46334 11.968 9.54138 12.124 9.56739L14.517 9.93154C15.1673 10.0356 15.6095 10.6338 15.5055 11.2841C15.4014 11.9344 14.8032 12.3766 14.1529 12.2725L11.7599 11.9084C10.9795 11.7783 10.2772 11.3621 9.83505 10.7119C9.731 10.5558 9.65297 10.4258 9.54892 10.2957L8.01427 15.1598L10.1472 17.2927C10.4593 17.6048 10.7194 18.021 10.8755 18.4372L12.5142 23.2232C12.7743 23.9255 12.3841 24.7058 11.6818 24.9399C11.5258 24.9919 11.3957 25.0179 11.2396 25.0179C10.6674 25.0179 10.1472 24.6538 9.93909 24.1076L8.3004 19.3215C8.27438 19.2695 8.24837 19.2435 8.22236 19.1915L4.42475 15.3678C3.87852 14.8216 3.67043 14.0673 3.8265 13.339L4.65885 9.64542C4.58082 9.69744 4.50278 9.74946 4.39874 9.80149C4.16464 9.93154 3.98256 10.1396 3.85251 10.3737L2.60398 12.7667C2.39589 13.1569 1.97971 13.391 1.56354 13.391C1.38146 13.391 1.19938 13.339 1.0173 13.261C0.445062 12.9488 0.236973 12.2465 0.523095 11.6743Z" fill="white"/>
<path d="M10.8053 3.18004C10.9623 1.73768 9.92033 0.441158 8.47797 0.284168C7.03562 0.127179 5.73909 1.16917 5.58211 2.61153C5.42512 4.05388 6.46711 5.35041 7.90947 5.5074C9.35182 5.66439 10.6483 4.62239 10.8053 3.18004Z" fill="white"/>
</svg>
