<svg width="23" height="26" viewBox="0 0 23 26" fill="none" xmlns="http://www.w3.org/2000/svg">
<path d="M0.165039 1.625C0.165039 0.727537 0.892576 0 1.79004 0H8.29004C9.1875 0 9.91504 0.727537 9.91504 1.625V24.375C9.91504 25.2725 9.1875 26 8.29004 26H1.79004C0.892577 26 0.165039 25.2725 0.165039 24.375V1.625Z" fill="white"/>
<path d="M12.7588 1.625C12.7588 0.727537 13.4863 0 14.3838 0H20.8838C21.7813 0 22.5088 0.727537 22.5088 1.625V24.375C22.5088 25.2725 21.7813 26 20.8838 26H14.3838C13.4863 26 12.7588 25.2725 12.7588 24.375V1.625Z" fill="white"/>
</svg>
