<svg width="32" height="32" viewBox="0 0 32 32" fill="none" xmlns="http://www.w3.org/2000/svg">
<rect x="0.878019" y="0.438077" width="30.6654" height="30.6654" rx="10.0758" fill="white"/>
<rect x="0.878019" y="0.438077" width="30.6654" height="30.6654" rx="10.0758" stroke="#EAECF0" stroke-width="0.876155"/>
<path fill-rule="evenodd" clip-rule="evenodd" d="M16.8615 16.3912V20.3765C16.8615 20.7361 16.5701 21.0275 16.2107 21.0275C15.8512 21.0275 15.5599 20.7361 15.5599 20.3765V16.3912H11.5907C11.2554 16.3565 11.0006 16.0739 11.0006 15.7367C11.0006 15.3995 11.2554 15.1169 11.5907 15.0822H15.5529V11.1039C15.5876 10.7685 15.8701 10.5137 16.2072 10.5137C16.5443 10.5137 16.8268 10.7685 16.8615 11.1039V15.0822H20.8307C21.166 15.1169 21.4208 15.3995 21.4208 15.7367C21.4208 16.0739 21.166 16.3565 20.8307 16.3912H16.8615Z" fill="#040415"/>
</svg>
