<svg width="18" height="18" viewBox="0 0 18 18" fill="none" xmlns="http://www.w3.org/2000/svg">
<path d="M0.75 8C0.75 6.09318 0.751593 4.73851 0.889759 3.71085C1.02502 2.70476 1.27869 2.12511 1.7019 1.7019C2.12511 1.27869 2.70476 1.02502 3.71085 0.889759C4.73851 0.751593 6.09318 0.75 8 0.75H10C11.9068 0.75 13.2615 0.751593 14.2892 0.889759C15.2952 1.02502 15.8749 1.27869 16.2981 1.7019C16.7213 2.12511 16.975 2.70476 17.1102 3.71085C17.2484 4.73851 17.25 6.09318 17.25 8V10C17.25 11.9068 17.2484 13.2615 17.1102 14.2892C16.975 15.2952 16.7213 15.8749 16.2981 16.2981C15.8749 16.7213 15.2952 16.975 14.2892 17.1102C13.2615 17.2484 11.9068 17.25 10 17.25H8C6.09318 17.25 4.73851 17.2484 3.71085 17.1102C2.70476 16.975 2.12511 16.7213 1.7019 16.2981C1.27869 15.8749 1.02502 15.2952 0.889759 14.2892C0.751593 13.2615 0.75 11.9068 0.75 10V8Z" stroke="#0075FB" stroke-width="1.5"/>
<path d="M9 5L9 13" stroke="#0075FB" stroke-width="1.5" stroke-linejoin="round"/>
<path d="M13 9L5 9" stroke="#0075FB" stroke-width="1.5" stroke-linejoin="round"/>
</svg>
