<svg width="94" height="32" viewBox="0 0 94 32" fill="none" xmlns="http://www.w3.org/2000/svg">
<path d="M0 4H94V28H0L11.656 16.5714L0 4Z" fill="url(#paint0_linear_1643_2568)"/>
<path d="M31.602 13.608C31.602 14.56 31.2473 15.3207 30.538 15.89C29.8287 16.4593 28.8673 16.744 27.654 16.744C27.2527 16.744 26.8467 16.716 26.436 16.66V21H25.008V10.808H27.654C28.942 10.808 29.922 11.0507 30.594 11.536C31.266 12.012 31.602 12.7027 31.602 13.608ZM30.09 13.776C30.09 12.9173 29.866 12.2453 29.418 11.76C28.97 11.2747 28.312 11.032 27.444 11.032H26.436V16.422C26.7067 16.4873 27.0333 16.52 27.416 16.52C28.284 16.52 28.9467 16.282 29.404 15.806C29.8613 15.33 30.09 14.6533 30.09 13.776ZM32.0824 16.002C32.0637 14.434 32.5724 13.146 33.6084 12.138C34.6537 11.1207 35.9417 10.6213 37.4724 10.64C38.975 10.64 40.2164 11.116 41.1964 12.068C42.1857 13.0107 42.6804 14.2567 42.6804 15.806C42.699 17.374 42.1857 18.6667 41.1404 19.684C40.1044 20.692 38.821 21.1867 37.2904 21.168C35.7877 21.168 34.5417 20.6967 33.5524 19.754C32.5724 18.802 32.0824 17.5513 32.0824 16.002ZM41.1124 15.96C41.1124 14.448 40.7624 13.2207 40.0624 12.278C39.3624 11.3353 38.4617 10.864 37.3604 10.864C36.2404 10.864 35.3397 11.3213 34.6584 12.236C33.9864 13.1507 33.6504 14.3547 33.6504 15.848C33.6504 17.36 34.0004 18.5873 34.7004 19.53C35.4097 20.4727 36.3244 20.944 37.4444 20.944C38.5457 20.944 39.4324 20.4867 40.1044 19.572C40.7764 18.6573 41.1124 17.4533 41.1124 15.96ZM50.3811 13.608C50.3811 14.56 50.0265 15.3207 49.3171 15.89C48.6078 16.4593 47.6465 16.744 46.4331 16.744C46.0318 16.744 45.6258 16.716 45.2151 16.66V21H43.7871V10.808H46.4331C47.7211 10.808 48.7011 11.0507 49.3731 11.536C50.0451 12.012 50.3811 12.7027 50.3811 13.608ZM48.8691 13.776C48.8691 12.9173 48.6451 12.2453 48.1971 11.76C47.7491 11.2747 47.0911 11.032 46.2231 11.032H45.2151V16.422C45.4858 16.4873 45.8125 16.52 46.1951 16.52C47.0631 16.52 47.7258 16.282 48.1831 15.806C48.6405 15.33 48.8691 14.6533 48.8691 13.776ZM51.2675 17.5V10.808H52.6955V17.472C52.6955 18.5547 52.9335 19.3713 53.4095 19.922C53.8855 20.4727 54.5762 20.748 55.4815 20.748C56.3775 20.748 57.0682 20.4773 57.5535 19.936C58.0388 19.3853 58.2815 18.5873 58.2815 17.542V15.26C58.2815 13.384 58.1882 11.9 58.0015 10.808H58.8415C58.6548 11.984 58.5615 13.468 58.5615 15.26V17.472C58.5615 19.936 57.3622 21.168 54.9635 21.168C53.7502 21.168 52.8308 20.8553 52.2055 20.23C51.5802 19.6047 51.2675 18.6947 51.2675 17.5ZM65.27 19.95H65.298L65.032 21H60.16V10.808H61.588V20.748H61.854C62.9274 20.748 64.066 20.482 65.27 19.95ZM72.0908 21L70.7468 17.654H66.7708C66.2574 19.0353 65.9821 20.1507 65.9448 21H64.9788C65.4734 19.9827 66.0801 18.5827 66.7988 16.8L66.9108 16.534L69.3468 10.584H69.4028L73.6448 21H72.0908ZM66.8688 17.402H70.6488L68.7588 12.726L67.1768 16.632L66.8688 17.402ZM78.4357 16.044L81.5717 19.53V21.308H81.4877L77.3437 16.688C77.2317 16.576 77.1291 16.5013 77.0357 16.464C76.9424 16.4173 76.8024 16.394 76.6157 16.394H75.6777V21H74.2497V10.808H76.7557C79.5091 10.808 80.8857 11.6667 80.8857 13.384C80.8857 14.588 80.0691 15.4747 78.4357 16.044ZM79.4437 13.482C79.4437 12.7073 79.2057 12.1053 78.7297 11.676C78.2631 11.2467 77.5864 11.032 76.6997 11.032H75.6777V16.086C75.9671 16.142 76.3964 16.17 76.9657 16.17C77.6937 16.17 78.2864 15.9133 78.7437 15.4C79.2104 14.8773 79.4437 14.238 79.4437 13.482Z" fill="white"/>
<path d="M90 0V4H94L90 0Z" fill="url(#paint1_linear_1643_2568)"/>
<path d="M90 32V28H94L90 32Z" fill="url(#paint2_linear_1643_2568)"/>
<defs>
<linearGradient id="paint0_linear_1643_2568" x1="79.9702" y1="16" x2="23.7227" y2="16" gradientUnits="userSpaceOnUse">
<stop stop-color="#FA2A0F"/>
<stop offset="0.41" stop-color="#FF0000"/>
<stop offset="1" stop-color="#FF0000"/>
</linearGradient>
<linearGradient id="paint1_linear_1643_2568" x1="93.403" y1="2" x2="91.0095" y2="2" gradientUnits="userSpaceOnUse">
<stop stop-color="#AF0000"/>
<stop offset="0.41" stop-color="#FF2E00"/>
<stop offset="1" stop-color="#FF1A00"/>
</linearGradient>
<linearGradient id="paint2_linear_1643_2568" x1="93.403" y1="30" x2="91.0095" y2="30" gradientUnits="userSpaceOnUse">
<stop stop-color="#AF0000"/>
<stop offset="0.41" stop-color="#FF2E00"/>
<stop offset="1" stop-color="#FF1A00"/>
</linearGradient>
</defs>
</svg>
