<svg width="13" height="13" viewBox="0 0 13 13" fill="none" xmlns="http://www.w3.org/2000/svg">
<path fill-rule="evenodd" clip-rule="evenodd" d="M11.1434 2.29825C10.8869 2.29825 10.6792 2.09049 10.6792 1.83397C10.6792 1.57802 10.8869 1.36968 11.1434 1.36968H11.6077C11.9774 1.36968 12.3314 1.51651 12.5926 1.77767C12.8537 2.03883 13 2.39343 13 2.76254V10.1911C13 10.5608 12.8537 10.9148 12.5926 11.176C12.3314 11.4371 11.9774 11.584 11.6077 11.584H11.1434C10.8869 11.584 10.6792 11.3762 10.6792 11.1197C10.6792 10.8637 10.8869 10.6554 11.1434 10.6554H11.6077C11.7313 10.6554 11.8492 10.6061 11.9356 10.519C12.0227 10.4325 12.0726 10.3141 12.0726 10.1911V2.76254C12.0726 2.63951 12.0227 2.52111 11.9356 2.43464C11.8491 2.34759 11.7313 2.29826 11.6077 2.29826L11.1434 2.29825ZM1.85772 1.36968C2.11425 1.36968 2.32259 1.57802 2.32259 1.83397C2.32259 2.09049 2.11425 2.29825 1.85772 2.29825H1.39344C1.2704 2.29825 1.15259 2.34758 1.06554 2.43464C0.977906 2.52111 0.929155 2.6395 0.929155 2.76253V10.1911C0.929155 10.3141 0.977905 10.4325 1.06554 10.519C1.15259 10.6061 1.2704 10.6554 1.39344 10.6554H1.85772C2.11425 10.6554 2.32259 10.8637 2.32259 11.1197C2.32259 11.3762 2.11425 11.584 1.85772 11.584H1.39344C1.02375 11.584 0.66973 11.4371 0.409151 11.176C0.147413 10.9148 0 10.5608 0 10.1911V2.76253C0 2.39342 0.147411 2.03882 0.409151 1.77766C0.66973 1.5165 1.02375 1.36967 1.39344 1.36967L1.85772 1.36968ZM3.71487 4.95798C3.71487 5.2145 3.5071 5.42226 3.25 5.42226C2.99406 5.42226 2.78629 5.2145 2.78629 4.95798V1.39286C2.78629 0.623302 3.41018 0 4.17915 0H8.8226C9.591 0 10.2149 0.623302 10.2149 1.39286V11.6071C10.2149 12.3761 9.591 13 8.8226 13H4.17915C3.41018 13 2.78629 12.3761 2.78629 11.6071V7.74369C2.78629 7.48775 2.99406 7.27941 3.25 7.27941C3.5071 7.27941 3.71487 7.48775 3.71487 7.74369V11.6071C3.71487 11.8637 3.92321 12.0714 4.17915 12.0714H8.8226C9.07855 12.0714 9.28631 11.8637 9.28631 11.6071V1.39286C9.28631 1.13633 9.07855 0.928571 8.8226 0.928571H4.17915C3.92321 0.928571 3.71487 1.13633 3.71487 1.39286V4.95798ZM5.10772 2.78571C4.85178 2.78571 4.64344 2.57795 4.64344 2.32143C4.64344 2.06491 4.85178 1.85714 5.10772 1.85714H7.89344C8.14938 1.85714 8.35772 2.06491 8.35772 2.32143C8.35772 2.57795 8.14938 2.78571 7.89344 2.78571H5.10772ZM5.10772 4.64286C4.85178 4.64286 4.64344 4.43509 4.64344 4.17857C4.64344 3.92205 4.85178 3.71429 5.10772 3.71429H7.89344C8.14938 3.71429 8.35772 3.92205 8.35772 4.17857C8.35772 4.43509 8.14938 4.64286 7.89344 4.64286H5.10772ZM5.10772 6.96429C4.85178 6.96429 4.64344 6.75652 4.64344 6.5C4.64344 6.24348 4.85178 6.03571 5.10772 6.03571H7.89344C8.14938 6.03571 8.35772 6.24348 8.35772 6.5C8.35772 6.75652 8.14938 6.96429 7.89344 6.96429H5.10772ZM5.10772 9.28571C4.85178 9.28571 4.64344 9.07795 4.64344 8.82143C4.64344 8.56491 4.85178 8.35714 5.10772 8.35714H7.89344C8.14938 8.35714 8.35772 8.56491 8.35772 8.82143C8.35772 9.07795 8.14938 9.28571 7.89344 9.28571H5.10772ZM5.10772 11.1429C4.85178 11.1429 4.64344 10.9351 4.64344 10.6786C4.64344 10.422 4.85178 10.2143 5.10772 10.2143H7.89344C8.14938 10.2143 8.35772 10.422 8.35772 10.6786C8.35772 10.9351 8.14938 11.1429 7.89344 11.1429H5.10772Z" fill="#333333"/>
</svg>
