<svg width="15" height="15" viewBox="0 0 15 15" fill="none" xmlns="http://www.w3.org/2000/svg">
<path d="M11.23 14.7306L11.2308 14.731C11.2856 14.7583 11.346 14.7724 11.4072 14.7724C11.4684 14.7724 11.5288 14.7583 11.5836 14.731L11.5845 14.7306L12.1658 14.4347C12.166 14.4347 12.1661 14.4346 12.1663 14.4345C12.9505 14.0462 13.61 13.4456 14.0698 12.7011C14.5296 11.9564 14.7712 11.0977 14.7672 10.2225C14.7672 10.2224 14.7672 10.2224 14.7672 10.2223L14.7672 9.1855C14.7672 9.08038 14.7254 8.97956 14.6511 8.90523C14.5767 8.8309 14.4759 8.78914 14.3708 8.78914H13.6299C13.342 8.78914 13.066 8.67478 12.8624 8.47122C12.6588 8.26766 12.5445 7.99158 12.5445 7.7037C12.5445 7.59858 12.5027 7.49776 12.4284 7.42343C12.3541 7.3491 12.2532 7.30734 12.1481 7.30734H11.0627V2.22105C11.0627 1.80154 10.896 1.3992 10.5994 1.10256C10.3027 0.805911 9.9004 0.639258 9.48088 0.639258H2.22008C1.80056 0.639258 1.39822 0.805911 1.10158 1.10256C0.804934 1.3992 0.638281 1.80154 0.638281 2.22105V11.7046C0.638281 11.9123 0.679196 12.118 0.758688 12.3099C0.838181 12.5018 0.954695 12.6762 1.10158 12.823C1.24846 12.9699 1.42284 13.0864 1.61475 13.1659C1.80666 13.2454 2.01235 13.2863 2.22008 13.2863H9.17386C9.58369 13.7634 10.0849 14.1538 10.6481 14.4345C10.6482 14.4345 10.6483 14.4346 10.6484 14.4346L11.23 14.7306ZM13.9744 10.2228L13.9745 10.2231C13.9772 10.9513 13.7755 11.6657 13.3924 12.285C13.0094 12.9043 12.4602 13.4037 11.8074 13.7265L11.8068 13.7268L11.4072 13.9279L11.0076 13.7268L11.0075 13.7267C10.5018 13.4732 10.0566 13.1141 9.70192 12.6735C9.69244 12.6586 9.68175 12.6445 9.66995 12.6313C9.13088 11.9444 8.83852 11.0961 8.83998 10.2229V10.2228V9.58186H9.18452H9.18454C9.62833 9.58178 10.0578 9.42455 10.3967 9.13806C10.714 8.86986 10.9327 8.5046 11.0201 8.10006H11.7944C11.8817 8.5046 12.1005 8.86986 12.4178 9.13806C12.7567 9.42455 13.1861 9.58178 13.6299 9.58186H13.6299H13.9745L13.9744 10.2228ZM2.22008 12.4936C2.0108 12.4936 1.8101 12.4105 1.66212 12.2625C1.51413 12.1145 1.431 11.9138 1.431 11.7046V2.22105C1.431 2.01178 1.51413 1.81107 1.66212 1.66309C1.8101 1.51511 2.0108 1.43198 2.22008 1.43198H9.48088C9.69016 1.43198 9.89086 1.51511 10.0388 1.66309C10.1868 1.81107 10.27 2.01178 10.27 2.22105V7.7037C10.27 7.99158 10.1556 8.26766 9.95204 8.47122C9.74848 8.67478 9.4724 8.78914 9.18452 8.78914H8.44362C8.3385 8.78914 8.23769 8.8309 8.16335 8.90523C8.08902 8.97956 8.04726 9.08038 8.04726 9.1855L8.04726 10.2225L8.14726 10.2228H8.04726V10.2227C8.04524 11.0174 8.24504 11.7987 8.62664 12.4936H2.22008Z" fill="#333333" stroke="#333333" stroke-width="0.2"/>
<mask id="path-2-inside-1_1028_714" fill="white">
<path d="M2.41751 2.81342H6.88956C6.94227 2.81342 6.99283 2.7822 7.0301 2.72662C7.06737 2.67104 7.08831 2.59566 7.08831 2.51706C7.08831 2.43846 7.06737 2.36308 7.0301 2.3075C6.99283 2.25193 6.94227 2.2207 6.88956 2.2207H2.41751C2.36479 2.2207 2.31424 2.25193 2.27696 2.3075C2.23969 2.36308 2.21875 2.43846 2.21875 2.51706C2.21875 2.59566 2.23969 2.67104 2.27696 2.72662C2.31424 2.7822 2.36479 2.81342 2.41751 2.81342Z"/>
</mask>
<path d="M2.41751 2.81342H6.88956C6.94227 2.81342 6.99283 2.7822 7.0301 2.72662C7.06737 2.67104 7.08831 2.59566 7.08831 2.51706C7.08831 2.43846 7.06737 2.36308 7.0301 2.3075C6.99283 2.25193 6.94227 2.2207 6.88956 2.2207H2.41751C2.36479 2.2207 2.31424 2.25193 2.27696 2.3075C2.23969 2.36308 2.21875 2.43846 2.21875 2.51706C2.21875 2.59566 2.23969 2.67104 2.27696 2.72662C2.31424 2.7822 2.36479 2.81342 2.41751 2.81342Z" fill="#333333"/>
<path d="M2.41751 3.81342H6.88956V1.81342H2.41751V3.81342ZM6.88956 3.81342C7.36551 3.81342 7.69402 3.53203 7.86061 3.28362L6.19959 2.16962C6.29164 2.03237 6.51904 1.81342 6.88956 1.81342V3.81342ZM7.86061 3.28362C8.02657 3.03617 8.08831 2.75864 8.08831 2.51706H6.08831C6.08831 2.46891 6.09456 2.41721 6.10967 2.36281C6.12452 2.30938 6.1512 2.24178 6.19959 2.16962L7.86061 3.28362ZM8.08831 2.51706C8.08831 2.27549 8.02657 1.99796 7.86061 1.75051L6.19959 2.8645C6.1512 2.79235 6.12452 2.72475 6.10967 2.67131C6.09456 2.61692 6.08831 2.56521 6.08831 2.51706H8.08831ZM7.86061 1.75051C7.69402 1.5021 7.36551 1.2207 6.88956 1.2207V3.2207C6.51904 3.2207 6.29164 3.00175 6.19959 2.8645L7.86061 1.75051ZM6.88956 1.2207H2.41751V3.2207H6.88956V1.2207ZM2.41751 1.2207C1.94156 1.2207 1.61305 1.5021 1.44645 1.75051L3.10748 2.8645C3.01543 3.00175 2.78803 3.2207 2.41751 3.2207V1.2207ZM1.44645 1.75051C1.28049 1.99796 1.21875 2.27549 1.21875 2.51706H3.21875C3.21875 2.56522 3.2125 2.61692 3.19739 2.67131C3.18255 2.72475 3.15587 2.79235 3.10748 2.8645L1.44645 1.75051ZM1.21875 2.51706C1.21875 2.75864 1.28049 3.03617 1.44645 3.28362L3.10748 2.16962C3.15587 2.24178 3.18255 2.30938 3.19739 2.36281C3.2125 2.41721 3.21875 2.46891 3.21875 2.51706H1.21875ZM1.44645 3.28362C1.61305 3.53202 1.94156 3.81342 2.41751 3.81342V1.81342C2.78803 1.81342 3.01543 2.03237 3.10748 2.16962L1.44645 3.28362Z" fill="#333333" mask="url(#path-2-inside-1_1028_714)"/>
<mask id="path-4-inside-2_1028_714" fill="white">
<path d="M2.4459 4.29584H7.55682C7.61706 4.29584 7.67484 4.26462 7.71744 4.20904C7.76004 4.15346 7.78397 4.07808 7.78397 3.99948C7.78397 3.92088 7.76004 3.8455 7.71744 3.78993C7.67484 3.73435 7.61706 3.70312 7.55682 3.70312H2.4459C2.38566 3.70312 2.32788 3.73435 2.28528 3.78993C2.24268 3.8455 2.21875 3.92088 2.21875 3.99948C2.21875 4.07808 2.24268 4.15346 2.28528 4.20904C2.32788 4.26462 2.38566 4.29584 2.4459 4.29584Z"/>
</mask>
<path d="M2.4459 4.29584H7.55682C7.61706 4.29584 7.67484 4.26462 7.71744 4.20904C7.76004 4.15346 7.78397 4.07808 7.78397 3.99948C7.78397 3.92088 7.76004 3.8455 7.71744 3.78993C7.67484 3.73435 7.61706 3.70312 7.55682 3.70312H2.4459C2.38566 3.70312 2.32788 3.73435 2.28528 3.78993C2.24268 3.8455 2.21875 3.92088 2.21875 3.99948C2.21875 4.07808 2.24268 4.15346 2.28528 4.20904C2.32788 4.26462 2.38566 4.29584 2.4459 4.29584Z" fill="#333333"/>
<path d="M2.4459 5.29584H7.55682V3.29584H2.4459V5.29584ZM7.55682 5.29584C7.98113 5.29584 8.31403 5.07452 8.51112 4.81738L6.92376 3.60071C7.03565 3.45472 7.25299 3.29584 7.55682 3.29584V5.29584ZM8.51112 4.81738C8.70379 4.566 8.78397 4.2697 8.78397 3.99948H6.78397C6.78397 3.88647 6.81628 3.74093 6.92376 3.60071L8.51112 4.81738ZM8.78397 3.99948C8.78397 3.72927 8.70379 3.43297 8.51112 3.18159L6.92376 4.39826C6.81628 4.25804 6.78397 4.1125 6.78397 3.99948H8.78397ZM8.51112 3.18159C8.31403 2.92445 7.98113 2.70312 7.55682 2.70312V4.70312C7.25299 4.70312 7.03565 4.54425 6.92376 4.39826L8.51112 3.18159ZM7.55682 2.70312H2.4459V4.70312H7.55682V2.70312ZM2.4459 2.70312C2.02159 2.70312 1.68869 2.92445 1.4916 3.18159L3.07896 4.39826C2.96707 4.54424 2.74973 4.70312 2.4459 4.70312V2.70312ZM1.4916 3.18159C1.29893 3.43297 1.21875 3.72927 1.21875 3.99948H3.21875C3.21875 4.1125 3.18644 4.25804 3.07896 4.39826L1.4916 3.18159ZM1.21875 3.99948C1.21875 4.2697 1.29893 4.566 1.4916 4.81738L3.07896 3.60071C3.18644 3.74093 3.21875 3.88647 3.21875 3.99948H1.21875ZM1.4916 4.81738C1.68869 5.07452 2.02159 5.29584 2.4459 5.29584V3.29584C2.74973 3.29584 2.96707 3.45472 3.07896 3.60071L1.4916 4.81738Z" fill="#333333" mask="url(#path-4-inside-2_1028_714)"/>
<mask id="path-6-inside-3_1028_714" fill="white">
<path d="M6.9605 9.62988H2.51511C2.43651 9.62988 2.36113 9.66111 2.30555 9.71668C2.24997 9.77226 2.21875 9.84764 2.21875 9.92624C2.21875 10.0048 2.24997 10.0802 2.30555 10.1358C2.36113 10.1914 2.43651 10.2226 2.51511 10.2226H6.9605C7.0391 10.2226 7.11448 10.1914 7.17006 10.1358C7.22563 10.0802 7.25686 10.0048 7.25686 9.92624C7.25686 9.84764 7.22563 9.77226 7.17006 9.71668C7.11448 9.66111 7.0391 9.62988 6.9605 9.62988Z"/>
</mask>
<path d="M6.9605 9.62988H2.51511C2.43651 9.62988 2.36113 9.66111 2.30555 9.71668C2.24997 9.77226 2.21875 9.84764 2.21875 9.92624C2.21875 10.0048 2.24997 10.0802 2.30555 10.1358C2.36113 10.1914 2.43651 10.2226 2.51511 10.2226H6.9605C7.0391 10.2226 7.11448 10.1914 7.17006 10.1358C7.22563 10.0802 7.25686 10.0048 7.25686 9.92624C7.25686 9.84764 7.22563 9.77226 7.17006 9.71668C7.11448 9.66111 7.0391 9.62988 6.9605 9.62988Z" fill="#333333"/>
<path d="M6.9605 8.62988H2.51511V10.6299H6.9605V8.62988ZM2.51511 8.62988C2.1713 8.62988 1.84156 8.76646 1.59844 9.00958L3.01266 10.4238C2.8807 10.5558 2.70172 10.6299 2.51511 10.6299V8.62988ZM1.59844 9.00958C1.35533 9.25269 1.21875 9.58243 1.21875 9.92624H3.21875C3.21875 10.1129 3.14462 10.2918 3.01266 10.4238L1.59844 9.00958ZM1.21875 9.92624C1.21875 10.2701 1.35533 10.5998 1.59844 10.8429L3.01266 9.42869C3.14462 9.56065 3.21875 9.73963 3.21875 9.92624H1.21875ZM1.59844 10.8429C1.84156 11.086 2.1713 11.2226 2.51511 11.2226V9.2226C2.70172 9.2226 2.8807 9.29673 3.01266 9.42869L1.59844 10.8429ZM2.51511 11.2226H6.9605V9.2226H2.51511V11.2226ZM6.9605 11.2226C7.30431 11.2226 7.63405 11.086 7.87716 10.8429L6.46295 9.42869C6.59491 9.29673 6.77388 9.2226 6.9605 9.2226V11.2226ZM7.87716 10.8429C8.12028 10.5998 8.25686 10.2701 8.25686 9.92624H6.25686C6.25686 9.73963 6.33099 9.56065 6.46295 9.42869L7.87716 10.8429ZM8.25686 9.92624C8.25686 9.58243 8.12028 9.25269 7.87716 9.00958L6.46295 10.4238C6.33099 10.2918 6.25686 10.1129 6.25686 9.92624H8.25686ZM7.87716 9.00958C7.63405 8.76646 7.30431 8.62988 6.9605 8.62988V10.6299C6.77388 10.6299 6.59491 10.5558 6.46295 10.4238L7.87716 9.00958Z" fill="#333333" mask="url(#path-6-inside-3_1028_714)"/>
<mask id="path-8-inside-4_1028_714" fill="white">
<path d="M6.9605 8.14844H2.51511C2.43651 8.14844 2.36113 8.17966 2.30555 8.23524C2.24997 8.29082 2.21875 8.3662 2.21875 8.4448C2.21875 8.5234 2.24997 8.59878 2.30555 8.65435C2.36113 8.70993 2.43651 8.74116 2.51511 8.74116H6.9605C7.0391 8.74116 7.11448 8.70993 7.17006 8.65435C7.22563 8.59878 7.25686 8.5234 7.25686 8.4448C7.25686 8.3662 7.22563 8.29082 7.17006 8.23524C7.11448 8.17966 7.0391 8.14844 6.9605 8.14844Z"/>
</mask>
<path d="M6.9605 8.14844H2.51511C2.43651 8.14844 2.36113 8.17966 2.30555 8.23524C2.24997 8.29082 2.21875 8.3662 2.21875 8.4448C2.21875 8.5234 2.24997 8.59878 2.30555 8.65435C2.36113 8.70993 2.43651 8.74116 2.51511 8.74116H6.9605C7.0391 8.74116 7.11448 8.70993 7.17006 8.65435C7.22563 8.59878 7.25686 8.5234 7.25686 8.4448C7.25686 8.3662 7.22563 8.29082 7.17006 8.23524C7.11448 8.17966 7.0391 8.14844 6.9605 8.14844Z" fill="#333333"/>
<path d="M6.9605 7.14844H2.51511V9.14844H6.9605V7.14844ZM2.51511 7.14844C2.1713 7.14844 1.84156 7.28502 1.59844 7.52813L3.01266 8.94235C2.8807 9.07431 2.70172 9.14844 2.51511 9.14844V7.14844ZM1.59844 7.52813C1.35533 7.77125 1.21875 8.10098 1.21875 8.4448H3.21875C3.21875 8.63141 3.14462 8.81039 3.01266 8.94235L1.59844 7.52813ZM1.21875 8.4448C1.21875 8.78861 1.35533 9.11835 1.59844 9.36146L3.01266 7.94725C3.14462 8.07921 3.21875 8.25818 3.21875 8.4448H1.21875ZM1.59844 9.36146C1.84156 9.60458 2.1713 9.74116 2.51511 9.74116V7.74116C2.70172 7.74116 2.8807 7.81529 3.01266 7.94725L1.59844 9.36146ZM2.51511 9.74116H6.9605V7.74116H2.51511V9.74116ZM6.9605 9.74116C7.30431 9.74116 7.63405 9.60458 7.87716 9.36146L6.46295 7.94725C6.59491 7.81529 6.77388 7.74116 6.9605 7.74116V9.74116ZM7.87716 9.36146C8.12028 9.11835 8.25686 8.78861 8.25686 8.4448H6.25686C6.25686 8.25818 6.33099 8.07921 6.46295 7.94725L7.87716 9.36146ZM8.25686 8.4448C8.25686 8.10098 8.12028 7.77125 7.87716 7.52813L6.46295 8.94235C6.33099 8.81039 6.25686 8.63141 6.25686 8.4448H8.25686ZM7.87716 7.52813C7.63405 7.28502 7.30431 7.14844 6.9605 7.14844V9.14844C6.77388 9.14844 6.59491 9.07431 6.46295 8.94235L7.87716 7.52813Z" fill="#333333" mask="url(#path-8-inside-4_1028_714)"/>
<mask id="path-10-inside-5_1028_714" fill="white">
<path d="M2.50269 7.25873H8.89133C8.96664 7.25873 9.03886 7.22751 9.09211 7.17193C9.14536 7.11635 9.17527 7.04097 9.17527 6.96237C9.17527 6.88378 9.14536 6.8084 9.09211 6.75282C9.03886 6.69724 8.96664 6.66602 8.89133 6.66602H2.50269C2.42738 6.66602 2.35516 6.69724 2.30191 6.75282C2.24867 6.8084 2.21875 6.88378 2.21875 6.96237C2.21875 7.04097 2.24867 7.11635 2.30191 7.17193C2.35516 7.22751 2.42738 7.25873 2.50269 7.25873Z"/>
</mask>
<path d="M2.50269 7.25873H8.89133C8.96664 7.25873 9.03886 7.22751 9.09211 7.17193C9.14536 7.11635 9.17527 7.04097 9.17527 6.96237C9.17527 6.88378 9.14536 6.8084 9.09211 6.75282C9.03886 6.69724 8.96664 6.66602 8.89133 6.66602H2.50269C2.42738 6.66602 2.35516 6.69724 2.30191 6.75282C2.24867 6.8084 2.21875 6.88378 2.21875 6.96237C2.21875 7.04097 2.24867 7.11635 2.30191 7.17193C2.35516 7.22751 2.42738 7.25873 2.50269 7.25873Z" fill="#333333"/>
<path d="M2.50269 8.25873H8.89133V6.25873H2.50269V8.25873ZM8.89133 8.25873C9.246 8.25873 9.57702 8.11128 9.81418 7.86375L8.37003 6.48012C8.5007 6.34374 8.68727 6.25873 8.89133 6.25873V8.25873ZM9.81418 7.86375C10.05 7.61767 10.1753 7.2927 10.1753 6.96237H8.17527C8.17527 6.78925 8.24076 6.61504 8.37003 6.48012L9.81418 7.86375ZM10.1753 6.96237C10.1753 6.63205 10.05 6.30708 9.81418 6.061L8.37003 7.44463C8.24076 7.30971 8.17527 7.1355 8.17527 6.96237H10.1753ZM9.81418 6.061C9.57702 5.81347 9.246 5.66602 8.89133 5.66602V7.66602C8.68727 7.66602 8.5007 7.58101 8.37003 7.44463L9.81418 6.061ZM8.89133 5.66602H2.50269V7.66602H8.89133V5.66602ZM2.50269 5.66602C2.14802 5.66602 1.817 5.81347 1.57984 6.061L3.02399 7.44463C2.89333 7.58101 2.70675 7.66602 2.50269 7.66602V5.66602ZM1.57984 6.061C1.34407 6.30708 1.21875 6.63204 1.21875 6.96237H3.21875C3.21875 7.13551 3.15326 7.30971 3.02399 7.44463L1.57984 6.061ZM1.21875 6.96237C1.21875 7.29271 1.34407 7.61767 1.57984 7.86375L3.02399 6.48012C3.15326 6.61504 3.21875 6.78924 3.21875 6.96237H1.21875ZM1.57984 7.86375C1.817 8.11128 2.14802 8.25873 2.50269 8.25873V6.25873C2.70675 6.25873 2.89333 6.34374 3.02399 6.48012L1.57984 7.86375Z" fill="#333333" mask="url(#path-10-inside-5_1028_714)"/>
<mask id="path-12-inside-6_1028_714" fill="white">
<path d="M2.4743 5.77729H8.22407C8.29185 5.77729 8.35685 5.74607 8.40477 5.69049C8.4527 5.63491 8.47962 5.55953 8.47962 5.48093C8.47962 5.40233 8.4527 5.32695 8.40477 5.27137C8.35685 5.21579 8.29185 5.18457 8.22407 5.18457H2.4743C2.40652 5.18457 2.34152 5.21579 2.2936 5.27137C2.24567 5.32695 2.21875 5.40233 2.21875 5.48093C2.21875 5.55953 2.24567 5.63491 2.2936 5.69049C2.34152 5.74607 2.40652 5.77729 2.4743 5.77729Z"/>
</mask>
<path d="M2.4743 5.77729H8.22407C8.29185 5.77729 8.35685 5.74607 8.40477 5.69049C8.4527 5.63491 8.47962 5.55953 8.47962 5.48093C8.47962 5.40233 8.4527 5.32695 8.40477 5.27137C8.35685 5.21579 8.29185 5.18457 8.22407 5.18457H2.4743C2.40652 5.18457 2.34152 5.21579 2.2936 5.27137C2.24567 5.32695 2.21875 5.40233 2.21875 5.48093C2.21875 5.55953 2.24567 5.63491 2.2936 5.69049C2.34152 5.74607 2.40652 5.77729 2.4743 5.77729Z" fill="#333333"/>
<path d="M2.4743 6.77729H8.22407V4.77729H2.4743V6.77729ZM8.22407 6.77729C8.60892 6.77729 8.942 6.59877 9.1621 6.34352L7.64744 5.03745C7.77169 4.89336 7.97478 4.77729 8.22407 4.77729V6.77729ZM9.1621 6.34352C9.37821 6.09289 9.47962 5.78082 9.47962 5.48093H7.47962C7.47962 5.33824 7.52718 5.17692 7.64744 5.03745L9.1621 6.34352ZM9.47962 5.48093C9.47962 5.18104 9.37821 4.86896 9.1621 4.61834L7.64744 5.9244C7.52718 5.78494 7.47962 5.62362 7.47962 5.48093H9.47962ZM9.1621 4.61834C8.942 4.36309 8.60892 4.18457 8.22407 4.18457V6.18457C7.97478 6.18457 7.77169 6.0685 7.64744 5.9244L9.1621 4.61834ZM8.22407 4.18457H2.4743V6.18457H8.22407V4.18457ZM2.4743 4.18457C2.08945 4.18457 1.75637 4.36309 1.53627 4.61834L3.05093 5.9244C2.92668 6.0685 2.72359 6.18457 2.4743 6.18457V4.18457ZM1.53627 4.61834C1.32016 4.86896 1.21875 5.18104 1.21875 5.48093H3.21875C3.21875 5.62362 3.17119 5.78494 3.05093 5.9244L1.53627 4.61834ZM1.21875 5.48093C1.21875 5.78082 1.32016 6.0929 1.53627 6.34352L3.05093 5.03745C3.17119 5.17692 3.21875 5.33824 3.21875 5.48093H1.21875ZM1.53627 6.34352C1.75637 6.59877 2.08945 6.77729 2.4743 6.77729V4.77729C2.72359 4.77729 2.92668 4.89336 3.05093 5.03745L1.53627 6.34352Z" fill="#333333" mask="url(#path-12-inside-6_1028_714)"/>
<mask id="path-14-inside-7_1028_714" fill="white">
<path d="M6.9605 11.1123H2.51511C2.43651 11.1123 2.36113 11.1435 2.30555 11.1991C2.24997 11.2547 2.21875 11.3301 2.21875 11.4087C2.21875 11.4873 2.24997 11.5626 2.30555 11.6182C2.36113 11.6738 2.43651 11.705 2.51511 11.705H6.9605C7.0391 11.705 7.11448 11.6738 7.17006 11.6182C7.22563 11.5626 7.25686 11.4873 7.25686 11.4087C7.25686 11.3301 7.22563 11.2547 7.17006 11.1991C7.11448 11.1435 7.0391 11.1123 6.9605 11.1123Z"/>
</mask>
<path d="M6.9605 11.1123H2.51511C2.43651 11.1123 2.36113 11.1435 2.30555 11.1991C2.24997 11.2547 2.21875 11.3301 2.21875 11.4087C2.21875 11.4873 2.24997 11.5626 2.30555 11.6182C2.36113 11.6738 2.43651 11.705 2.51511 11.705H6.9605C7.0391 11.705 7.11448 11.6738 7.17006 11.6182C7.22563 11.5626 7.25686 11.4873 7.25686 11.4087C7.25686 11.3301 7.22563 11.2547 7.17006 11.1991C7.11448 11.1435 7.0391 11.1123 6.9605 11.1123Z" fill="#333333"/>
<path d="M6.9605 10.1123H2.51511V12.1123H6.9605V10.1123ZM2.51511 10.1123C2.1713 10.1123 1.84156 10.2489 1.59844 10.492L3.01266 11.9062C2.8807 12.0382 2.70172 12.1123 2.51511 12.1123V10.1123ZM1.59844 10.492C1.35533 10.7351 1.21875 11.0648 1.21875 11.4087H3.21875C3.21875 11.5953 3.14462 11.7743 3.01266 11.9062L1.59844 10.492ZM1.21875 11.4087C1.21875 11.7525 1.35533 12.0822 1.59844 12.3253L3.01266 10.9111C3.14462 11.0431 3.21875 11.222 3.21875 11.4087H1.21875ZM1.59844 12.3253C1.84156 12.5684 2.1713 12.705 2.51511 12.705V10.705C2.70172 10.705 2.8807 10.7792 3.01266 10.9111L1.59844 12.3253ZM2.51511 12.705H6.9605V10.705H2.51511V12.705ZM6.9605 12.705C7.30431 12.705 7.63405 12.5684 7.87716 12.3253L6.46295 10.9111C6.59491 10.7792 6.77388 10.705 6.9605 10.705V12.705ZM7.87716 12.3253C8.12028 12.0822 8.25686 11.7525 8.25686 11.4087H6.25686C6.25686 11.222 6.33099 11.0431 6.46295 10.9111L7.87716 12.3253ZM8.25686 11.4087C8.25686 11.0649 8.12028 10.7351 7.87716 10.492L6.46295 11.9062C6.33099 11.7743 6.25686 11.5953 6.25686 11.4087H8.25686ZM7.87716 10.492C7.63405 10.2489 7.30431 10.1123 6.9605 10.1123V12.1123C6.77388 12.1123 6.59491 12.0382 6.46295 11.9062L7.87716 10.492Z" fill="#333333" mask="url(#path-14-inside-7_1028_714)"/>
<mask id="path-16-inside-8_1028_714" fill="white">
<path d="M12.458 10.1621L11.1852 11.4335L10.6532 10.903C10.5965 10.8544 10.5236 10.8291 10.449 10.8319C10.3744 10.8348 10.3036 10.8657 10.2509 10.9185C10.1981 10.9713 10.1672 11.0421 10.1643 11.1166C10.1614 11.1912 10.1868 11.2642 10.2353 11.3208L10.9762 12.0617C11.0317 12.1169 11.1069 12.1479 11.1852 12.1479C11.2634 12.1479 11.3386 12.1169 11.3941 12.0617L12.8759 10.5799C12.9244 10.5233 12.9498 10.4503 12.9469 10.3757C12.944 10.3012 12.9131 10.2304 12.8603 10.1776C12.8076 10.1248 12.7368 10.0939 12.6622 10.091C12.5876 10.0882 12.5147 10.1135 12.458 10.1621Z"/>
</mask>
<path d="M12.458 10.1621L11.1852 11.4335L10.6532 10.903C10.5965 10.8544 10.5236 10.8291 10.449 10.8319C10.3744 10.8348 10.3036 10.8657 10.2509 10.9185C10.1981 10.9713 10.1672 11.0421 10.1643 11.1166C10.1614 11.1912 10.1868 11.2642 10.2353 11.3208L10.9762 12.0617C11.0317 12.1169 11.1069 12.1479 11.1852 12.1479C11.2634 12.1479 11.3386 12.1169 11.3941 12.0617L12.8759 10.5799C12.9244 10.5233 12.9498 10.4503 12.9469 10.3757C12.944 10.3012 12.9131 10.2304 12.8603 10.1776C12.8076 10.1248 12.7368 10.0939 12.6622 10.091C12.5876 10.0882 12.5147 10.1135 12.458 10.1621Z" fill="#333333"/>
<path d="M12.458 10.1621L11.8076 9.40254L11.7784 9.42747L11.7513 9.45456L12.458 10.1621ZM11.1852 11.4335L10.479 12.1416L11.1857 12.8463L11.8919 12.141L11.1852 11.4335ZM10.6532 10.903L11.3593 10.1949L11.3325 10.1681L11.3036 10.1434L10.6532 10.903ZM10.2353 11.3208L9.47578 11.9713L9.5009 12.0006L9.52822 12.028L10.2353 11.3208ZM10.9762 12.0617L10.2691 12.7689L10.2712 12.771L10.9762 12.0617ZM11.3941 12.0617L12.0991 12.771L12.1012 12.7689L11.3941 12.0617ZM12.8759 10.5799L13.583 11.2871L13.6103 11.2597L13.6354 11.2304L12.8759 10.5799ZM11.7513 9.45456L10.4785 10.7259L11.8919 12.141L13.1647 10.8696L11.7513 9.45456ZM11.8913 10.7254L11.3593 10.1949L9.94707 11.6111L10.479 12.1416L11.8913 10.7254ZM11.3036 10.1434C11.0556 9.93105 10.7366 9.82008 10.4104 9.83268L10.4876 11.8312C10.3105 11.838 10.1374 11.7778 10.0027 11.6625L11.3036 10.1434ZM10.4104 9.83268C10.0841 9.84529 9.77464 9.98053 9.54376 10.2114L10.958 11.6256C10.8326 11.7509 10.6647 11.8244 10.4876 11.8312L10.4104 9.83268ZM9.54376 10.2114C9.31288 10.4423 9.17763 10.7518 9.16503 11.078L11.1635 11.1552C11.1567 11.3323 11.0833 11.5003 10.958 11.6256L9.54376 10.2114ZM9.16503 11.078C9.15243 11.4043 9.26339 11.7233 9.47578 11.9713L10.9949 10.6704C11.1101 10.805 11.1704 10.9782 11.1635 11.1552L9.16503 11.078ZM9.52822 12.028L10.2691 12.7689L11.6833 11.3546L10.9424 10.6137L9.52822 12.028ZM10.2712 12.771C10.5141 13.0124 10.8427 13.1479 11.1852 13.1479V11.1479C11.371 11.1479 11.5494 11.2215 11.6812 11.3525L10.2712 12.771ZM11.1852 13.1479C11.5276 13.1479 11.8562 13.0124 12.0991 12.771L10.6891 11.3525C10.8209 11.2215 10.9993 11.1479 11.1852 11.1479V13.1479ZM12.1012 12.7689L13.583 11.2871L12.1688 9.87284L10.687 11.3546L12.1012 12.7689ZM13.6354 11.2304C13.8478 10.9824 13.9588 10.6634 13.9462 10.3371L11.9477 10.4143C11.9408 10.2373 12.0011 10.0641 12.1163 9.92949L13.6354 11.2304ZM13.9462 10.3371C13.9336 10.0109 13.7983 9.7014 13.5675 9.47051L12.1532 10.8847C12.0279 10.7594 11.9545 10.5914 11.9477 10.4143L13.9462 10.3371ZM13.5675 9.47051C13.3366 9.23963 13.0271 9.10439 12.7008 9.09179L12.6236 11.0903C12.4465 11.0835 12.2786 11.01 12.1532 10.8847L13.5675 9.47051ZM12.7008 9.09179C12.3746 9.07918 12.0556 9.19015 11.8076 9.40254L13.1085 10.9216C12.9739 11.0369 12.8007 11.0971 12.6236 11.0903L12.7008 9.09179Z" fill="#333333" mask="url(#path-16-inside-8_1028_714)"/>
</svg>
