<svg width="18" height="18" viewBox="0 0 18 18" fill="none" xmlns="http://www.w3.org/2000/svg">
<path d="M0.998535 -0.00924683C0.446235 -0.00924683 -0.00146484 0.438753 -0.00146484 0.990753V13.9908C-0.00146484 16.1998 1.78944 17.9908 3.99854 17.9908H16.9985C17.5505 17.9908 17.9985 17.5428 17.9985 16.9908C17.9985 16.4388 17.5505 15.9908 16.9985 15.9908H3.99854C2.89394 15.9908 1.99854 15.0958 1.99854 13.9908V0.990753C1.99854 0.438753 1.55084 -0.00924683 0.998535 -0.00924683ZM10.9985 1.99075V3.99075H14.5605L11.7795 6.77176C11.6895 6.86276 11.4085 6.99075 11.2795 6.99075H9.71754C9.05854 6.99075 8.24553 7.30576 7.77953 7.77176L4.27973 11.2718C3.88923 11.6628 3.88923 12.3187 4.27973 12.7097C4.47503 12.9047 4.74264 12.9908 4.99854 12.9908C5.25444 12.9908 5.52204 12.9047 5.71734 12.7097L9.21754 9.20975C9.30754 9.11875 9.58854 8.99075 9.71754 8.99075H11.2795C11.9385 8.99075 12.7515 8.67575 13.2175 8.20975L15.9985 5.42874V8.99075H17.9985V2.99075C17.9985 2.43875 17.5505 1.99075 16.9985 1.99075H10.9985Z" fill="#E62720"/>
</svg>
