<svg width="15" height="15" viewBox="0 0 15 15" fill="none" xmlns="http://www.w3.org/2000/svg">
<g clip-path="url(#clip0_487_42143)">
<path d="M12.6094 6.27445H1.88935C1.74634 6.27324 1.60473 6.30271 1.47407 6.36089C1.34342 6.41907 1.22677 6.50459 1.13199 6.6117C1.03721 6.7188 0.966503 6.84499 0.924646 6.98174C0.882789 7.1185 0.870753 7.26265 0.88935 7.40445L1.61935 12.9045C1.65108 13.1465 1.77029 13.3687 1.9545 13.5289C2.13871 13.6892 2.37519 13.7765 2.61935 13.7745H11.8594C12.1035 13.7765 12.34 13.6892 12.5242 13.5289C12.7084 13.3687 12.8276 13.1465 12.8594 12.9045L13.5894 7.40445C13.6077 7.26431 13.5962 7.12187 13.5555 6.98652C13.5148 6.85117 13.4459 6.72597 13.3533 6.6192C13.2607 6.51242 13.1465 6.42649 13.0183 6.36707C12.8901 6.30764 12.7507 6.27608 12.6094 6.27445Z" stroke="#333333" stroke-linecap="round" stroke-linejoin="round"/>
<path d="M4.75 8.77441V11.2744" stroke="#333333" stroke-linecap="round" stroke-linejoin="round"/>
<path d="M7.25 8.77441V11.2744" stroke="#333333" stroke-linecap="round" stroke-linejoin="round"/>
<path d="M9.75 8.77441V11.2744" stroke="#333333" stroke-linecap="round" stroke-linejoin="round"/>
<path d="M9.72852 1.81445C10.3275 1.91794 10.8764 2.21424 11.2915 2.65829C11.7067 3.10234 11.9655 3.66983 12.0285 4.27445L12.2485 6.27445" stroke="#333333" stroke-linecap="round" stroke-linejoin="round"/>
<path d="M2.25 6.27398L2.47 4.27398C2.53712 3.67295 2.79772 3.10999 3.21255 2.66991C3.62738 2.22984 4.17397 1.93646 4.77 1.83398" stroke="#333333" stroke-linecap="round" stroke-linejoin="round"/>
<path d="M9.75 2.02441C9.75 2.18857 9.71767 2.35111 9.65485 2.50277C9.59203 2.65443 9.49996 2.79222 9.38388 2.9083C9.26781 3.02437 9.13001 3.11645 8.97835 3.17926C8.8267 3.24208 8.66415 3.27441 8.5 3.27441H6C5.66848 3.27441 5.35054 3.14272 5.11612 2.9083C4.8817 2.67388 4.75 2.35593 4.75 2.02441C4.75 1.69289 4.8817 1.37495 5.11612 1.14053C5.35054 0.90611 5.66848 0.774414 6 0.774414H8.5C8.83152 0.774414 9.14946 0.90611 9.38388 1.14053C9.6183 1.37495 9.75 1.69289 9.75 2.02441V2.02441Z" stroke="#333333" stroke-linecap="round" stroke-linejoin="round"/>
</g>
<defs>
<clipPath id="clip0_487_42143">
<rect width="14" height="14" fill="white" transform="translate(0.25 0.274414)"/>
</clipPath>
</defs>
</svg>
