<svg width="14" height="14" viewBox="0 0 14 14" fill="none" xmlns="http://www.w3.org/2000/svg">
<path d="M13.0969 4.29297C13.0928 4.00017 13.0208 3.7123 12.8866 3.45204L11.5811 0.813604C11.4589 0.569169 11.2711 0.363586 11.0386 0.219887C10.8062 0.0761873 10.5383 4.83289e-05 10.265 0H3.73517C3.46189 4.83289e-05 3.19403 0.0761873 2.96158 0.219887C2.72914 0.363586 2.5413 0.569169 2.4191 0.813604L1.11355 3.44573C0.979347 3.70599 0.90738 3.99386 0.90332 4.28666V11.5628C0.90332 11.9531 1.05837 12.3275 1.33435 12.6035C1.61034 12.8794 1.98465 13.0345 2.37496 13.0345H11.6252C12.0155 13.0345 12.3899 12.8794 12.6658 12.6035C12.9418 12.3275 13.0969 11.9531 13.0969 11.5628V4.29297ZM3.60482 1.2614H10.3954L11.4465 3.36374H2.55365L3.60482 1.2614ZM11.8355 11.7731H2.16472V4.62514H11.8355V11.7731Z" fill="black"/>
<path d="M4.47741 7.30349C4.46954 7.39519 4.48184 7.48749 4.51343 7.57393C4.54503 7.66037 4.59516 7.73884 4.66031 7.80385L6.19291 9.33645C6.40656 9.54982 6.69616 9.66966 6.99811 9.66966C7.30005 9.66966 7.58965 9.54982 7.8033 9.33645L9.3359 7.80385C9.40281 7.73736 9.45395 7.65672 9.48556 7.56786C9.51717 7.479 9.52845 7.38418 9.51857 7.29038C9.50868 7.19658 9.47789 7.10619 9.42845 7.02587C9.37901 6.94555 9.31218 6.87734 9.23289 6.82626C9.10771 6.74858 8.95966 6.71622 8.81348 6.73459C8.66731 6.75296 8.53187 6.82094 8.4298 6.92717L7.00021 8.35676L5.58744 6.93768C5.48171 6.82465 5.33983 6.75208 5.1863 6.73251C5.03276 6.71293 4.87721 6.74758 4.7465 6.83047C4.66918 6.88422 4.60488 6.95461 4.55831 7.03646C4.51174 7.11831 4.4841 7.20956 4.47741 7.30349Z" fill="black"/>
</svg>
