<svg width="18" height="20" viewBox="0 0 18 20" fill="none" xmlns="http://www.w3.org/2000/svg">
<path d="M8.00027 15.5C8.00027 12.8666 9.86112 10.6637 12.3359 10.1273C11.5869 9.16083 10.5388 8.46803 9.34829 8.16898C10.4976 7.3534 11.2504 6.01376 11.2504 4.50075C11.2504 2.01927 9.2311 0 6.74964 0C4.26818 0 2.24889 2.01929 2.24889 4.50075C2.24889 6.01662 3.00447 7.3571 4.15661 8.17282C1.77265 8.77466 0 10.9308 0 13.5003V14.3356C0 15.7137 1.1212 16.8358 2.5002 16.8358H8.1709C8.06309 16.4074 8.00028 15.9621 8.00028 15.5009L8.00027 15.5Z" fill="white"/>
<path d="M13.5003 11.0002C11.0188 11.0002 9.00049 13.0195 9.00049 15.5C9.00049 17.9806 11.0188 19.9998 13.5003 19.9998C15.9817 19.9998 18.0001 17.9805 18.0001 15.5C18.0001 13.0195 15.9817 11.0002 13.5003 11.0002ZM15.4999 15.9997H13.9999V17.4996C13.9999 17.7752 13.7768 17.9993 13.5003 17.9993C13.2237 17.9993 13.0006 17.7752 13.0006 17.4996V15.9997H11.5007C11.2242 15.9997 11.001 15.7756 11.001 15.5C11.001 15.2244 11.2242 15.0004 11.5007 15.0004H13.0006V13.5004C13.0006 13.2248 13.2237 13.0008 13.5003 13.0008C13.7768 13.0008 13.9999 13.2248 13.9999 13.5004V15.0004H15.4999C15.7764 15.0004 15.9995 15.2244 15.9995 15.5C15.9995 15.7756 15.7764 15.9997 15.4999 15.9997Z" fill="white"/>
</svg>
