<svg width="45" height="45" viewBox="0 0 45 45" fill="none" xmlns="http://www.w3.org/2000/svg">
<circle cx="22.5" cy="22.5" r="22" stroke="#FB98FD"/>
<path d="M18.3834 14.8838L16.8664 14.6785C16.8071 14.6706 16.7568 14.6341 16.7311 14.5808L16.0669 13.201C15.9169 12.8891 15.4737 12.8891 15.3237 13.201L14.6594 14.5808C14.6338 14.6341 14.5834 14.6706 14.5252 14.6785L13.0082 14.8838C12.6657 14.9302 12.5285 15.3526 12.7782 15.5915L13.8856 16.6496C13.928 16.69 13.9478 16.7502 13.9369 16.8075L13.6625 18.3136C13.6004 18.6542 13.9596 18.9147 14.2636 18.7509L15.6119 18.0245C15.6642 17.9968 15.7264 17.9968 15.7787 18.0245L17.1269 18.7499C17.4309 18.9137 17.7902 18.6532 17.728 18.3127L17.4546 16.8065C17.4437 16.7483 17.4635 16.689 17.5059 16.6476L18.6133 15.5895C18.8631 15.3507 18.7259 14.9282 18.3834 14.8818L18.3834 14.8838Z" fill="#FB98FD"/>
<path d="M32.6988 14.8838L31.1818 14.6785C31.1226 14.6706 31.0722 14.6341 31.0466 14.5808L30.3823 13.201C30.2323 12.8891 29.7891 12.8891 29.6391 13.201L28.9748 14.5808C28.9492 14.6341 28.8988 14.6706 28.8406 14.6785L27.3236 14.8838C26.9811 14.9302 26.8439 15.3526 27.0936 15.5915L28.201 16.6496C28.2435 16.69 28.2632 16.7502 28.2524 16.8075L27.978 18.3136C27.9158 18.6542 28.2751 18.9147 28.5791 18.7509L29.9273 18.0245C29.9796 17.9968 30.0418 17.9968 30.0941 18.0245L31.4423 18.7499C31.7463 18.9137 32.1056 18.6532 32.0434 18.3127L31.77 16.8065C31.7592 16.7483 31.7789 16.689 31.8214 16.6476L32.9288 15.5895C33.1785 15.3507 33.0413 14.9282 32.6988 14.8818L32.6988 14.8838Z" fill="#FB98FD"/>
<path d="M25.8882 12.1625L24.1758 11.9316C24.1097 11.9227 24.0524 11.8812 24.0228 11.821L23.2727 10.2635C23.1039 9.91216 22.6025 9.91216 22.4337 10.2635L21.6836 11.822C21.655 11.8822 21.5977 11.9237 21.5316 11.9326L19.8182 12.1635C19.4313 12.2158 19.2763 12.6926 19.5586 12.962L20.8081 14.1563C20.8565 14.2027 20.8782 14.2698 20.8664 14.3349L20.5564 16.0356C20.4864 16.4195 20.892 16.7136 21.2355 16.5291L22.7584 15.7089C22.8167 15.6773 22.8877 15.6773 22.946 15.7089L24.4679 16.5281C24.8114 16.7136 25.217 16.4185 25.147 16.0346L24.838 14.334C24.8262 14.2678 24.8479 14.2007 24.8963 14.1553L26.1458 12.961C26.4281 12.6916 26.2731 12.2149 25.8862 12.1625H25.8882Z" fill="#FB98FD"/>
<path d="M29.5186 27.7169C29.5186 27.2501 29.2699 26.8148 28.8653 26.5967L28.6471 26.4723L28.8653 26.3479C29.3015 26.0992 29.5502 25.5702 29.488 25.0717C29.4259 24.449 28.8031 23.9515 28.1191 23.9515H23.265L23.3271 23.7649C23.3587 23.6712 23.4209 23.5784 23.4515 23.4846L23.4821 23.4225C23.7308 22.7069 24.2598 21.4307 24.2598 20.1238C24.2598 18.7232 23.2955 17.8833 22.6106 17.8211C22.2375 17.7895 21.9572 18.0077 21.895 18.4439C21.7706 19.2838 21.2722 20.4979 20.8675 21.3694C20.7738 21.5559 20.681 21.7119 20.5566 21.8668C20.1204 22.3643 19.0939 23.5161 18.0674 24.2317V33.2875C19.7788 33.785 21.3344 34.0031 22.9531 34.0031H26.8746C27.5279 34.0031 28.0886 33.5678 28.2129 32.9766C28.3373 32.5097 28.1814 32.0429 27.8083 31.732L27.5901 31.5454L27.8705 31.4832C28.4617 31.3589 28.8663 30.8299 28.8663 30.2386C28.8663 29.8655 28.7104 29.5231 28.4311 29.2743L28.2129 29.0878L28.4932 29.0256C29.0539 28.8696 29.4891 28.3722 29.5197 27.7188L29.5186 27.7169Z" fill="#FB98FD"/>
<path d="M15.8897 23.5162H12.7778C12.3415 23.5162 12 23.8587 12 24.2939V33.1938C12 33.6291 12.3425 33.9716 12.7778 33.9716H15.8897C16.325 33.9716 16.6674 33.6291 16.6674 33.1938V24.2939C16.6674 23.8586 16.2943 23.5162 15.8897 23.5162ZM14.3342 32.572C13.8673 32.572 13.5248 32.1989 13.5248 31.7626C13.5248 31.2958 13.8979 30.9533 14.3342 30.9533C14.801 30.9533 15.1435 31.3264 15.1435 31.7626C15.1435 32.2295 14.7704 32.572 14.3342 32.572Z" fill="#FB98FD"/>
</svg>
