<svg width="20" height="18" viewBox="0 0 20 18" fill="none" xmlns="http://www.w3.org/2000/svg">
<path d="M2 3C2 2.44772 2.44772 2 3 2H5.5C6.05228 2 6.5 1.55228 6.5 1C6.5 0.44772 6.05228 0 5.5 0H3C1.34315 0 0 1.34315 0 3V5C0 5.55228 0.44772 6 1 6C1.55228 6 2 5.55228 2 5V3Z" fill="white"/>
<path d="M14.5 0C13.9477 0 13.5 0.44772 13.5 1C13.5 1.55228 13.9477 2 14.5 2H17C17.5523 2 18 2.44772 18 3V5C18 5.55228 18.4477 6 19 6C19.5523 6 20 5.55228 20 5V3C20 1.34315 18.6569 0 17 0H14.5Z" fill="white"/>
<path d="M2 13C2 12.4477 1.55228 12 1 12C0.44772 12 0 12.4477 0 13V15C0 16.6569 1.34315 18 3 18H5.5C6.05228 18 6.5 17.5523 6.5 17C6.5 16.4477 6.05228 16 5.5 16H3C2.44772 16 2 15.5523 2 15V13Z" fill="white"/>
<path d="M20 13C20 12.4477 19.5523 12 19 12C18.4477 12 18 12.4477 18 13V15C18 15.5523 17.5523 16 17 16H14.5C13.9477 16 13.5 16.4477 13.5 17C13.5 17.5523 13.9477 18 14.5 18H17C18.6569 18 20 16.6569 20 15V13Z" fill="white"/>
<path d="M1 8C0.44772 8 0 8.4477 0 9C0 9.5523 0.44772 10 1 10H19C19.5523 10 20 9.5523 20 9C20 8.4477 19.5523 8 19 8H1Z" fill="white"/>
</svg>
