<svg width="18" height="17" viewBox="0 0 18 17" fill="none" xmlns="http://www.w3.org/2000/svg">
<path fill-rule="evenodd" clip-rule="evenodd" d="M12.4935 13.825C9.59067 16.1259 5.35815 15.9855 2.61507 13.3479C-0.375886 10.4706 -0.469163 5.70723 2.4079 2.71529C5.28418 -0.275465 10.0486 -0.368934 13.0395 2.50832C15.7902 5.15355 16.0898 9.3954 13.8833 12.387L16.8571 15.2289C17.2561 15.6101 17.2704 16.2433 16.8892 16.6423C16.508 17.0413 15.8739 17.0558 15.4749 16.6746L12.4935 13.825ZM11.8052 11.7539C13.9174 9.55835 13.8488 6.06096 11.6534 3.94965C9.45714 1.83855 5.96054 1.90606 3.84943 4.10237C1.73714 6.29788 1.80564 9.79429 4.00115 11.9066C6.19139 14.0128 9.67661 13.9495 11.79 11.7701C11.7951 11.765 11.8 11.7589 11.8052 11.7539Z" fill="#C5C5C5"/>
</svg>
