<svg width="45" height="45" viewBox="0 0 45 45" fill="none" xmlns="http://www.w3.org/2000/svg">
<circle cx="22.5" cy="22.5" r="22" stroke="#FB98FD"/>
<path fill-rule="evenodd" clip-rule="evenodd" d="M24.7286 12.1655C24.7959 12.1789 24.853 12.2253 24.882 12.2905C25.0507 12.6693 25.6257 13.9582 25.6257 13.9582C26.6199 14.3146 27.5375 14.8711 28.3297 15.5947C28.3297 15.5947 29.6825 15.4723 30.0795 15.4357C30.1477 15.4294 30.215 15.458 30.2593 15.5125C31.0133 16.4397 31.5985 17.5035 31.9879 18.6521C32.0109 18.72 32.0007 18.7951 31.9615 18.854C31.7331 19.197 30.9553 20.3636 30.9553 20.3636C31.1572 21.4445 31.1572 22.5565 30.9553 23.6364C30.9553 23.6364 31.7331 24.803 31.9615 25.146C32.0007 25.2049 32.0109 25.28 31.9879 25.3479C31.5985 26.4957 31.0133 27.5595 30.2593 28.4875C30.215 28.542 30.1477 28.5706 30.0795 28.5643C29.6825 28.5286 28.3297 28.4053 28.3297 28.4053C27.5382 29.1298 26.6198 29.6854 25.6257 30.0418C25.6257 30.0418 25.0507 31.3316 24.882 31.7095C24.853 31.7747 24.7959 31.8211 24.7286 31.8345C23.5862 32.0552 22.414 32.0552 21.2714 31.8345C21.2041 31.8211 21.147 31.7747 21.118 31.7095C20.9493 31.3307 20.3743 30.0418 20.3743 30.0418C19.3801 29.6854 18.4625 29.1289 17.6703 28.4053C17.6703 28.4053 16.3175 28.5277 15.9205 28.5643C15.8523 28.5706 15.785 28.542 15.7407 28.4875C14.9868 27.5603 14.4015 26.4965 14.0121 25.3479C13.9891 25.28 13.9993 25.2049 14.0385 25.146C14.2669 24.803 15.0447 23.6364 15.0447 23.6364C14.8428 22.5555 14.8428 21.4435 15.0447 20.3636C15.0447 20.3636 14.2669 19.197 14.0385 18.854C13.9993 18.7951 13.9891 18.72 14.0121 18.6521C14.4015 17.5043 14.9868 16.4405 15.7407 15.5125C15.785 15.458 15.8523 15.4294 15.9205 15.4357C16.3175 15.4714 17.6703 15.5947 17.6703 15.5947C18.4618 14.8702 19.3802 14.3146 20.3743 13.9582C20.3743 13.9582 20.9493 12.6684 21.118 12.2905C21.147 12.2253 21.2041 12.1789 21.2714 12.1655C22.4138 11.9448 23.586 11.9448 24.7286 12.1655ZM23 17.8064C25.2083 17.8064 27.0017 19.6858 27.0017 22.002C27.0017 24.3173 25.2092 26.1977 23 26.1977C20.7918 26.1977 18.9984 24.3183 18.9984 22.002C18.9984 19.6867 20.7909 17.8064 23 17.8064Z" fill="#FB98FD"/>
</svg>
