<svg width="15" height="17" viewBox="0 0 15 17" fill="none" xmlns="http://www.w3.org/2000/svg">
<path d="M5.1925 9.6325L10.315 12.6175M10.3075 4.3825L5.1925 7.3675M14.5 3.25C14.5 4.49264 13.4926 5.5 12.25 5.5C11.0074 5.5 10 4.49264 10 3.25C10 2.00736 11.0074 1 12.25 1C13.4926 1 14.5 2.00736 14.5 3.25ZM5.5 8.5C5.5 9.74264 4.49264 10.75 3.25 10.75C2.00736 10.75 1 9.74264 1 8.5C1 7.25736 2.00736 6.25 3.25 6.25C4.49264 6.25 5.5 7.25736 5.5 8.5ZM14.5 13.75C14.5 14.9926 13.4926 16 12.25 16C11.0074 16 10 14.9926 10 13.75C10 12.5074 11.0074 11.5 12.25 11.5C13.4926 11.5 14.5 12.5074 14.5 13.75Z" stroke="white" stroke-linecap="round" stroke-linejoin="round"/>
</svg>
