<svg width="62" height="62" viewBox="0 0 62 62" fill="none" xmlns="http://www.w3.org/2000/svg">
<g filter="url(#filter0_d_488_654)">
<rect x="10" y="6" width="42" height="42" rx="10" fill="white"/>
</g>
<path d="M36.4967 24.2467C36.4967 25.4688 34.6641 25.4688 34.6641 24.2467C34.6641 23.0245 36.4967 23.0245 36.4967 24.2467Z" fill="#0AB2D7"/>
<path d="M27.3346 24.2467C27.3346 25.4688 25.502 25.4688 25.502 24.2467C25.502 23.0245 27.3346 23.0245 27.3346 24.2467Z" fill="#0AB2D7"/>
<path d="M41.9495 34.1427L39.842 20.948C39.7962 20.7189 39.6129 20.5815 39.3839 20.5815H36.0395C36.0395 20.5357 36.0395 20.444 35.9936 20.3982C35.6729 17.9242 33.5655 16 30.9999 16C28.4343 16 26.3266 17.9242 26.0061 20.3982C25.9603 20.444 25.9603 20.5357 25.9603 20.5815H22.6159C22.3868 20.5815 22.2036 20.7648 22.1577 20.948L20.0503 34.1427C19.867 35.3339 20.1877 36.5251 20.9666 37.4414C21.7454 38.3577 22.9366 38.9075 24.1738 38.9075H37.7807C39.0177 38.9075 40.1631 38.3577 40.9879 37.4414C41.8127 36.5251 42.1333 35.3339 41.95 34.1427H41.9495ZM30.9997 16.9163C33.1072 16.9163 34.8481 18.5198 35.0771 20.5815H26.9222C27.1513 18.5198 28.8923 16.9163 30.9997 16.9163ZM30.9997 32.4934C28.205 32.4934 25.9599 30.2485 25.9599 27.4536V26.0333C25.181 25.8501 24.5854 25.117 24.5854 24.2465C24.5854 23.2386 25.4101 22.4139 26.418 22.4139C27.426 22.4139 28.2506 23.2386 28.2506 24.2465C28.2506 25.117 27.655 25.8042 26.8762 26.0333V27.4536C26.8762 29.7443 28.7088 31.5768 30.9994 31.5768C33.29 31.5768 35.1226 29.7442 35.1226 27.4536V26.0333C34.3437 25.8501 33.7481 25.117 33.7481 24.2465C33.7481 23.2386 34.5728 22.4139 35.5807 22.4139C36.5886 22.4139 37.4133 23.2386 37.4133 24.2465C37.4133 25.117 36.8177 25.8042 36.0389 26.0333V27.4536C36.0389 30.2483 33.794 32.4934 30.9991 32.4934H30.9997ZM39.5671 36.2961C39.109 36.8001 38.5134 37.0749 37.8262 37.0749H35.5812C35.3064 37.0749 35.1231 36.8917 35.1231 36.6168C35.1231 36.3419 35.3064 36.1586 35.5812 36.1586H37.8262C38.2385 36.1586 38.605 35.9754 38.8799 35.7005C39.1548 35.3798 39.2464 35.0132 39.2006 34.6009L38.9258 32.5393C38.8799 32.3102 39.0632 32.0811 39.3381 32.0353C39.5671 31.9895 39.7962 32.1727 39.8421 32.4476L40.1169 34.5093C40.2086 35.1507 39.9795 35.7921 39.5671 36.2961Z" fill="#0AB2D7"/>
<defs>
<filter id="filter0_d_488_654" x="0" y="0" width="62" height="62" filterUnits="userSpaceOnUse" color-interpolation-filters="sRGB">
<feFlood flood-opacity="0" result="BackgroundImageFix"/>
<feColorMatrix in="SourceAlpha" type="matrix" values="0 0 0 0 0 0 0 0 0 0 0 0 0 0 0 0 0 0 127 0" result="hardAlpha"/>
<feOffset dy="4"/>
<feGaussianBlur stdDeviation="5"/>
<feComposite in2="hardAlpha" operator="out"/>
<feColorMatrix type="matrix" values="0 0 0 0 0 0 0 0 0 0 0 0 0 0 0 0 0 0 0.1 0"/>
<feBlend mode="normal" in2="BackgroundImageFix" result="effect1_dropShadow_488_654"/>
<feBlend mode="normal" in="SourceGraphic" in2="effect1_dropShadow_488_654" result="shape"/>
</filter>
</defs>
</svg>
