<svg width="48" height="51" viewBox="0 0 48 51" fill="none" xmlns="http://www.w3.org/2000/svg">
<path d="M37.6534 18.5012C37.6534 21.243 33.542 21.243 33.542 18.5012C33.542 15.7594 37.6534 15.7594 37.6534 18.5012Z" fill="#11BEE3"/>
<path d="M17.0987 18.5012C17.0987 21.243 12.9873 21.243 12.9873 18.5012C12.9873 15.7594 17.0987 15.7594 17.0987 18.5012Z" fill="#11BEE3"/>
<path d="M49.8868 40.7028L45.1587 11.1008C45.0559 10.5868 44.6448 10.2785 44.1309 10.2785H36.6277C36.6277 10.1757 36.6277 9.97013 36.5249 9.86735C35.8054 4.31696 31.0774 0 25.3216 0C19.5657 0 14.8372 4.31696 14.1182 9.86735C14.0154 9.97013 14.0154 10.1757 14.0154 10.2785H6.51226C5.99834 10.2785 5.58723 10.6896 5.48441 11.1008L0.756309 40.7028C0.34517 43.3752 1.06466 46.0476 2.81201 48.1033C4.55935 50.159 7.23179 51.3924 10.0073 51.3924H40.5342C43.3094 51.3924 45.879 50.159 47.7295 48.1033C49.5799 46.0476 50.2991 43.3752 49.8879 40.7028H49.8868ZM25.3211 2.0557C30.0492 2.0557 33.955 5.6532 34.4688 10.2785H16.1734C16.6873 5.6532 20.5932 2.0557 25.3211 2.0557ZM25.3211 37.0025C19.0512 37.0025 14.0144 31.9661 14.0144 25.6959V22.5095C12.2671 22.0984 10.9309 20.4538 10.9309 18.5009C10.9309 16.2396 12.781 14.3895 15.0423 14.3895C17.3035 14.3895 19.1536 16.2396 19.1536 18.5009C19.1536 20.4538 17.8175 21.9956 16.0701 22.5095V25.6959C16.0701 30.8351 20.1815 34.9462 25.3204 34.9462C30.4593 34.9462 34.5707 30.8348 34.5707 25.6959V22.5095C32.8234 22.0984 31.4872 20.4538 31.4872 18.5009C31.4872 16.2396 33.3373 14.3895 35.5986 14.3895C37.8598 14.3895 39.71 16.2396 39.71 18.5009C39.71 20.4538 38.3738 21.9956 36.6264 22.5095V25.6959C36.6264 31.9657 31.59 37.0025 25.3197 37.0025H25.3211ZM44.542 45.5338C43.5142 46.6645 42.1779 47.2812 40.6362 47.2812H35.5997C34.983 47.2812 34.5719 46.87 34.5719 46.2533C34.5719 45.6366 34.983 45.2255 35.5997 45.2255H40.6362C41.5612 45.2255 42.3835 44.8143 43.0003 44.1976C43.617 43.4781 43.8225 42.6558 43.7198 41.7308L43.1031 37.1055C43.0003 36.5916 43.4114 36.0776 44.0281 35.9748C44.542 35.872 45.056 36.2832 45.1588 36.8999L45.7755 41.5251C45.9811 42.9641 45.4671 44.4032 44.542 45.5338Z" fill="#11BEE3"/>
</svg>
