<svg width="19" height="14" viewBox="0 0 19 14" fill="none" xmlns="http://www.w3.org/2000/svg">
  <!-- Eye circle -->
  <path d="M12.4125 6.83362C12.4125 8.21433 11.1253 9.33362 9.53749 9.33362C7.94967 9.33362 6.66249 8.21433 6.66249 6.83362C6.66249 5.45291 7.94967 4.33362 9.53749 4.33362C11.1253 4.33362 12.4125 5.45291 12.4125 6.83362Z" stroke="#656565" stroke-linecap="round"/>
  
  <!-- Outer eye shape -->
  <path d="M17.9853 6.51142C18.1044 6.71693 18.1044 6.95037 17.9853 7.15588C17.2767 8.37921 14.4429 12.6673 9.53731 12.6673C4.6317 12.6673 1.79791 8.37921 1.08928 7.15588C0.970239 6.95037 0.970239 6.71693 1.08928 6.51142C1.79791 5.28809 4.6317 1 9.53731 1C14.4429 1 17.2767 5.28809 17.9853 6.51142Z" stroke="#656565" stroke-linecap="round"/>

  <!-- Slash line through the eye -->
  <path d="M2 1L17 13" stroke="#656565" stroke-linecap="round" />
</svg>
