<svg width="48" height="55" viewBox="0 0 48 55" fill="none" xmlns="http://www.w3.org/2000/svg">
<path d="M0 48.2818V55.2785H31.0261V48.2818C31.0261 44.038 27.7571 40.769 23.5133 40.769H7.57013C3.49832 40.769 0 44.0953 0 48.2818Z" fill="#07BF89"/>
<path d="M15.484 37.6723C20.244 37.6723 24.1437 33.7726 24.1437 29.0126C24.1437 24.2525 20.244 20.3528 15.484 20.3528C10.724 20.3528 6.82422 24.2525 6.82422 29.0126C6.88157 33.7726 10.724 37.6723 15.484 37.6723Z" fill="#07BF89"/>
<path d="M35.7868 38.9336C39.5718 38.9336 42.554 35.8368 42.554 32.1664C42.554 28.496 39.4571 25.3992 35.7868 25.3992C32.0017 25.3992 29.0195 28.496 29.0195 32.1664C29.0195 35.8368 32.0017 38.9336 35.7868 38.9336Z" fill="#07BF89"/>
<path d="M42.0352 41.3992H30.3359C32.2858 43.0623 33.4902 45.5857 33.4902 48.3385L33.7769 55.2777H47.9996V47.3062C47.9996 44.0372 45.3615 41.3992 42.0352 41.3992Z" fill="#07BF89"/>
<path d="M43.4706 8.19449C42.0369 2.80365 36.5314 -0.465272 31.0832 0.968464C25.6923 2.4022 22.4234 7.9651 23.8571 13.3559C24.5453 15.9367 26.1511 18.0012 28.2157 19.3203L25.5776 23.3921L36.302 20.582C41.6928 19.2056 44.9044 13.6427 43.4706 8.19449ZM30.6817 14.7323H28.7892V9.68558H30.6817V14.7323ZM37.793 14.7323H31.5993V9.68558L34.4094 6.64606L35.6138 6.87546L34.7535 9.51353H38.94L37.793 14.7323Z" fill="#07BF89"/>
</svg>
