<svg width="45" height="45" viewBox="0 0 45 45" fill="none" xmlns="http://www.w3.org/2000/svg">
<circle cx="22.5" cy="22.5" r="22" stroke="#D0E396"/>
<path d="M27.0208 10.0156C26.8451 10.0508 26.7046 10.0859 26.5641 10.1562C26.0721 10.367 25.7208 10.7183 25.4397 11.14C24.9829 11.8075 24.7018 12.5454 24.5262 13.3535C24.2802 14.1617 24.1748 14.9698 24.1748 15.7779C24.1748 16.1995 24.1748 16.6212 24.2099 17.0428C24.2451 17.7104 24.3153 18.0969 24.8424 18.9402C25.1586 19.4672 25.3343 20.0294 25.4397 20.5915C25.51 21.0483 25.5802 21.5402 25.6154 21.997C25.6154 22.0321 25.6505 22.0321 25.6857 22.0673C26.9505 22.2429 29.5155 22.5943 29.5506 22.5592C29.5506 22.5592 30.1479 20.8024 30.4993 19.7834C30.4993 19.7483 30.5344 19.7131 30.5344 19.7131C30.6047 19.3618 30.7452 19.0104 30.7804 18.6591C30.7804 18.6239 30.7804 18.5537 30.7804 18.5185C30.8506 17.9563 30.8858 17.4293 30.956 16.8671C30.9912 16.6212 30.9912 16.4104 30.9912 16.1644C30.9912 16.0941 30.9912 16.059 30.9912 15.9887C30.9912 15.3914 30.956 14.8644 30.8506 14.3022C30.8506 14.2319 30.8155 14.1617 30.8155 14.1265C30.7452 13.6698 30.6398 13.2481 30.5344 12.7914C30.3587 12.194 30.1479 11.6319 29.7966 11.14C29.4101 10.5427 28.883 10.1562 28.1452 10.0508C27.9695 10.0156 27.7938 10.0156 27.6533 10.0156C27.3722 9.98048 27.1965 10.0156 27.0208 10.0156Z" fill="#D0E396"/>
<path d="M24.7725 26.2132C24.8076 27.0213 25.0184 27.7592 25.5806 28.3214C26.0725 28.8133 26.6347 29.0241 27.3023 28.8835C27.8996 28.7781 28.3212 28.3916 28.6726 27.8997C29.059 27.3024 29.2699 26.5997 29.3401 25.897C29.4104 25.2997 29.4455 24.6672 29.3753 24.0699C29.3753 23.9996 29.3753 23.9645 29.3753 23.8942C28.0401 23.7185 26.7401 23.5429 25.3698 23.3672C25.2292 23.7185 25.0887 24.105 24.9833 24.4915C24.8427 25.0537 24.7725 25.651 24.7725 26.2132Z" fill="#D0E396"/>
<path d="M14.4128 18.6941C14.1669 19.2563 14.0615 19.8536 14.0264 20.4861C13.9912 20.9428 13.9912 21.3996 14.0264 21.8564C14.0264 21.9267 14.0264 21.9969 14.0264 22.0672C14.0615 22.6294 14.1318 23.1915 14.2372 23.7537C14.2372 23.824 14.2723 23.8591 14.2723 23.9294C14.3074 24.1402 14.3777 24.3862 14.448 24.597C14.5885 25.124 14.7642 25.6511 14.9399 26.1781C14.9399 26.2132 14.975 26.2484 14.975 26.3186C15.0804 26.67 15.2561 26.9862 15.4318 27.3025C15.4318 27.3376 15.4669 27.3376 15.4669 27.3727C15.994 28.3214 16.9426 29.9025 16.9426 29.9025C16.9778 29.9377 19.4022 29.0593 20.6319 28.6376C20.6671 28.6376 20.667 28.6025 20.667 28.5674C20.6319 28.0754 20.5968 27.6187 20.5616 27.1268C20.5265 26.5295 20.5968 25.9322 20.8076 25.37C21.159 24.4213 21.1238 24.0699 21.0184 23.3672C20.9481 22.9456 20.8779 22.524 20.7725 22.1375C20.5968 21.3293 20.3157 20.5564 19.9643 19.8185C19.613 19.0806 19.1913 18.4131 18.594 17.8509C18.2075 17.4995 17.7859 17.2184 17.294 17.113C17.1183 17.0779 16.9778 17.0779 16.8021 17.0779C16.6264 17.113 16.4507 17.113 16.2751 17.113C16.0994 17.1482 15.9588 17.1833 15.7832 17.2536C15.1156 17.5698 14.6939 18.0617 14.4128 18.6941Z" fill="#D0E396"/>
<path d="M17.3643 31.3782C17.4345 31.9756 17.5751 32.5729 17.7859 33.1702C18.0318 33.8378 18.3481 34.4702 18.8751 34.9972C19.2967 35.4189 19.7886 35.7 20.386 35.7C21.0887 35.7 21.6157 35.3486 21.9671 34.7864C22.4238 34.0837 22.459 33.3459 22.3184 32.5377C22.213 31.9755 22.0373 31.4485 21.7563 30.9215C21.5806 30.5701 21.3346 30.2188 21.1589 29.9025C19.8589 30.3593 18.6292 30.7809 17.3643 31.2377C17.3643 31.2377 17.3643 31.308 17.3643 31.3782Z" fill="#D0E396"/>
</svg>
