<svg width="19" height="32" viewBox="0 0 19 32" fill="none" xmlns="http://www.w3.org/2000/svg">
<path d="M5.09285 21.6738L7.73951 24.3205L5.45228 30.496C5.19088 31.1822 4.53738 31.607 3.85121 31.607C3.65516 31.607 3.45911 31.5743 3.26307 31.5089C2.38085 31.1822 1.9234 30.2019 2.25015 29.3197L5.09285 21.6738Z" fill="white"/>
<path d="M0.160273 14.9098L1.72866 11.9038C2.15343 11.1196 2.77426 10.4661 3.52578 10.0086C7.15268 7.85209 7.61012 7.88476 8.06757 7.91744L10.5182 8.08081C11.2697 8.11349 11.7925 8.30954 14.3084 12.0018C14.4065 12.1325 14.5372 12.2305 14.7332 12.2632L17.7393 12.7206C18.5562 12.8513 19.1116 13.6028 18.9809 14.4197C18.8502 15.2366 18.0987 15.7921 17.2819 15.6614L14.2758 15.2039C13.2955 15.0405 12.4133 14.5177 11.8578 13.7009C11.7271 13.5048 11.6291 13.3415 11.4984 13.1781L9.57061 19.2883L12.2499 21.9676C12.642 22.3597 12.9688 22.8825 13.1648 23.4053L15.2233 29.4174C15.5501 30.2997 15.06 31.2799 14.1778 31.574C13.9817 31.6393 13.8183 31.672 13.6223 31.672C12.9034 31.672 12.2499 31.2146 11.9885 30.5284L9.93003 24.5162C9.89736 24.4509 9.86468 24.4182 9.83201 24.3528L5.06149 19.5497C4.37532 18.8635 4.11392 17.9159 4.30997 17.001L5.35556 12.3612C5.25754 12.4266 5.15951 12.4919 5.02881 12.5573C4.73474 12.7206 4.50602 12.982 4.34264 13.2761L2.77426 16.2822C2.51286 16.7723 1.99006 17.0664 1.46726 17.0664C1.23854 17.0664 1.00982 17.001 0.781094 16.903C0.0622488 16.5109 -0.199149 15.6287 0.160273 14.9098Z" fill="white"/>
<path d="M13.0766 4.23947C13.2739 2.4276 11.9649 0.798921 10.153 0.601713C8.34117 0.404505 6.71249 1.71345 6.51528 3.52532C6.31807 5.33719 7.62701 6.96587 9.43888 7.16308C11.2508 7.36028 12.8794 6.05134 13.0766 4.23947Z" fill="white"/>
</svg>
