<svg width="21" height="22" viewBox="0 0 21 22" fill="none" xmlns="http://www.w3.org/2000/svg">
    <path
        d="M20.2959 3.14508L18.0026 0.8525C17.5498 0.398219 16.9458 0.148438 16.3038 0.148438H6.31986C4.94679 0.148438 3.82935 1.26588 3.82935 2.63895V10.7386C3.82935 11.1016 4.12368 11.3959 4.48667 11.3959C4.84965 11.3959 5.14398 11.1016 5.14398 10.7386V2.63895C5.14398 1.99039 5.6713 1.46308 6.31986 1.46308H14.7569V4.21359C14.7569 5.41941 15.7378 6.40101 16.9436 6.40101H19.6854V17.5674C19.6854 18.216 19.1573 18.7425 18.5095 18.7425H11.6149C11.2519 18.7425 10.9576 19.0369 10.9576 19.3999C10.9576 19.7629 11.2519 20.0572 11.6149 20.0572H18.5095C19.8825 20.0572 21 18.9397 21 17.5667V4.84462C21 4.20191 20.7422 3.58111 20.2959 3.14508ZM16.9436 5.08564C16.463 5.08564 16.0716 4.6949 16.0716 4.21359V1.46308H16.3038C16.5945 1.46308 16.8676 1.57555 17.0736 1.78224L19.372 4.07994C19.5743 4.27786 19.6861 4.54956 19.6861 4.84462V5.08564H16.9436Z"
        fill="url(#paint0_linear_98_1661)" />
    <path
        d="M16.6048 11.4185C16.9678 11.4185 17.2621 11.1242 17.2621 10.7612C17.2621 10.3982 16.9678 10.1039 16.6048 10.1039H8.22324C7.86025 10.1039 7.56592 10.3982 7.56592 10.7612C7.56592 11.1242 7.86025 11.4185 8.22324 11.4185H16.6048Z"
        fill="url(#paint1_linear_98_1661)" />
    <path
        d="M13.6235 13.7185C13.6235 13.3555 13.3292 13.0612 12.9662 13.0612H10.9431C10.5801 13.0612 10.2858 13.3555 10.2858 13.7185C10.2858 14.0815 10.5801 14.3758 10.9431 14.3758H12.9662C13.3292 14.3758 13.6235 14.0815 13.6235 13.7185Z"
        fill="url(#paint2_linear_98_1661)" />
    <path
        d="M5.40915 12.574C2.83465 12.574 0.73999 14.6686 0.73999 17.2439C0.73999 19.8191 2.83465 21.913 5.40915 21.913C7.98365 21.913 10.0783 19.8184 10.0783 17.2431C10.0783 14.6679 7.98365 12.574 5.40915 12.574ZM5.40915 20.5984C3.55916 20.5984 2.05463 19.0931 2.05463 17.2439C2.05463 15.3946 3.55989 13.8893 5.40915 13.8893C7.25841 13.8893 8.76367 15.3946 8.76367 17.2439C8.76367 19.0931 7.25914 20.5984 5.40915 20.5984Z"
        fill="url(#paint3_linear_98_1661)" />
    <path
        d="M6.06635 16.9714V15.77C6.06635 15.407 5.77201 15.1127 5.40903 15.1127C5.04604 15.1127 4.75171 15.407 4.75171 15.77V17.2438C4.75171 17.4177 4.82109 17.5857 4.94452 17.7091L5.83921 18.6038C5.96775 18.7323 6.13573 18.7966 6.30371 18.7966C6.4717 18.7966 6.63968 18.7323 6.76822 18.6038C7.0253 18.3467 7.0253 17.9304 6.76822 17.674L6.06635 16.9714Z"
        fill="url(#paint4_linear_98_1661)" />
    <defs>
        <linearGradient id="paint0_linear_98_1661" x1="6.25676" y1="0.979343" x2="13.943"
            y2="17.6718" gradientUnits="userSpaceOnUse">
            <stop stop-color="#E82227" />
            <stop offset="1" stop-color="#F79420" />
        </linearGradient>
        <linearGradient id="paint1_linear_98_1661" x1="8.93667" y1="10.1587" x2="9.0084"
            y2="11.4908" gradientUnits="userSpaceOnUse">
            <stop stop-color="#E82227" />
            <stop offset="1" stop-color="#F79420" />
        </linearGradient>
        <linearGradient id="paint2_linear_98_1661" x1="10.7576" y1="13.116" x2="10.9616"
            y2="14.4201" gradientUnits="userSpaceOnUse">
            <stop stop-color="#E82227" />
            <stop offset="1" stop-color="#F79420" />
        </linearGradient>
        <linearGradient id="paint3_linear_98_1661" x1="2.06015" y1="12.9637" x2="5.31587"
            y2="21.1612" gradientUnits="userSpaceOnUse">
            <stop stop-color="#E82227" />
            <stop offset="1" stop-color="#F79420" />
        </linearGradient>
        <linearGradient id="paint4_linear_98_1661" x1="5.06404" y1="15.2664" x2="6.78738"
            y2="17.8689" gradientUnits="userSpaceOnUse">
            <stop stop-color="#E82227" />
            <stop offset="1" stop-color="#F79420" />
        </linearGradient>
    </defs>
</svg>