<svg width="39" height="49" viewBox="0 0 39 49" fill="none" xmlns="http://www.w3.org/2000/svg">
<path d="M26.9542 11.0192H9.80879C9.13145 11.0192 8.58496 10.4704 8.58496 9.79537V4.89768C8.58496 4.22263 9.13145 3.67385 9.80879 3.67385H13.6388C14.183 1.56371 16.1048 0 18.3826 0C20.6604 0 22.5823 1.56371 23.1265 3.67385H26.9564C27.6338 3.67385 28.1803 4.22263 28.1803 4.89768V9.79537C28.1803 10.4704 27.6338 11.0192 26.9564 11.0192H26.9542Z" fill="#9C4FFF"/>
<path d="M36.7508 11.0193C36.7508 8.31666 34.5534 6.12158 31.8531 6.12158H30.6293V9.79543C30.6293 11.8206 28.9806 13.4693 26.9554 13.4693H9.81001C7.78481 13.4693 6.13616 11.8206 6.13616 9.79543V6.12158H4.91233C2.20973 6.12158 0.0146484 8.31902 0.0146484 11.0193V44.0839C0.0146484 46.7865 2.21208 48.9816 4.91233 48.9816H31.8531C34.5052 48.9816 36.659 46.8599 36.737 44.2286L34.023 45.6178C33.5041 45.8818 32.9254 46.0219 32.3468 46.0219C31.7934 46.0219 31.2377 45.8956 30.7394 45.6522C29.7016 45.147 28.9553 44.1712 28.7395 43.0415L28.7051 42.8578H14.7098C14.0324 42.8578 13.4859 42.309 13.4859 41.634C13.4859 40.9589 14.0324 40.4101 14.7098 40.4101H28.2366L27.7222 37.7328C27.5799 36.982 27.6809 36.1989 27.9955 35.5124H14.7079C14.0306 35.5124 13.4841 34.9637 13.4841 34.2886C13.4841 33.6136 14.0306 33.0648 14.7079 33.0648H29.1805L36.751 17.5453L36.7508 11.0193ZM10.717 42.5409C10.717 43.2159 10.1682 43.7647 9.49318 43.7647H7.68153C7.00648 43.7647 6.4577 43.216 6.4577 42.5409V40.7292C6.4577 40.0542 7.00648 39.5054 7.68153 39.5054H9.49318C10.1682 39.5054 10.717 40.0542 10.717 40.7292V42.5409ZM10.717 35.1932C10.717 35.8682 10.1682 36.417 9.49318 36.417H7.68153C7.00648 36.417 6.4577 35.8683 6.4577 35.1932V33.3815C6.4577 32.7065 7.00648 32.1577 7.68153 32.1577H9.49318C10.1682 32.1577 10.717 32.7065 10.717 33.3815V35.1932ZM10.717 27.8455C10.717 28.5205 10.1682 29.0693 9.49318 29.0693H7.68153C7.00648 29.0693 6.4577 28.5206 6.4577 27.8455V26.0338C6.4577 25.3588 7.00648 24.81 7.68153 24.81H9.49318C10.1682 24.81 10.717 25.3588 10.717 26.0338V27.8455ZM10.717 20.4978C10.717 21.1728 10.1682 21.7216 9.49318 21.7216H7.68153C7.00648 21.7216 6.4577 21.1729 6.4577 20.4978V18.6861C6.4577 18.0111 7.00648 17.4623 7.68153 17.4623H9.49318C10.1682 17.4623 10.717 18.0111 10.717 18.6861V20.4978ZM30.6293 28.1647H14.71C14.0327 28.1647 13.4862 27.6159 13.4862 26.9408C13.4862 26.2658 14.0327 25.717 14.71 25.717H30.6293C31.3066 25.717 31.8531 26.2658 31.8531 26.9408C31.8531 27.6159 31.3066 28.1647 30.6293 28.1647ZM30.6293 20.817H14.71C14.0327 20.817 13.4862 20.2682 13.4862 19.5931C13.4862 18.9181 14.0327 18.3693 14.71 18.3693H30.6293C31.3066 18.3693 31.8531 18.9181 31.8531 19.5931C31.8531 20.2682 31.3066 20.817 30.6293 20.817Z" fill="#9C4FFF"/>
<path d="M38.698 19.141L30.2299 36.5021C30.1128 36.7386 30.0783 37.0096 30.1266 37.2691L31.1461 42.5777C31.2195 42.9566 31.4652 43.2781 31.812 43.448C31.9819 43.5307 32.1656 43.572 32.3492 43.572C32.5398 43.572 32.7304 43.5261 32.9072 43.4365L37.7177 40.9705C37.9519 40.8488 38.1447 40.6559 38.2596 40.4171L46.7276 23.0559L38.6957 19.1387L38.698 19.141Z" fill="#9C4FFF"/>
</svg>
