<svg width="10" height="7" viewBox="0 0 10 7" fill="none" xmlns="http://www.w3.org/2000/svg">
<path d="M9.01086 0.000392401C8.7609 0.00797077 8.52405 0.103975 8.35068 0.268005C6.51124 1.94549 5.10648 3.34653 3.39928 4.93211L1.58076 3.53397C1.48427 3.45973 1.37262 3.40354 1.25223 3.36862C1.13183 3.33371 1.00504 3.32075 0.879128 3.3305C0.753217 3.34025 0.630657 3.3725 0.518471 3.42543C0.406284 3.47835 0.306675 3.5509 0.225351 3.63891C0.144028 3.72693 0.0825869 3.82868 0.0445496 3.93834C0.00651233 4.04799 -0.00737381 4.1634 0.0036865 4.27795C0.0147468 4.3925 0.0505363 4.50394 0.109004 4.60589C0.167473 4.70783 0.24747 4.79828 0.344414 4.87204L2.84112 6.79448C3.02482 6.93529 3.25983 7.00834 3.4998 6.99924C3.73978 6.99014 3.9673 6.89955 4.13749 6.74533C6.2059 4.85904 7.67832 3.35242 9.70706 1.5023C9.8464 1.37975 9.94174 1.22171 9.98055 1.04893C10.0194 0.876162 9.99981 0.696744 9.9245 0.534263C9.84918 0.371783 9.72161 0.233835 9.55855 0.138551C9.39549 0.0432664 9.20456 -0.0048901 9.01086 0.000392401Z" fill="white"/>
</svg>
