<svg width="22" height="23" viewBox="0 0 22 23" fill="none" xmlns="http://www.w3.org/2000/svg">
<path fill-rule="evenodd" clip-rule="evenodd" d="M19.2753 11.4998C19.2753 16.3397 15.3527 20.2614 10.5137 20.2614C5.67474 20.2614 1.7522 16.3397 1.7522 11.4998C1.7522 6.6617 5.67474 2.73828 10.5137 2.73828C15.3527 2.73828 19.2753 6.6617 19.2753 11.4998" fill="#EBECFF"/>
<path fill-rule="evenodd" clip-rule="evenodd" d="M13.6449 14.8419C13.5301 14.8419 13.4144 14.8121 13.3084 14.7499L9.86862 12.6979C9.67061 12.5787 9.54883 12.3641 9.54883 12.1328V7.71083C9.54883 7.3481 9.84322 7.05371 10.2059 7.05371C10.5687 7.05371 10.8631 7.3481 10.8631 7.71083V11.7595L13.9822 13.6196C14.2932 13.8062 14.3957 14.2093 14.21 14.5212C14.0864 14.7271 13.8683 14.8419 13.6449 14.8419" fill="#3843FF"/>
</svg>
