<svg width="62" height="62" viewBox="0 0 62 62" fill="none" xmlns="http://www.w3.org/2000/svg">
<g filter="url(#filter0_d_488_593)">
<rect x="10" y="6" width="42" height="42" rx="10" fill="white"/>
</g>
<path d="M32.1721 20.3878H23.7888C23.4576 20.3878 23.1904 20.1195 23.1904 19.7895V17.3947C23.1904 17.0647 23.4576 16.7963 23.7888 16.7963H25.6615C25.9276 15.7646 26.8673 15 27.981 15C29.0947 15 30.0344 15.7646 30.3005 16.7963H32.1732C32.5044 16.7963 32.7716 17.0647 32.7716 17.3947V19.7895C32.7716 20.1195 32.5044 20.3878 32.1732 20.3878H32.1721Z" fill="#913DFD"/>
<path d="M36.9622 20.3879C36.9622 19.0665 35.8877 17.9932 34.5674 17.9932H33.9691V19.7895C33.9691 20.7797 33.1629 21.5858 32.1727 21.5858H23.7895C22.7992 21.5858 21.9931 20.7797 21.9931 19.7895V17.9932H21.3947C20.0733 17.9932 19 19.0676 19 20.3879V36.5549C19 37.8763 20.0744 38.9496 21.3947 38.9496H34.5674C35.8642 38.9496 36.9173 37.9122 36.9555 36.6256L35.6284 37.3049C35.3747 37.434 35.0917 37.5025 34.8088 37.5025C34.5382 37.5025 34.2666 37.4407 34.0229 37.3217C33.5155 37.0747 33.1506 36.5976 33.045 36.0452L33.0282 35.9554H26.1852C25.854 35.9554 25.5868 35.687 25.5868 35.357C25.5868 35.0269 25.854 34.7586 26.1852 34.7586H32.7991L32.5477 33.4495C32.478 33.0824 32.5274 32.6995 32.6813 32.3638H26.1843C25.8531 32.3638 25.5859 32.0955 25.5859 31.7655C25.5859 31.4354 25.8531 31.1671 26.1843 31.1671H33.2607L36.9623 23.5788L36.9622 20.3879ZM24.2329 35.8004C24.2329 36.1305 23.9646 36.3988 23.6345 36.3988H22.7487C22.4187 36.3988 22.1503 36.1305 22.1503 35.8004V34.9146C22.1503 34.5845 22.4187 34.3162 22.7487 34.3162H23.6345C23.9646 34.3162 24.2329 34.5845 24.2329 34.9146V35.8004ZM24.2329 32.2078C24.2329 32.5378 23.9646 32.8062 23.6345 32.8062H22.7487C22.4187 32.8062 22.1503 32.5378 22.1503 32.2078V31.3219C22.1503 30.9919 22.4187 30.7236 22.7487 30.7236H23.6345C23.9646 30.7236 24.2329 30.9919 24.2329 31.3219V32.2078ZM24.2329 28.6151C24.2329 28.9452 23.9646 29.2135 23.6345 29.2135H22.7487C22.4187 29.2135 22.1503 28.9452 22.1503 28.6151V27.7293C22.1503 27.3992 22.4187 27.1309 22.7487 27.1309H23.6345C23.9646 27.1309 24.2329 27.3992 24.2329 27.7293V28.6151ZM24.2329 25.0224C24.2329 25.3525 23.9646 25.6208 23.6345 25.6208H22.7487C22.4187 25.6208 22.1503 25.3525 22.1503 25.0224V24.1366C22.1503 23.8066 22.4187 23.5382 22.7487 23.5382H23.6345C23.9646 23.5382 24.2329 23.8066 24.2329 24.1366V25.0224ZM33.9691 28.7712H26.1853C25.8541 28.7712 25.5869 28.5028 25.5869 28.1728C25.5869 27.8427 25.8541 27.5744 26.1853 27.5744H33.9691C34.3002 27.5744 34.5674 27.8427 34.5674 28.1728C34.5674 28.5028 34.3002 28.7712 33.9691 28.7712ZM33.9691 25.1785H26.1853C25.8541 25.1785 25.5869 24.9102 25.5869 24.5801C25.5869 24.25 25.8541 23.9817 26.1853 23.9817H33.9691C34.3002 23.9817 34.5674 24.25 34.5674 24.5801C34.5674 24.9102 34.3002 25.1785 33.9691 25.1785Z" fill="#913DFD"/>
<path d="M42.3654 25.1989L42.7988 24.312C42.993 23.9145 43.02 23.4643 42.8763 23.0467C42.7314 22.629 42.4339 22.2911 42.0365 22.098L41.0866 21.6343C40.6881 21.4401 40.2401 21.4131 39.8225 21.5568C39.4037 21.7017 39.0669 21.9992 38.8738 22.3966L38.4404 23.2836L42.3676 25.1989L42.3654 25.1989Z" fill="#913DFD"/>
<path d="M37.9142 24.359L33.7737 32.8478C33.7165 32.9634 33.6996 33.0959 33.7232 33.2228L34.2217 35.8185C34.2576 36.0037 34.3778 36.1609 34.5473 36.244C34.6304 36.2844 34.7202 36.3046 34.81 36.3046C34.9032 36.3046 34.9964 36.2822 35.0828 36.2384L37.4349 35.0326C37.5494 34.9731 37.6437 34.8788 37.6998 34.762L41.8403 26.2733L37.9131 24.3579L37.9142 24.359Z" fill="#913DFD"/>
<defs>
<filter id="filter0_d_488_593" x="0" y="0" width="62" height="62" filterUnits="userSpaceOnUse" color-interpolation-filters="sRGB">
<feFlood flood-opacity="0" result="BackgroundImageFix"/>
<feColorMatrix in="SourceAlpha" type="matrix" values="0 0 0 0 0 0 0 0 0 0 0 0 0 0 0 0 0 0 127 0" result="hardAlpha"/>
<feOffset dy="4"/>
<feGaussianBlur stdDeviation="5"/>
<feComposite in2="hardAlpha" operator="out"/>
<feColorMatrix type="matrix" values="0 0 0 0 0 0 0 0 0 0 0 0 0 0 0 0 0 0 0.1 0"/>
<feBlend mode="normal" in2="BackgroundImageFix" result="effect1_dropShadow_488_593"/>
<feBlend mode="normal" in="SourceGraphic" in2="effect1_dropShadow_488_593" result="shape"/>
</filter>
</defs>
</svg>
