<svg width="45" height="45" viewBox="0 0 45 45" fill="none" xmlns="http://www.w3.org/2000/svg">
<circle cx="22.5" cy="22.5" r="22" stroke="#FF9898"/>
<path d="M27.4911 31.7368C27.4444 31.816 27.3775 31.8819 27.2969 31.928C27.2163 31.9742 27.1248 31.999 27.0315 32H12.5397C12.4449 32.0004 12.3518 31.9762 12.2697 31.93C12.1876 31.8838 12.1194 31.8172 12.072 31.7368C12.0248 31.6568 12 31.5661 12 31.4737C12 31.3813 12.0248 31.2905 12.072 31.2105L19.3287 18.9263C19.3758 18.8464 19.4436 18.78 19.5252 18.7338C19.6068 18.6876 19.6994 18.6633 19.7936 18.6632C19.8879 18.6633 19.9805 18.6876 20.0621 18.7338C20.1437 18.78 20.2115 18.8464 20.2586 18.9263L27.4911 31.2105C27.5382 31.2905 27.5631 31.3813 27.5631 31.4737C27.5631 31.5661 27.5382 31.6568 27.4911 31.7368ZM33.9414 31.2105L27.8593 20.9316C27.8121 20.8516 27.7444 20.7853 27.6628 20.7391C27.5812 20.6929 27.4886 20.6685 27.3943 20.6684C27.3 20.6685 27.2075 20.6929 27.1259 20.7391C27.0442 20.7853 26.9765 20.8516 26.9293 20.9316L24.798 24.5474L28.4237 30.6842C28.5393 30.8822 28.6097 31.1023 28.6301 31.3294C28.6505 31.5566 28.6204 31.7853 28.5419 32H33.4603C33.5551 32.0004 33.6482 31.9762 33.7303 31.93C33.8124 31.8838 33.8806 31.8172 33.928 31.7368C33.9752 31.6568 34 31.5661 34 31.4737C34 31.3813 33.9752 31.2905 33.928 31.2105H33.9414ZM19.7748 17.6211C19.9582 17.622 20.1401 17.654 20.3124 17.7158V17.1053H25.7871C25.8893 17.1054 25.9895 17.077 26.0758 17.0234C26.1622 16.9698 26.2311 16.8932 26.2745 16.8026C26.318 16.712 26.3341 16.6112 26.3211 16.5119C26.3081 16.4126 26.2664 16.319 26.201 16.2421L24.7577 14.5474L26.201 12.8526C26.2632 12.7756 26.3021 12.683 26.3134 12.5854C26.3247 12.4878 26.3078 12.389 26.2648 12.3003C26.2217 12.2116 26.1541 12.1365 26.0697 12.0834C25.9853 12.0303 25.8874 12.0014 25.7871 12H19.7748C19.6323 12 19.4955 12.0555 19.3947 12.1542C19.2939 12.2529 19.2373 12.3867 19.2373 12.5263V17.7158C19.4095 17.6537 19.5914 17.6217 19.7748 17.6211Z" fill="#FF9898"/>
</svg>
