<svg width="16" height="15" viewBox="0 0 16 15" fill="none" xmlns="http://www.w3.org/2000/svg">
<g opacity="0.6">
<path d="M8 1L7.64645 0.646446L8 0.292893L8.35355 0.646446L8 1ZM8.5 10C8.5 10.2761 8.27614 10.5 8 10.5C7.72386 10.5 7.5 10.2761 7.5 10L8.5 10ZM2.64645 5.64645L7.64645 0.646446L8.35355 1.35355L3.35355 6.35355L2.64645 5.64645ZM8.35355 0.646446L13.3536 5.64645L12.6464 6.35355L7.64645 1.35355L8.35355 0.646446ZM8.5 1L8.5 10L7.5 10L7.5 1L8.5 1Z" fill="#FF0000"/>
<path d="M1 11L1 12C1 13.1046 1.89543 14 3 14L13 14C14.1046 14 15 13.1046 15 12V11" stroke="#FF0000"/>
</g>
</svg>
