<svg width="21" height="25" viewBox="0 0 21 25" fill="none" xmlns="http://www.w3.org/2000/svg">
<path d="M14.875 3.57148H2.625C1.17687 3.57594 0.004368 4.77236 0 6.25004V22.3214C0.004375 23.7991 1.17687 24.9955 2.625 25H14.875C16.3231 24.9955 17.4956 23.7991 17.5 22.3214V6.25004C17.4956 4.77236 16.3231 3.57593 14.875 3.57148ZM4.375 16.9643H13.125C13.6084 16.9643 14 17.3638 14 17.8572C14 18.3505 13.6084 18.75 13.125 18.75H4.375C3.89155 18.75 3.5 18.3505 3.5 17.8572C3.5 17.3638 3.89155 16.9643 4.375 16.9643ZM3.5 14.2857C3.5 13.7924 3.89155 13.3929 4.375 13.3929H13.125C13.6084 13.3929 14 13.7924 14 14.2857C14 14.7791 13.6084 15.1786 13.125 15.1786H4.375C3.89155 15.1786 3.5 14.7791 3.5 14.2857ZM13.125 11.6072H4.375C3.89155 11.6072 3.5 11.2076 3.5 10.7143C3.5 10.221 3.89155 9.82146 4.375 9.82146H13.125C13.6084 9.82146 14 10.221 14 10.7143C14 11.2076 13.6084 11.6072 13.125 11.6072ZM21 2.67862V18.75C20.9956 19.8806 20.2945 20.8873 19.25 21.2645V6.24999C19.2489 5.06696 18.7874 3.93191 17.967 3.09485C17.1467 2.2578 16.0344 1.78682 14.875 1.78571H3.66072C4.0304 0.719855 5.01698 0.00445713 6.12494 0H18.3749C19.8242 0 21 1.19983 21 2.67862Z" fill="url(#paint0_linear_1693_1037)"/>
<defs>
<linearGradient id="paint0_linear_1693_1037" x1="17.8657" y1="12.5" x2="5.29976" y2="12.5" gradientUnits="userSpaceOnUse">
<stop stop-color="#FA2A0F"/>
<stop offset="0.41" stop-color="#FF0000"/>
<stop offset="1" stop-color="#FF0000"/>
</linearGradient>
</defs>
</svg>
