<svg width="14" height="10" viewBox="0 0 14 10" fill="none" xmlns="http://www.w3.org/2000/svg">
<path d="M4.5083 2.59566C4.5083 1.85928 5.10525 1.26233 5.84163 1.26233H12.0011C12.7375 1.26233 13.3345 1.85928 13.3345 2.59566V8.07105C13.3345 8.80743 12.7375 9.40438 12.0011 9.40438H5.84163C5.10525 9.40438 4.5083 8.80743 4.5083 8.07105V2.59566Z" stroke="white" stroke-linecap="round"/>
<path d="M1.33203 2.16731C1.33203 1.87491 1.68166 1.7242 1.89424 1.92497L4.40401 4.29534C4.47068 4.35831 4.50846 4.44596 4.50846 4.53767V6.25031C4.50846 6.34202 4.47068 6.42968 4.40401 6.49265L1.89424 8.86301C1.68166 9.06378 1.33203 8.91307 1.33203 8.62067V2.16731Z" stroke="white" stroke-linecap="round"/>
</svg>
