<svg width="17" height="18" viewBox="0 0 17 18" fill="none" xmlns="http://www.w3.org/2000/svg">
<path d="M14.6552 12.3H14.9483C15.4924 12.3 16.0143 12.0788 16.3991 11.6849C16.7838 11.2911 17 10.757 17 10.2V7.8C17 7.24305 16.7838 6.7089 16.3991 6.31508C16.0143 5.92125 15.4924 5.7 14.9483 5.7H14.6552V3.3C14.6552 2.42479 14.3155 1.58542 13.7108 0.966547C13.1062 0.347677 12.2861 0 11.431 0H3.22414C2.36904 0 1.54897 0.347677 0.944328 0.966547C0.339685 1.58542 0 2.42479 0 3.3V14.7C0 15.1334 0.0833951 15.5625 0.245423 15.9629C0.407451 16.3632 0.644939 16.727 0.944328 17.0335C1.24372 17.3399 1.59914 17.583 1.99031 17.7488C2.38148 17.9146 2.80074 18 3.22414 18H11.431C11.8544 18 12.2737 17.9146 12.6649 17.7488C13.056 17.583 13.4115 17.3399 13.7108 17.0335C14.0102 16.727 14.2477 16.3632 14.4097 15.9629C14.5718 15.5625 14.6552 15.1334 14.6552 14.7V12.3ZM4.68966 16.2H3.22414C2.83546 16.2 2.4627 16.042 2.18786 15.7607C1.91302 15.4794 1.75862 15.0978 1.75862 14.7V3C1.75862 2.25 2.30672 1.8 3.22414 1.8H4.68966V16.2ZM12.8966 14.7C12.8966 15.0978 12.7421 15.4794 12.4673 15.7607C12.1925 16.042 11.8197 16.2 11.431 16.2H6.44828V1.8H11.431C11.8197 1.8 12.1925 1.95804 12.4673 2.23934C12.7421 2.52064 12.8966 2.90218 12.8966 3.3V5.7H12.6034C11.7484 5.7 10.9283 6.04768 10.3236 6.66655C9.719 7.28542 9.37931 8.12479 9.37931 9C9.37931 9.87521 9.719 10.7146 10.3236 11.3335C10.9283 11.9523 11.7484 12.3 12.6034 12.3H12.8966V14.7ZM12.6034 10.5C12.398 10.5011 12.1947 10.4579 12.0066 10.3733C11.8185 10.2887 11.6499 10.1646 11.5117 10.009C11.3735 9.85344 11.2688 9.66986 11.2044 9.47019C11.14 9.27051 11.1174 9.05921 11.1379 8.85C11.1848 8.4723 11.3663 8.12562 11.6476 7.87648C11.9289 7.62733 12.2901 7.49327 12.6621 7.5H14.9483C15.026 7.5 15.1006 7.53161 15.1555 7.58787C15.2105 7.64413 15.2414 7.72044 15.2414 7.8V10.2C15.2414 10.2796 15.2105 10.3559 15.1555 10.4121C15.1006 10.4684 15.026 10.5 14.9483 10.5H12.6034Z" fill="#828282"/>
</svg>
