<svg width="45" height="45" viewBox="0 0 45 45" fill="none" xmlns="http://www.w3.org/2000/svg">
<circle cx="22.5" cy="22.5" r="22" stroke="#98ECFF"/>
<path d="M24.9283 12.6012H21.1547C21.1547 12.1765 21.3137 11.7692 21.5968 11.469C21.8799 11.1687 22.2638 11 22.6642 11H23.4189C23.8192 11 24.2031 11.1687 24.4862 11.469C24.7693 11.7692 24.9283 12.1765 24.9283 12.6012ZM27.3057 22.04C27.7357 22.4939 27.9844 23.106 28 23.7493V30.5222C27.9992 30.8475 27.9355 31.1691 27.8128 31.4673C27.6902 31.7654 27.5111 32.0337 27.2868 32.2555C26.9283 32.8279 26.2792 33 25.6189 33H20.3811C19.7208 33 19.0755 32.8279 18.7208 32.2555C18.4974 32.0333 18.3196 31.7648 18.1982 31.4666C18.0768 31.1684 18.0145 30.847 18.0151 30.5222V23.7493C18.0287 23.1071 18.2746 22.4951 18.7019 22.04C18.8088 21.9209 18.899 21.7861 18.9698 21.6397C19.1044 21.2906 19.1712 20.9161 19.166 20.5389V20.4389C19.1706 20.063 19.1039 19.69 18.9698 19.3421C18.8982 19.1952 18.8067 19.0603 18.6981 18.9418C18.4827 18.7415 18.3093 18.4955 18.189 18.2197C18.0688 17.9439 18.0044 17.6444 18 17.3406C18.0001 16.5964 18.2533 15.8772 18.7132 15.3151C18.8916 15.0062 19.1351 14.7454 19.4245 14.553C19.7138 14.3606 20.0413 14.242 20.3811 14.2063H25.6189C25.9587 14.242 26.2862 14.3606 26.5756 14.553C26.8649 14.7454 27.1084 15.0062 27.2868 15.3151C27.748 15.9046 28.0003 16.6466 28 17.4127C27.9953 17.7101 27.9305 18.0029 27.8101 18.2715C27.6897 18.5401 27.5164 18.7782 27.3019 18.9698C27.1928 19.0879 27.1012 19.2229 27.0302 19.3701C26.8965 19.7153 26.8298 20.0857 26.834 20.4589V20.5429C26.8288 20.9201 26.8956 21.2946 27.0302 21.6437C27.1042 21.7888 27.1969 21.9222 27.3057 22.04ZM25.9849 25.8228H24.1509C24.1276 25.8201 24.1051 25.8117 24.0852 25.7984C24.0653 25.7851 24.0485 25.7672 24.0361 25.7459C24.0238 25.7247 24.0161 25.7008 24.0138 25.6759C24.0114 25.6511 24.0145 25.626 24.0226 25.6026L25.0642 21.7718C25.0725 21.7421 25.0712 21.7103 25.0607 21.6814C25.0501 21.6525 25.0308 21.6281 25.0058 21.612C24.9807 21.596 24.9514 21.5893 24.9224 21.5928C24.8933 21.5964 24.8662 21.6101 24.8453 21.6317L19.9962 26.7034C19.9132 26.7915 19.9698 26.8515 20.0868 26.8515H21.9094C22 26.8515 22.0642 27.0357 22.0377 27.1317L20.9887 30.9945C20.9509 31.1306 21.117 31.2587 21.2075 31.1547L26.0604 26.0269C26.1585 25.9389 26.1057 25.8228 25.9887 25.8228H25.9849Z" fill="#98ECFF"/>
</svg>
