<svg width="45" height="45" viewBox="0 0 45 45" fill="none" xmlns="http://www.w3.org/2000/svg">
<circle cx="22.5" cy="22.5" r="22" stroke="#92949A"/>
<path d="M23.3066 16.5C24.8254 16.5 26.0566 15.2688 26.0566 13.75C26.0566 12.2312 24.8254 11 23.3066 11C21.7879 11 20.5566 12.2312 20.5566 13.75C20.5566 15.2688 21.7879 16.5 23.3066 16.5Z" fill="#92949A"/>
<path d="M15.1429 22.0002H14.3571C14.254 22.0002 14.1518 22.0205 14.0564 22.06C13.9611 22.0995 13.8745 22.1573 13.8015 22.2303C13.7286 22.3033 13.6707 22.3899 13.6312 22.4852C13.5917 22.5806 13.5714 22.6827 13.5714 22.7859V24.3573H12V25.9288H13.5714V27.5002C13.5714 27.7086 13.6542 27.9084 13.8016 28.0558C13.9489 28.2031 14.1488 28.2859 14.3571 28.2859H15.1429V29.0708C15.1429 29.2792 15.2256 29.4791 15.373 29.6264C15.5203 29.7738 15.7202 29.8566 15.9286 29.8566C16.137 29.8566 16.3368 29.7738 16.4842 29.6264C16.6315 29.4791 16.7143 29.2792 16.7143 29.0708V25.9288H18.1453C18.167 26.2037 18.2912 26.4605 18.4933 26.6482C18.6954 26.8359 18.9606 26.9408 19.2364 26.9422H20.2312L19.5508 32.2143C19.5514 32.4225 19.6344 32.622 19.7816 32.7692C19.9288 32.9164 20.1283 32.9994 20.3365 33H20.6116C21.3701 33 21.4654 32.0451 21.6267 31.4775C21.8222 30.7898 22.6816 27.7663 22.9156 26.9422H23.7178C24.0575 28.1541 25.036 31.6409 25.1799 32.1738C25.2958 32.6033 25.4859 33 26.0017 33H26.2766C26.4848 32.9994 26.6843 32.9164 26.8315 32.7692C26.9787 32.622 27.0617 32.4225 27.0623 32.2143L26.3531 26.9422H27.3767C27.6525 26.9408 27.9177 26.8359 28.1198 26.6482C28.3219 26.4605 28.4461 26.2037 28.4678 25.9287H30.0714V29.0716C30.0714 29.28 30.1542 29.4798 30.3016 29.6272C30.4489 29.7745 30.6488 29.8573 30.8571 29.8573C31.0655 29.8573 31.2654 29.7745 31.4127 29.6272C31.5601 29.4798 31.6429 29.28 31.6429 29.0716V28.2851H32.5072C32.6948 28.2851 32.8746 28.2106 33.0072 28.0779C33.1398 27.9453 33.2143 27.7654 33.2143 27.5779V25.9288H34V24.3573H33.2143V22.7065C33.2143 22.6136 33.196 22.5217 33.1605 22.4359C33.125 22.3501 33.0729 22.2722 33.0072 22.2065C32.9416 22.1409 32.8636 22.0888 32.7778 22.0532C32.692 22.0177 32.6001 21.9994 32.5072 21.9994H31.6429V21.2145C31.6429 21.0061 31.5601 20.8063 31.4127 20.6589C31.2654 20.5116 31.0655 20.4288 30.8571 20.4288C30.6488 20.4288 30.4489 20.5116 30.3016 20.6589C30.1542 20.8063 30.0714 21.0061 30.0714 21.2145V24.3574H28.4766V22.4102C28.4766 21.3136 28.041 20.262 27.2656 19.4867C26.4903 18.7113 25.4387 18.2757 24.3422 18.2757H22.2709C21.1743 18.2757 20.1227 18.7113 19.3474 19.4867C18.572 20.262 18.1364 21.3136 18.1364 22.4102V24.3574H16.7143V21.2137C16.7143 21.0053 16.6315 20.8055 16.4842 20.6581C16.3368 20.5108 16.137 20.428 15.9286 20.428C15.7202 20.428 15.5203 20.5108 15.373 20.6581C15.2256 20.8055 15.1429 21.0053 15.1429 21.2137V22.0002Z" fill="#92949A"/>
</svg>
