<svg width="192" height="33" viewBox="0 0 192 33" fill="none" xmlns="http://www.w3.org/2000/svg">
<path d="M7.96464 20.0031V22.5038C7.84133 24.7879 8.79808 25.9299 10.8355 25.9299C12.8729 25.9299 13.8602 24.7879 13.7989 22.5038V3.61156C13.7989 1.38886 15.0337 0.18465 17.503 0H21.7631V22.5038C21.5159 29.2948 17.6883 32.691 10.2793 32.691C3.42628 32.691 0 29.2948 0 22.5038V20.0031H7.96464Z" fill="#0075FB"/>
<path d="M28.4032 19.5404C28.4032 17.9351 28.6498 16.299 29.1439 14.6321C30.502 10.434 33.404 7.87167 37.849 6.9457C40.3186 6.38966 42.912 6.57494 45.6282 7.50112C48.0977 8.42709 49.9811 10.0632 51.2772 12.4094C52.3886 14.4468 52.9447 16.855 52.9447 19.6332C52.9447 23.0906 52.08 25.9923 50.3512 28.3383C48.8698 30.3757 46.8629 31.6724 44.3314 32.2279C42.356 32.7219 40.2413 32.7833 37.9878 32.4131C35.7343 32.0424 33.8669 31.2091 32.3855 29.9124C29.7305 27.4429 28.4032 23.9854 28.4032 19.5404ZM39.053 13.4281C37.3242 14.1688 36.3982 16.2682 36.2749 19.7257C36.3362 24.1093 37.7871 26.3006 40.6271 26.3006C43.4672 26.3006 44.9495 24.1091 45.0728 19.7257C45.0108 17.3795 44.4862 15.5581 43.498 14.2614C42.2632 13.1501 40.7819 12.8727 39.053 13.4281Z" fill="#0075FB"/>
<path d="M82.2732 21.2999C82.2732 25.1894 81.2386 28.0756 79.1704 29.9589C77.1022 31.8416 74.2468 32.7523 70.6038 32.691C63.0721 32.4437 59.3058 28.6467 59.3058 21.2997V7.13019H67.1775V22.5964C67.1775 24.9426 68.3815 26.1152 70.7891 26.1152C73.1353 26.1152 74.3085 24.9424 74.3085 22.5964V11.0198C74.3085 8.42692 75.6046 7.13019 78.1981 7.13019H82.273L82.2732 21.2999Z" fill="#0075FB"/>
<path d="M89.4677 20.1884C89.4677 10.9279 94.5612 6.48225 104.748 6.85301V14.8175H101.877C100.334 14.8175 99.1915 15.1874 98.4508 15.9289C97.7095 16.6696 97.3393 17.8736 97.3393 19.5405V32.2277H89.4677V20.1884Z" fill="#0075FB"/>
<path d="M131.021 32.2276C128.428 32.2276 127.132 30.9309 127.132 28.3381V16.9467C127.132 14.5392 125.958 13.3352 123.612 13.3352C121.205 13.3352 120.001 14.5392 120.001 16.9467V32.2274H112.129V18.2433C112.006 10.5876 115.802 6.76001 123.519 6.76001C131.237 6.76001 135.096 10.5876 135.096 18.2433V32.2274L131.021 32.2276Z" fill="#0075FB"/>
<path d="M163.961 24.5415C163.22 27.3815 161.985 29.4497 160.257 30.7458C158.219 32.1046 155.811 32.7833 153.033 32.7833C145.439 32.5367 141.642 28.153 141.642 19.6332C141.642 11.1127 145.47 6.82178 153.126 6.76044C161.09 6.76044 164.825 11.6687 164.332 21.4853H148.125C148.371 25.3129 150.039 27.227 153.126 27.227C154.607 27.227 155.966 26.6404 157.201 25.4676C157.756 24.8503 158.466 24.5417 159.331 24.5417L163.961 24.5415ZM157.663 16.9469C157.293 13.6134 155.75 11.9467 153.033 11.9467C150.316 11.9467 148.712 13.6134 148.217 16.9469H157.663Z" fill="#F96500"/>
<path d="M170.137 27.2269L183.566 12.4095H174.119C173.194 12.4095 172.422 12.1009 171.805 11.4835C171.187 10.8661 170.879 10.094 170.879 9.16804V7.13062H191.438V12.5022L178.102 26.7642H191.808V32.2279H170.137V27.2269Z" fill="#F96500"/>
</svg>
