<svg width="273" height="271" viewBox="0 0 273 271" fill="none" xmlns="http://www.w3.org/2000/svg">
<path opacity="0.52" d="M130.881 263.72C202.77 263.72 261.048 205.442 261.048 133.553C261.048 61.6633 202.77 3.3855 130.881 3.3855C58.9916 3.3855 0.713867 61.6633 0.713867 133.553C0.713867 205.442 58.9916 263.72 130.881 263.72Z" fill="#0075FB"/>
<g opacity="0.79">
<path d="M145.138 37.5858C146.689 39.1376 146.689 41.6538 145.138 43.2055C143.588 44.7573 141.073 44.7573 139.523 43.2055C137.972 41.6538 137.972 39.1376 139.523 37.5858C141.073 36.034 143.588 36.034 145.138 37.5858Z" fill="white"/>
<path d="M145.138 50.2644C146.689 51.8161 146.689 54.3324 145.138 55.8841C143.588 57.4359 141.073 57.4359 139.523 55.8841C137.972 54.3324 137.972 51.8161 139.523 50.2644C141.073 48.7126 143.588 48.7126 145.138 50.2644Z" fill="white"/>
<path d="M145.138 62.9429C146.689 64.4947 146.689 67.0109 145.138 68.5627C143.588 70.1145 141.073 70.1145 139.523 68.5627C137.972 67.0109 137.972 64.4947 139.523 62.9429C141.073 61.3905 143.588 61.3905 145.138 62.9429Z" fill="white"/>
<path d="M145.138 75.6209C146.689 77.1726 146.689 79.6889 145.138 81.2406C143.588 82.7924 141.073 82.7924 139.523 81.2406C137.972 79.6889 137.972 77.1726 139.523 75.6209C141.073 74.0691 143.588 74.0691 145.138 75.6209Z" fill="white"/>
<path d="M145.138 88.2995C146.689 89.8512 146.689 92.3675 145.138 93.9192C143.588 95.471 141.073 95.471 139.523 93.9192C137.972 92.3675 137.972 89.8512 139.523 88.2995C141.073 86.7477 143.588 86.7477 145.138 88.2995Z" fill="white"/>
<path d="M157.682 37.5858C159.232 39.1376 159.232 41.6538 157.682 43.2055C156.131 44.7573 153.617 44.7573 152.066 43.2055C150.515 41.6538 150.515 39.1376 152.066 37.5858C153.617 36.034 156.131 36.034 157.682 37.5858Z" fill="white"/>
<path d="M157.682 50.2644C159.232 51.8161 159.232 54.3324 157.682 55.8841C156.131 57.4359 153.617 57.4359 152.066 55.8841C150.515 54.3324 150.515 51.8161 152.066 50.2644C153.617 48.7126 156.131 48.7126 157.682 50.2644Z" fill="white"/>
<path d="M157.682 62.9429C159.232 64.4947 159.232 67.0109 157.682 68.5627C156.131 70.1145 153.617 70.1145 152.066 68.5627C150.515 67.0109 150.515 64.4947 152.066 62.9429C153.617 61.3905 156.131 61.3905 157.682 62.9429Z" fill="white"/>
<path d="M157.682 75.6209C159.232 77.1726 159.232 79.6889 157.682 81.2406C156.131 82.7924 153.617 82.7924 152.066 81.2406C150.515 79.6889 150.515 77.1726 152.066 75.6209C153.617 74.0691 156.131 74.0691 157.682 75.6209Z" fill="white"/>
<path d="M157.682 88.2995C159.232 89.8512 159.232 92.3675 157.682 93.9192C156.131 95.471 153.617 95.471 152.066 93.9192C150.515 92.3675 150.515 89.8512 152.066 88.2995C153.617 86.7477 156.131 86.7477 157.682 88.2995Z" fill="white"/>
<path d="M170.452 37.5858C172.003 39.1376 172.003 41.6538 170.452 43.2055C168.902 44.7573 166.387 44.7573 164.837 43.2055C163.286 41.6538 163.286 39.1376 164.837 37.5858C166.387 36.034 168.901 36.034 170.452 37.5858Z" fill="white"/>
<path d="M170.452 50.2644C172.003 51.8161 172.003 54.3324 170.452 55.8841C168.902 57.4359 166.387 57.4359 164.837 55.8841C163.286 54.3324 163.286 51.8161 164.837 50.2644C166.387 48.7126 168.901 48.7126 170.452 50.2644Z" fill="white"/>
<path d="M170.452 62.9429C172.003 64.4947 172.003 67.0109 170.452 68.5627C168.902 70.1145 166.387 70.1145 164.837 68.5627C163.286 67.0109 163.286 64.4947 164.837 62.9429C166.387 61.3905 168.901 61.3905 170.452 62.9429Z" fill="white"/>
<path d="M170.452 75.6209C172.003 77.1726 172.003 79.6889 170.452 81.2406C168.902 82.7924 166.387 82.7924 164.837 81.2406C163.286 79.6889 163.286 77.1726 164.837 75.6209C166.387 74.0691 168.901 74.0691 170.452 75.6209Z" fill="white"/>
<path d="M170.452 88.2995C172.003 89.8512 172.003 92.3675 170.452 93.9192C168.902 95.471 166.387 95.471 164.837 93.9192C163.286 92.3675 163.286 89.8512 164.837 88.2995C166.387 86.7477 168.901 86.7477 170.452 88.2995Z" fill="white"/>
<path d="M182.995 37.5858C184.546 39.1376 184.546 41.6538 182.995 43.2055C181.445 44.7573 178.93 44.7573 177.38 43.2055C175.829 41.6538 175.829 39.1376 177.38 37.5858C178.931 36.034 181.445 36.034 182.995 37.5858Z" fill="white"/>
<path d="M182.995 50.2644C184.546 51.8161 184.546 54.3324 182.995 55.8841C181.445 57.4359 178.93 57.4359 177.38 55.8841C175.829 54.3324 175.829 51.8161 177.38 50.2644C178.931 48.7126 181.445 48.7126 182.995 50.2644Z" fill="white"/>
<path d="M182.995 62.9429C184.546 64.4947 184.546 67.0109 182.995 68.5627C181.445 70.1145 178.93 70.1145 177.38 68.5627C175.829 67.0109 175.829 64.4947 177.38 62.9429C178.931 61.3905 181.445 61.3905 182.995 62.9429Z" fill="white"/>
<path d="M182.995 75.6209C184.546 77.1726 184.546 79.6889 182.995 81.2406C181.445 82.7924 178.93 82.7924 177.38 81.2406C175.829 79.6889 175.829 77.1726 177.38 75.6209C178.931 74.0691 181.445 74.0691 182.995 75.6209Z" fill="white"/>
<path d="M182.995 88.2995C184.546 89.8512 184.546 92.3675 182.995 93.9192C181.445 95.471 178.93 95.471 177.38 93.9192C175.829 92.3675 175.829 89.8512 177.38 88.2995C178.931 86.7477 181.445 86.7477 182.995 88.2995Z" fill="white"/>
<path d="M195.135 37.5858C196.686 39.1376 196.686 41.6538 195.135 43.2055C193.585 44.7573 191.07 44.7573 189.52 43.2055C187.969 41.6538 187.969 39.1376 189.52 37.5858C191.07 36.034 193.585 36.034 195.135 37.5858Z" fill="white"/>
<path d="M195.135 50.2644C196.686 51.8161 196.686 54.3324 195.135 55.8841C193.585 57.4359 191.07 57.4359 189.52 55.8841C187.969 54.3324 187.969 51.8161 189.52 50.2644C191.07 48.7126 193.585 48.7126 195.135 50.2644Z" fill="white"/>
<path d="M195.135 62.9429C196.686 64.4947 196.686 67.0109 195.135 68.5627C193.585 70.1145 191.07 70.1145 189.52 68.5627C187.969 67.0109 187.969 64.4947 189.52 62.9429C191.07 61.3905 193.585 61.3905 195.135 62.9429Z" fill="white"/>
<path d="M195.135 75.6209C196.686 77.1726 196.686 79.6889 195.135 81.2406C193.585 82.7924 191.07 82.7924 189.52 81.2406C187.969 79.6889 187.969 77.1726 189.52 75.6209C191.07 74.0691 193.585 74.0691 195.135 75.6209Z" fill="white"/>
<path d="M195.135 88.2995C196.686 89.8512 196.686 92.3675 195.135 93.9192C193.585 95.471 191.07 95.471 189.52 93.9192C187.969 92.3675 187.969 89.8512 189.52 88.2995C191.07 86.7477 193.585 86.7477 195.135 88.2995Z" fill="white"/>
</g>
<mask id="mask0_25_627" style="mask-type:luminance" maskUnits="userSpaceOnUse" x="205" y="162" width="68" height="68">
<path d="M249.08 164.386C266.578 169.903 276.291 188.56 270.774 206.059C265.258 223.557 246.6 233.269 229.102 227.753C211.604 222.236 201.891 203.579 207.408 186.08C212.925 168.582 231.582 158.87 249.08 164.386Z" fill="white"/>
</mask>
<g mask="url(#mask0_25_627)">
<path d="M230.242 146.335L181.653 222.605L184.679 224.533L233.269 148.263L230.242 146.335Z" fill="white"/>
<path d="M239.317 149.196L190.728 225.466L193.754 227.395L242.344 151.124L239.317 149.196Z" fill="white"/>
<path d="M248.393 152.058L199.803 228.328L202.83 230.256L251.419 153.986L248.393 152.058Z" fill="white"/>
<path d="M257.468 154.919L208.879 231.189L211.906 233.117L260.495 156.847L257.468 154.919Z" fill="white"/>
<path d="M266.544 157.78L217.955 234.051L220.981 235.979L269.57 159.709L266.544 157.78Z" fill="white"/>
<path d="M275.619 160.641L227.03 236.912L230.056 238.84L278.646 162.57L275.619 160.641Z" fill="white"/>
<path d="M284.694 163.503L236.105 239.774L239.132 241.702L287.721 165.431L284.694 163.503Z" fill="white"/>
<path d="M293.77 166.364L245.181 242.634L248.207 244.563L296.797 168.292L293.77 166.364Z" fill="white"/>
</g>
<path d="M95.4871 25.0059H101.218C101.732 25.0059 102.149 25.4229 102.149 25.9374V31.6682C102.149 32.1827 102.566 32.5992 103.08 32.5992H103.224C103.738 32.5992 104.155 32.1821 104.155 31.6682V25.9374C104.155 25.4229 104.572 25.0059 105.086 25.0059H110.817C111.332 25.0059 111.749 24.5889 111.749 24.0743V23.931C111.749 23.4165 111.332 23.0001 110.817 23.0001H105.086C104.572 23.0001 104.155 22.5831 104.155 22.0685V16.3378C104.155 15.8232 103.738 15.4068 103.224 15.4068H103.08C102.566 15.4068 102.149 15.8238 102.149 16.3378V22.0685C102.149 22.5831 101.732 23.0001 101.218 23.0001H95.4871C94.9726 23.0001 94.5562 23.4171 94.5562 23.931V24.0743C94.5562 24.5889 94.9726 25.0059 95.4871 25.0059Z" fill="white"/>
<path d="M111.634 35.2875H115.129C115.442 35.2875 115.697 35.5418 115.697 35.8554V39.3496C115.697 39.6632 115.951 39.9176 116.265 39.9176H116.352C116.666 39.9176 116.92 39.6632 116.92 39.3496V35.8554C116.92 35.5418 117.174 35.2875 117.488 35.2875H120.982C121.296 35.2875 121.55 35.0331 121.55 34.7195V34.632C121.55 34.3183 121.296 34.064 120.982 34.064H117.488C117.174 34.064 116.92 33.8097 116.92 33.496V30.0025C116.92 29.6888 116.666 29.4345 116.352 29.4345H116.265C115.951 29.4345 115.697 29.6888 115.697 30.0025V33.4966C115.697 33.8103 115.442 34.0646 115.129 34.0646H111.634C111.32 34.0646 111.067 34.3189 111.067 34.6326V34.7201C111.066 35.0337 111.32 35.2875 111.634 35.2875Z" fill="white"/>
<path d="M244.402 114.367C247.679 117.612 249.594 122.175 249.633 126.806C249.655 129.118 249.243 131.443 248.384 133.606C247.531 135.771 246.239 137.768 244.613 139.452C241.365 142.829 236.719 144.864 231.973 144.908C229.606 144.927 227.228 144.485 225.027 143.586C222.827 142.685 220.811 141.34 219.122 139.665C217.448 137.976 216.105 135.958 215.205 133.759C214.302 131.559 213.864 129.18 213.881 126.812C213.921 122.066 215.951 117.416 219.324 114.163C221.006 112.535 223.001 111.241 225.165 110.384C227.328 109.523 229.653 109.109 231.966 109.131C236.598 109.168 241.159 111.087 244.402 114.367ZM244.402 114.367C242.766 112.746 240.816 111.446 238.688 110.574C236.56 109.702 234.257 109.277 231.966 109.296C227.372 109.341 222.883 111.312 219.742 114.58C218.17 116.211 216.923 118.143 216.099 120.235C215.269 122.327 214.873 124.576 214.894 126.812C214.935 131.291 216.785 135.696 219.952 138.836C223.088 142.006 227.493 143.862 231.972 143.9C234.208 143.923 236.457 143.523 238.548 142.691C240.64 141.864 242.569 140.614 244.199 139.039C247.463 135.892 249.427 131.4 249.469 126.806C249.487 124.514 249.062 122.212 248.19 120.083C247.32 117.955 246.021 116.004 244.402 114.367Z" fill="white"/>
<mask id="mask1_25_627" style="mask-type:luminance" maskUnits="userSpaceOnUse" x="14" y="0" width="68" height="67">
<path d="M50.2952 0.0828224C68.5976 1.36677 82.3939 17.244 81.1106 35.5471C79.8266 53.8495 63.9488 67.6458 45.6469 66.3619C27.3444 65.0779 13.5481 49.2007 14.8321 30.8976C16.1149 12.5952 31.9927 -1.20113 50.2952 0.0828224Z" fill="white"/>
</mask>
<g mask="url(#mask1_25_627)">
<path d="M27.7622 -13.0743L-1.70062 72.4202L1.69215 73.5894L31.1549 -11.9051L27.7622 -13.0743Z" fill="white"/>
<path d="M37.2551 -12.4083L7.79236 73.0862L11.1851 74.2554L40.6479 -11.2391L37.2551 -12.4083Z" fill="white"/>
<path d="M46.7473 -11.742L17.2845 73.7526L20.6773 74.9218L50.1401 -10.5728L46.7473 -11.742Z" fill="white"/>
<path d="M56.2402 -11.0753L26.7774 74.4192L30.1702 75.5884L59.633 -9.90614L56.2402 -11.0753Z" fill="white"/>
<path d="M65.7326 -10.4096L36.2698 75.085L39.6626 76.2542L69.1254 -9.24037L65.7326 -10.4096Z" fill="white"/>
<path d="M75.2254 -9.74307L45.7626 75.7515L49.1554 76.9207L78.6182 -8.57387L75.2254 -9.74307Z" fill="white"/>
<path d="M84.7182 -9.0765L55.2554 76.418L58.6482 77.5872L88.111 -7.9073L84.7182 -9.0765Z" fill="white"/>
<path d="M94.2106 -8.41067L64.7478 77.0839L68.1406 78.2531L97.6034 -7.24147L94.2106 -8.41067Z" fill="white"/>
</g>
<path d="M30.4051 82.9851C42.1657 82.9851 51.6995 73.4513 51.6995 61.6907C51.6995 49.9301 42.1657 40.3963 30.4051 40.3963C18.6445 40.3963 9.11066 49.9301 9.11066 61.6907C9.11066 73.4513 18.6445 82.9851 30.4051 82.9851Z" fill="#F96500"/>
<path d="M35.7079 80.4945C46.0914 77.5666 52.1354 66.7755 49.2076 56.392C46.2797 46.0085 35.4886 39.9645 25.1051 42.8924C14.7216 45.8203 8.6776 56.6113 11.6055 66.9948C14.5334 77.3783 25.3244 83.4223 35.7079 80.4945Z" fill="white"/>
<path d="M32.4285 49.1608C32.5666 51.4955 32.6177 53.8302 32.6764 56.1649C32.7099 58.4996 32.7334 60.8344 32.7146 63.1691L32.7122 63.4563L32.4285 63.4551C30.6776 63.4481 28.9267 63.424 27.1753 63.3717C26.2995 63.3447 25.4244 63.3341 24.5486 63.2942C23.6729 63.2537 22.7977 63.2261 21.922 63.1691C22.7977 63.1121 23.6729 63.0845 24.5486 63.044C25.4244 63.004 26.2995 62.9929 27.1753 62.9665C28.9262 62.9148 30.6771 62.8901 32.4285 62.8831L32.1425 63.1691C32.1237 60.8344 32.1472 58.4996 32.1807 56.1649C32.2394 53.8302 32.2911 51.4955 32.4285 49.1608Z" fill="#F96500"/>
<path d="M244.343 201.069C247.615 206.476 245.887 213.516 240.482 216.792C235.078 220.068 228.044 218.341 224.772 212.934C221.5 207.527 223.228 200.488 228.633 197.211C234.037 193.935 241.071 195.662 244.343 201.069Z" fill="#F96500"/>
<path d="M249.014 189.89C249.871 191.306 249.418 193.15 248.002 194.009C246.586 194.867 244.744 194.414 243.886 192.998C243.029 191.581 243.482 189.737 244.898 188.879C246.314 188.021 248.157 188.473 249.014 189.89Z" fill="#F96500"/>
<path d="M16.3166 90.6824C17.3792 86.708 15.0187 82.6247 11.0443 81.5621C7.06992 80.4995 2.98663 82.86 1.92402 86.8344C0.861414 90.8088 3.22188 94.8921 7.19627 95.9547C11.1707 97.0173 15.254 94.6568 16.3166 90.6824Z" fill="#F96500"/>
<path d="M197.606 123.534L195.12 127.601C195.073 127.678 195.008 127.744 194.931 127.793L190.481 130.603C190.108 130.839 190.115 131.385 190.493 131.612L195.202 134.438C195.287 134.489 195.357 134.56 195.407 134.645L197.676 138.502C197.899 138.881 198.444 138.893 198.684 138.523L201.217 134.608C201.257 134.546 201.308 134.493 201.367 134.449L205.615 131.382C205.968 131.127 205.935 130.592 205.554 130.383L200.873 127.808C200.768 127.75 200.683 127.662 200.629 127.555L198.641 123.578C198.433 123.161 197.848 123.136 197.606 123.534Z" fill="white"/>
<path d="M28.3411 89.2662C29.8224 90.2301 30.2418 92.2118 29.2786 93.6931C28.3147 95.1744 26.333 95.5938 24.8517 94.6305C23.3704 93.6667 22.951 91.6849 23.9143 90.2036C24.8781 88.7223 26.8598 88.303 28.3411 89.2662Z" fill="#F96500"/>
<path d="M47.2791 27.9908L45.547 30.8248C45.5141 30.8788 45.4689 30.9247 45.4154 30.9587L42.3148 32.917C42.0552 33.0808 42.0593 33.4614 42.323 33.6194L45.6045 35.5882C45.6639 35.6235 45.7132 35.6734 45.7479 35.7327L47.329 38.4204C47.4847 38.6847 47.8641 38.693 48.0309 38.4351L49.7959 35.7069C49.8235 35.664 49.8593 35.6264 49.901 35.5965L52.8613 33.4585C53.1068 33.2811 53.0839 32.9087 52.8184 32.7625L49.5562 30.9681C49.4828 30.9276 49.4235 30.8659 49.3859 30.7913L48.0003 28.0208C47.8553 27.7318 47.4482 27.7142 47.2791 27.9908Z" fill="#F96500"/>
<path d="M67.9844 213.055C68.3785 211.492 68.7703 209.936 69.1097 208.37C69.4422 206.802 69.7582 205.234 70.0107 203.653C70.2774 202.075 70.4824 200.488 70.6668 198.897C70.7578 198.101 70.8319 197.303 70.8965 196.502C70.9758 195.703 71.0192 194.901 71.0868 194.097C71.152 194.901 71.1661 195.707 71.1843 196.514C71.1784 197.32 71.1543 198.127 71.1173 198.934C71.038 200.547 70.8465 202.153 70.5905 203.749C70.3209 205.342 69.9867 206.924 69.5467 208.478C69.1133 210.033 68.6087 211.568 67.9844 213.055Z" fill="#0075FB" fill-opacity="0.47"/>
<path d="M85.817 224.494C71.5361 170.326 44.3188 145.287 13.6691 122.203C12.717 142.881 16.9218 166.578 25.9676 182.945C35.0134 199.311 53.0927 229.822 74.114 242.302" fill="#E6F1FF" fill-opacity="0.94"/>
<path d="M77.0848 237.636L74.0623 230.135L70.9124 222.688L67.6614 215.286C66.5554 212.829 65.4077 210.39 64.2829 207.942C59.6969 198.189 54.8119 188.576 49.548 179.172C44.3259 169.746 38.7296 160.528 32.8162 151.518C31.3413 149.264 29.816 147.042 28.3182 144.802C26.7941 142.58 25.227 140.388 23.6864 138.177L18.9435 131.628L14.0644 125.179L19.0581 131.542L23.9196 138.008C25.4878 140.202 27.0748 142.383 28.6237 144.591C30.1449 146.817 31.6943 149.026 33.1932 151.268C39.1919 160.237 44.7923 169.47 50.0614 178.886C55.2888 188.325 60.1885 197.947 64.6911 207.752C65.793 210.214 66.9172 212.666 67.9997 215.136L71.1761 222.576L74.1951 230.081L77.0848 237.636Z" fill="#0075FB" fill-opacity="0.47"/>
<path d="M61.3855 200.279C61.5188 198.892 61.7156 197.517 61.9217 196.144C62.1214 194.77 62.3664 193.404 62.6119 192.037C62.8709 190.674 63.1311 189.311 63.4359 187.956L63.8952 185.924C64.0697 185.25 64.2236 184.573 64.4156 183.903C64.3546 184.597 64.2565 185.285 64.1784 185.976L63.88 188.038C63.6797 189.413 63.4348 190.779 63.1887 192.144C62.9291 193.508 62.6689 194.871 62.3634 196.226C62.0657 197.582 61.7573 198.937 61.3855 200.279Z" fill="#0075FB" fill-opacity="0.47"/>
<path d="M50.2558 178.606C50.5077 177.095 50.7644 175.592 50.9735 174.083C51.1761 172.573 51.367 171.065 51.4998 169.55C51.6466 168.037 51.7359 166.519 51.8099 164.998C51.8463 164.238 51.8663 163.476 51.8769 162.713C51.9033 161.95 51.8945 161.187 51.9109 160.42C52.0272 161.178 52.093 161.942 52.1647 162.706C52.2122 163.47 52.2428 164.237 52.2616 165.004C52.2939 166.539 52.2193 168.075 52.0842 169.604C51.9356 171.131 51.7271 172.655 51.417 174.158C51.1133 175.663 50.7427 177.152 50.2558 178.606Z" fill="#0075FB" fill-opacity="0.47"/>
<path d="M39.3992 161.249C39.566 158.882 39.7387 156.542 39.7821 154.192C39.8426 151.843 39.7751 149.499 39.6893 147.127C40.2361 149.44 40.4141 151.83 40.3689 154.205C40.3066 156.581 40.0218 158.957 39.3992 161.249Z" fill="#0075FB" fill-opacity="0.47"/>
<path d="M28.8157 145.174C28.8462 143.77 28.9202 142.408 28.9044 141.038C28.905 139.668 28.8186 138.311 28.7464 136.908C29.2756 138.214 29.4764 139.632 29.4917 141.035C29.4888 142.44 29.3026 143.854 28.8157 145.174Z" fill="#0075FB" fill-opacity="0.47"/>
<path d="M28.6612 145.448C27.436 145.541 26.2308 145.455 25.0308 145.327C23.8326 145.181 22.6397 144.992 21.4673 144.623C22.6931 144.529 23.8978 144.615 25.0978 144.744C26.2954 144.891 27.4889 145.08 28.6612 145.448Z" fill="#0075FB" fill-opacity="0.47"/>
<path d="M39.1578 161.598C37.7816 161.859 36.3637 161.909 34.9576 161.791C33.5492 161.681 32.1571 161.369 30.8197 160.907C29.4864 160.432 28.2043 159.807 27.0337 159.017L26.1738 158.402L25.3503 157.743L24.5803 157.024C24.3348 156.773 24.0946 156.518 23.8596 156.26C24.1392 156.472 24.4135 156.687 24.6825 156.906L25.5277 157.516L26.3864 158.098L27.2727 158.633C28.4703 159.314 29.7167 159.904 31.0141 160.353C32.3075 160.815 33.649 161.133 35.0105 161.345C36.3726 161.551 37.7593 161.617 39.1578 161.598Z" fill="#0075FB" fill-opacity="0.47"/>
<path d="M49.7959 178.793C47.981 179.327 46.095 179.628 44.1961 179.728C42.296 179.835 40.3818 179.705 38.5035 179.379C36.6275 179.039 34.7844 178.501 33.0411 177.735L31.7513 177.127L30.4979 176.452L29.2962 175.69C28.9079 175.418 28.525 175.141 28.1455 174.859C28.5602 175.088 28.9708 175.32 29.3766 175.557L30.6336 176.197L31.9087 176.791L33.2114 177.317C34.9641 177.971 36.7673 178.481 38.6068 178.801C40.4435 179.135 42.3125 179.277 44.1838 179.278C46.0556 179.273 47.9299 179.09 49.7959 178.793Z" fill="#0075FB" fill-opacity="0.47"/>
<path d="M61.1511 200.23C60.3758 200.61 59.5735 200.965 58.6919 201.106C58.2531 201.179 57.8009 201.163 57.3703 201.137C56.9369 201.113 56.5028 201.094 56.0699 201.053C54.3367 200.918 52.6146 200.623 50.9247 200.205C49.2373 199.778 47.5751 199.241 45.9793 198.549C45.184 198.198 44.394 197.836 43.6257 197.432C42.8622 197.019 42.1098 196.587 41.3844 196.113C42.175 196.468 42.9497 196.847 43.7514 197.168C44.5379 197.519 45.342 197.828 46.1484 198.124C47.7624 198.713 49.4029 199.221 51.0669 199.637C52.7285 200.066 54.4183 200.37 56.1187 200.623C56.5434 200.69 56.9709 200.736 57.3985 200.787C57.8273 200.845 58.2431 200.866 58.6643 200.843C59.5071 200.795 60.3318 200.499 61.1511 200.23Z" fill="#0075FB" fill-opacity="0.47"/>
<path d="M127.997 264.008C141.325 263.266 155.102 265.473 167.952 270.407C157.865 265.26 147.233 261.216 136.359 258.391C154.468 256.115 173.146 256.313 191.664 258.979C176.72 254.962 161.49 252.327 146.268 251.125C165.682 246.683 185.452 243.284 205.457 240.95C187.031 238.883 170.328 237.306 152.563 240.445C172.719 230.875 192.776 226.3 215.465 222.734C192.226 220.664 166.509 222.449 141.316 230.998C135.838 232.856 120.171 241.345 120.171 241.345L112.736 252.768L127.997 264.008Z" fill="#0075FB" fill-opacity="0.47"/>
<path d="M129.343 225.571C129.047 224.154 128.886 222.711 128.808 221.263C128.722 219.815 128.756 218.361 128.862 216.914C128.982 215.467 129.175 214.026 129.485 212.608C129.643 211.9 129.814 211.196 130.004 210.497C130.218 209.805 130.428 209.112 130.688 208.437C130.624 208.793 130.554 209.148 130.479 209.499L130.285 210.563C130.153 211.27 130.033 211.977 129.93 212.688C129.728 214.108 129.553 215.53 129.448 216.959C129.329 218.386 129.28 219.818 129.257 221.253C129.242 222.689 129.287 224.126 129.343 225.571Z" fill="#0075FB" fill-opacity="0.47"/>
<path d="M107.076 232.679C136.12 187.517 174.773 168.085 213.898 152.868C207.569 170.997 196.523 193.185 182.596 206.055C168.669 218.924 141.382 242.716 115.383 250.214" fill="#E6F1FF" fill-opacity="0.94"/>
<path d="M113.311 245.636L118.51 239.281L123.824 233.02L129.274 226.876L134.836 220.832C142.328 212.844 150.148 205.163 158.215 197.755C166.315 190.382 174.667 183.283 183.296 176.539L189.817 171.545L196.429 166.673L203.146 161.948L209.948 157.349L203.228 162.065L196.598 166.905L190.042 171.84L183.576 176.894C175.014 183.704 166.67 190.79 158.611 198.188C150.52 205.551 142.717 213.228 135.162 221.142L129.547 227.126L124.039 233.21L118.619 239.374L113.311 245.636Z" fill="#0075FB" fill-opacity="0.47"/>
<path d="M139.711 215.449C139.655 214.204 139.664 212.963 139.682 211.723C139.693 210.481 139.75 209.243 139.808 208.005C139.88 206.767 139.953 205.529 140.071 204.294L140.25 202.441C140.331 201.824 140.392 201.207 140.491 200.591C140.525 201.214 140.521 201.834 140.538 202.456L140.522 204.317C140.51 205.558 140.452 206.797 140.394 208.035C140.322 209.273 140.249 210.511 140.13 211.746C140.019 212.981 139.897 214.216 139.711 215.449Z" fill="#0075FB" fill-opacity="0.47"/>
<path d="M157.229 198.267C157.074 196.891 157.05 195.503 157.103 194.117C157.148 192.73 157.305 191.348 157.528 189.979C157.764 188.611 158.067 187.253 158.478 185.928C158.686 185.266 158.906 184.609 159.142 183.958C159.402 183.315 159.656 182.672 159.958 182.048C159.781 182.719 159.582 183.378 159.416 184.046C159.237 184.71 159.067 185.376 158.914 186.045C158.61 187.383 158.327 188.724 158.107 190.076C157.873 191.425 157.703 192.785 157.551 194.149C157.406 195.515 157.317 196.887 157.229 198.267Z" fill="#0075FB" fill-opacity="0.47"/>
<path d="M173.375 184.826C173.297 182.662 173.596 180.492 174.127 178.392C174.674 176.295 175.459 174.25 176.576 172.395C175.883 174.443 175.22 176.468 174.696 178.538C174.155 180.604 173.758 182.699 173.375 184.826Z" fill="#0075FB" fill-opacity="0.47"/>
<path d="M188.904 172.465C188.73 171.184 188.896 169.875 189.252 168.634C189.624 167.399 190.194 166.207 191.039 165.228C190.6 166.439 190.161 167.6 189.816 168.801C189.454 169.995 189.194 171.209 188.904 172.465Z" fill="#0075FB" fill-opacity="0.47"/>
<path d="M189.003 172.73C190.357 172.575 191.699 172.599 193.04 172.665C194.379 172.749 195.716 172.877 197.042 173.186C195.689 173.342 194.347 173.319 193.006 173.251C191.667 173.165 190.33 173.037 189.003 172.73Z" fill="#0075FB" fill-opacity="0.47"/>
<path d="M173.551 185.172C175.077 185.41 176.605 185.571 178.134 185.607C179.662 185.637 181.189 185.577 182.702 185.387C184.217 185.21 185.714 184.904 187.191 184.511L188.294 184.192L189.383 183.825L190.466 183.432C190.82 183.282 191.178 183.139 191.54 182.999C191.207 183.195 190.871 183.387 190.531 183.573L189.49 184.092L188.417 184.542L187.322 184.943C185.849 185.446 184.319 185.776 182.773 185.969C181.225 186.149 179.66 186.194 178.11 186.055C176.56 185.925 175.024 185.646 173.551 185.172Z" fill="#0075FB" fill-opacity="0.47"/>
<path d="M157.683 198.507C159.689 199.083 161.717 199.547 163.768 199.85C165.819 200.147 167.886 200.319 169.954 200.32C172.023 200.336 174.091 200.182 176.144 199.903L177.68 199.661L179.206 199.356L180.727 199.009C181.228 198.87 181.731 198.737 182.238 198.608C181.752 198.797 181.263 198.981 180.771 199.159L179.276 199.635L177.754 200.025L176.215 200.349C174.153 200.738 172.051 200.91 169.95 200.908C167.85 200.891 165.75 200.701 163.691 200.294C161.634 199.894 159.611 199.312 157.683 198.507Z" fill="#0075FB" fill-opacity="0.47"/>
<path d="M139.979 215.444C140.851 215.835 141.725 216.247 142.652 216.4C143.113 216.483 143.579 216.516 144.059 216.536C144.534 216.563 145.011 216.585 145.487 216.595C147.391 216.646 149.295 216.646 151.195 216.541C153.095 216.449 154.991 216.273 156.88 216.028C157.824 215.904 158.769 215.768 159.707 215.594C160.652 215.451 161.585 215.25 162.528 215.076C161.619 215.38 160.695 215.638 159.766 215.879C158.835 216.109 157.894 216.299 156.95 216.478C155.06 216.83 153.144 217.025 151.224 217.127C149.303 217.217 147.377 217.203 145.462 217.036C144.983 216.999 144.506 216.95 144.029 216.896C143.555 216.845 143.065 216.797 142.593 216.669C141.642 216.415 140.792 215.944 139.979 215.444Z" fill="#0075FB" fill-opacity="0.47"/>
<path d="M127.253 229.636C128.774 229.758 130.288 229.865 131.803 229.904C133.318 229.937 134.831 229.938 136.341 229.863C137.853 229.802 139.359 229.665 140.865 229.496C141.617 229.409 142.368 229.304 143.118 229.186L144.245 229.012C144.619 228.942 144.995 228.879 145.373 228.82C144.651 229.07 143.913 229.267 143.175 229.469C142.432 229.644 141.683 229.801 140.931 229.943C139.425 230.219 137.898 230.374 136.368 230.45C134.837 230.511 133.303 230.494 131.778 230.353C130.253 230.219 128.736 229.997 127.253 229.636Z" fill="#0075FB" fill-opacity="0.47"/>
<path d="M68.7732 246.964C64.3481 247.42 59.923 247.876 55.4985 248.333C52.6234 248.63 49.5862 248.902 46.9607 247.692C44.3353 246.483 42.4246 243.22 43.7185 240.635C45.305 237.466 50.4132 237.212 51.6454 233.889C48.3422 230.712 43.2915 230.373 38.709 230.47C34.1271 230.568 29.228 230.842 25.3086 228.466C21.3892 226.09 19.5649 219.819 23.1377 216.949C24.5832 215.788 26.5133 215.466 28.1778 214.65C29.8424 213.834 31.3777 212.044 30.7898 210.286C30.4033 209.132 29.245 208.44 28.1461 207.915C23.607 205.743 18.6304 204.672 13.9081 202.935C9.1858 201.198 4.50814 198.6 1.84978 194.327C-0.808567 190.055 -0.764515 183.803 3.04974 180.521C7.40025 176.779 14.3686 178.468 18.7937 182.121C23.2188 185.775 26.1062 190.947 30.1102 195.057C31.4817 196.465 33.4933 197.833 35.2683 196.988C37.5649 195.893 37.0257 192.55 36.4195 190.079C35.8134 187.608 36.4418 183.945 38.9827 184.065C39.815 184.104 40.5521 184.607 41.1677 185.169C47.7207 191.153 43.9899 202.248 47.2902 210.485C48.0197 212.306 49.6379 214.226 51.5491 213.786C55.3375 212.916 53.2137 205.324 56.9604 204.288C58.612 203.832 60.2484 205.2 61.0307 206.725C63.722 211.973 60.1538 218.304 60.8475 224.161C61.7655 231.91 69.5749 236.671 76.602 240.063" fill="#0075FB" fill-opacity="0.47"/>
<path d="M120.615 211.002C121.83 205.775 123.073 200.546 124.703 195.43C126.304 190.404 128.287 185.468 131.031 180.95C132.394 178.706 133.943 176.575 135.701 174.622C137.605 172.508 139.733 170.611 141.91 168.783C144.066 166.972 146.274 165.224 148.389 163.363C150.441 161.557 152.378 159.629 154.151 157.546C157.694 153.381 160.62 148.697 162.828 143.695C163.092 143.096 163.346 142.492 163.591 141.886C163.733 141.536 163.165 141.383 163.025 141.73C160.964 146.832 158.167 151.65 154.719 155.942C153.008 158.07 151.137 160.063 149.128 161.911C147.052 163.818 144.855 165.584 142.684 167.378C140.496 169.186 138.33 171.03 136.351 173.068C134.508 174.967 132.858 177.045 131.405 179.257C128.543 183.616 126.446 188.439 124.767 193.363C123.026 198.466 121.723 203.705 120.492 208.95C120.343 209.582 120.196 210.213 120.049 210.846C119.964 211.213 120.529 211.37 120.615 211.002Z" fill="#0075FB" fill-opacity="0.47"/>
<path d="M159.665 148.869C160.154 143.119 160.957 136.695 165.093 132.97C165.909 132.236 166.875 131.625 167.912 131.565C168.949 131.506 170.045 132.132 170.325 133.213C170.505 133.91 170.334 134.668 170.117 135.367C168.357 141.039 163.795 145.109 159.463 148.836" fill="#0075FB" fill-opacity="0.47"/>
<path d="M154.666 155.727C157.14 153.981 159.936 152.805 162.81 152.298C164.355 152.026 166.021 151.971 167.341 152.819C168.661 153.667 169.415 155.691 168.565 157.149C167.755 158.54 166.019 158.778 164.536 158.782C160.942 158.791 157.363 158.305 153.912 157.34" fill="#0075FB" fill-opacity="0.47"/>
<path d="M148.918 162.192C151.314 157.344 151.94 154.056 151.499 148.669C151.378 147.197 151.106 145.646 150.173 144.608C149.24 143.569 147.449 143.35 146.578 144.521C145.978 145.327 146 146.456 146.066 147.471C146.383 152.442 147.2 158.614 148.052 163.489" fill="#0075FB" fill-opacity="0.47"/>
<path d="M140.768 169.22C144.65 166.439 149.695 165.787 153.915 167.522C155.028 167.979 156.139 168.65 156.71 169.786C157.279 170.923 157.081 172.616 156.026 173.292C155.329 173.738 154.475 173.647 153.693 173.522C149.253 172.806 144.927 171.411 140.878 169.391" fill="#0075FB" fill-opacity="0.47"/>
<path d="M137.796 171.547C139.569 166.612 139.947 161.136 138.864 156.078C138.755 155.572 138.597 155.017 138.18 154.773C137.287 154.248 136.371 155.557 136.048 156.639C134.571 161.584 135.331 168.392 136.888 173.186" fill="#0075FB" fill-opacity="0.47"/>
<path d="M133.042 178.135C135.847 176.648 139.338 176.994 141.74 178.995C142.526 179.651 143.242 180.801 142.735 181.772C142.354 182.504 141.482 182.701 140.724 182.757C137.849 182.969 134.191 181.025 131.71 179.534" fill="#0075FB" fill-opacity="0.47"/>
<path d="M163.711 55.2778L164.442 53.7712L164.687 53.9251L163.711 55.2778Z" fill="#0075FB"/>
<path d="M166.261 50.7928C166.922 49.8301 167.66 48.9203 168.437 48.0428L169.228 48.8146C168.397 49.5852 167.614 50.4104 166.851 51.2574L166.261 50.7928Z" fill="#0075FB"/>
<path d="M170.939 45.5613C171.818 44.7778 172.748 44.05 173.722 43.384L174.58 44.6826C173.632 45.2876 172.707 45.9319 171.81 46.6162L170.939 45.5613Z" fill="#0075FB"/>
<path d="M176.737 41.5303L179.945 40.0296L180.592 41.6419L177.519 43.0286L176.737 41.5303Z" fill="#0075FB"/>
<path d="M183.287 38.869L186.722 38.0467L187.054 39.7054L183.779 40.5377L183.287 38.869Z" fill="#0075FB"/>
<path d="M190.214 37.5668L191.968 37.4481C192.552 37.4041 193.138 37.4152 193.723 37.4017L193.77 38.7738C193.205 38.8255 192.639 38.8554 192.078 38.9335L190.391 39.1174L190.214 37.5668Z" fill="#0075FB"/>
<path d="M197.222 37.5421C198.38 37.6848 199.538 37.8146 200.687 37.9768L200.605 38.7274C199.457 38.7198 198.316 38.6786 197.178 38.6516L197.222 37.5421Z" fill="#0075FB"/>
<path d="M204.101 38.6945L205.712 39.1485L204.051 38.9811L204.101 38.6945Z" fill="#0075FB"/>
<path d="M209.96 47.8866C192.663 41.0469 173.099 49.4549 166.262 66.6672C161.978 77.4522 163.709 89.134 169.854 98.0376C169.908 98.3871 170.098 98.6773 170.469 98.8887C170.479 98.9022 170.488 98.9157 170.498 98.9292L160.13 114.044C159.569 114.861 160.541 115.908 161.474 115.493L179.642 107.397C181.377 108.485 183.229 109.437 185.202 110.218C202.499 117.057 222.064 108.649 228.9 91.437C235.737 74.2247 227.258 54.7264 209.96 47.8866Z" fill="white" stroke="#0075FB" stroke-miterlimit="10"/>
<path d="M206.673 98.447H188.914C183.945 98.447 179.917 94.4184 179.917 89.4494V67.0889C179.917 62.1194 183.945 58.0913 188.914 58.0913H206.673C211.642 58.0913 215.67 62.12 215.67 67.0889V89.4494C215.67 94.419 211.642 98.447 206.673 98.447Z" fill="white" stroke="#0075FB" stroke-miterlimit="10"/>
<g opacity="0.46">
<path d="M184.606 71.2127H186.617V78.2733H185.283V72.4749H183.828L184.606 71.2127Z" fill="#0075FB"/>
<path d="M191.345 71.0353L192.489 71.608L191.254 74.0067C191.852 74.0067 192.361 74.2211 192.78 74.6499C193.199 75.0787 193.409 75.6114 193.409 76.2481C193.409 76.8625 193.194 77.3834 192.764 77.8104C192.333 78.2374 191.814 78.4512 191.206 78.4512C190.569 78.4512 190.038 78.2298 189.615 77.7863C189.191 77.3429 188.979 76.8354 188.979 76.2628C188.979 76.0449 189.011 75.8258 189.077 75.6049C189.143 75.3841 189.295 75.0452 189.531 74.5876L191.345 71.0353ZM191.177 75.2784C190.927 75.2784 190.717 75.3688 190.548 75.5497C190.379 75.73 190.294 75.9573 190.294 76.2287C190.294 76.5006 190.383 76.7297 190.56 76.9153C190.737 77.1009 190.945 77.1937 191.181 77.1937C191.431 77.1937 191.646 77.1027 191.824 76.92C192.004 76.7373 192.093 76.5071 192.093 76.2287C192.093 75.9568 192.006 75.73 191.832 75.5497C191.658 75.3688 191.439 75.2784 191.177 75.2784Z" fill="#0075FB"/>
</g>
<path d="M208.155 58.0913H187.432C183.281 58.0913 179.917 61.7159 179.917 66.1868V67.671H215.67V66.1868C215.67 61.7159 212.305 58.0913 208.155 58.0913Z" fill="#0075FB"/>
<g opacity="0.61">
<path d="M200.897 62.9487C200.897 63.731 200.262 64.3654 199.48 64.3654C198.698 64.3654 198.063 63.731 198.063 62.9487C198.063 62.1663 198.698 61.532 199.48 61.532C200.262 61.532 200.897 62.1663 200.897 62.9487Z" fill="white"/>
<path d="M205.619 62.9486C205.619 63.731 204.985 64.3653 204.202 64.3653C203.42 64.3653 202.786 63.731 202.786 62.9486C202.786 62.1663 203.42 61.5319 204.202 61.5319C204.985 61.5319 205.619 62.1663 205.619 62.9486Z" fill="white"/>
<path d="M209.059 64.3653C209.842 64.3653 210.476 63.731 210.476 62.9486C210.476 62.1662 209.842 61.5319 209.059 61.5319C208.277 61.5319 207.642 62.1662 207.642 62.9486C207.642 63.731 208.277 64.3653 209.059 64.3653Z" fill="white"/>
</g>
<path d="M221.337 69.3126C219.519 71.4905 217.641 73.6085 215.729 75.6924C213.82 77.7793 211.883 79.838 209.92 81.8708C208.946 82.8957 207.954 83.9007 206.96 84.905C205.964 85.9071 204.985 86.9261 203.972 87.9111L200.955 90.8878L197.898 93.8246L197.306 94.3931L196.791 93.7893C196.005 92.8672 195.245 91.9209 194.471 90.9876C193.695 90.0561 192.942 89.1046 192.182 88.1584C191.418 87.2163 190.68 86.2513 189.931 85.2962C189.191 84.333 188.459 83.3632 187.742 82.38C188.628 83.2146 189.499 84.0628 190.361 84.9168C191.215 85.7796 192.081 86.6324 192.92 87.5082C193.764 88.3798 194.613 89.2462 195.441 90.1325C196.27 91.017 197.114 91.8886 197.931 92.7844L196.823 92.7503L199.761 89.6937L202.737 86.6765C203.723 85.6639 204.742 84.6854 205.744 83.6892C206.748 82.6954 207.754 81.7028 208.778 80.7296C210.811 78.766 212.87 76.829 214.957 74.9201C217.041 73.0077 219.159 71.1299 221.337 69.3126Z" fill="#0075FB"/>
<mask id="mask2_25_627" style="mask-type:luminance" maskUnits="userSpaceOnUse" x="3" y="4" width="261" height="261">
<path d="M133.22 264.619C205.109 264.619 263.387 206.342 263.387 134.452C263.387 62.563 205.109 4.28528 133.22 4.28528C61.3304 4.28528 3.05267 62.563 3.05267 134.452C3.05267 206.342 61.3304 264.619 133.22 264.619Z" fill="white"/>
</mask>
<g mask="url(#mask2_25_627)">
<path d="M121.346 66.538C117.122 57.2937 104.823 52.6002 94.9332 54.9431C85.0428 57.2861 77.3409 65.6447 73.6999 75.1339C70.5558 83.3286 70.046 92.2987 67.4622 100.687C65.2614 107.833 61.5446 114.508 56.6297 120.143C52.1376 125.293 46.6177 129.642 43.1723 135.544C38.6973 143.208 38.3507 153.128 42.2801 161.086C46.2095 169.044 54.2961 174.799 63.1023 175.906C72.336 177.066 81.8881 173.438 90.8975 175.771C95.4765 176.957 99.6402 179.635 104.332 180.236C112.433 181.275 120.347 175.534 123.721 168.096C127.095 160.659 126.64 151.989 124.58 144.086C122.348 135.521 118.314 127.325 117.782 118.49C117.191 108.699 119.433 102.191 120.104 92.4061C120.692 83.8214 127.297 79.5619 121.346 66.538Z" fill="#38303B"/>
<path d="M89.8779 248.756C101.342 296.134 111.719 345.911 127.171 391.972C128.399 395.633 130.178 401.936 131.93 402.147C134.381 402.442 136.478 402.112 138.783 401.648C140.688 401.265 141.991 399.52 141.772 397.605C133.782 327.563 134.241 256.877 117.283 188.681C116.683 186.27 85.5667 190.322 85.5667 190.322" fill="#38303B"/>
<path d="M18.6093 390.325C19.0469 391.53 20.4495 392.095 21.5825 391.495C38.1369 382.737 52.597 368.136 64.5871 350.047C82.1912 323.49 92.9456 302.48 102.396 271.13C109.662 247.023 115.725 221.755 113.082 196.573C101.607 197.49 90.1727 199.026 78.838 201.171C76.5221 201.61 75.9876 201.788 74.3583 203.616C72.7983 205.366 72.0071 209.862 71.6213 212.252C67.2473 239.366 66.8655 265.82 61.5723 292.744C55.1719 325.296 40.6731 359.414 16.2998 379.837C15.612 380.413 15.3507 381.349 15.6567 382.192L18.6093 390.325Z" fill="#38303B"/>
<path d="M65.7677 225.77L67.0352 230.248C67.5421 232.451 70.0078 235.481 72.783 235.478C89.694 235.461 106.606 235.26 123.514 234.875C124.869 234.844 126.362 234.767 127.337 234C128.168 233.346 128.402 232.358 128.595 231.438C129.142 228.821 129.689 226.205 130.237 223.59" fill="#0075FB"/>
<path d="M161.138 208.101C163.629 210.672 173.033 221.984 174.626 225.123C176.35 228.518 177.583 232.286 180.177 235.091C180.682 235.636 181.875 235.115 181.962 234.33C182.123 232.888 182.054 231.473 181.76 230.136C181.591 229.371 182.747 228.668 183.435 229.105C183.948 229.432 184.374 229.914 184.709 230.375C186.804 233.256 188.906 235.247 191.002 238.128C191.887 239.345 193.23 241.2 194.435 242.16C195.002 242.612 195.374 241.982 195.228 241.285C195.101 240.683 194.107 238.529 194.31 238.758C194.764 239.269 195.915 238.811 195.645 237.737C194.506 233.19 191.568 227.715 189.523 225.021C184.377 218.248 172.919 210.466 167.792 203.228" fill="#F7B094"/>
<path d="M110.28 153.057C122.484 173.756 139.708 193.443 160.219 210.134C162.435 211.938 164.067 213.434 166.293 212.783C169.411 211.87 174.269 208.957 172.03 205.929C161.455 191.634 147.543 175.495 141.966 160.388C139.452 153.577 137.471 146.732 134.094 139.976C130.717 133.219 125.751 125.641 118.71 121.477" fill="#0075FB"/>
<path d="M71.8785 231.573C68.2246 231.694 65.3319 228.131 64.7328 224.525C64.1331 220.919 68.1171 213.053 67.5016 209.276C66.6305 203.934 60.7482 156.542 70.9434 130.508C73.2658 124.577 77.2175 118.607 83.3542 116.902C86.5975 116 90.0359 116.414 93.4008 116.502C100.414 116.686 107.824 115.492 114.156 118.513C124.949 123.661 127.079 137.825 127.791 149.762C128.385 159.721 128.978 169.679 129.572 179.637C130.312 192.047 134.761 203.358 131.13 213.383C130.061 216.335 134.164 224.722 132.167 227.144C129.94 229.845 123.91 228.955 120.413 229.116C105.985 229.779 91.5559 230.443 77.1271 231.107" fill="#9DCBFF"/>
<path d="M132.907 144.025L130.814 142.012C130.695 141.898 130.691 141.707 130.806 141.588L151.939 119.605C152.054 119.485 152.244 119.481 152.363 119.596L154.457 121.609C154.576 121.724 154.58 121.914 154.465 122.033L133.331 144.016C133.217 144.136 133.026 144.139 132.907 144.025Z" fill="#38303B"/>
<path d="M98.1284 198.128C94.9755 200.832 86.6657 205.291 83.2784 207.694C80.7469 209.49 76.2889 207.728 72.5951 203.784C70.046 201.061 68.022 195.557 66.9166 191.994C64.8303 185.268 63.981 175.922 63.6268 167.692C63.1593 156.833 64.3287 146.996 65.319 139.048C66.3093 131.101 71.9408 120.369 77.6833 118.124C85.9426 114.895 89.5965 118.327 90.83 130.597C91.7128 139.384 89.7469 146.86 88.4594 161.752C87.8768 168.492 87.2336 180.564 87.2336 180.564L98.1284 198.128Z" fill="#0075FB"/>
<path d="M112.261 161.132C114.79 158.61 124.406 147.499 126.085 144.405C127.9 141.058 129.252 137.337 131.892 134.585C132.406 134.049 133.547 134.58 133.601 135.359C133.7 136.79 133.577 138.192 133.236 139.514C133.041 140.271 135.815 141.07 136.503 140.644C137.016 140.325 145.603 131.329 145.81 131.104C146.273 130.602 147.376 131.069 147.071 132.131C145.778 136.626 142.697 142.021 140.596 144.669C135.311 151.327 123.835 158.916 118.551 166.035" fill="#F7B094"/>
<path d="M82.9512 207.495C87.0321 206.723 95.7291 201.054 99.4646 196.569C105.356 189.496 124.099 166.558 124.556 162.756C124.751 161.141 119.478 156.532 117.411 154.446C116.179 153.202 106.193 165.013 100.881 169.672C99.2338 171.116 89.5907 178.743 84.9982 181.965" fill="#0075FB"/>
<path d="M80.0227 182.433C84.7568 181.442 88.988 178.979 92.8405 176.167C96.6911 173.316 100.287 170.126 103.741 166.794C107.224 163.489 110.566 160.035 113.897 156.572L115.148 155.274L115.461 154.95C115.565 154.839 115.698 154.716 115.839 154.63C116.122 154.444 116.457 154.348 116.791 154.341C117.126 154.338 117.462 154.425 117.746 154.603C118.043 154.786 118.226 155.032 118.442 155.235L119.708 156.518L124.733 161.694L119.506 156.723L118.209 155.47C117.986 155.266 117.789 155.028 117.565 154.904C117.335 154.767 117.066 154.704 116.8 154.712C116.534 154.725 116.272 154.806 116.054 154.957C115.842 155.092 115.661 155.338 115.448 155.556L114.225 156.883C110.958 160.414 107.608 163.87 104.146 167.218C100.649 170.524 97.0394 173.738 93.1018 176.534C91.1189 177.907 89.0673 179.193 86.8906 180.241C84.7068 181.265 82.4003 182.054 80.0227 182.433Z" fill="white"/>
<path d="M86.3725 180.186C85.1444 179.665 83.9415 179.193 82.7139 178.749C81.4858 178.306 80.2653 177.893 78.9772 177.548C79.6462 177.477 80.3228 177.546 80.9801 177.667C81.6403 177.786 82.2834 177.975 82.9136 178.197C83.5397 178.431 84.1535 178.698 84.7379 179.025C85.3218 179.349 85.8874 179.721 86.3725 180.186Z" fill="white"/>
<path d="M91.4737 115.515C92.6514 110.613 94.3658 103.395 95.174 100.085C95.5065 98.7242 95.8389 97.3628 96.2166 96.0142C96.3017 95.7094 96.4039 95.3804 96.6148 95.1878C96.791 95.0263 97.0077 94.9946 97.2104 94.9875C99.2085 94.917 100.765 96.5927 102.524 97.519C104.673 98.6514 107.194 98.6708 109.383 99.7028C109.646 99.8273 109.928 99.9994 110.002 100.351C110.044 100.555 110.007 100.785 109.969 101.004C109.295 104.984 108.681 115.887 108.283 120.948C108.06 123.776 103.02 125.397 97.9199 123.976C91.7821 122.265 91.005 117.466 91.4737 115.515Z" fill="#FFE8DF"/>
<path d="M96.6154 95.1878C96.7916 95.0263 97.0083 94.9946 97.211 94.9875C99.2085 94.917 100.766 96.5927 102.524 97.519C104.674 98.6514 107.194 98.6708 109.383 99.7028C109.646 99.8273 109.929 99.9994 110.002 100.351C110.045 100.555 110.008 100.785 109.97 101.004C109.593 103.229 109.216 105.454 108.839 107.678C106.495 108.712 104.075 109.167 101.785 108.736C98.6429 108.145 95.8424 105.664 94.7012 102.023C94.8586 101.377 95.0166 100.731 95.174 100.085C95.5065 98.7242 95.8389 97.3628 96.2172 96.0142C96.3023 95.7088 96.4045 95.3804 96.6154 95.1878Z" fill="#FFE8DF"/>
<path d="M91.6382 91.7823C88.7255 91.4146 86.039 89.8088 85.5262 87.6232C85.0134 85.4377 87.233 82.9021 90.2039 82.7482" fill="#FFE8DF"/>
<path d="M91.3656 91.9896C94.6295 102.871 102.388 104.12 110.536 106.564C111.975 106.995 114.369 107.143 115.883 106.947C119.603 106.465 121.218 102.874 121.891 99.8437C123.064 94.5687 123.594 89.1991 123.471 83.8395C123.386 80.151 122.965 76.3802 121.079 73.0305C119.192 69.6808 115.599 66.7905 111.157 66.1538C105.625 65.3615 100.178 68.1702 96.5578 71.6849C91.2153 76.8712 88.5828 84.1655 90.9674 90.6569" fill="#FFE8DF"/>
<path d="M123.457 83.6646C123.525 87.0618 123.65 86.4968 124.018 88.4309C124.058 88.6406 124.512 90.2899 125.675 91.047C126.593 91.6437 126.842 93.0275 126.061 93.8058C125.626 94.2386 125.195 94.4348 124.577 94.5558C123.706 94.7261 122.845 94.5082 122.332 93.794" fill="#FFE8DF"/>
<path d="M83.2637 83.8484C91.4549 82.9216 98.9712 79.8544 105.766 76.197C108.939 74.4895 112.047 72.5983 114.199 70.0785C115.371 68.7059 116.224 66.8446 115.112 65.3944C113.902 63.8156 111.136 63.6523 108.853 63.8274C107.2 63.9542 105.559 64.1598 103.941 64.4423C101.211 64.9198 98.5154 65.6305 96.1983 66.8487C93.5365 68.2484 91.489 70.2512 89.5102 72.24C87.4815 74.2787 85.3987 76.5006 85.1838 79.1226" fill="#38303B"/>
<path d="M111.542 77.9354C111.429 78.0265 111.571 78.1692 111.741 78.1798C111.912 78.1903 112.073 78.1204 112.222 78.057C114.032 77.2876 116.337 77.1061 118.277 77.5807C118.575 77.6535 118.879 77.7422 119.2 77.7234C119.522 77.7046 119.863 77.5319 119.853 77.3152C119.849 77.2224 119.782 77.1378 119.704 77.0626C119.376 76.7466 118.848 76.5528 118.306 76.4224C116.555 76.0031 114.474 76.1892 112.867 76.9082C112.267 77.1772 111.71 77.5372 111.487 77.9965" fill="#38303B"/>
<g opacity="0.54">
<path d="M102.939 91.7265C102.899 94.4095 105.197 96.6021 108.072 96.6232C110.946 96.6444 113.308 94.4864 113.347 91.8034C113.387 89.1198 111.088 86.9278 108.214 86.9067C105.34 86.8849 102.978 89.0434 102.939 91.7265Z" fill="url(#paint0_radial_25_627)"/>
</g>
<path d="M115.444 83.3609C115.546 84.6724 116.262 85.7026 117.041 85.6621C117.821 85.6216 118.37 84.5256 118.268 83.214C118.166 81.9025 117.45 80.8722 116.67 80.9134C115.891 80.9539 115.342 82.0499 115.444 83.3609Z" fill="#38303B"/>
<path d="M89.4215 116.728C91.2458 121.18 95.2715 124.431 100.098 124.971C105.182 125.54 110.221 122.422 110.843 117.138C110.936 116.35 110.102 115.67 109.374 115.67C108.503 115.67 107.999 116.347 107.906 117.138C107.468 120.854 103.286 122.525 100 122.017C96.6318 121.497 93.5512 119.114 92.2537 115.948C91.953 115.215 91.2781 114.694 90.4476 114.922C89.7528 115.113 89.119 115.99 89.4215 116.728Z" fill="#F4F6F9"/>
</g>
<defs>
<radialGradient id="paint0_radial_25_627" cx="0" cy="0" r="1" gradientUnits="userSpaceOnUse" gradientTransform="translate(108.143 91.7649) rotate(97.7339) scale(4.77848 5.11907)">
<stop stop-color="#F8BDA6"/>
<stop offset="0.816355" stop-color="#F8BDA6" stop-opacity="0"/>
</radialGradient>
</defs>
</svg>
